<?xml version="1.0" encoding="UTF-8" standalone="no"?>
<svg
   xmlns:dc="http://purl.org/dc/elements/1.1/"
   xmlns:cc="http://creativecommons.org/ns#"
   xmlns:rdf="http://www.w3.org/1999/02/22-rdf-syntax-ns#"
   xmlns:svg="http://www.w3.org/2000/svg"
   xmlns="http://www.w3.org/2000/svg"
   height="425.19922"
   width="1134.0703"
   xml:space="preserve"
   viewBox="0 0 1134.0703 425.19921"
   y="0px"
   x="0px"
   id="Capa_1"
   version="1.1"><metadata
   id="metadata571"><rdf:RDF><cc:Work
       rdf:about=""><dc:format>image/svg+xml</dc:format><dc:type
         rdf:resource="http://purl.org/dc/dcmitype/StillImage" /><dc:title></dc:title></cc:Work></rdf:RDF></metadata><defs
   id="defs569">
	
	
	
	

	
	

	
	
	
	
	
	
	
	
	
	
	
	
	
	
	
	
	

	
	

	
	
	

	
	
	
	
	
	
	
	
	
	
	
	
	
	
	
	
	
	
	
	
	
	
	
	
	
	
	
	
	
	

	
	
	
	
	
	
	
	
	
	
	
	
	
	
	
	
	
	
	
	
	
	
	
	
	
	
	
	
	
	

	
	
	
	
	
	
	
	
	
	
	
	
	
	
	
	
	
	
	
	
	
	
	
	
	
	
	
	
	
	

	
	
	

	
	
	

		
		
		
		
		
		
	
		
		
		
		
		
		
	
		
		
		
		
		
		
	
		
		
		
		
		
		
	
		
		
		
		
		
		
	
		
		
		
		
		
		
	
		
		
		
		
		
		
	
		
		
		
		
		
		
	
		
		
		
		
		
		
	
		
		
		
		
		
		
	
		
		
		
		
		
		
	
		
		
		
		
		
		
	
		
		
	
		
		
		
		
		
		
		
		
		
		
		
		
		
		
		
		
		
		
		
		
		
		
	
		
		
	
		
		
	
		
		
		
		
		
		
		
		
		
		
		
		
		
		
		
		
		
		
		
		
		
		
		
	
		
		
	
			
			
		
			
			
		
			
			
		
			
		
			
			
			
		
			
			
		
			
			
		
			
			
		
				
				
			
				
				
			</defs>
<style
   id="style2"
   type="text/css">
	.st0{fill:#C6CAE6;}
	.st1{opacity:0.4;fill:#FFFFFF;}
	.st2{opacity:0.8;fill:#C6CAE6;}
	.st3{fill:#282660;}
	.st4{fill:#FFFFFF;}
	.st5{fill:#BEB9DC;}
	.st6{fill:#A3ABD6;}
	.st7{opacity:0.5;fill:#A3ABD6;}
	.st8{fill:#495BA9;}
	.st9{fill:#FAA229;}
	.st10{opacity:0.5;fill:#FAA229;}
	.st11{fill:#2E3192;}
	.st12{fill:#E5846F;}
	.st13{fill:#F79E8C;}
	.st14{fill:#FDBC56;}
</style>
<path
   id="rect4"
   d="m 0,0 v 425.19922 h 1134.0703 v -0.0488 H 567.08984 0.06054 V 254.4707 c 11.8,2.69 24.00914,3.87891 35.86914,4.12891 10.05,0.21 20.16047,-0.52883 30.23047,-1.79883 v -69.85156 c -1.94,-0.93 -3.79883,-2.05984 -5.54883,-3.33984 -0.39,-0.27001 -0.77062,-0.55008 -1.14062,-0.83008 -2.11,-1.61 -3.99914,-3.47 -5.61914,-5.5 -0.32,-0.41 -0.64141,-0.82024 -0.94141,-1.24024 -2.31,-3.19 -4.86016,-7.49961 -2.16015,-11.09961 1.04998,-1.58 3.30007,-1.71976 4.33007,-3.25976 0.39,-0.47 0.67055,-1.00985 0.81055,-1.58985 0.13996,-0.59 0.14094,-1.22015 -0.0391,-1.91015 -0.12,-0.43 -0.27117,-0.84047 -0.45117,-1.23047 -0.18,-0.39 -0.37938,-0.75914 -0.60938,-1.11914 -0.14,-0.67 -0.73945,-1.11063 -1.18945,-1.39063 -0.87,-0.7 -1.70094,-1.43875 -2.46094,-2.21875 -0.25,-0.26 -0.50023,-0.53101 -0.74023,-0.79101 -0.3,-0.3 -0.57961,-0.60016 -0.84961,-0.91016 -1.25,-1.52 -2.30008,-3.21953 -3.08008,-5.01953 -0.2,-0.45 -0.3693,-0.90914 -0.5293,-1.36914 -0.6,-2.02 -0.83047,-4.14023 -0.73047,-6.24024 0.03,-0.53 0.0706,-1.05031 0.14063,-1.57031 0.59,-4.15 2.38969,-8.61 6.17968,-11 0.41001,-0.24 0.80946,-0.48 1.18946,-0.75 0.38,-0.27 0.7293,-0.56062 1.0293,-0.89062 0.14999,-0.29 0.30039,-0.71977 0.15039,-1.00977 -0.3,-0.85999 -0.79883,-1.68023 -1.29883,-2.49023 -0.25,-0.41 -0.51024,-0.82047 -0.74024,-1.23047 -1.44,-3.4 -1.35047,-6.75883 -0.23047,-9.79883 0.19,-0.51 0.40039,-1.01 0.65039,-1.5 0.64001,-1.4 1.45899,-2.82992 2.45899,-4.16992 0.33,-0.45 0.68103,-0.88055 1.04101,-1.31055 0.59001,-0.85 1.25977,-1.64914 2.00977,-2.369139 0.37,-0.36 0.75992,-0.70125 1.16992,-1.03125 0.38,-0.35 0.77922,-0.690234 1.19922,-0.990234 3.34,-2.719965 8.59063,-2.860235 11.89063,0.0098 1.5,1.58 0.60078,3.591323 1.05078,5.611323 0.15,0.43 0.29843,0.71906 0.64844,1.03906 0.22,0.29 0.47,0.56032 0.75,0.82032 0.27998,0.26 0.58039,0.50046 0.90039,0.73046 0.39,0.28 0.81,0.55032 1.25,0.82032 0.32,0.22 0.65976,0.44039 1.00976,0.65039 2.16,0.95 4.22055,2.31883 5.81055,4.04883 0.32,0.35 0.62062,0.71007 0.89062,1.08007 0.52,0.77 0.97914,1.61 1.36914,2.5 0.39,0.89 0.69969,1.83102 0.92969,2.79102 0.82,4.07 0.67063,9.2382 -2.85937,12.1582 -0.29,0.24 -0.59969,0.46188 -0.92969,0.67188 -0.33,0.21 -0.68102,0.38859 -1.04102,0.55859 -0.79,0.59 -1.69015,0.45102 -2.41015,0.79102 -0.59,0.2 -1.17977,0.39031 -1.75977,0.57031 -3.45,1.13 -6.33031,2.39851 -6.07031,4.97852 0.06,0.96998 1.12062,1.46125 2.64062,1.78124 0.51,0.11002 1.06039,0.19907 1.65039,0.28907 2.46,0.52 4.85985,0.52109 7.08985,1.62109 0.42,0.19 0.80969,0.37836 1.17969,0.56837 1.24,0.78 2.14087,1.64116 2.63085,2.95116 0.12001,0.29 0.21907,0.59992 0.28907,0.91992 0.06,0.32 0.0998,0.65 0.0898,1 -0.02,0.39 -0.0501,0.78016 -0.0801,1.16016 -0.03,0.42 -0.0696,0.83 -0.0996,1.25 -0.04,0.41 -0.0806,0.82024 -0.14062,1.24023 -1.07,3.37002 -3.06875,6.23883 -5.21875,9.04883 l -0.81055,1.05078 c -0.31,0.39 -0.60086,0.79922 -0.88086,1.19922 -0.66,0.88 -1.49867,1.70024 -2.38867,2.49024 -0.29,0.26 -0.59039,0.53101 -0.90039,0.79101 -2.06,1.98 -6.25937,4.71922 -3.85938,7.44922 0.70001,0.85 1.57,1.57047 2.5,2.23047 0.31002,0.22 0.61946,0.44039 0.93946,0.65039 1.72,1.12 3.57054,2.59008 4.81054,4.33008 0.25001,0.35 0.47993,0.71008 0.66993,1.08008 1.58,2.49 1.57851,6.07984 -0.52149,8.08984 -0.42,0.36001 -0.86812,0.6093 -1.32812,0.7793 -0.46,0.17 -0.94188,0.24929 -1.42188,0.27931 -0.49,-0.02 -0.97875,-0.0496 -1.46875,-0.0996 -0.49,-0.05 -0.97095,-0.10946 -1.46093,-0.18946 -1.91001,-0.16 -3.73001,-0.54937 -5.5,-1.10937 v 67.80859 c 8.45998,-1.18 16.86062,-2.70984 25.14062,-4.33984 13.02,-2.56 25.86906,-6.06039 38.53906,-10.15039 47.98,-15.46 92.9611,-41.46875 142.3711,-51.46875 19.1,-1.59 38.31914,-0.52977 57.36914,1.74023 19.04,3.26 37.41039,7.90953 55.65039,15.26953 22.17,8.94 43.74101,19.84039 66.54101,26.90039 5.92,1.83 11.94,3.37946 18,4.68946 v -82.33008 c -2.35,-1.13 -4.58094,-2.4893 -6.71093,-4.0293 -0.47,-0.33 -0.92891,-0.66172 -1.37891,-1.01172 -2.54,-1.94 -4.83102,-4.18867 -6.79102,-6.63867 -0.39,-0.49 -0.7689,-0.99 -1.1289,-1.5 -2.79,-3.85 -5.87133,-9.06039 -2.61133,-13.40039 1.27,-1.91 3.99047,-2.07945 5.23047,-3.93945 0.47,-0.57 0.81047,-1.20993 0.98047,-1.91993 0.16998,-0.70998 0.16922,-1.48079 -0.0508,-2.30078 -0.14,-0.52 -0.32907,-1.01048 -0.53907,-1.48046 -0.22,-0.47001 -0.46023,-0.91961 -0.74023,-1.34961 -0.17,-0.81 -0.89141,-1.33969 -1.44141,-1.67969 -1.05,-0.84999 -2.04851,-1.73968 -2.97851,-2.67968 -0.31,-0.32 -0.60063,-0.63094 -0.89063,-0.96094 -0.36,-0.36 -0.69953,-0.72961 -1.01953,-1.09961 -1.51,-1.83 -2.7807,-3.88054 -3.7207,-6.06054 -0.24,-0.54 -0.45063,-1.10016 -0.64063,-1.66016 -0.72,-2.44 -1.0089,-4.989301 -0.8789,-7.529301 0.03,-0.63 0.0899,-1.270391 0.16992,-1.900391 0.72,-5.01 2.88898,-10.399297 7.45898,-13.279297 0.49,-0.29 0.98141,-0.58039 1.44141,-0.90039 0.46,-0.32 0.88023,-0.67008 1.24023,-1.080078 0.18,-0.35 0.35969,-0.868751 0.17969,-1.21875 -0.36,-1.040002 -0.97008,-2.031719 -1.58008,-3.011719 -0.31,-0.49 -0.61062,-0.978516 -0.89062,-1.478516 -1.74,-4.1 -1.62953,-8.169844 -0.26953,-11.839844 0.23,-0.61 0.48906,-1.220545 0.78906,-1.810547 0.77,-1.689999 1.7707,-3.411248 2.9707,-5.03125 0.4,-0.539998 0.81977,-1.068125 1.25977,-1.578124 0.71,-1.030001 1.51992,-1.991329 2.41992,-2.861329 0.45,-0.44 0.92016,-0.850234 1.41016,-1.240234 0.46,-0.43 0.95117,-0.829219 1.45117,-1.199219 2.015,-1.64 4.60586,-2.50539 7.19336,-2.52539 2.5875,-0.02 5.17101,0.804921 7.16601,2.544922 1.81,1.909999 0.72953,4.339531 1.26953,6.769531 0.18,0.52 0.3593,0.87 0.7793,1.25 0.27,0.35 0.57016,0.670468 0.91016,0.980469 0.33,0.31 0.69984,0.600625 1.08984,0.890624 0.47,0.340001 0.98172,0.660235 1.51172,0.990235 0.39,0.27 0.79852,0.529297 1.22852,0.779297 2.6,1.14 5.10148,2.81039 7.02148,4.90039 0.38,0.42 0.74008,0.848829 1.08008,1.298828 0.63,0.930001 1.17844,1.941485 1.64844,3.021485 0.47,1.07 0.85085,2.208906 1.13085,3.378906 0.98998,4.91 0.80905,11.161406 -3.46093,14.691406 -0.35,0.29 -0.71914,0.558829 -1.11914,0.798829 -0.4,0.249999 -0.81977,0.479687 -1.25977,0.679687 -0.96,0.72 -2.05016,0.541172 -2.91016,0.951172 -0.71,0.24 -1.43109,0.469453 -2.12109,0.689453 -4.17,1.36 -7.63984,2.889531 -7.33984,6.019531 0.07,1.17 1.3614,1.760391 3.1914,2.150391 0.61,0.13 1.28024,0.239609 1.99024,0.349609 2.97,0.620004 5.86859,0.621164 8.55859,1.951164 0.51,0.23 0.97992,0.45969 1.41992,0.67969 1.5,0.94 2.58993,1.98055 3.16993,3.56055 0.15,0.36 0.27156,0.72937 0.35156,1.10937 0.08,0.38 0.11937,0.78922 0.10937,1.19922 -0.03,0.47 -0.0598,0.94039 -0.0898,1.40039 -0.04,0.5 -0.0811,1.01 -0.12109,1.5 -0.04,0.5 -0.0899,1 -0.16992,1.5 -1.3,4.06 -3.69883,7.5397 -6.29883,10.92969 -0.32,0.42 -0.65047,0.84953 -0.98047,1.26953 -0.37,0.48 -0.72055,0.96117 -1.06055,1.45117 -0.8,1.07 -1.8189,2.04977 -2.8789,3.00977 -0.36,0.32 -0.72008,0.62922 -1.08008,0.94922 -2.49,2.4 -7.56016,5.69023 -4.66016,8.99023 0.85,1.03 1.88977,1.89117 3.00977,2.70117 0.37,0.27 0.75062,0.52907 1.14062,0.78907 2.08,1.35 4.3086,3.13046 5.8086,5.23046 0.3,0.42 0.57054,0.84883 0.81054,1.29883 1.91,3 1.90914,7.34125 -0.63086,9.78125 -0.51,0.43 -1.04937,0.73946 -1.60937,0.93946 -0.56,0.21 -1.12899,0.30984 -1.70899,0.33984 -0.59,-0.02 -1.18148,-0.0691 -1.77148,-0.11914 -0.59,-0.06 -1.17977,-0.13047 -1.75977,-0.23047 -2.3,-0.2 -4.50867,-0.66984 -6.63867,-1.33984 v 81.44922 c 57.15669,11.10442 118.76673,0.93895 177.63867,0 V 158.4102 c -2.13,0.67 -4.33867,1.13984 -6.63867,1.33984 -0.58,0.1 -1.17172,0.17047 -1.76172,0.23047 -0.59,0.05 -1.17953,0.0991 -1.76953,0.11914 -0.58,-0.03 -1.14898,-0.12984 -1.70898,-0.33984 -0.56,-0.2 -1.10133,-0.50946 -1.61133,-0.93946 -2.54,-2.44 -2.53891,-6.78125 -0.62891,-9.78125 0.24,-0.45 0.51055,-0.87883 0.81055,-1.29883 1.5,-2.1 3.72859,-3.88046 5.80859,-5.23046 0.39,-0.26 0.77063,-0.51907 1.14063,-0.78907 1.12,-0.81 2.15977,-1.67117 3.00977,-2.70117 2.9,-3.3 -2.17016,-6.59023 -4.66016,-8.99023 -0.36,-0.32 -0.72008,-0.62922 -1.08008,-0.94922 -1.06,-0.96 -2.07891,-1.93977 -2.87891,-3.00977 -0.34,-0.49 -0.69054,-0.97117 -1.06054,-1.45117 -0.33,-0.42 -0.66047,-0.84953 -0.98047,-1.26953 -2.6,-3.39 -4.99883,-6.86969 -6.29883,-10.92969 -0.08,-0.5 -0.13187,-1 -0.17187,-1.5 -0.04,-0.49 -0.0791,-1 -0.11914,-1.5 -0.03,-0.46 -0.0598,-0.93039 -0.0898,-1.40039 -0.01,-0.41 0.0294,-0.81922 0.10937,-1.19922 0.08,-0.38 0.19961,-0.74937 0.34961,-1.10937 0.58,-1.58 1.67188,-2.62055 3.17188,-3.56055 0.43999,-0.22 0.90992,-0.44969 1.41992,-0.67969 2.69,-1.33 5.58859,-1.33117 8.55859,-1.951164 0.71,-0.11 1.38024,-0.219609 1.99024,-0.349609 1.82999,-0.39 3.11945,-0.980391 3.18945,-2.150391 0.3,-3.13 -3.16985,-4.659531 -7.33985,-6.019531 -0.69,-0.22 -1.40914,-0.449453 -2.11914,-0.689453 -0.86,-0.41 -1.95015,-0.231172 -2.91015,-0.951172 -0.44,-0.2 -0.85977,-0.429687 -1.25977,-0.679687 -0.4,-0.240001 -0.77109,-0.508829 -1.12109,-0.798829 -4.27,-3.53 -4.44899,-9.781406 -3.45899,-14.691406 0.28,-1.17 0.65891,-2.308906 1.12891,-3.378906 0.47,-1.08 1.02039,-2.091483 1.65039,-3.021485 0.34,-0.449999 0.70008,-0.878828 1.08008,-1.298828 1.92,-2.09 4.41953,-3.76039 7.01953,-4.90039 0.43,-0.25 0.84047,-0.509297 1.23047,-0.779297 0.53,-0.33 1.03976,-0.650233 1.50976,-0.990235 0.39,-0.289999 0.75985,-0.580624 1.08985,-0.890624 0.34,-0.310001 0.64015,-0.630469 0.91015,-0.980469 0.42,-0.38 0.60125,-0.73 0.78125,-1.25 0.54,-2.43 -0.54046,-4.859533 1.26954,-6.769531 3.99,-3.479999 10.32937,-3.299532 14.35937,-0.01953 0.5,0.37 0.99118,0.769219 1.45117,1.199219 0.49,0.39 0.96016,0.800234 1.41016,1.240234 0.9,0.87 1.70992,1.831328 2.41992,2.861329 0.44,0.509999 0.85977,1.038125 1.25977,1.578124 1.2,1.62 2.19875,3.341251 2.96875,5.03125 0.3,0.590002 0.56101,1.200547 0.79101,1.810547 1.36,3.67 1.47047,7.739844 -0.26953,11.839844 -0.28,0.5 -0.58062,0.988516 -0.89062,1.478516 -0.61,0.98 -1.22008,1.971717 -1.58008,3.011719 -0.18,0.349998 -3.1e-4,0.86875 0.17969,1.21875 0.36,0.409999 0.78023,0.760078 1.24023,1.080078 0.46,0.32 0.94946,0.61039 1.43946,0.90039 4.56998,2.88 6.74093,8.269297 7.46093,13.279297 0.08,0.63 0.13992,1.270391 0.16992,1.900391 0.13,2.54 -0.16087,5.089299 -0.88085,7.529299 -0.19001,0.56 -0.39868,1.12016 -0.63868,1.66016 -0.94,2.18 -2.2107,4.23054 -3.7207,6.06054 -0.32,0.37 -0.65953,0.73961 -1.01953,1.09961 -0.29,0.33 -0.58063,0.64094 -0.89063,0.96094 -0.93,0.94 -1.93048,1.82969 -2.98046,2.67969 -0.55,0.34 -1.26946,0.86969 -1.43946,1.67969 -0.28,0.43 -0.52023,0.87961 -0.74023,1.34961 -0.21,0.46999 -0.39905,0.96046 -0.53907,1.48046 -0.22,0.82 -0.22078,1.59079 -0.0508,2.30078 0.17,0.71001 0.51047,1.34993 0.98047,1.91993 1.24,1.86 3.96047,2.02945 5.23047,3.93945 3.26,4.34 0.17867,9.55039 -2.61133,13.40039 -0.36,0.51 -0.7389,1.01 -1.1289,1.5 -1.96,2.45 -4.25102,4.69867 -6.79102,6.63867 -0.45,0.35 -0.90891,0.68172 -1.37891,1.01172 -2.12999,1.54 -4.36094,2.8993 -6.71093,4.0293 v 82.33008 c 6.06,-1.31 12.08,-2.85946 18,-4.68946 22.8,-7.06 44.37101,-17.96039 66.54101,-26.90039 18.24,-7.36 36.60844,-12.00953 55.64844,-15.26953 19.05,-2.27 38.27109,-3.33023 57.37109,-1.74023 49.41,10 94.38914,36.00875 142.36917,51.46875 12.67,4.09 25.521,7.59039 38.541,10.15039 8.28,1.63 16.6787,3.15984 25.1387,4.33984 v -67.80859 c -1.77,0.56 -3.59,0.94937 -5.5,1.10937 -0.49,0.08 -0.969,0.13946 -1.459,0.18946 -0.49,0.05 -0.9807,0.0796 -1.4707,0.0996 -0.48,-0.03 -0.96,-0.1093 -1.42,-0.2793 -0.46,-0.17 -0.91,-0.4193 -1.33,-0.7793 -2.1,-2.01 -2.0996,-5.59984 -0.5196,-8.08984 0.19,-0.37 0.42,-0.73008 0.67,-1.08008 1.24,-1.74 3.0905,-3.21008 4.8105,-4.33008 0.32,-0.21 0.6295,-0.43039 0.9395,-0.65039 0.93,-0.66 1.8,-1.38047 2.5,-2.23047 2.4,-2.73 -1.7994,-5.46922 -3.8594,-7.44922 -0.31,-0.26 -0.6104,-0.53101 -0.9004,-0.79101 -0.89,-0.79 -1.7306,-1.61024 -2.3906,-2.49024 -0.28,-0.4 -0.5689,-0.80922 -0.8789,-1.19922 l -0.8106,-1.05078 c -2.15,-2.81 -4.1507,-5.67881 -5.2207,-9.04883 -0.06,-0.42 -0.099,-0.83023 -0.1387,-1.24023 -0.03,-0.42 -0.07,-0.83 -0.1,-1.25 -0.03,-0.38 -0.06,-0.77016 -0.08,-1.16016 -0.01,-0.35 0.03,-0.68 0.09,-1 0.07,-0.32 0.1691,-0.62992 0.2891,-0.91992 0.49,-1.31 1.3909,-2.17117 2.6309,-2.95117 0.37,-0.19 0.7597,-0.37836 1.1797,-0.56836 2.23,-1.1 4.6298,-1.10109 7.0898,-1.62109 0.59,-0.09 1.1404,-0.17906 1.6504,-0.28907 1.52,-0.32 2.5787,-0.81126 2.6387,-1.78124 0.26,-2.58001 -2.6184,-3.84852 -6.0684,-4.97852 -0.58,-0.18 -1.1717,-0.37031 -1.7617,-0.57031 -0.72,-0.34 -1.6182,-0.20102 -2.4082,-0.79102 -0.36,-0.17 -0.711,-0.34859 -1.041,-0.55859 -0.33,-0.21 -0.6397,-0.43188 -0.9297,-0.67188 -3.53,-2.92 -3.6794,-8.0882 -2.8594,-12.1582 0.23,-0.96 0.5397,-1.90102 0.9297,-2.79102 0.39,-0.89 0.8491,-1.73 1.3691,-2.5 0.27,-0.37 0.5707,-0.73007 0.8907,-1.08007 1.59,-1.73 3.6505,-3.09883 5.8105,-4.04883 0.35,-0.21 0.6898,-0.43039 1.0098,-0.65039 0.44,-0.27 0.86,-0.54032 1.25,-0.82032 0.32,-0.23 0.6184,-0.47046 0.8984,-0.73046 0.28,-0.26 0.53,-0.53032 0.75,-0.82032 0.35,-0.32 0.5004,-0.60906 0.6504,-1.03906 0.45,-2.02 -0.4492,-4.031331 1.0508,-5.611331 3.3,-2.870035 8.5506,-2.729765 11.8906,-0.0098 0.42,0.3 0.8192,0.640234 1.1992,0.990234 0.41,0.33 0.7999,0.67125 1.1699,1.03125 0.75,0.719997 1.4198,1.519137 2.0098,2.369137 0.36,0.43 0.711,0.86055 1.041,1.31055 1,1.34 1.819,2.76992 2.459,4.16992 0.25,0.49 0.4604,0.99 0.6504,1.5 1.12,3.04 1.2095,6.39883 -0.2305,9.79883 -0.23,0.41 -0.4902,0.82047 -0.7402,1.23047 -0.5,0.81 -0.9988,1.63023 -1.2988,2.49023 -0.15,0.29 -0,0.71977 0.1484,1.00977 0.3,0.33 0.6513,0.62062 1.0313,0.89062 0.38,0.27 0.7794,0.51 1.1894,0.75 3.79,2.39 5.5897,6.85 6.1797,11 0.07,0.52 0.1106,1.04031 0.1406,1.57031 0.1,2.10002 -0.1304,4.22024 -0.7304,6.24024 -0.16,0.46 -0.3293,0.91914 -0.5293,1.36914 -0.78,1.8 -1.8301,3.49953 -3.0801,5.01953 -0.27,0.31 -0.5496,0.61016 -0.8496,0.91016 -0.24,0.26 -0.4903,0.53101 -0.7403,0.79101 -0.76,0.78 -1.5909,1.51875 -2.4609,2.21875 -0.45,0.28 -1.0495,0.72063 -1.1895,1.39063 -0.23,0.36 -0.4293,0.72914 -0.6093,1.11914 -0.18,0.39 -0.3312,0.80047 -0.4512,1.23047 -0.18,0.69 -0.1791,1.32015 -0.039,1.91015 0.14,0.58 0.4205,1.11985 0.8105,1.58985 1.03,1.54 3.2782,1.67976 4.3282,3.25976 2.7,3.6 0.1518,7.90961 -2.1582,11.09961 -0.3,0.42 -0.6214,0.83024 -0.9414,1.24024 -1.62,2.03 -3.5092,3.89 -5.6192,5.5 -0.37,0.28 -0.7506,0.56006 -1.1406,0.83008 -1.75,1.27999 -3.6088,2.40984 -5.5488,3.33984 v 69.85156 c 10.07,1.27 20.1785,2.00883 30.2285,1.79883 11.8431,-0.24964 24.0359,-1.43723 35.8203,-4.11914 V 0 Z"
   style="fill:#93b7be;stroke-width:1.41434443;fill-opacity:1" />

<path
   class="st2"
   d="m 622.61062,359.02 c 0,7.93 29.49,14.36 65.86,14.36 36.38,0 65.86,-6.43 65.86,-14.36 0,-7.93 -29.49,-14.36 -65.86,-14.36 -36.36,0 -65.86,6.43 -65.86,14.36 z"
   id="path8"
   style="opacity:0.8;fill:#93b7be;fill-opacity:1" /><path
   class="st2"
   d="m 726.44062,320.61 c 0,-21.21 78.83,-38.4 176.07,-38.4 97.26,0 176.07998,17.19 176.07998,38.4 0,13.59 -32.39,25.53 -81.20998,32.35 16.07998,3.07 26.28998,7.57 26.28998,12.6 0,9.26 -34.41998,16.77 -76.87998,16.77 -42.45,0 -76.87,-7.51 -76.87,-16.77 0,-2.49 2.55,-4.83 6.98,-6.96 -85.09,-2.7 -150.46,-18.67 -150.46,-37.99 z"
   id="path10"
   style="opacity:0.8;fill:#93b7be;fill-opacity:1" /><path
   class="st2"
   d="m 657.73062,307.79 c 0,3.7 13.77,6.7 30.74,6.7 16.98,0 30.74,-3 30.74,-6.7 0,-3.7 -13.76,-6.7 -30.74,-6.7 -16.97,-0.01 -30.74,2.99 -30.74,6.7 z"
   id="path12"
   style="opacity:0.8;fill:#93b7be;fill-opacity:1" />
<rect
   x="760.40063"
   y="214.33"
   class="st3"
   width="123.45"
   height="123.45"
   id="rect16"
   style="fill:#745d7c;fill-opacity:1" /><polygon
   transform="translate(567.14062)"
   class="st4"
   points="193.26,214.33 316.71,214.33 377.25,173.71 253.8,173.71 "
   id="polygon18"
   style="fill:#e2dae1;fill-opacity:1" /><polygon
   transform="translate(567.14062)"
   class="st5"
   points="316.71,337.79 377.25,297.16 377.25,173.71 316.71,214.33 "
   id="polygon20"
   style="fill:#a38eaa;fill-opacity:1" />
<rect
   x="648.3006"
   y="124.72"
   class="st4"
   width="133.67"
   height="135.75"
   id="rect24"
   style="fill:#ffffff" /><rect
   x="654.7406"
   y="132.67999"
   class="st6"
   width="48.959999"
   height="2.5599999"
   id="rect26"
   style="fill:#745d7c;fill-opacity:1" /><rect
   x="668.8006"
   y="154.33"
   class="st6"
   width="48.959999"
   height="2.5599999"
   id="rect28"
   style="fill:#745d7c;fill-opacity:1" /><rect
   x="668.8006"
   y="164.38"
   class="st6"
   width="78.330002"
   height="2.5599999"
   id="rect30"
   style="fill:#745d7c;fill-opacity:1" /><rect
   x="654.12061"
   y="176.33"
   class="st6"
   width="50.119999"
   height="2.5599999"
   id="rect32"
   style="fill:#745d7c;fill-opacity:1" /><rect
   x="654.12061"
   y="181.60001"
   class="st6"
   width="82.290001"
   height="2.5599999"
   id="rect34"
   style="fill:#745d7c;fill-opacity:1" /><rect
   x="653.81061"
   y="197.58"
   class="st6"
   width="36.389999"
   height="2.5599999"
   id="rect36"
   style="fill:#745d7c;fill-opacity:1" /><rect
   x="653.81061"
   y="202.37"
   class="st6"
   width="26.620001"
   height="2.5599999"
   id="rect38"
   style="fill:#745d7c;fill-opacity:1" /><rect
   x="653.81061"
   y="207.17"
   class="st6"
   width="36.389999"
   height="2.5599999"
   id="rect40"
   style="fill:#745d7c;fill-opacity:1" /><rect
   x="654.12061"
   y="186.7"
   class="st6"
   width="82.290001"
   height="2.5599999"
   id="rect42"
   style="fill:#745d7c;fill-opacity:1" /><rect
   x="654.12061"
   y="229.19"
   class="st6"
   width="50.119999"
   height="2.5599999"
   id="rect44"
   style="fill:#745d7c;fill-opacity:1" /><rect
   x="654.12061"
   y="234.46001"
   class="st6"
   width="82.290001"
   height="2.5599999"
   id="rect46"
   style="fill:#745d7c;fill-opacity:1" /><rect
   x="654.12061"
   y="239.56"
   class="st6"
   width="82.290001"
   height="2.5599999"
   id="rect48"
   style="fill:#745d7c;fill-opacity:1" /><rect
   x="705.1806"
   y="132.67999"
   class="st6"
   width="47.25"
   height="2.5599999"
   id="rect50"
   style="fill:#745d7c;fill-opacity:1" /><rect
   x="654.7406"
   y="143.39"
   class="st6"
   width="27.440001"
   height="2.5599999"
   id="rect52"
   style="fill:#745d7c;fill-opacity:1" /><rect
   x="683.78064"
   y="143.39"
   class="st6"
   width="27.440001"
   height="2.5599999"
   id="rect54"
   style="fill:#745d7c;fill-opacity:1" /><rect
   x="712.67059"
   y="143.39"
   class="st6"
   width="5.8699999"
   height="2.5599999"
   id="rect56"
   style="fill:#745d7c;fill-opacity:1" /><rect
   x="720.08063"
   y="143.39"
   class="st6"
   width="5.8699999"
   height="2.5599999"
   id="rect58"
   style="fill:#745d7c;fill-opacity:1" /><rect
   style="fill:#745d7c;fill-opacity:1"
   id="rect60"
   height="2.5599999"
   width="5.8699999"
   class="st6"
   y="138.16"
   x="666.67059" /><rect
   style="opacity:0.5;fill:#745d7c;fill-opacity:1"
   id="rect62"
   height="2.5599999"
   width="5.8699999"
   class="st7"
   y="138.16"
   x="674.08063" /><rect
   style="fill:#745d7c;fill-opacity:1"
   id="rect64"
   height="2.5599999"
   width="5.8699999"
   class="st6"
   y="138.16"
   x="681.4906" /><rect
   style="opacity:0.5;fill:#745d7c;fill-opacity:1"
   id="rect66"
   height="2.5599999"
   width="5.8699999"
   class="st7"
   y="138.16"
   x="688.90063" /><rect
   style="fill:#745d7c;fill-opacity:1"
   id="rect68"
   height="2.5599999"
   width="5.8699999"
   class="st6"
   y="138.16"
   x="696.31061" /><rect
   style="fill:#745d7c;fill-opacity:1"
   id="rect70"
   height="2.5599999"
   width="37.07"
   class="st6"
   y="138.16"
   x="703.72064" /><rect
   style="fill:#745d7c;fill-opacity:1"
   id="rect74"
   height="2.5599999"
   width="4.1399999"
   class="st6"
   y="159.2"
   x="668.8006" /><rect
   style="opacity:0.5;fill:#745d7c;fill-opacity:1"
   id="rect76"
   height="2.5599999"
   width="4.1500001"
   class="st7"
   y="159.2"
   x="674.03064" /><rect
   style="fill:#745d7c;fill-opacity:1"
   id="rect78"
   height="2.5599999"
   width="4.1399999"
   class="st6"
   y="159.2"
   x="679.26062" /><rect
   style="opacity:0.5;fill:#745d7c;fill-opacity:1"
   id="rect80"
   height="2.5599999"
   width="4.1500001"
   class="st7"
   y="159.2"
   x="684.4906" /><rect
   style="fill:#745d7c;fill-opacity:1"
   id="rect82"
   height="2.5599999"
   width="4.1399999"
   class="st6"
   y="159.2"
   x="689.72064" /><rect
   style="fill:#745d7c;fill-opacity:1"
   id="rect84"
   height="2.5599999"
   width="26.17"
   class="st6"
   y="159.2"
   x="694.95062" /><rect
   x="654.12061"
   y="223.91"
   class="st6"
   width="48.959999"
   height="2.5599999"
   id="rect88"
   style="fill:#745d7c;fill-opacity:1" /><rect
   x="654.12061"
   y="213.85001"
   class="st6"
   width="78.330002"
   height="2.5599999"
   id="rect90"
   style="fill:#745d7c;fill-opacity:1" /><rect
   style="fill:#745d7c;fill-opacity:1"
   id="rect92"
   height="2.5599999"
   width="4.1399999"
   class="st6"
   y="219.03999"
   x="654.12061" /><rect
   style="opacity:0.5;fill:#745d7c;fill-opacity:1"
   id="rect94"
   height="2.5599999"
   width="4.1399999"
   class="st7"
   y="219.03999"
   x="659.35065" /><rect
   style="fill:#745d7c;fill-opacity:1"
   id="rect96"
   height="2.5599999"
   width="4.1500001"
   class="st6"
   y="219.03999"
   x="664.58063" /><rect
   style="opacity:0.5;fill:#745d7c;fill-opacity:1"
   id="rect98"
   height="2.5599999"
   width="4.1500001"
   class="st7"
   y="219.03999"
   x="669.81061" /><rect
   style="fill:#745d7c;fill-opacity:1"
   id="rect100"
   height="2.5599999"
   width="4.1500001"
   class="st6"
   y="219.03999"
   x="675.03064" /><rect
   style="fill:#745d7c;fill-opacity:1"
   id="rect102"
   height="2.5599999"
   width="26.17"
   class="st6"
   y="219.03999"
   x="680.26062" /><rect
   x="720.0506"
   y="197.12"
   class="st6"
   width="31.040001"
   height="2.5599999"
   id="rect106"
   style="fill:#745d7c;fill-opacity:1" /><rect
   x="701.42059"
   y="207.17"
   class="st6"
   width="49.66"
   height="2.5599999"
   id="rect108"
   style="fill:#745d7c;fill-opacity:1" /><rect
   style="fill:#745d7c;fill-opacity:1"
   id="rect110"
   height="2.5599999"
   width="2.6300001"
   class="st6"
   y="201.98"
   x="748.46063" /><rect
   style="opacity:0.5;fill:#745d7c;fill-opacity:1"
   id="rect112"
   height="2.5599999"
   width="2.6300001"
   class="st7"
   y="201.98"
   x="745.14062" /><rect
   style="fill:#745d7c;fill-opacity:1"
   id="rect114"
   height="2.5599999"
   width="2.6300001"
   class="st6"
   y="201.98"
   x="741.83063" /><rect
   style="opacity:0.5;fill:#745d7c;fill-opacity:1"
   id="rect116"
   height="2.5599999"
   width="2.6300001"
   class="st7"
   y="201.98"
   x="738.51062" /><rect
   style="fill:#745d7c;fill-opacity:1"
   id="rect118"
   height="2.5599999"
   width="2.6300001"
   class="st6"
   y="201.98"
   x="735.20062" /><rect
   style="fill:#745d7c;fill-opacity:1"
   id="rect120"
   height="2.5599999"
   width="16.59"
   class="st6"
   y="201.98"
   x="717.92059" /><rect
   x="648.3006"
   y="109.64"
   class="st8"
   width="133.67"
   height="15.07"
   id="rect124"
   style="fill:#745d7c;fill-opacity:1" /><path
   class="st4"
   d="m 660.60062,117.17 c 0,1.89 -1.53,3.42 -3.42,3.42 -1.89,0 -3.42,-1.53 -3.42,-3.42 0,-1.89 1.53,-3.42 3.42,-3.42 1.89,-0.01 3.42,1.53 3.42,3.42 z"
   id="path126"
   style="fill:#ffffff" /><path
   class="st4"
   d="m 671.02062,117.17 c 0,1.89 -1.53,3.42 -3.42,3.42 -1.89,0 -3.42,-1.53 -3.42,-3.42 0,-1.89 1.53,-3.42 3.42,-3.42 1.89,-0.01 3.42,1.53 3.42,3.42 z"
   id="path128"
   style="fill:#ffffff" /><path
   class="st4"
   d="m 681.26062,117.17 c 0,1.89 -1.53,3.42 -3.42,3.42 -1.89,0 -3.42,-1.53 -3.42,-3.42 0,-1.89 1.53,-3.42 3.42,-3.42 1.88,-0.01 3.42,1.53 3.42,3.42 z"
   id="path130"
   style="fill:#ffffff" />
<rect
   x="958.25061"
   y="133.52"
   class="st4"
   width="100.16"
   height="101.72"
   id="rect134"
   style="fill:#ffffff" /><rect
   x="1016.9006"
   y="139.49001"
   class="st6"
   width="36.68"
   height="1.92"
   id="rect136"
   style="fill:#745d7c;fill-opacity:1" /><rect
   x="1006.3606"
   y="155.71001"
   class="st6"
   width="36.68"
   height="1.92"
   id="rect138"
   style="fill:#745d7c;fill-opacity:1" /><rect
   x="984.35059"
   y="163.24001"
   class="st6"
   width="58.689999"
   height="1.92"
   id="rect140"
   style="fill:#745d7c;fill-opacity:1" /><rect
   x="1016.4906"
   y="172.19"
   class="st6"
   width="37.560001"
   height="1.92"
   id="rect142"
   style="fill:#745d7c;fill-opacity:1" /><rect
   x="992.39062"
   y="176.14"
   class="st6"
   width="61.66"
   height="1.92"
   id="rect144"
   style="fill:#745d7c;fill-opacity:1" /><rect
   x="1027.0106"
   y="188.12"
   class="st6"
   width="27.27"
   height="1.92"
   id="rect146"
   style="fill:#745d7c;fill-opacity:1" /><rect
   x="1034.3306"
   y="191.71001"
   class="st6"
   width="19.950001"
   height="1.92"
   id="rect148"
   style="fill:#745d7c;fill-opacity:1" /><rect
   x="1027.0106"
   y="195.3"
   class="st6"
   width="27.27"
   height="1.92"
   id="rect150"
   style="fill:#745d7c;fill-opacity:1" /><rect
   x="992.39062"
   y="179.96001"
   class="st6"
   width="61.66"
   height="1.92"
   id="rect152"
   style="fill:#745d7c;fill-opacity:1" /><rect
   x="1016.4906"
   y="211.8"
   class="st6"
   width="37.560001"
   height="1.92"
   id="rect154"
   style="fill:#745d7c;fill-opacity:1" /><rect
   x="992.39062"
   y="215.75"
   class="st6"
   width="61.66"
   height="1.92"
   id="rect156"
   style="fill:#745d7c;fill-opacity:1" /><rect
   x="992.39062"
   y="219.57001"
   class="st6"
   width="61.66"
   height="1.92"
   id="rect158"
   style="fill:#745d7c;fill-opacity:1" /><rect
   x="980.38062"
   y="139.49001"
   class="st6"
   width="35.400002"
   height="1.92"
   id="rect160"
   style="fill:#745d7c;fill-opacity:1" /><rect
   x="1033.0206"
   y="147.50999"
   class="st6"
   width="20.559999"
   height="1.92"
   id="rect162"
   style="fill:#745d7c;fill-opacity:1" /><rect
   x="1011.2506"
   y="147.50999"
   class="st6"
   width="20.559999"
   height="1.92"
   id="rect164"
   style="fill:#745d7c;fill-opacity:1" /><rect
   x="1005.7706"
   y="147.50999"
   class="st6"
   width="4.4000001"
   height="1.92"
   id="rect166"
   style="fill:#745d7c;fill-opacity:1" /><rect
   x="1000.2206"
   y="147.50999"
   class="st6"
   width="4.4000001"
   height="1.92"
   id="rect168"
   style="fill:#745d7c;fill-opacity:1" /><rect
   style="fill:#745d7c;fill-opacity:1"
   id="rect170"
   height="1.92"
   width="4.4000001"
   class="st6"
   y="143.59"
   x="1040.2406" /><rect
   style="opacity:0.5;fill:#745d7c;fill-opacity:1"
   id="rect172"
   height="1.92"
   width="4.4000001"
   class="st7"
   y="143.59"
   x="1034.6807" /><rect
   style="fill:#745d7c;fill-opacity:1"
   id="rect174"
   height="1.92"
   width="4.4000001"
   class="st6"
   y="143.59"
   x="1029.1306" /><rect
   style="opacity:0.5;fill:#745d7c;fill-opacity:1"
   id="rect176"
   height="1.92"
   width="4.4000001"
   class="st7"
   y="143.59"
   x="1023.5806" /><rect
   style="fill:#745d7c;fill-opacity:1"
   id="rect178"
   height="1.92"
   width="4.4000001"
   class="st6"
   y="143.59"
   x="1018.0306" /><rect
   style="fill:#745d7c;fill-opacity:1"
   id="rect180"
   height="1.92"
   width="27.780001"
   class="st6"
   y="143.59"
   x="989.10059" /><rect
   style="fill:#745d7c;fill-opacity:1"
   id="rect184"
   height="1.92"
   width="3.1099999"
   class="st6"
   y="159.36"
   x="1039.9307" /><rect
   style="opacity:0.5;fill:#745d7c;fill-opacity:1"
   id="rect186"
   height="1.92"
   width="3.1099999"
   class="st7"
   y="159.36"
   x="1036.0206" /><rect
   style="fill:#745d7c;fill-opacity:1"
   id="rect188"
   height="1.92"
   width="3.1099999"
   class="st6"
   y="159.36"
   x="1032.1006" /><rect
   style="opacity:0.5;fill:#745d7c;fill-opacity:1"
   id="rect190"
   height="1.92"
   width="3.1099999"
   class="st7"
   y="159.36"
   x="1028.1807" /><rect
   style="fill:#745d7c;fill-opacity:1"
   id="rect192"
   height="1.92"
   width="3.1099999"
   class="st6"
   y="159.36"
   x="1024.2606" /><rect
   style="fill:#745d7c;fill-opacity:1"
   id="rect194"
   height="1.92"
   width="19.610001"
   class="st6"
   y="159.36"
   x="1003.8406" /><rect
   x="1017.3606"
   y="207.85001"
   class="st6"
   width="36.68"
   height="1.92"
   id="rect198"
   style="fill:#745d7c;fill-opacity:1" /><rect
   x="995.35059"
   y="200.31"
   class="st6"
   width="58.689999"
   height="1.92"
   id="rect200"
   style="fill:#745d7c;fill-opacity:1" /><rect
   style="fill:#745d7c;fill-opacity:1"
   id="rect202"
   height="1.92"
   width="3.1099999"
   class="st6"
   y="204.2"
   x="1050.9406" /><rect
   style="opacity:0.5;fill:#745d7c;fill-opacity:1"
   id="rect204"
   height="1.92"
   width="3.1099999"
   class="st7"
   y="204.2"
   x="1047.0206" /><rect
   style="fill:#745d7c;fill-opacity:1"
   id="rect206"
   height="1.92"
   width="3.1099999"
   class="st6"
   y="204.2"
   x="1043.1006" /><rect
   style="opacity:0.5;fill:#745d7c;fill-opacity:1"
   id="rect208"
   height="1.92"
   width="3.1099999"
   class="st7"
   y="204.2"
   x="1039.1807" /><rect
   style="fill:#745d7c;fill-opacity:1"
   id="rect210"
   height="1.92"
   width="3.1099999"
   class="st6"
   y="204.2"
   x="1035.2706" /><rect
   style="fill:#745d7c;fill-opacity:1"
   id="rect212"
   height="1.92"
   width="19.610001"
   class="st6"
   y="204.2"
   x="1014.8506" /><rect
   x="981.38062"
   y="187.77"
   class="st6"
   width="23.26"
   height="1.92"
   id="rect216"
   style="fill:#745d7c;fill-opacity:1" /><rect
   x="981.38062"
   y="195.3"
   class="st6"
   width="37.209999"
   height="1.92"
   id="rect218"
   style="fill:#745d7c;fill-opacity:1" /><rect
   style="fill:#745d7c;fill-opacity:1"
   id="rect220"
   height="1.92"
   width="1.97"
   class="st6"
   y="191.42"
   x="981.38062" /><rect
   style="opacity:0.5;fill:#745d7c;fill-opacity:1"
   id="rect222"
   height="1.92"
   width="1.97"
   class="st7"
   y="191.42"
   x="983.87061" /><rect
   style="fill:#745d7c;fill-opacity:1"
   id="rect224"
   height="1.92"
   width="1.97"
   class="st6"
   y="191.42"
   x="986.35059" /><rect
   style="opacity:0.5;fill:#745d7c;fill-opacity:1"
   id="rect226"
   height="1.92"
   width="1.97"
   class="st7"
   y="191.42"
   x="988.84064" /><rect
   style="fill:#745d7c;fill-opacity:1"
   id="rect228"
   height="1.92"
   width="1.97"
   class="st6"
   y="191.42"
   x="991.32062" /><rect
   style="fill:#745d7c;fill-opacity:1"
   id="rect230"
   height="1.92"
   width="12.43"
   class="st6"
   y="191.42"
   x="993.81061" /><rect
   x="958.25061"
   y="122.23"
   class="st8"
   width="100.16"
   height="11.3"
   id="rect234"
   style="fill:#745d7c;fill-opacity:1" /><path
   class="st4"
   d="m 1049.1806,127.86 c 0,1.42 1.15,2.56 2.56,2.56 1.42,0 2.56,-1.15 2.56,-2.56 0,-1.42 -1.15,-2.56 -2.56,-2.56 -1.41,0 -2.56,1.15 -2.56,2.56 z"
   id="path236"
   style="fill:#ffffff" /><path
   class="st4"
   d="m 1041.3806,127.86 c 0,1.42 1.15,2.56 2.56,2.56 1.42,0 2.56,-1.15 2.56,-2.56 0,-1.42 -1.15,-2.56 -2.56,-2.56 -1.42,0 -2.56,1.15 -2.56,2.56 z"
   id="path238"
   style="fill:#ffffff" /><circle
   class="st4"
   cx="1036.2706"
   cy="127.86"
   r="2.5599999"
   id="circle240"
   style="fill:#ffffff" />
<rect
   x="1004.1706"
   y="173.59"
   class="st4"
   width="86.410004"
   height="87.75"
   id="rect244"
   style="fill:#ffffff" /><rect
   x="1008.3306"
   y="178.73"
   class="st9"
   width="31.65"
   height="1.65"
   id="rect246"
   style="fill:#ffba49;fill-opacity:1" /><rect
   x="1017.4306"
   y="192.73"
   class="st9"
   width="31.65"
   height="1.65"
   id="rect248"
   style="fill:#ffba49;fill-opacity:1" /><rect
   x="1017.4306"
   y="199.23"
   class="st9"
   width="50.639999"
   height="1.65"
   id="rect250"
   style="fill:#ffba49;fill-opacity:1" /><rect
   x="1007.9306"
   y="206.95"
   class="st9"
   width="32.400002"
   height="1.65"
   id="rect252"
   style="fill:#ffba49;fill-opacity:1" /><rect
   x="1007.9306"
   y="210.36"
   class="st9"
   width="53.189999"
   height="1.65"
   id="rect254"
   style="fill:#ffba49;fill-opacity:1" /><rect
   x="1007.7306"
   y="220.69"
   class="st9"
   width="23.52"
   height="1.65"
   id="rect256"
   style="fill:#ffba49;fill-opacity:1" /><rect
   x="1007.7306"
   y="223.78999"
   class="st9"
   width="17.209999"
   height="1.65"
   id="rect258"
   style="fill:#ffba49;fill-opacity:1" /><rect
   x="1007.7306"
   y="226.89"
   class="st9"
   width="23.52"
   height="1.65"
   id="rect260"
   style="fill:#ffba49;fill-opacity:1" /><rect
   x="1007.9306"
   y="213.64999"
   class="st9"
   width="53.189999"
   height="1.65"
   id="rect262"
   style="fill:#ffba49;fill-opacity:1" /><rect
   x="1007.9306"
   y="241.12"
   class="st9"
   width="32.400002"
   height="1.65"
   id="rect264"
   style="fill:#ffba49;fill-opacity:1" /><rect
   x="1007.9306"
   y="244.53"
   class="st9"
   width="53.189999"
   height="1.65"
   id="rect266"
   style="fill:#ffba49;fill-opacity:1" /><rect
   x="1007.9306"
   y="247.83"
   class="st9"
   width="53.189999"
   height="1.65"
   id="rect268"
   style="fill:#ffba49;fill-opacity:1" /><rect
   x="1040.9406"
   y="178.73"
   class="st9"
   width="30.540001"
   height="1.65"
   id="rect270"
   style="fill:#ffba49;fill-opacity:1" /><rect
   x="1008.3306"
   y="185.66"
   class="st9"
   width="17.74"
   height="1.65"
   id="rect272"
   style="fill:#ffba49;fill-opacity:1" /><rect
   x="1027.1106"
   y="185.66"
   class="st9"
   width="17.74"
   height="1.65"
   id="rect274"
   style="fill:#ffba49;fill-opacity:1" /><rect
   x="1045.7806"
   y="185.66"
   class="st9"
   width="3.8"
   height="1.65"
   id="rect276"
   style="fill:#ffba49;fill-opacity:1" /><rect
   x="1050.5706"
   y="185.66"
   class="st9"
   width="3.8"
   height="1.65"
   id="rect278"
   style="fill:#ffba49;fill-opacity:1" /><rect
   style="fill:#ffba49;fill-opacity:1"
   id="rect280"
   height="1.65"
   width="3.8"
   class="st9"
   y="182.28"
   x="1016.0506" /><rect
   style="opacity:0.5;fill:#faa229"
   id="rect282"
   height="1.65"
   width="3.8"
   class="st10"
   y="182.28"
   x="1020.8406" /><rect
   style="fill:#ffba49;fill-opacity:1"
   id="rect284"
   height="1.65"
   width="3.8"
   class="st9"
   y="182.28"
   x="1025.6306" /><rect
   style="opacity:0.5;fill:#faa229"
   id="rect286"
   height="1.65"
   width="3.8"
   class="st10"
   y="182.28"
   x="1030.4207" /><rect
   style="fill:#ffba49;fill-opacity:1"
   id="rect288"
   height="1.65"
   width="3.8"
   class="st9"
   y="182.28"
   x="1035.2106" /><rect
   style="fill:#ffba49;fill-opacity:1"
   id="rect290"
   height="1.65"
   width="23.969999"
   class="st9"
   y="182.28"
   x="1040.0006" /><rect
   style="fill:#ffba49;fill-opacity:1"
   id="rect294"
   height="1.65"
   width="2.6800001"
   class="st9"
   y="195.88"
   x="1017.4306" /><rect
   style="opacity:0.5;fill:#faa229"
   id="rect296"
   height="1.65"
   width="2.6800001"
   class="st10"
   y="195.88"
   x="1020.8106" /><rect
   style="fill:#ffba49;fill-opacity:1"
   id="rect298"
   height="1.65"
   width="2.6800001"
   class="st9"
   y="195.88"
   x="1024.1906" /><rect
   style="opacity:0.5;fill:#faa229"
   id="rect300"
   height="1.65"
   width="2.6800001"
   class="st10"
   y="195.88"
   x="1027.5706" /><rect
   style="fill:#ffba49;fill-opacity:1"
   id="rect302"
   height="1.65"
   width="2.6800001"
   class="st9"
   y="195.88"
   x="1030.9506" /><rect
   style="fill:#ffba49;fill-opacity:1"
   id="rect304"
   height="1.65"
   width="16.92"
   class="st9"
   y="195.88"
   x="1034.3306" /><rect
   x="1007.9306"
   y="237.71001"
   class="st9"
   width="31.65"
   height="1.65"
   id="rect308"
   style="fill:#ffba49;fill-opacity:1" /><rect
   x="1007.9306"
   y="231.21001"
   class="st9"
   width="50.630001"
   height="1.65"
   id="rect310"
   style="fill:#ffba49;fill-opacity:1" /><rect
   style="fill:#ffba49;fill-opacity:1"
   id="rect312"
   height="1.65"
   width="2.6800001"
   class="st9"
   y="234.56"
   x="1007.9306" /><rect
   style="opacity:0.5;fill:#faa229"
   id="rect314"
   height="1.65"
   width="2.6800001"
   class="st10"
   y="234.56"
   x="1011.3106" /><rect
   style="fill:#ffba49;fill-opacity:1"
   id="rect316"
   height="1.65"
   width="2.6800001"
   class="st9"
   y="234.56"
   x="1014.6906" /><rect
   style="opacity:0.5;fill:#faa229"
   id="rect318"
   height="1.65"
   width="2.6800001"
   class="st10"
   y="234.56"
   x="1018.0706" /><rect
   style="fill:#ffba49;fill-opacity:1"
   id="rect320"
   height="1.65"
   width="2.6800001"
   class="st9"
   y="234.56"
   x="1021.4506" /><rect
   style="fill:#ffba49;fill-opacity:1"
   id="rect322"
   height="1.65"
   width="16.92"
   class="st9"
   y="234.56"
   x="1024.8306" /><rect
   x="1050.5507"
   y="220.39"
   class="st9"
   width="20.07"
   height="1.65"
   id="rect326"
   style="fill:#ffba49;fill-opacity:1" /><rect
   x="1038.5106"
   y="226.89"
   class="st9"
   width="32.099998"
   height="1.65"
   id="rect328"
   style="fill:#ffba49;fill-opacity:1" /><rect
   style="fill:#ffba49;fill-opacity:1"
   id="rect330"
   height="1.65"
   width="1.7"
   class="st9"
   y="223.53999"
   x="1068.9207" /><rect
   style="opacity:0.5;fill:#faa229"
   id="rect332"
   height="1.65"
   width="1.7"
   class="st10"
   y="223.53999"
   x="1066.7806" /><rect
   style="fill:#ffba49;fill-opacity:1"
   id="rect334"
   height="1.65"
   width="1.7"
   class="st9"
   y="223.53999"
   x="1064.6306" /><rect
   style="opacity:0.5;fill:#faa229"
   id="rect336"
   height="1.65"
   width="1.7"
   class="st10"
   y="223.53999"
   x="1062.4906" /><rect
   style="fill:#ffba49;fill-opacity:1"
   id="rect338"
   height="1.65"
   width="1.7"
   class="st9"
   y="223.53999"
   x="1060.3506" /><rect
   style="fill:#ffba49;fill-opacity:1"
   id="rect340"
   height="1.65"
   width="10.73"
   class="st9"
   y="223.53999"
   x="1049.1807" /><polyline
   transform="translate(567.14062)"
   class="st9"
   points="466.32,173.59 437.03,173.59 437.03,163.84 523.44,163.84 523.44,173.59 466.32,173.59  "
   id="polyline344"
   style="fill:#ffba49;fill-opacity:1" /><path
   class="st4"
   d="m 1012.1206,168.71 c 0,1.22 -0.99,2.21 -2.21,2.21 -1.22,0 -2.21,-0.99 -2.21,-2.21 0,-1.22 0.99,-2.21 2.21,-2.21 1.22,-0.01 2.21,0.98 2.21,2.21 z"
   id="path346"
   style="fill:#ffffff" /><circle
   class="st4"
   cx="1016.6506"
   cy="168.71001"
   r="2.21"
   id="circle348"
   style="fill:#ffffff" /><path
   class="st4"
   d="m 1025.4706,168.71 c 0,1.22 -0.99,2.21 -2.21,2.21 -1.22,0 -2.21,-0.99 -2.21,-2.21 0,-1.22 0.99,-2.21 2.21,-2.21 1.22,-0.01 2.21,0.98 2.21,2.21 z"
   id="path350"
   style="fill:#ffffff" />
<path
   class="st9"
   d="m 882.41062,53.54 h 67.62 c 4.18,0 7.57,3.71 7.57,8.29 v 40.3 c 0,4.58 -3.39,8.29 -7.57,8.29 h -56.12 c -3.82,4.12 -12.75,13.56 -14.93,14.47 -2.8,1.17 -4.14,1.11 -4.14,-22.76 v -40.3 c 0,-4.58 3.39,-8.29 7.57,-8.29 z"
   id="path354"
   style="fill:#ffba49;fill-opacity:1" /><path
   class="st4"
   d="m 888.29062,71.34 c 0,3.56 2.89,6.45 6.45,6.45 h 44.42 c 3.56,0 6.45,-2.89 6.45,-6.45 v 0 c 0,-3.56 -2.89,-6.45 -6.45,-6.45 h -44.42 c -3.56,0 -6.45,2.89 -6.45,6.45 z"
   id="path356"
   style="fill:#ffffff" /><path
   class="st4"
   d="m 888.29062,92.56 c 0,3.56 2.89,6.45 6.45,6.45 h 44.42 c 3.56,0 6.45,-2.89 6.45,-6.45 v 0 c 0,-3.56 -2.89,-6.45 -6.45,-6.45 h -44.42 c -3.56,0 -6.45,2.89 -6.45,6.45 z"
   id="path358"
   style="fill:#ffffff" />
<path
   style="fill:#b700b7;fill-opacity:1"
   id="path362"
   d="m 877.53062,166.89 c -0.25,-0.15 -0.47,-0.28 -0.66,-0.4 -0.07,-0.1 -0.15,-0.19 -0.24,-0.27 -1.37,-1.21 -0.98,-3.82 -0.57,-5.84 0.41,-2.02 -0.86,-7.9 -4.33,-8.69 -3.47,-0.79 -4.61,1.15 -4.61,1.15 l 1.49,3.29 c 0,0 0.23,1.93 0.47,4.03 -0.52,1.47 -1.01,3.02 -1.2,4.15 l -4.26,1.3 c 0,0 -2.35,2.84 -2.11,3.56 0.24,0.73 -1.03,1.9 -2.28,2.94 -1.24,1.04 -0.3,2 0.55,3.17 0.85,1.16 0.62,1.9 0.62,1.9 0,0 1.72,-2.07 2.08,-2.37 0.36,-0.3 2.75,0.17 3.04,0.48 0.29,0.31 2.23,2.28 3.46,5.33 1.23,3.04 5.56,6.8 6.49,7.39 0.93,0.59 1.76,3.33 2.03,2.93 0.27,-0.4 0.76,-1.2 0.08,-2.03 -0.68,-0.84 -1.41,-1.65 1.26,-4.06 2.66,-2.41 2.6,-5.18 1.48,-6.35 -1.12,-1.17 0.29,-3.66 1.24,-5.72 0.94,-2.07 -2.14,-4.8 -4.03,-5.89 z"
   class="st11" /><path
   style="fill:#faa229"
   id="path364"
   d="m 872.34062,172.94 c 0.96,1.79 1.6,3.6 7.45,17.47 1.39,3.29 -0.77,2.58 -2.83,2.24 -2.06,-0.35 -6.86,-5.84 -6.75,-9.39 0.1,-3.56 2.13,-10.32 2.13,-10.32 z"
   class="st9" /><path
   style="fill:#168682;fill-opacity:1"
   id="path366"
   d="m 893.16062,236.54 c 0,0 -0.45,0.35 -0.53,0.52 -0.15,0.3 -1.15,2.52 -1.05,2.95 0.1,0.42 7.78,2.37 7.78,2.37 0,0 3.8,-0.21 4.25,-0.64 0.46,-0.43 0.32,-0.8 0.1,-0.88 -0.22,-0.08 -8.81,-4.14 -8.81,-4.14 z"
   class="st4" /><path
   style="fill:#f7a493;fill-opacity:1"
   id="path368"
   d="m 888.45062,209.57 c 0.13,-0.97 -12.55,-9.58 -12.55,-9.58 l 20.19,3.86 c 0,0 0.08,4.59 -0.95,30.33 h 0.01 l 0.04,3.68 c -0.4,0.5 -1.99,0.69 -2.27,0.18 -0.05,-0.08 -0.73,-3.62 -0.73,-3.62 -1.05,-6.56 -3.87,-23.88 -3.74,-24.85 z"
   class="st12" /><path
   style="fill:#168682;fill-opacity:1"
   id="path370"
   d="m 880.99062,239.45 c 0,0 -0.62,0.27 -0.66,0.44 -0.04,0.17 -0.85,2.03 -0.78,2.46 0.07,0.43 7.3,3.21 7.3,3.21 0,0 3.71,0.12 4.2,-0.28 0.49,-0.4 0.38,-0.77 0.16,-0.87 -0.22,-0.09 -8.5,-4.67 -8.5,-4.67 z"
   class="st4" /><path
   style="fill:#f9baad;fill-opacity:1"
   id="path372"
   d="m 885.74062,212.65 c 0.45,-0.88 -16.48,-12.03 -16.48,-12.03 l 25.91,6.6 c 0,0 -1.21,6.04 -10.98,30.13 h 0.01 l -1.22,3.5 c -0.54,0.36 -2.12,0.06 -2.21,-0.5 -0.02,-0.09 0.55,-3.65 0.55,-3.65 1.23,-6.52 3.97,-23.17 4.42,-24.05 z"
   class="st13" /><path
   style="fill:#f9baad;fill-opacity:1"
   id="path374"
   d="m 888.25062,243.1 c 0,0 -4.02,-1.79 -5.05,-2.87 l -2.43,0.11 c 0,0 -0.03,1.54 5.32,2.97 z"
   class="st13" /><path
   style="fill:#bcbec0;fill-opacity:1"
   id="path376"
   d="m 872.93062,199.05 h 0.42 c 0,0 1.8,0.35 18.07,3.72 0,0 -4.62,1 -5.62,10.53 0,0 -18.51,2.68 -23.5,-0.08 -3.11,-1.72 -6.46,-4.82 -4.36,-13.5 z"
   class="st4" /><path
   style="fill:#faa229"
   id="path378"
   d="m 873.70062,189.91 c 0,0 5.88,10.73 15.88,13.94 0,0 4.46,-1.55 3.39,-2.54 -3.08,-2.87 -7.96,-5.72 -11.91,-9.3 -3.49,-3.16 -7.36,-2.1 -7.36,-2.1 z"
   class="st9" /><path
   style="fill:#ffba49;fill-opacity:1"
   id="path380"
   d="m 857.30062,202.37 c 0,0 0.57,-2.35 2.48,-10.63 0,0 -3.16,-9.22 -2.48,-15.19 0.28,-2.51 2.18,-2.97 2.18,-2.97 0,0 1.4,-1.19 5.95,-1.56 0,0 2.88,-0.33 7.04,0.91 0,0 4.1,4.65 4.87,7.57 0.48,1.81 -1.83,7.22 -1.83,7.22 -0.21,1.95 -2.61,8.78 -1.27,11.82 0.53,1.18 -6.08,6.18 -16.94,2.83 z"
   class="st14" /><path
   style="fill:#f7a493;fill-opacity:1"
   id="path382"
   d="m 869.23062,164.94 c 0,0 -1.25,4.3 -0.04,7.34 0.67,1.68 -3.24,2.42 -5.42,0.95 0,0 -0.26,-6.29 -1.98,-7.13 -1.71,-0.83 7.44,-1.16 7.44,-1.16 z"
   class="st12" /><path
   style="fill:#f9baad;fill-opacity:1"
   id="path384"
   d="m 846.12062,211.3 c 0,0 -1.44,1.59 -4.05,1.77 -2.61,0.17 -0.06,-0.9 4.76,-3.59 z"
   class="st13" /><path
   style="fill:#f9baad;fill-opacity:1"
   id="path386"
   d="m 845.74062,211.65 c 0,0 -1.33,0.31 -3.6,0.46 -2.26,0.14 -2.41,0.08 -3.88,0.02 -1.02,-0.04 -0.19,-0.56 -0.16,-0.6 0.02,-0.03 -0.13,0.05 -0.14,-0.21 0,-0.16 0.18,-0.54 0.34,-0.7 0.1,-0.1 0.47,-0.46 0.62,-0.63 0.75,-0.76 2.14,-2.2 6.51,-2.34 0,-0.01 2.27,2.41 0.31,4 z"
   class="st13" /><path
   class="st14"
   d="m 858.70062,174.41 c 2.49,-1.34 4.55,1.49 4.55,1.49 -1.93,5.72 -8.85,12.59 -13.25,19.21 -0.68,2.73 -2.17,9.34 -3.21,14.52 0,0 -0.86,1.86 -2.23,1.68 -1.37,-0.18 -1.65,-0.98 -1.65,-0.98 -1.33,-8.41 3.95,-29.56 15.79,-35.92 z"
   id="path390"
   style="fill:#ffba49;fill-opacity:1" /><path
   style="fill:#f9baad;fill-opacity:1"
   id="path394"
   d="m 866.45062,155.03 c 0,0 -5.95,-1.84 -8.69,1.94 0,0 0.18,5.39 1.07,8.42 0.89,3.04 1.56,5.26 3.88,5.02 0,0 6.44,-1.32 6.56,-5.9 0.1,-4.13 -1.12,-8.72 -2.82,-9.48 z"
   class="st13" /><path
   style="fill:#830083;fill-opacity:1"
   id="path396"
   d="m 859.59062,156.18 c 0,0 -1.97,1.1 -1.63,4.77 0,0 -3.31,-0.36 -2.69,-2.73 0.61,-2.37 4.14,-3.67 4.14,-3.67 0,0 3.47,-1.11 5.08,-0.9 1.62,0.21 -4.9,2.53 -4.9,2.53 z"
   class="st11" /><path
   style="fill:#b700b7;fill-opacity:1"
   id="path398"
   d="m 858.65062,156.33 c 0,0 1.07,6.37 9.81,4.91 0,0 1.17,0.26 1.75,0.87 0,0 0.34,-4.16 0.73,-4.98 0.39,-0.82 -1.36,-8.25 -10.56,-2 z"
   class="st11" /><path
   style="fill:#f7a493;fill-opacity:1"
   id="path400"
   d="m 900.75062,239.68 c 0,0 -4.21,-1.76 -5.57,-2.49 l -2.26,0.83 c 0,0 1.54,1.95 5.86,2.49 z"
   class="st12" /><path
   style="fill:#ffba49;fill-opacity:1"
   id="path402"
   d="m 867.24062,152.68 c 0,0 0.31,-0.39 0.68,-0.59 0.37,-0.2 2.53,0.29 3.06,3.42 0,0 -1.17,-2.7 -3.74,-2.83 z"
   class="st14" /><polygon
   transform="translate(567.14062)"
   style="fill:#168682;fill-opacity:1"
   id="polygon404"
   points="328.03,242.27 327.25,239.73 324.35,239.97 327.04,242.5 "
   class="st4" /><polygon
   transform="translate(567.14062)"
   style="fill:#168682;fill-opacity:1"
   id="polygon406"
   points="315.39,245.42 315.28,242.78 312.41,242.37 314.38,245.42 "
   class="st4" /><path
   style="fill:#f9baad;fill-opacity:1"
   id="path408"
   d="m 868.27062,162.73 c -0.12,1.15 0.31,2.14 0.97,2.21 0.65,0.07 1.28,-0.81 1.4,-1.96 0.12,-1.15 -0.31,-2.14 -0.96,-2.21 -0.66,-0.07 -1.29,0.81 -1.41,1.96 z"
   class="st13" /><path
   style="fill:#b700b7;fill-opacity:1"
   id="path410"
   d="m 866.76062,160.66 c 0,0 1.4,1.74 1.22,4.92 0,0 1.6,-3.46 0.47,-5.22 -1.12,-1.75 -1.69,0.3 -1.69,0.3 z"
   class="st11" /><path
   style="fill:#f7a493;fill-opacity:1"
   id="path412"
   d="m 872.47062,172.92 c 0,0 -6.01,-2.11 -11.87,0.07 0,0 3.98,4.07 9.4,2.89 0,0 2.61,-1.16 2.47,-2.96 z"
   class="st12" /><path
   style="fill:#f58c76;fill-opacity:1"
   id="path416"
   d="m 889.60062,202.05 c 0,0 -1.01,1.99 0.64,3.77 1.51,1.64 1.28,0 0.48,-4.83 z"
   class="st13" /><path
   style="fill:#f58c76;fill-opacity:1"
   id="path418"
   d="m 889.35062,203.39 c 0,0 0.68,0.96 2.09,2.28 1.41,1.32 1.55,1.35 2.56,2.1 0.7,0.51 0.48,-0.33 0.49,-0.38 0.01,-0.03 0.06,0.11 0.22,-0.09 0.1,-0.12 0.22,-0.51 0.22,-0.73 0,-0.14 -0.01,-0.61 -0.02,-0.82 -0.01,-1 -0.02,-2.86 -2.83,-5.31 0.02,0 -3.02,0.67 -2.73,2.95 z"
   class="st13" />
<path
   style="fill:#e5846f"
   id="path424"
   d="m 715.38062,237.74 c 0,0 -0.78,-2.27 0.5,-4.57 1.28,-2.3 0.92,0.55 0.91,6.38 z"
   class="st12" /><path
   style="fill:#ce7f6c;fill-opacity:1"
   id="path426"
   d="m 715.29062,237.31 c 0,0 0.32,-1.73 1.63,-3.6 1.31,-1.87 1.47,-1.93 2.46,-3.03 0.69,-0.76 0.63,0.28 0.65,0.34 0.01,0.04 0.04,-0.14 0.28,0.05 0.15,0.12 0.38,0.54 0.43,0.8 0.03,0.16 0.13,0.72 0.18,0.96 0.22,1.17 0.09,3.38 -2.58,6.88 0,-0.01 -2.85,0.33 -3.05,-2.4 z"
   class="st12" /><path
   class="st12"
   d="m 693.00062,256.11 c 0,0 -3.79,4.27 -1.27,4.31 11.98,0.2 24.79,-13.23 26.62,-20.71 0,0 -1.62,-4.3 -1.64,-1.89 -0.04,4.32 -10.11,9.88 -10.11,9.88 -5.73,2.28 -8.46,4.09 -13.6,8.41 z"
   id="path430"
   style="fill:#ce7f6c;fill-opacity:1" /><path
   style="fill:#ce7f6c;fill-opacity:1"
   id="path434"
   d="m 715.55062,238.47 c 0,0 -1.95,2.98 -8.96,9.22 l 4.67,0.98 7.17,-10 -2.54,-1.6 z"
   class="st12" /><path
   class="st11"
   d="m 695.85062,239.14 c 0,0 1.52,11.92 1.34,13.83 0,0 -5.29,0.71 -8.61,-0.21 0.01,0 1.31,-12.45 7.27,-13.62 z"
   id="path438"
   style="fill:#1a1a1a" /><path
   class="st3"
   d="m 685.19062,349.33 c 0,0 -0.58,0.13 -0.63,0.3 -0.05,0.17 -0.88,2.41 -0.85,2.84 0.03,0.44 6.89,2.95 6.89,2.95 0,0 3.61,0.71 4.09,0.34 0.49,-0.37 0.41,-0.75 0.21,-0.86 -0.2,-0.11 -7.65,-5.27 -7.65,-5.27 z"
   id="path440"
   style="fill:#2d3047;fill-opacity:1" /><path
   class="st13"
   d="m 686.16062,346.46 c 0,0 -0.78,3.54 -0.78,3.64 0.05,0.58 1.5,0.98 2.04,0.65 l 1.39,-3.44 z"
   id="path442"
   style="fill:#ce7f6c;fill-opacity:1" /><path
   class="st9"
   d="m 700.04062,283.99 c 3.55,8.11 2.77,28.31 0.54,39.43 0,0 -6.38,-0.8 -7.27,-3.57 -0.89,-2.77 -2.45,-33.98 -2.45,-33.98 0,0 3.94,-13.86 9.18,-1.88 z"
   id="path444"
   style="fill:#2d3047;fill-opacity:1" /><path
   class="st9"
   d="m 696.01062,315.49 c 0,0 -3.32,5.84 -3.81,6.7 -0.49,0.85 -5.18,19.29 -6.81,25.77 0,0 2.04,1.78 3.12,0.79 1.67,-1.52 12.07,-25.33 12.07,-25.33 z"
   id="path446"
   style="fill:#2d3047;fill-opacity:1" /><path
   class="st3"
   d="m 682.50062,353.56 c 0,0 -0.54,0.27 -0.54,0.44 -0.01,0.18 -0.28,2.55 -0.14,2.96 0.14,0.42 7.4,1.22 7.4,1.22 0,0 3.67,-0.18 4.06,-0.65 0.38,-0.47 0.22,-0.83 0,-0.89 -0.22,-0.06 -8.69,-3.29 -8.69,-3.29 z"
   id="path448"
   style="fill:#2d3047;fill-opacity:1" /><path
   class="st13"
   d="m 682.63062,350.19 c 0,0 -0.09,3.65 -0.07,3.72 0.17,0.55 1.74,0.59 2.21,0.17 l 0.91,-3.51 z"
   id="path450"
   style="fill:#ce7f6c;fill-opacity:1" /><path
   class="st14"
   d="m 690.12062,284.67 c 0.09,1.33 8.51,-0.66 8.6,0.71 0.33,5.12 -1.33,15.94 -4.49,24.14 -3.17,22.05 -7.4,37.57 -8.58,42.21 -0.49,1.93 -3.79,0.07 -3.79,0.07 -0.35,-12.39 -0.88,-42.32 -1.92,-44.85 -1.58,-13.14 0.79,-19.27 2.3,-20.74 4.47,-4.36 4.51,-1.58 7.88,-1.54 z"
   id="path452"
   style="fill:#6d466b;fill-opacity:1" /><path
   class="st13"
   d="m 685.02062,244.31 c 0.43,1.52 0.08,2.95 -0.78,3.19 -0.86,0.24 -1.91,-0.79 -2.34,-2.31 -0.43,-1.52 -0.08,-2.95 0.78,-3.19 0.86,-0.24 1.91,0.79 2.34,2.31 z"
   id="path454"
   style="fill:#f79e8c" /><path
   class="st4"
   d="m 680.73062,287.68 c 0,0 3.17,-3.69 3.27,-8.24 l -3.54,-20.99 v -2.35 c 0,0 1.6,-1.36 6.78,-1.78 0,0 3.28,-0.37 8.02,1.03 0,0 3.69,3.8 4.58,7.12 0.55,2.07 -0.44,8.54 -0.22,10.06 0.31,2.11 1.23,13.58 1.51,15.03 0.27,1.46 -8.03,3.93 -20.4,0.12 z"
   id="path456"
   style="fill:#bcbec0;fill-opacity:1" /><path
   class="st12"
   d="m 683.09062,254.99 c 0,0 3.1,-0.76 3.63,-0.72 0.53,0.04 4.29,-0.1 6.41,0.53 1.32,0.39 0.99,5.63 0.86,5.76 -0.14,0.13 -6.09,-1.78 -10.9,-5.57 z"
   id="path458"
   style="fill:#ce7f6c;fill-opacity:1" /><path
   class="st12"
   d="m 684.77062,246.15 c 0,0 1.42,5.52 1.62,8.69 0,0 2.5,2.24 4.67,0.17 0,0 0.84,-8.29 2.6,-9.57 1.76,-1.27 -8.89,0.71 -8.89,0.71 z"
   id="path460"
   style="fill:#ce7f6c;fill-opacity:1" /><path
   class="st13"
   d="m 685.12062,293.86 c 0,0 1.52,0.74 2.17,2.93 0.65,2.19 -0.69,0.32 -3.73,-2.98 z"
   id="path462"
   style="fill:#d38b79;fill-opacity:1" /><path
   class="st13"
   d="m 685.46062,294.08 c 0,0 0.51,1.04 1.06,2.94 0.56,1.89 0.54,2.04 0.78,3.32 0.17,0.88 -0.39,0.33 -0.44,0.32 -0.03,-0.01 0.06,0.1 -0.13,0.18 -0.12,0.05 -0.45,0.02 -0.61,-0.07 -0.1,-0.05 -0.46,-0.26 -0.61,-0.34 -0.74,-0.41 -2.13,-1.16 -3.1,-4.86 0,0 1.44,-2.69 3.05,-1.49 z"
   id="path464"
   style="fill:#d38b79;fill-opacity:1" /><path
   style="fill:#d38b79;fill-opacity:1"
   id="path468"
   d="m 684.95062,295.51 0.8,-0.47 -0.88,-1.23 c 0,0 -1.27,-3.85 -2.46,-14.77 1.15,-7.08 1.15,-10.93 0.48,-18.78 0,0 -1.32,-6.49 -2.61,-4.05 -6.18,11.59 -2.46,32.87 2.26,39.53 0,0 0.23,0.07 0.56,0.15 l 0.17,0.59 0.68,-0.4 c 0.91,0.18 1.78,0.21 1,-0.57 z"
   class="st13" /><path
   class="st13"
   d="m 685.10062,234.6 c 0,0 6.32,-3.21 10.13,0.5 0,0 0.99,5.31 0.58,8.89 -0.41,3.58 -0.88,6.98 -3.53,7.17 0,0 -7.48,-0.24 -8.51,-5.36 -0.91,-4.62 -0.42,-10.01 1.33,-11.2 z"
   id="path472"
   style="fill:#d38b79;fill-opacity:1" /><path
   class="st11"
   d="m 696.28062,235.69 c -1.15,-2.54 -2.43,-2.37 -2.43,-2.37 0,0 -1.51,-0.36 -3.18,-0.59 -0.96,-0.21 -1.85,-0.25 -2.66,-0.19 -0.38,0.01 -0.71,0.05 -0.98,0.14 -2.54,0.5 -4.03,1.99 -4.03,1.99 -2.92,2.96 -2.15,14.9 -2.15,14.9 1.64,3.17 6.93,4.6 6.93,4.6 l -0.55,-12.2 c 3.11,-2.06 5.84,-6.11 6.63,-7.35 0.11,0.59 0.63,2.95 2.34,6.36 0.02,0 1.23,-2.75 0.08,-5.29 z"
   id="path474"
   style="fill:#333333" /><polygon
   transform="translate(567.14062)"
   class="st14"
   points="120.61,241.62 117.49,240.98 117.38,241.59 120.14,242.67 "
   id="polygon476"
   style="fill:#ffba49;fill-opacity:1" />
<path
   style="fill:#009688;fill-opacity:1"
   id="path480"
   d="m 995.20062,260.5 c 0,0 3.83,0.14 8.00998,4.27 0,0 -0.8,2.03 -3.11,2.41 z"
   class="st3" /><path
   class="st3"
   d="m 988.51062,260.66 c 0,0 4.23,-2.68 9.5,1.07 5.27998,3.74 3.78998,13.34 2.34998,18.15 0,0 -5.06998,4.2 -11.60998,0.67 0.01,-0.01 -2.47,-17.84 -0.24,-19.89 z"
   id="path482"
   style="fill:#009688;fill-opacity:1" /><path
   class="st3"
   d="m 992.17062,259.98 c 0,0 0.58,-2.85 2.71,-2.87 0,0 1.98,0.26 1.17,2.24 -0.63,1.53 -1.39,1.08 -1.39,1.08 l -0.39,-0.23 c 0,0 1.49,-1.48 0.5,-2 0,0 -1.27,-0.6 -2.23,1.84 z"
   id="path484"
   style="fill:#282660" /><path
   style="fill:#813400;fill-opacity:1"
   id="path490"
   d="m 989.50062,264.87 c 0,0 11.50998,2.38 7.23,-15.76 l -4.66,8.48 z"
   class="st11" /><path
   style="fill:#813400;fill-opacity:1"
   id="path492"
   d="m 978.55062,258.58 c 0,0 -2.51,-11.61 0.31,-15.62 2.82,-4.02 2.22,1.65 2.22,1.65 0,0 3.2,10.04 3.34,10.26 0.14,0.22 -0.95,4.44 -0.95,4.44 z"
   class="st11" /><path
   style="fill:#e5846f"
   id="path494"
   d="m 979.70062,259.16 c -1.33,1.82 -0.99,1.33 -10.29,15.35 -2.18,3.3 -1.83,4.15 0.49,4.09 2.32,-0.07 8.88,-5.36 9.29,-9.27 0.42,-3.91 0.51,-10.17 0.51,-10.17 z"
   class="st12" /><path
   style="fill:#e5846f"
   id="path496"
   d="m 974.64062,275.38 c 0,0 -7.55,9.62 -19.04,11.58 0,0 -2.64,-0.41 -0.75,-2.43 1.89,-2.02 4.44,-0.69 13.56,-9.86 3.68,-3.7 6.23,0.71 6.23,0.71 z"
   class="st12" /><path
   style="fill:#2d3047;fill-opacity:1"
   id="path498"
   d="m 982.21062,351.11 c 0,0 0.52,0.26 0.52,0.44 0,0.17 0.25,2.48 0.11,2.89 -0.14,0.4 -7.21,1.11 -7.21,1.11 0,0 -3.57,-0.21 -3.94,-0.67 -0.37,-0.47 -0.21,-0.81 0.01,-0.87 0.21,-0.06 8.49,-3.12 8.49,-3.12 z"
   class="st3" /><path
   style="fill:#f79e8c"
   id="path500"
   d="m 981.99062,348.17 c 0,0 -0.12,3.53 -0.15,3.62 -0.19,0.53 -1.66,0.56 -2.08,0.12 l -0.48,-3.58 z"
   class="st13" /><path
   style="fill:#2d3047;fill-opacity:1"
   id="path502"
   d="m 975.05062,287.04 c -3.46,7.9 -2.69,27.56 -0.53,38.38 0,0 6.21,-0.78 7.08,-3.48 0.87,-2.7 2.39,-33.08 2.39,-33.08 0,0 -3.83,-13.47 -8.94,-1.82 z"
   class="st3" /><path
   style="fill:#2d3047;fill-opacity:1"
   id="path504"
   d="m 980.21062,316.59 c 0,0 1.71,6.31 1.97,7.24 0.25,0.92 0.21,19.45 0.17,25.94 0,0 -2.35,1.18 -3.14,-0.02 -1.21,-1.84 -5.23,-26.81 -5.23,-26.81 z"
   class="st3" /><path
   style="fill:#2d3047;fill-opacity:1"
   id="path506"
   d="m 992.13062,354.76 c 0,0 0.52,0.26 0.53,0.43 0.01,0.17 0.27,2.48 0.14,2.89 -0.13,0.4 -7.2,1.18 -7.2,1.18 0,0 -3.57,-0.17 -3.95,-0.63 -0.37,-0.46 -0.21,-0.81 0,-0.87 0.21,-0.06 8.46,-3.2 8.46,-3.2 z"
   class="st3" /><path
   style="fill:#f79e8c"
   id="path508"
   d="m 992.00062,351.49 c 0,0 0.09,3.55 0.07,3.62 -0.17,0.54 -1.69,0.57 -2.15,0.16 l -0.89,-3.42 z"
   class="st13" /><path
   style="fill:#6d466b;fill-opacity:1"
   id="path510"
   d="m 984.71062,287.71 c -0.09,1.3 -9.55,0.29 -9.63,1.62 -0.32,4.98 2.56,14.59 5.63,22.57 3.09,21.46 7.2,36.56 8.35,41.08 0.48,1.88 3.69,0.07 3.69,0.07 0.34,-12.06 0.34,-48 1.36,-50.47 2.36,-5.81 0,-6.56 -1.73,-13.38 -1.49,-5.89 -4.39,-1.53 -7.67,-1.49 z"
   class="st11" /><path
   style="fill:#f79e8c"
   id="path512"
   d="m 989.68062,248.43 c -0.42,1.48 -0.08,2.87 0.76,3.11 0.84,0.24 1.86,-0.77 2.28,-2.25 0.42,-1.48 0.08,-2.87 -0.76,-3.11 -0.84,-0.24 -1.86,0.77 -2.28,2.25 z"
   class="st13" /><path
   style="fill:#bcbec0;fill-opacity:1"
   id="path514"
   d="m 992.97062,290.62 c 0,0 -2.95,-8.18 -3.05,-12.61 l 4.19,-15.84 v -2.28 c 0,0 -1.55,-1.32 -6.6,-1.73 0,0 -3.19,-0.36 -7.8,1 0,0 -3.6,3.7 -4.46,6.93 -0.54,2.01 0.43,8.31 0.22,9.8 -0.3,2.05 -1.19,13.22 -1.46,14.63 -0.28,1.42 6.92,3.81 18.96,0.1 z"
   class="st4" /><path
   style="fill:#009688;fill-opacity:1"
   id="path516"
   d="m 991.34062,280.55 -0.57,0.04 c 0,0 -5.14,-16.37 -1.5,-21.34 l 2.17,-0.44 c 0.01,0 -2.74,0.03 -0.1,21.74 z"
   class="st3" /><path
   class="st14"
   d="m 999.30062,302.76 c -0.14,0.73 -0.81,1.21 -1.49,1.08 l -19.08,-3.7 c -0.68,-0.13 -1.12,-0.83 -0.98,-1.56 l 2.38,-12.25 c 0.14,-0.73 0.81,-1.21 1.49,-1.08 l 19.07998,3.7 c 0.68,0.13 1.12,0.83 0.98,1.56 z"
   id="path518"
   style="fill:#ffba49;fill-opacity:1" /><path
   class="st9"
   d="m 1000.7006,288.94 -0.3,-0.06 c -3.16998,5.22 -8.99998,9 -14.39998,10.84 -1.18,0.4 -2.39,0.79 -3.61,1.12 l 15.42,2.99 c 0.68,0.13 1.35,-0.35 1.49,-1.08 l 2.37998,-12.25 c 0.14,-0.72 -0.3,-1.42 -0.98,-1.56 z"
   id="path520"
   style="fill:#faa229" /><path
   class="st4"
   d="m 991.09062,294.81 c -0.16,0.81 -0.9,1.35 -1.66,1.2 -0.76,-0.15 -1.25,-0.93 -1.09,-1.74 0.16,-0.81 0.9,-1.35 1.66,-1.2 0.76,0.15 1.25,0.93 1.09,1.74 z"
   id="path522"
   style="fill:#ffffff" /><path
   style="fill:#e5846f"
   id="path526"
   d="m 991.55062,258.81 c 0,0 -3.02,-0.74 -3.53,-0.7 -0.52,0.04 -4.17,-0.1 -6.24,0.52 -1.28,0.38 -0.96,5.48 -0.84,5.61 0.14,0.13 5.93,-1.73 10.61,-5.43 z"
   class="st12" /><path
   style="fill:#e5846f"
   id="path528"
   d="m 989.92062,250.22 c 0,0 -1.38,5.37 -1.58,8.46 0,0 -2.44,2.18 -4.54,0.16 0,0 -0.81,-8.07 -2.53,-9.31 -1.72,-1.24 8.65,0.69 8.65,0.69 z"
   class="st12" /><path
   class="st13"
   d="m 994.41062,260.24 c -1.24,-2.45 -2.5,4.07 -2.5,4.07 -0.65,7.89 -0.65,11.75 0.46,18.87 -1.14,10.98 -2.36,14.85 -2.36,14.85 l -0.84,1.24 0.77,0.47 c -0.75,0.78 0.08,0.75 0.95,0.58 l 0.65,0.4 0.17,-0.59 c 0.31,-0.09 0.54,-0.16 0.54,-0.16 4.52,-6.7 8.06998,-28.08 2.16,-39.73 z"
   id="path530"
   style="fill:#f79e8c" /><path
   style="fill:#f79e8c"
   id="path534"
   d="m 989.59062,238.97 c 0,0 -6.15,-3.13 -9.86,0.49 0,0 -0.82,5.92 -0.42,9.41 0.39,3.49 0.71,6.04 3.29,6.22 0,0 7.28,-0.23 8.28,-5.22 0.89,-4.49 0.42,-9.74 -1.29,-10.9 z"
   class="st13" /><path
   class="st12"
   d="m 956.86062,283.1 c 0,0 -1.75,-1.21 -4.05,-0.64 -2.3,0.56 0.25,0.93 5.25,2.29 z"
   id="path536"
   style="fill:#e5846f" /><path
   class="st12"
   d="m 955.55062,282.67 c 0,0 -1.22,0.24 -3.12,1.02 -1.89,0.78 -1.99,0.9 -3.15,1.55 -0.8,0.45 0.11,0.6 0.16,0.64 0.03,0.02 -0.13,0.01 -0.02,0.25 0.07,0.15 0.39,0.44 0.6,0.53 0.13,0.06 0.6,0.26 0.8,0.34 0.97,0.42 2.76,1.24 6.36,-0.4 0.01,0.01 0.7,-3.22 -1.63,-3.93 z"
   id="path538"
   style="fill:#e5846f" /><path
   style="fill:#aa4400"
   id="path542"
   d="m 995.53062,244.52 c -2.02,-5.65 -3.43,-7.84 -7.75,-7.4 -0.02,-0.01 -0.04,-0.02 -0.07,-0.03 -1.73,-0.54 -5.73,0.03 -5.73,0.03 0,0 -4.1,0.76 -5.22,3.24 -1.12,2.47 2.14,3.49 2.14,3.49 0.88,-1.76 1.57,-2.93 2.07,-3.69 0.25,1.04 1.45,2.25 5.88,1.83 0,0 0.82,0.14 0,1.17 -0.82,1.03 0.16,4.27 4.34,2.99 0,0 0.76,1.48 -0.42,4.11 0,0 -7.92,10.39 -6.35,13.57 1.57,3.18 2.43,-2.95 8.46,-4.58 4.8,-1.29 5.01,-8.13 2.65,-14.73 z"
   class="st11" /><path
   style="fill:#813400;fill-opacity:1"
   id="path544"
   d="m 978.37062,264.32 c 0,0 2.48,-1.41 4.2,-3.67 1.72,-2.27 1.55,-3.37 0,-4.98 -1.55,-1.61 -3.75,0.48 -3.75,0.48 0,0 -2.79,6.39 -0.45,8.17 z"
   class="st11" /><path
   class="st13"
   d="m 989.90062,297.78 c 0,0 -1.61,0.5 -2.64,2.64 -1.03,2.14 0.61,0.46 4.16,-2.41 z"
   id="path546"
   style="fill:#f79e8c" /><path
   class="st13"
   d="m 987.27062,302.54 c 0.13,0.07 0.25,0.14 0.38,0.2 0.77,0.39 1.72,0.52 2.58,0.49 0.61,-0.64 1.29,-1.64 1.99,-3.22 0,0 -0.9,-3.02 -2.69,-2.07 0,0 -0.68,0.99 -1.57,2.84 -0.38,0.79 -0.59,1.27 -0.76,1.66 0.02,0.04 0.05,0.07 0.07,0.1 z"
   id="path548"
   style="fill:#f79e8c" />
<path
   class="st8"
   d="m 710.52062,183.11 h 44.66 c 2.76,0 5,2.45 5,5.47 v 26.61 c 0,3.02 -2.24,5.47 -5,5.47 h -37.06 c -2.52,2.72 -8.42,8.96 -9.86,9.56 -1.85,0.77 -2.73,0.74 -2.73,-15.03 v -26.61 c -0.01,-3.02 2.23,-5.47 4.99,-5.47 z"
   id="path556"
   style="fill:#168682;fill-opacity:1" /><path
   class="st4"
   d="m 724.93062,201.98 c 0,2.85 -2.31,5.17 -5.17,5.17 v 0 c -2.85,0 -5.17,-2.31 -5.17,-5.17 v 0 c 0,-2.85 2.31,-5.17 5.17,-5.17 v 0 c 2.86,0.01 5.17,2.32 5.17,5.17 z"
   id="path558"
   style="fill:#ffffff" /><path
   class="st4"
   d="m 738.55062,201.98 c 0,2.85 -2.31,5.17 -5.17,5.17 v 0 c -2.85,0 -5.17,-2.31 -5.17,-5.17 v 0 c 0,-2.85 2.31,-5.17 5.17,-5.17 v 0 c 2.85,0.01 5.17,2.32 5.17,5.17 z"
   id="path560"
   style="fill:#ffffff" /><path
   class="st4"
   d="m 752.16062,201.98 c 0,2.85 -2.31,5.17 -5.16,5.17 v 0 c -2.85,0 -5.17,-2.31 -5.17,-5.17 v 0 c 0,-2.85 2.31,-5.17 5.17,-5.17 v 0 c 2.85,0.01 5.16,2.32 5.16,5.17 z"
   id="path562"
   style="fill:#ffffff" />
</svg>