<?xml version="1.0" encoding="utf-8"?>
<!-- Generator: Adobe Illustrator 23.0.0, SVG Export Plug-In . SVG Version: 6.00 Build 0)  -->
<svg version="1.1" id="Capa_1" xmlns="http://www.w3.org/2000/svg" xmlns:xlink="http://www.w3.org/1999/xlink" x="0px" y="0px"
	 viewBox="0 0 543.57 425.2" style="enable-background:new 0 0 543.57 425.2;" xml:space="preserve">
<style type="text/css">
	.st0{fill:#FFFFFF;}
	.st1{opacity:0.2;fill:#495BA9;}
	.st2{opacity:0.4;fill:#FFFFFF;}
	.st3{fill:#282660;}
	.st4{fill:#2E3192;}
	.st5{opacity:0.8;fill:#FFFFFF;}
	.st6{fill:#BEB9DC;}
	.st7{opacity:0.2;fill:#2E3192;}
	.st8{fill:#FDBC56;}
	.st9{opacity:0.5;fill:#2E3192;}
	.st10{opacity:0.5;fill:#FFFFFF;}
	.st11{fill:#0C8881;}
	.st12{fill:#E5846F;}
	.st13{fill:#F79E8C;}
	.st14{fill:#00A79D;}
	.st15{fill:#BCBEC0;}
	.st16{fill:#01706B;}
	.st17{fill:#E6E7E8;}
	.st18{fill:#FAA229;}
	.st19{opacity:0.5;fill:#BCBEC0;}
</style>
<rect class="st0" width="543.57" height="425.2"/>
<g>
	<rect class="st0" width="543.57" height="425.2"/>
	<g>
		<rect y="0" class="st0" width="543.57" height="425.2"/>
		<rect y="0" class="st1" width="543.57" height="425.2"/>
	</g>
</g>
<path class="st2" d="M509.18,258.61c-9.63,0.21-19.33-0.53-28.97-1.8v-69.85c1.86-0.93,3.64-2.06,5.32-3.34
	c0.37-0.27,0.74-0.55,1.1-0.83c2.02-1.61,3.84-3.47,5.39-5.5c0.31-0.41,0.61-0.82,0.9-1.24c2.22-3.19,4.66-7.5,2.07-11.1
	c-1.01-1.58-3.16-1.72-4.15-3.26c-0.37-0.47-0.64-1.01-0.78-1.59c-0.14-0.59-0.14-1.22,0.04-1.91c0.11-0.43,0.26-0.84,0.43-1.23
	c0.17-0.39,0.37-0.76,0.58-1.12c0.14-0.67,0.71-1.11,1.14-1.39c0.84-0.7,1.63-1.44,2.36-2.22c0.24-0.26,0.48-0.53,0.71-0.79
	c0.28-0.3,0.55-0.6,0.81-0.91c1.2-1.52,2.2-3.22,2.95-5.02c0.19-0.45,0.36-0.91,0.51-1.37c0.57-2.02,0.8-4.14,0.7-6.24
	c-0.03-0.53-0.07-1.05-0.14-1.57c-0.57-4.15-2.29-8.61-5.92-11c-0.39-0.24-0.78-0.48-1.14-0.75c-0.36-0.27-0.7-0.56-0.99-0.89
	c-0.14-0.29-0.29-0.72-0.14-1.01c0.29-0.86,0.77-1.68,1.25-2.49c0.24-0.41,0.49-0.82,0.71-1.23c1.38-3.4,1.3-6.76,0.22-9.8
	c-0.18-0.51-0.39-1.01-0.62-1.5c-0.61-1.4-1.4-2.83-2.36-4.17c-0.32-0.45-0.65-0.88-1-1.31c-0.56-0.85-1.21-1.65-1.92-2.37
	c-0.36-0.36-0.73-0.7-1.12-1.03c-0.37-0.35-0.75-0.69-1.15-0.99c-3.2-2.72-8.23-2.86-11.39,0.01c-1.44,1.58-0.58,3.59-1.01,5.61
	c-0.14,0.43-0.29,0.72-0.62,1.04c-0.21,0.29-0.46,0.56-0.72,0.81c-0.27,0.26-0.56,0.5-0.87,0.73c-0.38,0.28-0.78,0.55-1.2,0.82
	c-0.31,0.22-0.63,0.44-0.97,0.65c-2.07,0.95-4.05,2.32-5.57,4.05c-0.3,0.35-0.59,0.71-0.86,1.08c-0.5,0.77-0.94,1.61-1.31,2.5
	c-0.37,0.89-0.67,1.83-0.9,2.79c-0.79,4.07-0.64,9.24,2.74,12.16c0.28,0.24,0.57,0.46,0.89,0.67c0.32,0.21,0.65,0.39,1,0.56
	c0.76,0.59,1.62,0.45,2.31,0.79c0.57,0.2,1.13,0.39,1.68,0.57c3.31,1.13,6.07,2.4,5.82,4.98c-0.05,0.97-1.08,1.46-2.53,1.78
	c-0.49,0.11-1.02,0.2-1.58,0.29c-2.36,0.52-4.66,0.52-6.8,1.62c-0.4,0.19-0.78,0.38-1.13,0.57c-1.19,0.78-2.05,1.64-2.52,2.95
	c-0.12,0.29-0.21,0.6-0.28,0.92c-0.06,0.32-0.09,0.65-0.09,1c0.02,0.39,0.05,0.78,0.08,1.16c0.03,0.42,0.06,0.83,0.1,1.25
	c0.04,0.41,0.07,0.82,0.13,1.24c1.03,3.37,2.94,6.24,5,9.05c0.26,0.35,0.52,0.7,0.78,1.05c0.3,0.39,0.57,0.8,0.84,1.2
	c0.63,0.88,1.44,1.7,2.29,2.49c0.28,0.26,0.57,0.53,0.86,0.79c1.97,1.98,6,4.72,3.7,7.45c-0.67,0.85-1.5,1.57-2.39,2.23
	c-0.3,0.22-0.6,0.44-0.91,0.65c-1.65,1.12-3.42,2.59-4.61,4.33c-0.24,0.35-0.46,0.71-0.64,1.08c-1.51,2.49-1.51,6.08,0.5,8.09
	c0.41,0.36,0.83,0.61,1.28,0.78c0.44,0.17,0.9,0.25,1.36,0.28c0.47-0.02,0.94-0.05,1.41-0.1c0.47-0.05,0.93-0.11,1.4-0.19
	c1.83-0.16,3.58-0.55,5.27-1.11v67.81c-8.11-1.18-16.16-2.71-24.1-4.33c-12.48-2.56-24.79-6.06-36.94-10.15
	c-45.99-15.46-89.11-41.47-136.48-51.47c-18.31-1.59-36.73-0.53-55,1.74c-18.25,3.26-35.86,7.91-53.34,15.27
	c-21.25,8.94-41.93,19.84-63.79,26.9c-5.68,1.83-11.44,3.38-17.26,4.69v-82.33c2.25-1.13,4.4-2.49,6.43-4.03
	c0.45-0.33,0.89-0.66,1.32-1.01c2.44-1.94,4.63-4.19,6.51-6.64c0.38-0.49,0.74-0.99,1.09-1.5c2.68-3.85,5.63-9.06,2.5-13.4
	c-1.21-1.91-3.82-2.08-5.01-3.94c-0.45-0.57-0.78-1.21-0.94-1.92c-0.16-0.71-0.16-1.48,0.05-2.3c0.14-0.52,0.31-1.01,0.52-1.48
	c0.21-0.47,0.44-0.92,0.71-1.35c0.16-0.81,0.86-1.34,1.38-1.68c1.01-0.85,1.97-1.74,2.85-2.68c0.29-0.32,0.58-0.63,0.86-0.96
	c0.34-0.36,0.67-0.73,0.98-1.1c1.45-1.83,2.66-3.88,3.56-6.06c0.23-0.54,0.43-1.1,0.62-1.66c0.69-2.44,0.96-4.99,0.84-7.53
	c-0.03-0.63-0.09-1.27-0.17-1.9c-0.69-5.01-2.77-10.4-7.15-13.28c-0.47-0.29-0.94-0.58-1.38-0.9c-0.44-0.32-0.84-0.67-1.19-1.08
	c-0.17-0.35-0.35-0.87-0.17-1.22c0.35-1.04,0.93-2.03,1.51-3.01c0.29-0.49,0.59-0.98,0.85-1.48c1.67-4.1,1.56-8.17,0.26-11.84
	c-0.22-0.61-0.47-1.22-0.75-1.81c-0.74-1.69-1.7-3.41-2.84-5.03c-0.38-0.54-0.79-1.07-1.21-1.58c-0.68-1.03-1.46-1.99-2.32-2.86
	c-0.43-0.44-0.88-0.85-1.35-1.24c-0.44-0.43-0.91-0.83-1.39-1.2c-3.87-3.28-9.94-3.46-13.76,0.02c-1.74,1.91-0.7,4.34-1.21,6.77
	c-0.17,0.52-0.35,0.87-0.75,1.25c-0.26,0.35-0.55,0.67-0.87,0.98c-0.32,0.31-0.67,0.6-1.04,0.89c-0.45,0.34-0.94,0.66-1.45,0.99
	c-0.38,0.27-0.77,0.53-1.18,0.78c-2.5,1.14-4.89,2.81-6.73,4.9c-0.37,0.42-0.71,0.85-1.03,1.3c-0.6,0.93-1.13,1.94-1.58,3.02
	c-0.45,1.07-0.81,2.21-1.08,3.38c-0.95,4.91-0.78,11.16,3.31,14.69c0.33,0.29,0.69,0.56,1.08,0.8c0.38,0.25,0.78,0.48,1.21,0.68
	c0.92,0.72,1.96,0.54,2.79,0.95c0.68,0.24,1.37,0.47,2.03,0.69c3.99,1.36,7.33,2.89,7.03,6.02c-0.06,1.17-1.3,1.76-3.06,2.15
	c-0.59,0.13-1.23,0.24-1.91,0.35c-2.84,0.62-5.62,0.62-8.21,1.95c-0.49,0.23-0.94,0.46-1.36,0.68c-1.44,0.94-2.48,1.98-3.04,3.56
	c-0.14,0.36-0.26,0.73-0.33,1.11c-0.07,0.38-0.11,0.79-0.11,1.2c0.03,0.47,0.06,0.94,0.09,1.4c0.04,0.5,0.08,1.01,0.12,1.5
	c0.04,0.5,0.09,1,0.16,1.5c1.24,4.06,3.55,7.54,6.04,10.93c0.31,0.42,0.63,0.85,0.94,1.27c0.36,0.48,0.69,0.96,1.01,1.45
	c0.77,1.07,1.74,2.05,2.77,3.01c0.34,0.32,0.69,0.63,1.04,0.95c2.38,2.4,7.25,5.69,4.47,8.99c-0.81,1.03-1.81,1.89-2.89,2.7
	c-0.36,0.27-0.72,0.53-1.09,0.79c-2,1.35-4.13,3.13-5.57,5.23c-0.29,0.42-0.55,0.86-0.78,1.3c-1.83,3-1.83,7.34,0.6,9.78
	c0.49,0.43,1.01,0.74,1.54,0.94c0.53,0.21,1.08,0.31,1.64,0.34c0.57-0.02,1.13-0.07,1.7-0.12c0.57-0.06,1.13-0.13,1.69-0.23
	c2.21-0.2,4.32-0.67,6.36-1.34v81.45c-10.47,2.15-21.07,3.57-31.6,4.52C45,245.2,36.5,245.11,28,243.86
	c-9.25-1.37-18.72-2.42-28-4.36v185.7h543.57V254.48C532.26,257.16,520.55,258.36,509.18,258.61z"/>
<polygon class="st1" points="317.58,335.29 543.57,335.29 543.57,273.72 432.97,273.81 "/>
<g>
	<path class="st3" d="M209.83,271.47c0,8.68,7.45,15.71,16.65,15.71h194.25c9.19,0,16.65-7.04,16.65-15.71V147.15
		c0-8.68-7.45-15.71-16.65-15.71H226.48c-9.19,0-16.65,7.03-16.65,15.71V271.47z"/>
	<path class="st4" d="M200.04,271.47c0,8.68,7.45,15.71,16.65,15.71h194.25c9.19,0,16.65-7.04,16.65-15.71V147.15
		c0-8.68-7.45-15.71-16.65-15.71H216.69c-9.19,0-16.65,7.03-16.65,15.71V271.47z"/>
	<rect x="210.22" y="147.18" class="st0" width="206.36" height="121.56"/>
	<polygon class="st0" points="106.89,335.29 334.43,335.29 427.59,286.14 200.04,286.14 	"/>
	<polygon class="st3" points="420.45,273.85 427.59,272.4 427.59,286.14 334.43,335.29 106.89,335.29 106.89,321.54 	"/>
	<polygon class="st4" points="106.89,321.54 334.43,321.54 427.59,272.4 200.04,272.4 	"/>
	<polygon class="st5" points="106.89,321.54 334.43,321.54 427.59,272.4 200.04,272.4 	"/>
	<path class="st6" d="M194.14,275.51c8.65,5.88,17.61,11.3,26.78,16.34c20.46,11.24,41.85,20.74,63.41,29.7H106.89L194.14,275.51z"
		/>
	<g>
		<polygon class="st0" points="370.55,275.39 379.94,275.39 383.79,273.36 374.4,273.36 		"/>
		<polygon class="st3" points="383.49,272.85 383.79,272.79 383.79,273.64 379.95,275.91 370.55,275.74 370.55,274.85 		"/>
		<polygon class="st4" points="370.55,274.82 379.94,274.82 383.79,272.79 374.4,272.79 		"/>
		<polygon class="st0" points="370.55,274.82 379.94,274.82 383.79,272.79 374.4,272.79 		"/>
	</g>
	<g>
		<polygon class="st0" points="357.16,275.39 366.55,275.39 370.4,273.36 361.01,273.36 		"/>
		<polygon class="st3" points="370.1,272.85 370.4,272.79 370.4,273.64 366.56,275.91 357.16,275.74 357.16,274.85 		"/>
		<polygon class="st4" points="357.16,274.82 366.55,274.82 370.4,272.79 361.01,272.79 		"/>
		<polygon class="st0" points="357.16,274.82 366.55,274.82 370.4,272.79 361.01,272.79 		"/>
	</g>
	<g>
		<polygon class="st0" points="343.77,275.39 353.16,275.39 357.01,273.36 347.62,273.36 		"/>
		<polygon class="st3" points="356.71,272.85 357.01,272.79 357.01,273.64 353.17,275.91 343.77,275.74 343.77,274.85 		"/>
		<polygon class="st4" points="343.77,274.82 353.16,274.82 357.01,272.79 347.62,272.79 		"/>
		<polygon class="st0" points="343.77,274.82 353.16,274.82 357.01,272.79 347.62,272.79 		"/>
	</g>
	<g>
		<polygon class="st0" points="330.38,275.39 339.77,275.39 343.62,273.36 334.23,273.36 		"/>
		<polygon class="st3" points="343.32,272.85 343.62,272.79 343.62,273.64 339.78,275.91 330.38,275.74 330.38,274.85 		"/>
		<polygon class="st4" points="330.38,274.82 339.77,274.82 343.62,272.79 334.23,272.79 		"/>
		<polygon class="st0" points="330.38,274.82 339.77,274.82 343.62,272.79 334.23,272.79 		"/>
	</g>
	<g>
		<polygon class="st0" points="316.99,275.39 326.38,275.39 330.22,273.36 320.83,273.36 		"/>
		<polygon class="st3" points="329.93,272.85 330.22,272.79 330.22,273.64 326.39,275.91 316.99,275.74 316.99,274.85 		"/>
		<polygon class="st4" points="316.99,274.82 326.38,274.82 330.22,272.79 320.83,272.79 		"/>
		<polygon class="st0" points="316.99,274.82 326.38,274.82 330.22,272.79 320.83,272.79 		"/>
	</g>
	<g>
		<polygon class="st0" points="303.6,275.39 312.99,275.39 316.83,273.36 307.44,273.36 		"/>
		<polygon class="st3" points="316.54,272.85 316.83,272.79 316.83,273.64 313,275.91 303.6,275.74 303.6,274.85 		"/>
		<polygon class="st4" points="303.6,274.82 312.99,274.82 316.83,272.79 307.44,272.79 		"/>
		<polygon class="st0" points="303.6,274.82 312.99,274.82 316.83,272.79 307.44,272.79 		"/>
	</g>
	<g>
		<polygon class="st0" points="290.21,275.39 299.6,275.39 303.44,273.36 294.05,273.36 		"/>
		<polygon class="st3" points="303.15,272.85 303.44,272.79 303.44,273.64 299.61,275.91 290.21,275.74 290.21,274.85 		"/>
		<polygon class="st4" points="290.21,274.82 299.6,274.82 303.44,272.79 294.05,272.79 		"/>
		<polygon class="st0" points="290.21,274.82 299.6,274.82 303.44,272.79 294.05,272.79 		"/>
	</g>
	<g>
		<polygon class="st0" points="276.82,275.39 286.21,275.39 290.05,273.36 280.66,273.36 		"/>
		<polygon class="st3" points="289.75,272.85 290.05,272.79 290.05,273.64 286.21,275.91 276.82,275.74 276.82,274.85 		"/>
		<polygon class="st4" points="276.82,274.82 286.21,274.82 290.05,272.79 280.66,272.79 		"/>
		<polygon class="st0" points="276.82,274.82 286.21,274.82 290.05,272.79 280.66,272.79 		"/>
	</g>
	<g>
		<polygon class="st0" points="263.42,275.39 272.81,275.39 276.66,273.36 267.27,273.36 		"/>
		<polygon class="st3" points="276.36,272.85 276.66,272.79 276.66,273.64 272.82,275.91 263.42,275.74 263.42,274.85 		"/>
		<polygon class="st4" points="263.42,274.82 272.81,274.82 276.66,272.79 267.27,272.79 		"/>
		<polygon class="st0" points="263.42,274.82 272.81,274.82 276.66,272.79 267.27,272.79 		"/>
	</g>
	<g>
		<polygon class="st0" points="250.03,275.39 259.42,275.39 263.27,273.36 253.88,273.36 		"/>
		<polygon class="st3" points="262.97,272.85 263.27,272.79 263.27,273.64 259.43,275.91 250.03,275.74 250.03,274.85 		"/>
		<polygon class="st4" points="250.03,274.82 259.42,274.82 263.27,272.79 253.88,272.79 		"/>
		<polygon class="st0" points="250.03,274.82 259.42,274.82 263.27,272.79 253.88,272.79 		"/>
	</g>
	<g>
		<polygon class="st0" points="236.64,275.39 246.03,275.39 249.88,273.36 240.49,273.36 		"/>
		<polygon class="st3" points="249.58,272.85 249.88,272.79 249.88,273.64 246.04,275.91 236.64,275.74 236.64,274.85 		"/>
		<polygon class="st4" points="236.64,274.82 246.03,274.82 249.88,272.79 240.49,272.79 		"/>
		<polygon class="st0" points="236.64,274.82 246.03,274.82 249.88,272.79 240.49,272.79 		"/>
	</g>
	<g>
		<polygon class="st0" points="223.25,275.39 232.64,275.39 236.48,273.36 227.1,273.36 		"/>
		<polygon class="st3" points="236.19,272.85 236.48,272.79 236.48,273.64 232.65,275.91 223.25,275.74 223.25,274.85 		"/>
		<polygon class="st4" points="223.25,274.82 232.64,274.82 236.48,272.79 227.1,272.79 		"/>
		<polygon class="st0" points="223.25,274.82 232.64,274.82 236.48,272.79 227.1,272.79 		"/>
	</g>
	<g>
		<g>
			<polygon class="st0" points="383.09,283.58 392.48,283.58 396.32,281.56 386.93,281.56 			"/>
			<polygon class="st3" points="396.03,281.05 396.32,280.99 396.32,281.83 392.49,284.1 383.09,283.94 383.09,283.05 			"/>
			<polygon class="st4" points="383.09,283.01 392.48,283.01 396.32,280.99 386.93,280.99 			"/>
			<polygon class="st0" points="383.09,283.01 392.48,283.01 396.32,280.99 386.93,280.99 			"/>
		</g>
		<g>
			<polygon class="st0" points="369.85,283.58 379.24,283.58 383.09,281.56 373.7,281.56 			"/>
			<polygon class="st3" points="382.79,281.05 383.09,280.99 383.09,281.83 379.25,284.1 369.85,283.94 369.85,283.05 			"/>
			<polygon class="st4" points="369.85,283.01 379.24,283.01 383.09,280.99 373.7,280.99 			"/>
			<polygon class="st0" points="369.85,283.01 379.24,283.01 383.09,280.99 373.7,280.99 			"/>
		</g>
		<g>
			<polygon class="st0" points="356.62,283.58 366.01,283.58 369.85,281.56 360.46,281.56 			"/>
			<polygon class="st3" points="369.56,281.05 369.85,280.99 369.85,281.83 366.02,284.1 356.62,283.94 356.62,283.05 			"/>
			<polygon class="st4" points="356.62,283.01 366.01,283.01 369.85,280.99 360.46,280.99 			"/>
			<polygon class="st0" points="356.62,283.01 366.01,283.01 369.85,280.99 360.46,280.99 			"/>
		</g>
		<g>
			<polygon class="st0" points="343.39,283.58 352.78,283.58 356.62,281.56 347.23,281.56 			"/>
			<polygon class="st3" points="356.33,281.05 356.62,280.99 356.62,281.83 352.79,284.1 343.39,283.94 343.39,283.05 			"/>
			<polygon class="st4" points="343.39,283.01 352.78,283.01 356.62,280.99 347.23,280.99 			"/>
			<polygon class="st4" points="343.39,283.01 352.78,283.01 356.62,280.99 347.23,280.99 			"/>
		</g>
		<g>
			<polygon class="st0" points="330.15,283.58 339.54,283.58 343.39,281.56 334,281.56 			"/>
			<polygon class="st3" points="343.09,281.05 343.39,280.99 343.39,281.83 339.55,284.1 330.15,283.94 330.15,283.05 			"/>
			<polygon class="st4" points="330.15,283.01 339.54,283.01 343.39,280.99 334,280.99 			"/>
			<polygon class="st4" points="330.15,283.01 339.54,283.01 343.39,280.99 334,280.99 			"/>
		</g>
		<g>
			<polygon class="st0" points="316.92,283.58 326.31,283.58 330.15,281.56 320.76,281.56 			"/>
			<polygon class="st3" points="329.86,281.05 330.15,280.99 330.15,281.83 326.32,284.1 316.92,283.94 316.92,283.05 			"/>
			<polygon class="st4" points="316.92,283.01 326.31,283.01 330.15,280.99 320.76,280.99 			"/>
			<polygon class="st4" points="316.92,283.01 326.31,283.01 330.15,280.99 320.76,280.99 			"/>
		</g>
		<g>
			<polygon class="st0" points="303.69,283.58 313.08,283.58 316.92,281.56 307.53,281.56 			"/>
			<polygon class="st3" points="316.63,281.05 316.92,280.99 316.92,281.83 313.09,284.1 303.69,283.94 303.69,283.05 			"/>
			<polygon class="st4" points="303.69,283.01 313.08,283.01 316.92,280.99 307.53,280.99 			"/>
			<polygon class="st4" points="303.69,283.01 313.08,283.01 316.92,280.99 307.53,280.99 			"/>
		</g>
		<g>
			<polygon class="st0" points="290.45,283.58 299.84,283.58 303.69,281.56 294.3,281.56 			"/>
			<polygon class="st3" points="303.39,281.05 303.69,280.99 303.69,281.83 299.85,284.1 290.45,283.94 290.45,283.05 			"/>
			<polygon class="st4" points="290.45,283.01 299.84,283.01 303.69,280.99 294.3,280.99 			"/>
			<polygon class="st4" points="290.45,283.01 299.84,283.01 303.69,280.99 294.3,280.99 			"/>
		</g>
		<g>
			<polygon class="st0" points="277.22,283.58 286.61,283.58 290.45,281.56 281.06,281.56 			"/>
			<polygon class="st3" points="290.16,281.05 290.45,280.99 290.45,281.83 286.62,284.1 277.22,283.94 277.22,283.05 			"/>
			<polygon class="st4" points="277.22,283.01 286.61,283.01 290.45,280.99 281.06,280.99 			"/>
			<polygon class="st4" points="277.22,283.01 286.61,283.01 290.45,280.99 281.06,280.99 			"/>
		</g>
		<g>
			<polygon class="st0" points="263.99,283.58 273.38,283.58 277.22,281.56 267.83,281.56 			"/>
			<polygon class="st3" points="276.93,281.05 277.22,280.99 277.22,281.83 273.38,284.1 263.99,283.94 263.99,283.05 			"/>
			<polygon class="st4" points="263.99,283.01 273.38,283.01 277.22,280.99 267.83,280.99 			"/>
			<polygon class="st4" points="263.99,283.01 273.38,283.01 277.22,280.99 267.83,280.99 			"/>
		</g>
		<g>
			<polygon class="st0" points="250.75,283.58 260.14,283.58 263.99,281.56 254.6,281.56 			"/>
			<polygon class="st3" points="263.69,281.05 263.99,280.99 263.99,281.83 260.15,284.1 250.75,283.94 250.75,283.05 			"/>
			<polygon class="st4" points="250.75,283.01 260.14,283.01 263.99,280.99 254.6,280.99 			"/>
			<polygon class="st4" points="250.75,283.01 260.14,283.01 263.99,280.99 254.6,280.99 			"/>
		</g>
	</g>
	<g>
		<g>
			<polygon class="st0" points="373.24,288.96 382.63,288.96 386.47,286.93 377.08,286.93 			"/>
			<polygon class="st3" points="386.18,286.43 386.47,286.37 386.47,287.21 382.64,289.48 373.24,289.32 373.24,288.42 			"/>
			<polygon class="st4" points="373.24,288.39 382.63,288.39 386.47,286.37 377.08,286.37 			"/>
			<polygon class="st0" points="373.24,288.39 382.63,288.39 386.47,286.37 377.08,286.37 			"/>
		</g>
		<g>
			<polygon class="st0" points="360,288.96 369.39,288.96 373.24,286.93 363.85,286.93 			"/>
			<polygon class="st3" points="372.94,286.43 373.24,286.37 373.24,287.21 369.4,289.48 360,289.32 360,288.42 			"/>
			<polygon class="st4" points="360,288.39 369.39,288.39 373.24,286.37 363.85,286.37 			"/>
			<polygon class="st0" points="360,288.39 369.39,288.39 373.24,286.37 363.85,286.37 			"/>
		</g>
		<g>
			<polygon class="st0" points="346.77,288.96 356.16,288.96 360,286.93 350.62,286.93 			"/>
			<polygon class="st3" points="359.71,286.43 360,286.37 360,287.21 356.17,289.48 346.77,289.32 346.77,288.42 			"/>
			<polygon class="st4" points="346.77,288.39 356.16,288.39 360,286.37 350.62,286.37 			"/>
			<polygon class="st0" points="346.77,288.39 356.16,288.39 360,286.37 350.62,286.37 			"/>
		</g>
		<g>
			<polygon class="st0" points="333.54,288.96 342.93,288.96 346.77,286.93 337.38,286.93 			"/>
			<polygon class="st3" points="346.48,286.43 346.77,286.37 346.77,287.21 342.94,289.48 333.54,289.32 333.54,288.42 			"/>
			<polygon class="st4" points="333.54,288.39 342.93,288.39 346.77,286.37 337.38,286.37 			"/>
			<polygon class="st4" points="333.54,288.39 342.93,288.39 346.77,286.37 337.38,286.37 			"/>
		</g>
		<g>
			<polygon class="st0" points="320.3,288.96 329.69,288.96 333.54,286.93 324.15,286.93 			"/>
			<polygon class="st3" points="333.24,286.43 333.54,286.37 333.54,287.21 329.7,289.48 320.3,289.32 320.3,288.42 			"/>
			<polygon class="st4" points="320.3,288.39 329.69,288.39 333.54,286.37 324.15,286.37 			"/>
			<polygon class="st4" points="320.3,288.39 329.69,288.39 333.54,286.37 324.15,286.37 			"/>
		</g>
		<g>
			<polygon class="st0" points="307.07,288.96 316.46,288.96 320.3,286.93 310.92,286.93 			"/>
			<polygon class="st3" points="320.01,286.43 320.3,286.37 320.3,287.21 316.47,289.48 307.07,289.32 307.07,288.42 			"/>
			<polygon class="st4" points="307.07,288.39 316.46,288.39 320.3,286.37 310.92,286.37 			"/>
			<polygon class="st4" points="307.07,288.39 316.46,288.39 320.3,286.37 310.92,286.37 			"/>
		</g>
		<g>
			<polygon class="st0" points="293.84,288.96 303.23,288.96 307.07,286.93 297.68,286.93 			"/>
			<polygon class="st3" points="306.78,286.43 307.07,286.37 307.07,287.21 303.24,289.48 293.84,289.32 293.84,288.42 			"/>
			<polygon class="st4" points="293.84,288.39 303.23,288.39 307.07,286.37 297.68,286.37 			"/>
			<polygon class="st4" points="293.84,288.39 303.23,288.39 307.07,286.37 297.68,286.37 			"/>
		</g>
		<g>
			<polygon class="st0" points="280.6,288.96 289.99,288.96 293.84,286.93 284.45,286.93 			"/>
			<polygon class="st3" points="293.54,286.43 293.84,286.37 293.84,287.21 290,289.48 280.6,289.32 280.6,288.42 			"/>
			<polygon class="st4" points="280.6,288.39 289.99,288.39 293.84,286.37 284.45,286.37 			"/>
			<polygon class="st4" points="280.6,288.39 289.99,288.39 293.84,286.37 284.45,286.37 			"/>
		</g>
		<g>
			<polygon class="st0" points="267.37,288.96 276.76,288.96 280.6,286.93 271.21,286.93 			"/>
			<polygon class="st3" points="280.31,286.43 280.6,286.37 280.6,287.21 276.77,289.48 267.37,289.32 267.37,288.42 			"/>
			<polygon class="st4" points="267.37,288.39 276.76,288.39 280.6,286.37 271.21,286.37 			"/>
			<polygon class="st4" points="267.37,288.39 276.76,288.39 280.6,286.37 271.21,286.37 			"/>
		</g>
		<g>
			<polygon class="st0" points="254.14,288.96 263.53,288.96 267.37,286.93 257.98,286.93 			"/>
			<polygon class="st3" points="267.08,286.43 267.37,286.37 267.37,287.21 263.54,289.48 254.14,289.32 254.14,288.42 			"/>
			<polygon class="st4" points="254.14,288.39 263.53,288.39 267.37,286.37 257.98,286.37 			"/>
			<polygon class="st4" points="254.14,288.39 263.53,288.39 267.37,286.37 257.98,286.37 			"/>
		</g>
		<g>
			<polygon class="st0" points="240.9,288.96 250.29,288.96 254.14,286.93 244.75,286.93 			"/>
			<polygon class="st3" points="253.84,286.43 254.14,286.37 254.14,287.21 250.3,289.48 240.9,289.32 240.9,288.42 			"/>
			<polygon class="st4" points="240.9,288.39 250.29,288.39 254.14,286.37 244.75,286.37 			"/>
			<polygon class="st4" points="240.9,288.39 250.29,288.39 254.14,286.37 244.75,286.37 			"/>
		</g>
	</g>
	<g>
		<g>
			<polygon class="st0" points="361.78,295.05 371.17,295.05 375.02,293.03 365.63,293.03 			"/>
			<polygon class="st3" points="374.72,292.52 375.02,292.46 375.02,293.31 371.18,295.58 361.78,295.41 361.78,294.52 			"/>
			<polygon class="st4" points="361.78,294.49 371.17,294.49 375.02,292.46 365.63,292.46 			"/>
			<polygon class="st0" points="361.78,294.49 371.17,294.49 375.02,292.46 365.63,292.46 			"/>
		</g>
		<g>
			<polygon class="st0" points="348.55,295.05 357.94,295.05 361.78,293.03 352.39,293.03 			"/>
			<polygon class="st3" points="361.49,292.52 361.78,292.46 361.78,293.31 357.95,295.58 348.55,295.41 348.55,294.52 			"/>
			<polygon class="st4" points="348.55,294.49 357.94,294.49 361.78,292.46 352.39,292.46 			"/>
			<polygon class="st0" points="348.55,294.49 357.94,294.49 361.78,292.46 352.39,292.46 			"/>
		</g>
		<g>
			<polygon class="st0" points="335.32,295.05 344.71,295.05 348.55,293.03 339.16,293.03 			"/>
			<polygon class="st3" points="348.25,292.52 348.55,292.46 348.55,293.31 344.71,295.58 335.32,295.41 335.32,294.52 			"/>
			<polygon class="st4" points="335.32,294.49 344.71,294.49 348.55,292.46 339.16,292.46 			"/>
			<polygon class="st0" points="335.32,294.49 344.71,294.49 348.55,292.46 339.16,292.46 			"/>
		</g>
		<g>
			<polygon class="st0" points="322.08,295.05 331.47,295.05 335.32,293.03 325.93,293.03 			"/>
			<polygon class="st3" points="335.02,292.52 335.32,292.46 335.32,293.31 331.48,295.58 322.08,295.41 322.08,294.52 			"/>
			<polygon class="st4" points="322.08,294.49 331.47,294.49 335.32,292.46 325.93,292.46 			"/>
			<polygon class="st4" points="322.08,294.49 331.47,294.49 335.32,292.46 325.93,292.46 			"/>
		</g>
		<g>
			<polygon class="st0" points="308.85,295.05 318.24,295.05 322.08,293.03 312.69,293.03 			"/>
			<polygon class="st3" points="321.79,292.52 322.08,292.46 322.08,293.31 318.25,295.58 308.85,295.41 308.85,294.52 			"/>
			<polygon class="st4" points="308.85,294.49 318.24,294.49 322.08,292.46 312.69,292.46 			"/>
			<polygon class="st4" points="308.85,294.49 318.24,294.49 322.08,292.46 312.69,292.46 			"/>
		</g>
		<g>
			<polygon class="st0" points="295.62,295.05 305,295.05 308.85,293.03 299.46,293.03 			"/>
			<polygon class="st3" points="308.55,292.52 308.85,292.46 308.85,293.31 305.01,295.58 295.62,295.41 295.62,294.52 			"/>
			<polygon class="st4" points="295.62,294.49 305,294.49 308.85,292.46 299.46,292.46 			"/>
			<polygon class="st4" points="295.62,294.49 305,294.49 308.85,292.46 299.46,292.46 			"/>
		</g>
		<g>
			<polygon class="st0" points="282.38,295.05 291.77,295.05 295.62,293.03 286.23,293.03 			"/>
			<polygon class="st3" points="295.32,292.52 295.62,292.46 295.62,293.31 291.78,295.58 282.38,295.41 282.38,294.52 			"/>
			<polygon class="st4" points="282.38,294.49 291.77,294.49 295.62,292.46 286.23,292.46 			"/>
			<polygon class="st4" points="282.38,294.49 291.77,294.49 295.62,292.46 286.23,292.46 			"/>
		</g>
		<g>
			<polygon class="st0" points="269.15,295.05 278.54,295.05 282.38,293.03 272.99,293.03 			"/>
			<polygon class="st3" points="282.09,292.52 282.38,292.46 282.38,293.31 278.55,295.58 269.15,295.41 269.15,294.52 			"/>
			<polygon class="st4" points="269.15,294.49 278.54,294.49 282.38,292.46 272.99,292.46 			"/>
			<polygon class="st4" points="269.15,294.49 278.54,294.49 282.38,292.46 272.99,292.46 			"/>
		</g>
		<g>
			<polygon class="st0" points="255.91,295.05 265.3,295.05 269.15,293.03 259.76,293.03 			"/>
			<polygon class="st3" points="268.85,292.52 269.15,292.46 269.15,293.31 265.31,295.58 255.91,295.41 255.91,294.52 			"/>
			<polygon class="st4" points="255.91,294.49 265.3,294.49 269.15,292.46 259.76,292.46 			"/>
			<polygon class="st4" points="255.91,294.49 265.3,294.49 269.15,292.46 259.76,292.46 			"/>
		</g>
		<g>
			<polygon class="st0" points="242.68,295.05 252.07,295.05 255.91,293.03 246.53,293.03 			"/>
			<polygon class="st3" points="255.62,292.52 255.91,292.46 255.91,293.31 252.08,295.58 242.68,295.41 242.68,294.52 			"/>
			<polygon class="st4" points="242.68,294.49 252.07,294.49 255.91,292.46 246.53,292.46 			"/>
			<polygon class="st4" points="242.68,294.49 252.07,294.49 255.91,292.46 246.53,292.46 			"/>
		</g>
		<g>
			<polygon class="st0" points="229.45,295.05 238.84,295.05 242.68,293.03 233.29,293.03 			"/>
			<polygon class="st3" points="242.39,292.52 242.68,292.46 242.68,293.31 238.85,295.58 229.45,295.41 229.45,294.52 			"/>
			<polygon class="st4" points="229.45,294.49 238.84,294.49 242.68,292.46 233.29,292.46 			"/>
			<polygon class="st4" points="229.45,294.49 238.84,294.49 242.68,292.46 233.29,292.46 			"/>
		</g>
	</g>
	<g>
		<g>
			<polygon class="st0" points="350,300.87 359.39,300.87 363.24,298.85 353.85,298.85 			"/>
			<polygon class="st3" points="362.94,298.34 363.24,298.28 363.24,299.13 359.4,301.4 350,301.23 350,300.34 			"/>
			<polygon class="st4" points="350,300.31 359.39,300.31 363.24,298.28 353.85,298.28 			"/>
			<polygon class="st0" points="350,300.31 359.39,300.31 363.24,298.28 353.85,298.28 			"/>
		</g>
		<g>
			<polygon class="st0" points="336.77,300.87 346.16,300.87 350,298.85 340.62,298.85 			"/>
			<polygon class="st3" points="349.71,298.34 350,298.28 350,299.13 346.17,301.4 336.77,301.23 336.77,300.34 			"/>
			<polygon class="st4" points="336.77,300.31 346.16,300.31 350,298.28 340.62,298.28 			"/>
			<polygon class="st0" points="336.77,300.31 346.16,300.31 350,298.28 340.62,298.28 			"/>
		</g>
		<g>
			<polygon class="st0" points="323.54,300.87 332.93,300.87 336.77,298.85 327.38,298.85 			"/>
			<polygon class="st3" points="336.48,298.34 336.77,298.28 336.77,299.13 332.94,301.4 323.54,301.23 323.54,300.34 			"/>
			<polygon class="st4" points="323.54,300.31 332.93,300.31 336.77,298.28 327.38,298.28 			"/>
			<polygon class="st0" points="323.54,300.31 332.93,300.31 336.77,298.28 327.38,298.28 			"/>
		</g>
		<g>
			<polygon class="st0" points="310.3,300.87 319.69,300.87 323.54,298.85 314.15,298.85 			"/>
			<polygon class="st3" points="323.24,298.34 323.54,298.28 323.54,299.13 319.7,301.4 310.3,301.23 310.3,300.34 			"/>
			<polygon class="st4" points="310.3,300.31 319.69,300.31 323.54,298.28 314.15,298.28 			"/>
			<polygon class="st4" points="310.3,300.31 319.69,300.31 323.54,298.28 314.15,298.28 			"/>
		</g>
		<g>
			<polygon class="st0" points="297.07,300.87 306.46,300.87 310.3,298.85 300.92,298.85 			"/>
			<polygon class="st3" points="310.01,298.34 310.3,298.28 310.3,299.13 306.47,301.4 297.07,301.23 297.07,300.34 			"/>
			<polygon class="st4" points="297.07,300.31 306.46,300.31 310.3,298.28 300.92,298.28 			"/>
			<polygon class="st4" points="297.07,300.31 306.46,300.31 310.3,298.28 300.92,298.28 			"/>
		</g>
		<g>
			<polygon class="st0" points="283.84,300.87 293.23,300.87 297.07,298.85 287.68,298.85 			"/>
			<polygon class="st3" points="296.78,298.34 297.07,298.28 297.07,299.13 293.24,301.4 283.84,301.23 283.84,300.34 			"/>
			<polygon class="st4" points="283.84,300.31 293.23,300.31 297.07,298.28 287.68,298.28 			"/>
			<polygon class="st4" points="283.84,300.31 293.23,300.31 297.07,298.28 287.68,298.28 			"/>
		</g>
		<g>
			<polygon class="st0" points="270.6,300.87 279.99,300.87 283.84,298.85 274.45,298.85 			"/>
			<polygon class="st3" points="283.54,298.34 283.84,298.28 283.84,299.13 280,301.4 270.6,301.23 270.6,300.34 			"/>
			<polygon class="st4" points="270.6,300.31 279.99,300.31 283.84,298.28 274.45,298.28 			"/>
			<polygon class="st4" points="270.6,300.31 279.99,300.31 283.84,298.28 274.45,298.28 			"/>
		</g>
		<g>
			<polygon class="st0" points="257.37,300.87 266.76,300.87 270.6,298.85 261.21,298.85 			"/>
			<polygon class="st3" points="270.31,298.34 270.6,298.28 270.6,299.13 266.77,301.4 257.37,301.23 257.37,300.34 			"/>
			<polygon class="st4" points="257.37,300.31 266.76,300.31 270.6,298.28 261.21,298.28 			"/>
			<polygon class="st4" points="257.37,300.31 266.76,300.31 270.6,298.28 261.21,298.28 			"/>
		</g>
		<g>
			<polygon class="st0" points="244.14,300.87 253.53,300.87 257.37,298.85 247.98,298.85 			"/>
			<polygon class="st3" points="257.08,298.34 257.37,298.28 257.37,299.13 253.54,301.4 244.14,301.23 244.14,300.34 			"/>
			<polygon class="st4" points="244.14,300.31 253.53,300.31 257.37,298.28 247.98,298.28 			"/>
			<polygon class="st4" points="244.14,300.31 253.53,300.31 257.37,298.28 247.98,298.28 			"/>
		</g>
		<g>
			<polygon class="st0" points="230.9,300.87 240.29,300.87 244.14,298.85 234.75,298.85 			"/>
			<polygon class="st3" points="243.84,298.34 244.14,298.28 244.14,299.13 240.3,301.4 230.9,301.23 230.9,300.34 			"/>
			<polygon class="st4" points="230.9,300.31 240.29,300.31 244.14,298.28 234.75,298.28 			"/>
			<polygon class="st4" points="230.9,300.31 240.29,300.31 244.14,298.28 234.75,298.28 			"/>
		</g>
		<g>
			<polygon class="st0" points="217.67,300.87 227.06,300.87 230.9,298.85 221.51,298.85 			"/>
			<polygon class="st3" points="230.61,298.34 230.9,298.28 230.9,299.13 227.07,301.4 217.67,301.23 217.67,300.34 			"/>
			<polygon class="st4" points="217.67,300.31 227.06,300.31 230.9,298.28 221.51,298.28 			"/>
			<polygon class="st4" points="217.67,300.31 227.06,300.31 230.9,298.28 221.51,298.28 			"/>
		</g>
	</g>
	<g>
		<g>
			<polygon class="st0" points="215.86,283.58 225.25,283.58 229.09,281.56 219.71,281.56 			"/>
			<polygon class="st3" points="228.8,281.05 229.09,280.99 229.09,281.83 225.26,284.1 215.86,283.94 215.86,283.05 			"/>
			<polygon class="st4" points="215.86,283.01 225.25,283.01 229.09,280.99 219.71,280.99 			"/>
			<polygon class="st4" points="215.86,283.01 225.25,283.01 229.09,280.99 219.71,280.99 			"/>
		</g>
		<g>
			<polygon class="st0" points="202.63,283.58 212.02,283.58 215.86,281.56 206.47,281.56 			"/>
			<polygon class="st3" points="215.57,281.05 215.86,280.99 215.86,281.83 212.03,284.1 202.63,283.94 202.63,283.05 			"/>
			<polygon class="st4" points="202.63,283.01 212.02,283.01 215.86,280.99 206.47,280.99 			"/>
			<polygon class="st4" points="202.63,283.01 212.02,283.01 215.86,280.99 206.47,280.99 			"/>
		</g>
		<g>
			<polygon class="st0" points="189.39,283.58 198.78,283.58 202.63,281.56 193.24,281.56 			"/>
			<polygon class="st3" points="202.33,281.05 202.63,280.99 202.63,281.83 198.79,284.1 189.39,283.94 189.39,283.05 			"/>
			<polygon class="st4" points="189.39,283.01 198.78,283.01 202.63,280.99 193.24,280.99 			"/>
			<polygon class="st4" points="189.39,283.01 198.78,283.01 202.63,280.99 193.24,280.99 			"/>
		</g>
	</g>
	<g>
		<g>
			<polygon class="st0" points="205.89,288.99 215.28,288.99 219.13,286.96 209.74,286.96 			"/>
			<polygon class="st3" points="218.83,286.45 219.13,286.39 219.13,287.24 215.29,289.5 205.89,289.34 205.89,288.45 			"/>
			<polygon class="st4" points="205.89,288.42 215.28,288.42 219.13,286.39 209.74,286.39 			"/>
			<polygon class="st4" points="205.89,288.42 215.28,288.42 219.13,286.39 209.74,286.39 			"/>
		</g>
		<g>
			<polygon class="st0" points="192.66,288.99 202.05,288.99 205.89,286.96 196.5,286.96 			"/>
			<polygon class="st3" points="205.6,286.45 205.89,286.39 205.89,287.24 202.06,289.5 192.66,289.34 192.66,288.45 			"/>
			<polygon class="st4" points="192.66,288.42 202.05,288.42 205.89,286.39 196.5,286.39 			"/>
			<polygon class="st4" points="192.66,288.42 202.05,288.42 205.89,286.39 196.5,286.39 			"/>
		</g>
		<g>
			<polygon class="st0" points="179.43,288.99 188.82,288.99 192.66,286.96 183.27,286.96 			"/>
			<polygon class="st3" points="192.36,286.45 192.66,286.39 192.66,287.24 188.82,289.5 179.43,289.34 179.43,288.45 			"/>
			<polygon class="st4" points="179.43,288.42 188.82,288.42 192.66,286.39 183.27,286.39 			"/>
			<polygon class="st4" points="179.43,288.42 188.82,288.42 192.66,286.39 183.27,286.39 			"/>
		</g>
	</g>
	<g>
		<g>
			<polygon class="st0" points="194.55,294.51 203.94,294.51 207.78,292.48 198.39,292.48 			"/>
			<polygon class="st3" points="207.49,291.98 207.78,291.92 207.78,292.76 203.95,295.03 194.55,294.86 194.55,293.97 			"/>
			<polygon class="st4" points="194.55,293.94 203.94,293.94 207.78,291.92 198.39,291.92 			"/>
			<polygon class="st4" points="194.55,293.94 203.94,293.94 207.78,291.92 198.39,291.92 			"/>
		</g>
		<g>
			<polygon class="st0" points="181.32,294.51 190.71,294.51 194.55,292.48 185.16,292.48 			"/>
			<polygon class="st3" points="194.26,291.98 194.55,291.92 194.55,292.76 190.71,295.03 181.32,294.86 181.32,293.97 			"/>
			<polygon class="st4" points="181.32,293.94 190.71,293.94 194.55,291.92 185.16,291.92 			"/>
			<polygon class="st4" points="181.32,293.94 190.71,293.94 194.55,291.92 185.16,291.92 			"/>
		</g>
		<g>
			<polygon class="st0" points="168.08,294.51 177.47,294.51 181.32,292.48 171.93,292.48 			"/>
			<polygon class="st3" points="181.02,291.98 181.32,291.92 181.32,292.76 177.48,295.03 168.08,294.86 168.08,293.97 			"/>
			<polygon class="st4" points="168.08,293.94 177.47,293.94 181.32,291.92 171.93,291.92 			"/>
			<polygon class="st4" points="168.08,293.94 177.47,293.94 181.32,291.92 171.93,291.92 			"/>
		</g>
	</g>
	<g>
		<g>
			<polygon class="st0" points="184.56,299.91 193.95,299.91 197.79,297.88 188.4,297.88 			"/>
			<polygon class="st3" points="197.5,297.37 197.79,297.31 197.79,298.16 193.96,300.43 184.56,300.26 184.56,299.37 			"/>
			<polygon class="st4" points="184.56,299.34 193.95,299.34 197.79,297.31 188.4,297.31 			"/>
			<polygon class="st4" points="184.56,299.34 193.95,299.34 197.79,297.31 188.4,297.31 			"/>
		</g>
		<g>
			<polygon class="st0" points="171.33,299.91 180.71,299.91 184.56,297.88 175.17,297.88 			"/>
			<polygon class="st3" points="184.26,297.37 184.56,297.31 184.56,298.16 180.72,300.43 171.33,300.26 171.33,299.37 			"/>
			<polygon class="st4" points="171.33,299.34 180.71,299.34 184.56,297.31 175.17,297.31 			"/>
			<polygon class="st4" points="171.33,299.34 180.71,299.34 184.56,297.31 175.17,297.31 			"/>
		</g>
		<g>
			<polygon class="st0" points="158.09,299.91 167.48,299.91 171.33,297.88 161.94,297.88 			"/>
			<polygon class="st3" points="171.03,297.37 171.33,297.31 171.33,298.16 167.49,300.43 158.09,300.26 158.09,299.37 			"/>
			<polygon class="st4" points="158.09,299.34 167.48,299.34 171.33,297.31 161.94,297.31 			"/>
			<polygon class="st4" points="158.09,299.34 167.48,299.34 171.33,297.31 161.94,297.31 			"/>
		</g>
	</g>
	<polygon class="st4" points="186.38,319.71 256.72,319.71 285.52,306.57 215.18,306.57 	"/>
	<g>
		<rect x="333.54" y="210.89" class="st7" width="75.86" height="53.12"/>
		<rect x="336.85" y="215.43" class="st0" width="69.71" height="1.48"/>
		<rect x="336.85" y="219.63" class="st0" width="69.71" height="1.48"/>
		<rect x="336.85" y="223.83" class="st0" width="69.71" height="1.48"/>
		<rect x="336.85" y="228.03" class="st0" width="69.71" height="1.48"/>
		<rect x="336.85" y="232.23" class="st0" width="69.71" height="1.48"/>
		<rect x="336.85" y="236.44" class="st0" width="69.71" height="1.48"/>
		<rect x="336.85" y="240.64" class="st0" width="69.71" height="1.48"/>
		<rect x="336.85" y="244.84" class="st0" width="69.71" height="1.48"/>
		<rect x="336.85" y="249.04" class="st0" width="69.71" height="1.48"/>
		<rect x="336.85" y="253.25" class="st0" width="69.71" height="1.48"/>
		<rect x="336.85" y="257.45" class="st0" width="69.71" height="1.48"/>
	</g>
	<rect x="333.54" y="158.96" class="st8" width="75.86" height="46.8"/>
	<rect x="364.56" y="151.67" class="st8" width="44.83" height="4.92"/>
	<rect x="333.54" y="151.67" class="st8" width="28.04" height="4.92"/>
	<rect x="219.25" y="153.78" class="st9" width="107.68" height="111.29"/>
	<rect x="215.86" y="151.67" class="st0" width="107.68" height="111.29"/>
	<rect x="215.86" y="151.67" class="st4" width="107.68" height="9.72"/>
	<path class="st7" d="M256.65,175.98c0,1.57,1.27,2.84,2.84,2.84h57.16c1.57,0,2.84-1.27,2.84-2.84l0,0c0-1.57-1.27-2.84-2.84-2.84
		h-57.16C257.92,173.14,256.65,174.41,256.65,175.98L256.65,175.98z"/>
	<path class="st7" d="M256.65,185.2c0,1.57,1.27,2.84,2.84,2.84h57.16c1.57,0,2.84-1.27,2.84-2.84l0,0c0-1.57-1.27-2.84-2.84-2.84
		h-57.16C257.92,182.36,256.65,183.63,256.65,185.2L256.65,185.2z"/>
	<path class="st7" d="M275.65,193.67c0,1.5,1.22,2.72,2.72,2.72h38.41c1.5,0,2.72-1.22,2.72-2.72l0,0c0-1.5-1.22-2.72-2.72-2.72
		h-38.41C276.87,190.96,275.65,192.17,275.65,193.67L275.65,193.67z"/>
	<path class="st7" d="M220.76,230.75c0,1.5,1.22,2.72,2.72,2.72h38.41c1.5,0,2.72-1.22,2.72-2.72l0,0c0-1.5-1.22-2.72-2.72-2.72
		h-38.41C221.98,228.03,220.76,229.25,220.76,230.75L220.76,230.75z"/>
	<path class="st7" d="M220.76,239.89c0,1.5,1.22,2.72,2.72,2.72h38.41c1.5,0,2.72-1.22,2.72-2.72l0,0c0-1.5-1.22-2.72-2.72-2.72
		h-38.41C221.98,237.18,220.76,238.39,220.76,239.89L220.76,239.89z"/>
	<path class="st0" d="M310.05,139.67c0,2.08,1.68,3.77,3.76,3.77c2.08,0,3.76-1.69,3.76-3.77c0-2.08-1.69-3.76-3.76-3.76
		C311.74,135.91,310.05,137.59,310.05,139.67z"/>
	<g>
		<polygon class="st10" points="416.58,217.88 416.58,254.82 329.92,147.18 359.67,147.18 		"/>
		<polygon class="st10" points="234.69,147.18 273.81,147.18 371.68,268.74 332.56,268.74 		"/>
		<polygon class="st10" points="210.22,205.52 210.22,151.09 304.94,268.74 261.12,268.74 		"/>
		<polygon class="st10" points="221.84,268.74 210.22,268.74 210.22,254.32 		"/>
		<polygon class="st10" points="388.61,147.18 416.58,147.18 416.58,181.93 		"/>
	</g>
</g>
<g>
	<path class="st0" d="M480.96,252.74c0,0,0.38-34.87-5.79-39.27l0.13-0.28c0,0,1.14-0.61,2.31,1.38c1.17,1.99,5.76,36.08,3.38,39.12
		L480.96,252.74z"/>
	<g>
		<path class="st4" d="M483.8,200.08c0.9-2.33,0.6-9.63-3.39-11.3c-3.99-1.67-5.76,0.43-5.76,0.43l1.11,4.25
			c0,0-0.13,2.36-0.27,4.93c-1.32,2.36-2.6,4.94-2.63,6.12c-0.06,2.43-0.05,3.67-0.05,3.67s1.28-0.94,2.64-2.66
			c0.76,2.03,2.73,3.66,3.07,4.95c0.44,1.66-0.85,3.24-0.85,3.24c1.05,0.5,2.86,0.1,2.86,0.1c2.7-0.48,4.14-4.88,2.75-6.62
			C481.89,205.46,482.9,202.41,483.8,200.08z"/>
		<path class="st11" d="M462.56,213.81c-1.45,2-1.08,1.45-11.27,16.83c-2.4,3.61-2,4.55,0.54,4.48c2.54-0.08,10.07-2.18,10.52-6.47
			C462.8,224.35,462.56,213.81,462.56,213.81z"/>
		<path class="st3" d="M465.18,314.67c0,0,0.56,0.39,0.56,0.58c0.01,0.19,0.74,2.86,0.59,3.3c-0.15,0.44-7.9,1.22-7.9,1.22
			s-3.92-0.23-4.32-0.74c-0.4-0.51-0.22-0.89,0.01-0.95c0.24-0.06,9.3-3.41,9.3-3.41H465.18z"/>
		<path class="st12" d="M465.28,284.68c-0.28-1.01-2.15-7.93-2.15-7.93l-6.83,6.97c0,0,1.13,0.86,6.13,28.14h-0.01l0.53,3.92
			c0.47,0.48,2.08,0.45,2.28-0.13c0.03-0.1,0.17-3.96,0.17-3.96C465.44,304.56,465.55,285.69,465.28,284.68z"/>
		<path class="st3" d="M476.51,318.92c0,0,0.57,0.28,0.58,0.47c0.01,0.19,0.3,2.72,0.15,3.16c-0.15,0.44-7.89,1.3-7.89,1.3
			s-3.92-0.19-4.33-0.7c-0.41-0.5-0.23-0.88,0-0.95c0.23-0.06,9.27-3.51,9.27-3.51L476.51,318.92z"/>
		<path class="st13" d="M476.05,274.67c3.08-14.18,2.3-20.47,0.41-27.94c-1.63-6.46-4.81-1.68-8.41-1.64
			c-0.1,1.42-10.46,0.32-10.56,1.78c-0.35,5.46,2.81,15.99,6.17,24.73c5.12,12.85,9.92,41.44,10.41,47.31c0,0-4.26,1.65-4.72,1.88
			l1.67,0.73c4.28-0.34,5.63-1.26,5.48-2.23c-0.01-0.05-0.02-1.69-0.05-2.84C476.8,303.15,474.93,277.35,476.05,274.67z"/>
		<path class="st4" d="M457.15,247.42l-0.84,0.76c0,0-3.56,15.78,0.21,36.95c0,0,11.85,3.35,20.15-0.11c0,0,1.5-17.34,2.1-20.17
			c0.6-2.83,2.31-9.94-3.48-17.78L457.15,247.42z"/>
		<path class="st0" d="M468.61,250.62c0,0,7.81,1.39,11.67-2.19c0,0,4.6,11.66,3.21,15.11c-0.59,1.47-12.39,3.64-15.75,1.16
			C467.74,264.7,465.91,263.68,468.61,250.62z"/>
		<path class="st13" d="M473.5,202.04c-0.46,1.62-0.08,3.14,0.84,3.4c0.92,0.26,2.04-0.84,2.49-2.46c0.46-1.62,0.08-3.15-0.84-3.4
			C475.07,199.31,473.96,200.42,473.5,202.04z"/>
		<path class="st14" d="M477.1,248.28c0,0-3.23-8.96-3.34-13.82l4.59-17.36v-2.5c0,0-1.71-1.45-7.24-1.9c0,0-3.5-0.4-8.55,1.1
			c0,0-3.94,4.05-4.88,7.59c-0.59,2.21,0.47,9.11,0.24,10.74c-0.33,2.25-1.31,14.49-1.61,16.04
			C456.01,249.73,463.9,252.35,477.1,248.28z"/>
		<path class="st12" d="M473.76,204c0,0-1.52,5.89-1.73,9.27c0,0-2.67,2.39-4.98,0.18c0,0-0.9-8.85-2.78-10.21
			C462.39,201.89,473.76,204,473.76,204z"/>
		<g>
			<g>
				<path class="st13" d="M473.03,256.64c0,0-1.93,0.82-2.75,3.23c-0.82,2.41,0.87,0.36,4.72-3.28L473.03,256.64z"/>
				<path class="st13" d="M472.6,256.88c0,0-0.64,1.15-1.35,3.24c-0.71,2.09-0.68,2.25-0.99,3.66c-0.21,0.98,0.5,0.36,0.55,0.35
					c0.03-0.01-0.08,0.11,0.17,0.2c0.15,0.06,0.57,0.02,0.77-0.08c0.13-0.06,0.58-0.28,0.77-0.38c0.94-0.45,2.7-1.27,3.93-5.35
					C476.46,258.52,474.64,255.56,472.6,256.88z"/>
			</g>
			<path class="st14" d="M479.17,215.17c-1.64-2.68-3.31,4.46-3.31,4.46c-0.85,8.64-0.85,12.88,0.6,20.68
				c-1.51,12.04-4.8,16.62-4.8,16.62l1.77,1.47c0.01,0.03,0.05,0.05,0.09,0.08l0,0l0,0c0.61,0.32,3.59,0.47,3.59,0.47
				C483.1,251.61,486.99,227.94,479.17,215.17z"/>
		</g>
		<path class="st13" d="M473.4,191.68c0,0-6.74-3.43-10.81,0.53c0,0-0.9,6.49-0.46,10.31c0.43,3.82,0.78,6.62,3.61,6.82
			c0,0,7.98-0.25,9.08-5.72C475.79,198.7,475.28,192.94,473.4,191.68z"/>
		<g>
			<path class="st12" d="M435.46,229.78c0,0-0.83-2.18-3.25-3.11c-2.42-0.93-0.36,0.99,3.3,5.34L435.46,229.78z"/>
			<path class="st12" d="M434.55,228.57c0,0-1.25-0.55-3.44-1.03c-2.19-0.48-2.35-0.43-3.8-0.57c-1.01-0.1-0.28,0.61-0.26,0.67
				c0.01,0.04-0.12-0.07-0.17,0.22c-0.03,0.18,0.08,0.64,0.21,0.86c0.08,0.13,0.38,0.6,0.51,0.81c0.6,0.98,1.72,2.84,5.97,3.61
				C433.56,233.14,436.2,230.67,434.55,228.57z"/>
		</g>
		<path class="st4" d="M469.23,189.37c-1.96-0.03-4.17,0.28-4.17,0.28s-4.49,0.84-5.72,3.54c-1.22,2.71,2.66,3.83,2.66,3.83
			c0.2-2.5,1.1-3.89,1.85-4.63c0.32,1.98,1.97,7.1,10.67,7.14c0,0,1.34,0.56,1.92,1.41c0,0,1.27-4.91,1.91-5.81
			C478.93,194.31,478.51,186.61,469.23,189.37z"/>
		<path class="st11" d="M456.16,234.16c0,0-11.6,4.77-23.16-0.65c0,0-0.29-3.67,1.38-4.28c2.85-1.05,1.46,2.74,15.4,0.18
			C455.4,228.38,456.16,234.16,456.16,234.16z"/>
		<path class="st12" d="M457.3,317.22c0,0,4.31-1.16,5.55-2.13l2.38,0.55c0,0-0.27,1.63-5.84,2.18L457.3,317.22z"/>
		<path class="st14" d="M465.36,212.09c0,0-0.66-2.12,1.19-2.23c0,0,0.02,0.14,0.12,0.74c0,0,3.18,1.03,5.76-0.45l0.13-0.73
			c0,0,1.2-0.08,1.34,1.31c0.07,0.7,0.06,1.94,0.4,2.41c0,0-3.37,2.93-7.98,1.02c0,0-1.05-0.71-1.08-0.85
			C465.2,213.17,465.46,212.98,465.36,212.09z"/>
		<path class="st14" d="M474.83,189.04c0,0,0.45-0.4,0.94-0.57c0.48-0.17,2.96,0.87,2.96,4.73
			C478.72,193.2,477.88,189.72,474.83,189.04z"/>
	</g>
	<path class="st0" d="M476.75,213.81c0,0,0.24-0.61-1.31-0.68c-1.55-0.07-5.23,24.29-6.83,37.5l1.15,0.51
		C469.76,251.13,472.77,219.74,476.75,213.81z"/>
</g>
<g>
	<path class="st4" d="M369.9,242.91c0,0-0.58,3.97,1.69,4.39c2.28,0.42,4.18,0.21,2.75-1.32c-1.43-1.54-2.79,0.18-1.24-1.71
		c1.55-1.89,2.19-2,1.13-3c-1.06-1.01-1.37-1.61-1.37-1.61L369.9,242.91z"/>
	<g>
		<path class="st4" d="M358.2,230.59c0,0-1,5,0.74,6.06c0,0,3.73-7.75,1.08-7.27C357.38,229.87,358.2,230.59,358.2,230.59z"/>
		<g>
			<g>
				<path class="st12" d="M399.23,285.31c0,0,0.96,0.62,2.32,1.93c1.36,1.31,1.39,1.44,2.16,2.39c0.54,0.66-0.29,0.48-0.35,0.49
					c-0.03,0.01,0.11,0.05-0.07,0.22c-0.11,0.11-0.49,0.24-0.7,0.25c-0.13,0.01-0.6,0.02-0.8,0.02c-0.97,0.04-2.78,0.12-5.3-2.5
					C396.5,288.12,397,285.13,399.23,285.31z"/>
			</g>
			<path class="st15" d="M379.08,251.35c0,0-5.71-1.88-6.35-1.36c-5.77,4.64-0.01,27.6,23.35,38.61c0,0,4.35-1.83,3-4.09
				c-2.27-3.81-8.47-9.78-11.12-17.93C384.92,257.24,380.37,253.29,379.08,251.35z"/>
		</g>
		<path class="st4" d="M370.17,363.03c0,0-0.61,0.3-0.62,0.51c-0.01,0.2-0.32,2.9-0.16,3.37c0.16,0.47,8.42,1.38,8.42,1.38
			s4.18-0.2,4.62-0.74c0.44-0.54,0.25-0.94,0-1.01c-0.25-0.07-9.89-3.74-9.89-3.74L370.17,363.03z"/>
		<path class="st4" d="M363.23,363.86c0,0,0.63,0.26,0.65,0.46c0.02,0.2,0.52,2.87,0.4,3.35c-0.12,0.48-8.3,1.97-8.3,1.97
			s-4.18,0.09-4.65-0.42c-0.48-0.51-0.32-0.92-0.07-1.01c0.24-0.09,9.6-4.43,9.6-4.43L363.23,363.86z"/>
		<path class="st13" d="M360.77,361.15c0,0-0.1,4.16-0.08,4.23c0.19,0.63,1.98,0.67,2.51,0.19l1.04-4L360.77,361.15z"/>
		<path class="st13" d="M369.98,359.59c0,0-0.07,4.13-0.04,4.23c0.19,0.63,1.9,0.75,2.43,0.26l0.77-4.15L369.98,359.59z"/>
		<path class="st16" d="M381.04,285.33c0,0-1.33,29.95-2.77,43.98c0,0-7.54-1.22-8.3-4.45c-0.76-3.23,0.68-37.86,0.68-37.86
			L381.04,285.33z"/>
		<path class="st14" d="M369.3,286.58c0.1,1.52,11.12-0.69,11.22,0.87c0.38,5.82-8.93,22.09-8.91,22.3
			c-3.61,25.09-6.04,47.87-7.39,53.15c-0.56,2.2-4.32,0.08-4.32,0.08c-0.8-28.52-1.34-74.04-1.34-74.04
			C361.39,287.06,365.46,286.54,369.3,286.58z"/>
		<path class="st17" d="M366.3,249.32c0,0-4.96-0.63-9.78,3.58c0,0-3.24,24.46,0.06,35.21c0,0,16,7.26,24.36-0.77
			c0,0,2.46-33.5-1.87-35.99C376.56,249.9,375.61,249.04,366.3,249.32z"/>
		<g>
			<path class="st8" d="M389.41,264.82c0.66,0.1,1.12,0.68,1.02,1.29l-2.57,17.22c-0.09,0.62-0.7,1.04-1.36,0.94l-11.06-1.65
				c-0.66-0.1-1.12-0.68-1.03-1.29l2.57-17.22c0.09-0.62,0.7-1.04,1.36-0.94L389.41,264.82z"/>
			<path class="st18" d="M376.99,264.1l-0.04,0.27c4.8,2.64,8.4,7.7,10.26,12.47c0.41,1.04,0.8,2.11,1.14,3.19l2.08-13.92
				c0.09-0.62-0.37-1.2-1.02-1.29l-11.06-1.65C377.7,263.06,377.09,263.48,376.99,264.1z"/>
			<path class="st0" d="M382.62,272.47c0.73,0.11,1.24,0.76,1.14,1.44c-0.1,0.69-0.78,1.16-1.51,1.05
				c-0.73-0.11-1.24-0.76-1.14-1.44C381.21,272.83,381.88,272.36,382.62,272.47z"/>
		</g>
		<path class="st12" d="M362.6,240.7c0,0,1.62,6.28,1.84,9.89c0,0,2.85,2.55,5.31,0.19c0,0,0.95-9.44,2.96-10.89
			C374.73,238.45,362.6,240.7,362.6,240.7z"/>
		<path class="st13" d="M371.16,228.71c0,0-6.63-3.04-10.97,1.19c0,0-2.13,5.43-1.66,9.51c0.46,4.08,1.43,7.94,4.45,8.15
			c0,0,8.52-0.27,9.68-6.1C373.71,236.2,373.16,230.05,371.16,228.71z"/>
		<path class="st13" d="M371.41,239.15c-0.49,1.73-0.09,3.35,0.89,3.63c0.98,0.28,2.17-0.9,2.66-2.63c0.49-1.73,0.09-3.35-0.89-3.63
			C373.09,236.25,371.9,237.42,371.41,239.15z"/>
		<path class="st0" d="M363.13,258.25c0,0-1.4-6.74-5.06-6.33c-5.58,0.61-11.44,13.02-6.62,27.15c2.22,6.51,19.34,0.03,23.93-3.89
			c0,0,4.49-3.97-1.97-4.78c-7.31-0.91-14.67,0.73-14.27,0.73C360.29,271.12,364.34,266.4,363.13,258.25z"/>
		<path class="st16" d="M372.24,323.17c0,0-1.99-0.34-2.29,0.74c-0.3,1.08-0.41,30.44-0.41,38.04c0,0,2.74,1.39,3.67,0
			c1.42-2.14,5.06-32.65,5.06-32.65L372.24,323.17z"/>
		<g>
			<path class="st13" d="M375.57,270.59c0,0,2.4-0.95,4.81,0.37c2.41,1.32,0.22,1.09-6.06,0.74L375.57,270.59z"/>
			<path class="st13" d="M375.57,270.59c0,0,1.48,0.26,3.77,1.09c2.29,0.83,2.4,0.95,3.8,1.64c0.97,0.47-0.14,0.62-0.2,0.66
				c-0.04,0.02,0.15,0.01,0.02,0.26c-0.09,0.16-0.48,0.45-0.74,0.54c-0.16,0.06-0.7,0.46-0.94,0.55c-1.18,0.43-2.72,1.3-7.06-0.43
				C374.22,274.9,372.73,271.31,375.57,270.59z"/>
		</g>
		<path class="st4" d="M363.75,230.58c0,0,1.35,1.93,4.37,0.99c0,0-0.3,3.55,2.5,4.07c0,0,0.34,1.7-0.29,2.83
			c-0.63,1.13-0.09,2.14,0.32,2.45c0.41,0.32,0.41-0.78,0.41-0.78s0.74-2.23,1.71-2.41c0.98-0.18,1.11,0.36,1.44,0.53
			c0.33,0.17,0.99,0.47,1.39-0.59c0.39-1.05-0.2-2.33,0-2.75c0.19-0.42,1.79-1.6,1.73-2.72c-0.06-1.13-0.69-3.2-3.05-2.92
			c0,0,0.22-2.83-2.65-3.39c0,0-3.44-2.47-5.81-0.88c0,0-5.88-3.13-7.24,0.56c0,0-4.07-0.18-3.89,2.85c0.18,3.03,3.27,4.07,6.1,2.95
			C360.79,231.36,362.9,231.9,363.75,230.58z"/>
	</g>
	<path class="st17" d="M364.92,248.41c0,0,2.75-0.16,5.4-2.06c0,0,0.86-0.69,1.96,0.37c1.11,1.06,0.6,3.63,0.5,3.79
		c-0.1,0.16-6.1,3.72-10.15,0.44c0,0-1.21-2.81,1.29-2.8L364.92,248.41z"/>
</g>
<g>
	<path class="st15" d="M141.32,200.37c0,0-18.45,38.99-16.95,50.9l-3.44-1.47c0,0,4.65-33.02,16.81-49.71
		C137.74,200.08,139.06,198.94,141.32,200.37z"/>
	<g>
		<g>
			<path class="st16" d="M149.66,205.64c0,0-4.7-4.99-7.59-2.74c-4.41,3.43-2.93,17.01,8.53,26.5c5.27,4.37,16.43-10.06,18.28-15.78
				c0,0,1.74-5.71-4.16-3.03c-6.69,3.04-12.07,8.26-11.74,8.05C153.95,218.05,154.92,211.93,149.66,205.64z"/>
			<g>
				<path class="st12" d="M164.36,211.7c0,0,0.42-1.6,1.55-4.07c1.13-2.47,1.28-2.58,2.18-4.08c0.62-1.04,0.69,0.18,0.73,0.24
					c0.02,0.04,0.03-0.17,0.29-0.01c0.17,0.1,0.47,0.54,0.55,0.83c0.05,0.18,0.46,0.78,0.54,1.05c0.38,1.3,1.24,3.02-1.09,7.68
					C169.1,213.34,164.92,214.81,164.36,211.7z"/>
			</g>
		</g>
		<g>
			<path class="st3" d="M149.91,233.99c0,0,3.85,28.9,4.67,42.63c0,0-9.24,0.55-10.74-2.36c-1.5-2.91-6.07-36.31-6.07-36.31
				L149.91,233.99z"/>
			<g>
				<path class="st3" d="M134.4,305.01c0,0-0.66,0.06-0.74,0.24c-0.08,0.18-1.3,2.52-1.32,3c-0.02,0.48,7.16,4.19,7.16,4.19
					s3.86,1.27,4.45,0.93c0.58-0.34,0.56-0.77,0.35-0.92c-0.2-0.15-7.67-6.84-7.67-6.84L134.4,305.01z"/>
				<path class="st3" d="M130.55,313.67c0,0-0.59,0.29-0.6,0.49c-0.01,0.2-0.31,2.82-0.16,3.28c0.15,0.46,8.19,1.34,8.19,1.34
					s4.06-0.2,4.49-0.72c0.42-0.52,0.24-0.92,0-0.98c-0.24-0.07-9.61-3.64-9.61-3.64L130.55,313.67z"/>
				<path class="st13" d="M130.69,309.94c0,0-0.1,4.04-0.08,4.11c0.19,0.61,1.92,0.65,2.44,0.18l1.01-3.89L130.69,309.94z"/>
				<path class="st13" d="M135.43,301.82c0,0-1.5,3.72-1.51,3.83c-0.05,0.64,1.46,1.34,2.11,1.09l2.15-3.5L135.43,301.82z"/>
				<path class="st3" d="M149.48,268.72c0,0-3.32,0.56-4.02,1.43c-0.69,0.87-9.1,26.1-11.54,33.07c0,0,2.71,2.38,4.21,1.47
					c2.32-1.4,16.29-27.92,16.29-27.92L149.48,268.72z"/>
				<path class="st4" d="M138.99,237.45c0.1,1.48,10.8-0.67,10.9,0.84c0.37,5.66-8.68,21.48-8.66,21.68
					c-3.51,24.39-5.88,46.53-7.18,51.67c-0.54,2.14-4.2,0.08-4.2,0.08c-0.78-27.72-1.31-71.98-1.31-71.98
					C131.3,237.92,135.25,237.41,138.99,237.45z"/>
				<path class="st0" d="M143.77,248.23c0,0-11.3,2.43-22.84,0c0,0-3.51,15-1.09,17.92c1.34,1.62,17.48,4.06,25.34,1.38
					C145.18,267.53,146.54,261.41,143.77,248.23z"/>
			</g>
		</g>
		<path class="st14" d="M140.56,201.41c0,0-8.25-0.87-9.75,2.98c0,0-3.71,13.32-2.27,35.36c0,0,14.65,7.33,23-0.69
			c0,0,3.98-16.93-1.64-30.79C149.9,208.26,145.47,201.39,140.56,201.41z"/>
		<path class="st0" d="M142.9,201.6c0,0,6.68,21.52-2.34,50.25l3.62-1.62c0,0,7.67-28.76,2.34-47.33
			C146.51,202.91,145.52,201.12,142.9,201.6z"/>
		<path class="st0" d="M135.34,202.07c0,0,8.62,4.89,11.02,9.29c0,0-1.1-7.31-3.53-9.05L135.34,202.07z"/>
		<path class="st12" d="M134.69,193.99c0,0,0.65,5.56,0.65,7.81c0,0.73,5.19,2.1,7.31,0.75c0.46-0.29,0.42-6.48,0.42-6.48
			L134.69,193.99z"/>
		<path class="st13" d="M137.56,179.76c0,0,7.26-3.33,12.01,1.3c0,0-0.38,3.19-0.29,7.68c0.12,5.5-0.96,9.81-2.97,10.03
			c0,0-9.12,1.32-10.4-5.06C134.77,187.96,135.37,181.24,137.56,179.76z"/>
		<path class="st4" d="M138.65,188.5c0,0-0.46-4.67,4.76-5.66c5.22-0.99,4.86,1.38,8.51-0.86c3.04-1.87-1.11-1.92-1.11-1.92
			s2.07-3.47,0.88-3.08c-1.19,0.4-16.63-2.61-19,1.63c-3.17,5.7,1.63,14.8,2.45,15.98C135.95,195.77,138.65,188.5,138.65,188.5z"/>
		<path class="st13" d="M137.8,191.42c0.54,1.89,0.1,3.67-0.97,3.97c-1.07,0.3-2.38-0.98-2.91-2.88c-0.54-1.89-0.1-3.67,0.97-3.98
			c0.76-0.22,1.64,0.37,2.28,1.4C137.42,190.37,137.64,190.87,137.8,191.42z"/>
		<g>
			<path class="st13" d="M138.97,249.73c0,0,1.95,1.05,2.56,3.53c0.61,2.47-0.96,0.24-4.64-3.84L138.97,249.73z"/>
			<path class="st13" d="M138.78,250.07c0,0,0.75,1.09,1.62,3.11c0.87,2.01,0.85,2.18,1.27,3.55c0.29,0.95-0.51,0.39-0.57,0.38
				c-0.04-0.01,0.09,0.1-0.17,0.21c-0.16,0.07-0.6,0.05-0.83-0.03c-0.14-0.05-0.63-0.24-0.84-0.33c-1.02-0.38-2.94-1.08-4.49-5.03
				C134.78,251.94,136.53,248.9,138.78,250.07z"/>
		</g>
		<path class="st14" d="M137.96,208.66c0,0-1.82-6.94-5.43-6.29c-8.15,1.45-15,25.47,1.63,49.91c0,0,5.28-0.09,4.81-3.14
			c-0.8-5.14-3.33-9.49-2.75-19.51C136.48,225.02,139.67,217.08,137.96,208.66z"/>
	</g>
	<path class="st4" d="M149.57,186.91c0,0-0.3,0.28-1.12,0.63c0,0-0.32,0.04-1.23-0.04c-0.91-0.08-3.83-1.23-5.85-0.55
		c0,0-4.54,0.63-4.9,0.55c-0.36-0.08-1.53,0.63-0.91,1c0.62,0.37,3.4-0.12,4.98,0.75c0.24,0.13,2.14,3.39,5.5,1.77
		c0,0,1.03-0.79,1.5-1.34c0,0,0.32-0.13,0.68-0.09c0.36,0.04,0.68,1.35,1.35,1.51c0,0,0.82-0.36,1.05-1.38
		C150.86,188.69,151.07,186.69,149.57,186.91z"/>
	<g>
		<path class="st4" d="M171.98,213.39c0.24,0.04,0.47-0.12,0.51-0.37l1.7-10.24c0.04-0.24-0.12-0.47-0.37-0.51l-5.9-0.98
			c-0.24-0.04-0.47,0.12-0.51,0.37l-1.7,10.24c-0.04,0.24,0.12,0.47,0.37,0.51L171.98,213.39z"/>
		<path class="st0" d="M171.7,212.95c0.21,0.04,0.42-0.11,0.45-0.33l1.52-9.14c0.04-0.22-0.11-0.42-0.32-0.46l-5.23-0.87
			c-0.21-0.04-0.42,0.11-0.45,0.33l-1.52,9.14c-0.04,0.22,0.11,0.42,0.32,0.46L171.7,212.95z"/>
		<path class="st19" d="M166.61,211.92c0.36-0.1,0.7-0.24,1.03-0.41c0.32-0.16,0.64-0.33,0.94-0.53c0.29-0.2,0.55-0.41,0.81-0.65
			c0.33-0.31,0.65-0.62,0.95-0.96c0.23-0.27,0.46-0.55,0.67-0.83c0.2-0.28,0.39-0.57,0.58-0.85c0.26-0.41,0.52-0.81,0.77-1.23
			c0.4-0.68,0.78-1.38,1.05-2.11c0.01-0.03,0.02-0.06,0.03-0.09l-1.37,8.25c-0.03,0.22-0.24,0.36-0.45,0.33l-5.21-0.87
			C166.47,211.95,166.54,211.94,166.61,211.92z"/>
		<path class="st0" d="M170.73,202.39c0.11,0.02,0.2-0.05,0.22-0.16c0.02-0.11-0.05-0.2-0.16-0.22c-0.11-0.02-0.21,0.05-0.22,0.16
			C170.56,202.27,170.63,202.37,170.73,202.39z"/>
	</g>
	<path class="st12" d="M163.9,210.7c0,0,0.03-2.79,2.47-4.69c2.44-1.9,1.25,0.21-1.84,6.39L163.9,210.7z"/>
</g>
<polygon class="st1" points="353.39,369.65 543.57,371.84 543.57,355.34 376.91,364.46 "/>
</svg>
