<?xml version="1.0" encoding="UTF-8" standalone="no"?>
<svg
   xmlns:dc="http://purl.org/dc/elements/1.1/"
   xmlns:cc="http://creativecommons.org/ns#"
   xmlns:rdf="http://www.w3.org/1999/02/22-rdf-syntax-ns#"
   xmlns:svg="http://www.w3.org/2000/svg"
   xmlns="http://www.w3.org/2000/svg"
   id="svg8"
   version="1.1"
   viewBox="0 0 575.14691 114.12824"
   height="114.12823mm"
   width="575.14691mm">
  <defs
     id="defs2" />
  <metadata
     id="metadata5">
    <rdf:RDF>
      <cc:Work
         rdf:about="">
        <dc:format>image/svg+xml</dc:format>
        <dc:type
           rdf:resource="http://purl.org/dc/dcmitype/StillImage" />
        <dc:title></dc:title>
      </cc:Work>
    </rdf:RDF>
  </metadata>
  <g
     transform="translate(-220.02422,-44.23099)"
     id="layer1">
    <g
       id="text4706"
       style="font-style:normal;font-variant:normal;font-weight:900;font-stretch:normal;font-size:95.91956329px;line-height:1.25;font-family:Arial;-inkscape-font-specification:'Arial, Heavy';font-variant-ligatures:normal;font-variant-position:normal;font-variant-caps:normal;font-variant-numeric:normal;font-variant-alternates:normal;font-feature-settings:normal;text-indent:0;text-align:center;text-decoration:none;text-decoration-line:none;text-decoration-style:solid;text-decoration-color:#000000;letter-spacing:normal;word-spacing:normal;text-transform:none;writing-mode:lr-tb;direction:ltr;text-orientation:mixed;dominant-baseline:auto;baseline-shift:baseline;text-anchor:middle;white-space:normal;shape-padding:0;opacity:1;vector-effect:none;fill:#009688;fill-opacity:1;fill-rule:nonzero;stroke:none;stroke-width:7.67356539;stroke-linecap:round;stroke-linejoin:round;stroke-miterlimit:4;stroke-dasharray:none;stroke-dashoffset:0;stroke-opacity:1;paint-order:markers stroke fill"
       aria-label="Nightingale">
      <path
         id="path3347"
         style="font-style:normal;font-variant:normal;font-weight:bold;font-stretch:normal;font-family:Oswald;-inkscape-font-specification:'Oswald Bold';text-align:end;text-anchor:end;fill:#009688;fill-opacity:1;stroke-width:7.67356539"
         d="M 246.96219,135.07576 V 51.146142 h 8.99246 l 20.98241,51.893978 V 51.146142 H 288.927 v 83.929618 h -8.5241 L 258.95214,79.247577 v 55.828183 z" />
      <path
         id="path3349"
         style="font-style:normal;font-variant:normal;font-weight:bold;font-stretch:normal;font-family:Oswald;-inkscape-font-specification:'Oswald Bold';text-align:end;text-anchor:end;fill:#009688;fill-opacity:1;stroke-width:7.67356539"
         d="M 300.91695,66.133574 V 54.143628 h 11.98994 v 11.989946 z m 0,68.942186 V 75.126033 h 11.98994 v 59.949727 z" />
      <path
         id="path3351"
         style="font-style:normal;font-variant:normal;font-weight:bold;font-stretch:normal;font-family:Oswald;-inkscape-font-specification:'Oswald Bold';text-align:end;text-anchor:end;fill:#009688;fill-opacity:1;stroke-width:7.67356539"
         d="m 332.85891,96.108437 q 0,12.739313 7.49372,12.739313 7.49371,0 7.49371,-12.739313 0,-2.575965 -0.32785,-4.730408 -0.32785,-2.201279 -1.12405,-4.262051 -0.79621,-2.107607 -2.34179,-3.2785 -1.54558,-1.217729 -3.70002,-1.217729 -2.20128,0 -3.74686,1.217729 -1.54558,1.170893 -2.34179,3.2785 -0.74937,2.060772 -1.07722,4.262051 -0.32785,2.154443 -0.32785,4.730408 z m 10.4912,48.053453 q 1.26457,0 2.24812,-0.0468 1.03038,-0.0468 2.34179,-0.18734 1.3114,-0.14051 2.24811,-0.46836 0.98355,-0.28101 1.82659,-0.74937 0.88988,-0.46835 1.35824,-1.26456 0.46836,-0.74937 0.46836,-1.73292 0,-5.01143 -9.60133,-6.13548 l -9.88234,-1.1709 q -1.82659,1.3114 -3.13799,3.7937 -1.26456,2.48229 -1.26456,5.19876 0,0.74937 0.51519,1.26457 0.51519,0.56203 1.49874,0.84304 1.03039,0.28101 2.06077,0.46836 1.07723,0.18734 2.52913,0.23418 1.45191,0.0468 2.4823,0.0468 1.03038,0 2.38862,-0.0468 1.40507,-0.0468 1.92026,-0.0468 z m 0,8.85195 q -2.24811,0 -3.65318,-0.0468 -1.40507,0 -3.84053,-0.0937 -2.43546,-0.0937 -4.07471,-0.37469 -1.63925,-0.23418 -3.74686,-0.6557 -2.10761,-0.37469 -3.51268,-1.03039 -1.35823,-0.6557 -2.6228,-1.54558 -1.26456,-0.88987 -1.92026,-2.20127 -0.60887,-1.26457 -0.60887,-2.85698 0,-4.68358 2.4823,-8.00891 2.52913,-3.32534 6.51016,-5.29244 -2.43546,-0.6557 -4.21521,-1.9671 -1.77976,-1.35824 -1.77976,-3.2785 0,-0.79621 0.18734,-1.68609 0.18735,-0.88988 0.42152,-1.59241 0.23418,-0.74937 0.74938,-1.68609 0.51519,-0.93671 0.7962,-1.4519 0.32785,-0.56203 1.03039,-1.49875 0.70253,-0.98355 0.93671,-1.3114 0.28102,-0.37468 1.03039,-1.26456 0.74937,-0.93672 0.84304,-1.07722 -5.99497,-7.11903 -5.99497,-17.984923 0,-6.229151 1.9671,-11.100066 1.9671,-4.870916 6.08864,-7.774731 4.16838,-2.95065 9.92918,-2.95065 3.32533,0 5.80763,0.936714 2.48229,0.936715 4.02787,2.388622 1.59241,1.405072 3.09116,3.746858 3.55951,-6.603837 10.11651,-7.025358 0.14051,0 0.28102,0 0.14051,0 0.32785,0 0.23418,0 0.32785,0 v 9.788666 q -0.23418,0 -0.74937,0 -2.01394,0 -3.04433,0.04684 -1.03038,0.04684 -2.29495,0.421521 -1.26456,0.32785 -2.01393,1.077222 0.84304,1.826593 1.45191,4.870915 0.6557,2.997486 0.6557,5.573451 0,6.275983 -1.92027,11.100063 -1.87343,4.82408 -6.04181,7.7279 -4.12154,2.90381 -10.02284,2.90381 l -6.04181,-0.70253 q -0.0937,0.23418 -0.46836,0.84304 -0.37468,0.56203 -0.60886,0.93672 -0.18735,0.37468 -0.37469,0.98355 -0.18734,0.56202 -0.18734,1.07722 0,1.21773 1.17089,2.06077 1.1709,0.84304 3.23167,1.26456 2.06077,0.37469 3.9342,0.56203 1.92026,0.18734 4.26205,0.32785 2.34178,0.0937 3.23166,0.23418 2.66964,0.37469 4.73041,0.88988 2.10761,0.46836 4.26205,1.40507 2.20128,0.93672 3.60635,2.24812 1.40508,1.3114 2.29495,3.37217 0.93672,2.06077 0.93672,4.73041 0,3.2785 -1.17089,5.85446 -1.12406,2.57597 -3.04433,4.26205 -1.92026,1.68609 -4.63673,2.76331 -2.71648,1.12406 -5.71396,1.59242 -2.99749,0.46835 -6.4165,0.46835 z" />
      <path
         id="path3353"
         style="font-style:normal;font-variant:normal;font-weight:bold;font-stretch:normal;font-family:Oswald;-inkscape-font-specification:'Oswald Bold';text-align:end;text-anchor:end;fill:#009688;fill-opacity:1;stroke-width:7.67356539"
         d="M 367.65785,135.07576 V 51.146142 h 11.98995 v 30.443221 q 2.66963,-2.435458 4.35572,-3.700022 1.68609,-1.311401 4.63674,-2.435458 2.99748,-1.170893 6.36966,-1.170893 3.84053,0 6.22915,2.810143 2.38862,2.810144 2.38862,6.884852 V 135.07576 H 391.63774 V 90.113465 q 0,-3.091158 -0.7962,-4.543066 -0.74938,-1.451907 -3.32534,-1.451907 -3.65319,0 -7.8684,3.512679 v 47.444589 z" />
      <path
         id="path3355"
         style="font-style:normal;font-variant:normal;font-weight:bold;font-stretch:normal;font-family:Oswald;-inkscape-font-specification:'Oswald Bold';text-align:end;text-anchor:end;fill:#009688;fill-opacity:1;stroke-width:7.67356539"
         d="m 430.74557,135.9188 q -7.07219,0 -10.30386,-3.60635 -3.18483,-3.60635 -3.2785,-10.91272 V 84.118492 h -5.99497 v -8.992459 h 5.99497 V 54.143628 h 11.98995 v 20.982405 h 8.99246 v 8.992459 h -8.99246 v 34.986288 q 0,3.60635 0.98355,5.29243 0.98355,1.68609 3.98103,1.68609 1.3114,0 4.02788,-0.46836 v 9.74183 q -4.49623,0.56203 -7.40005,0.56203 z" />
      <path
         id="path3357"
         style="font-style:normal;font-variant:normal;font-weight:bold;font-stretch:normal;font-family:Oswald;-inkscape-font-specification:'Oswald Bold';text-align:end;text-anchor:end;fill:#009688;fill-opacity:1;stroke-width:7.67356539"
         d="M 447.41909,66.133574 V 54.143628 h 11.98994 v 11.989946 z m 0,68.942186 V 75.126033 h 11.98994 v 59.949727 z" />
      <path
         id="path3359"
         style="font-style:normal;font-variant:normal;font-weight:bold;font-stretch:normal;font-family:Oswald;-inkscape-font-specification:'Oswald Bold';text-align:end;text-anchor:end;fill:#009688;fill-opacity:1;stroke-width:7.67356539"
         d="M 470.8838,135.07576 V 75.126033 h 11.98994 v 6.46333 q 2.66964,-2.435458 4.35572,-3.700022 1.68609,-1.311401 4.63674,-2.435458 2.99749,-1.170893 6.36966,-1.170893 3.84053,0 6.22915,2.810143 2.38862,2.810144 2.38862,6.884852 V 135.07576 H 494.86369 V 90.113465 q 0,-3.137994 -0.88988,-4.543066 -0.88988,-1.451907 -3.60635,-1.451907 -1.54558,0 -3.09116,0.6557 -1.49874,0.608864 -2.24811,1.170893 -0.74938,0.515193 -2.15445,1.686086 v 47.444589 z" />
      <path
         id="path3361"
         style="font-style:normal;font-variant:normal;font-weight:bold;font-stretch:normal;font-family:Oswald;-inkscape-font-specification:'Oswald Bold';text-align:end;text-anchor:end;fill:#009688;fill-opacity:1;stroke-width:7.67356539"
         d="m 525.82209,96.108437 q 0,12.739313 7.49372,12.739313 7.49371,0 7.49371,-12.739313 0,-2.575965 -0.32785,-4.730408 -0.32785,-2.201279 -1.12405,-4.262051 -0.79621,-2.107607 -2.34179,-3.2785 -1.54558,-1.217729 -3.70002,-1.217729 -2.20128,0 -3.74686,1.217729 -1.54558,1.170893 -2.34179,3.2785 -0.74937,2.060772 -1.07722,4.262051 -0.32785,2.154443 -0.32785,4.730408 z m 10.4912,48.053453 q 1.26457,0 2.24812,-0.0468 1.03039,-0.0468 2.34179,-0.18734 1.3114,-0.14051 2.24811,-0.46836 0.98355,-0.28101 1.82659,-0.74937 0.88988,-0.46835 1.35824,-1.26456 0.46836,-0.74937 0.46836,-1.73292 0,-5.01143 -9.60133,-6.13548 l -9.88233,-1.1709 q -1.8266,1.3114 -3.138,3.7937 -1.26456,2.48229 -1.26456,5.19876 0,0.74937 0.51519,1.26457 0.51519,0.56203 1.49874,0.84304 1.03039,0.28101 2.06078,0.46836 1.07722,0.18734 2.52912,0.23418 1.45191,0.0468 2.4823,0.0468 1.03038,0 2.38862,-0.0468 1.40507,-0.0468 1.92026,-0.0468 z m 0,8.85195 q -2.24811,0 -3.65318,-0.0468 -1.40507,0 -3.84053,-0.0937 -2.43546,-0.0937 -4.07471,-0.37469 -1.63925,-0.23418 -3.74686,-0.6557 -2.1076,-0.37469 -3.51268,-1.03039 -1.35823,-0.6557 -2.6228,-1.54558 -1.26456,-0.88987 -1.92026,-2.20127 -0.60887,-1.26457 -0.60887,-2.85698 0,-4.68358 2.4823,-8.00891 2.52913,-3.32534 6.51016,-5.29244 -2.43545,-0.6557 -4.21521,-1.9671 -1.77976,-1.35824 -1.77976,-3.2785 0,-0.79621 0.18734,-1.68609 0.18735,-0.88988 0.42152,-1.59241 0.23418,-0.74937 0.74938,-1.68609 0.51519,-0.93671 0.7962,-1.4519 0.32785,-0.56203 1.03039,-1.49875 0.70254,-0.98355 0.93671,-1.3114 0.28102,-0.37468 1.03039,-1.26456 0.74937,-0.93672 0.84304,-1.07722 -5.99497,-7.11903 -5.99497,-17.984923 0,-6.229151 1.9671,-11.100066 1.9671,-4.870916 6.08864,-7.774731 4.16838,-2.95065 9.92918,-2.95065 3.32533,0 5.80763,0.936714 2.48229,0.936715 4.02787,2.388622 1.59241,1.405072 3.09116,3.746858 3.55951,-6.603837 10.11651,-7.025358 0.14051,0 0.28102,0 0.14051,0 0.32785,0 0.23418,0 0.32785,0 v 9.788666 q -0.23418,0 -0.74937,0 -2.01394,0 -3.04432,0.04684 -1.03039,0.04684 -2.29496,0.421521 -1.26456,0.32785 -2.01393,1.077222 0.84304,1.826593 1.45191,4.870915 0.6557,2.997486 0.6557,5.573451 0,6.275983 -1.92027,11.100063 -1.87343,4.82408 -6.04181,7.7279 -4.12154,2.90381 -10.02284,2.90381 l -6.04181,-0.70253 q -0.0937,0.23418 -0.46836,0.84304 -0.37468,0.56203 -0.60886,0.93672 -0.18734,0.37468 -0.37469,0.98355 -0.18734,0.56202 -0.18734,1.07722 0,1.21773 1.17089,2.06077 1.1709,0.84304 3.23167,1.26456 2.06077,0.37469 3.9342,0.56203 1.92026,0.18734 4.26205,0.32785 2.34179,0.0937 3.23166,0.23418 2.66964,0.37469 4.73041,0.88988 2.10761,0.46836 4.26205,1.40507 2.20128,0.93672 3.60635,2.24812 1.40508,1.3114 2.29495,3.37217 0.93672,2.06077 0.93672,4.73041 0,3.2785 -1.17089,5.85446 -1.12406,2.57597 -3.04433,4.26205 -1.92026,1.68609 -4.63673,2.76331 -2.71647,1.12406 -5.71396,1.59242 -2.99749,0.46835 -6.4165,0.46835 z" />
      <path
         id="path3363"
         style="font-style:normal;font-variant:normal;font-weight:bold;font-stretch:normal;font-family:Oswald;-inkscape-font-specification:'Oswald Bold';text-align:end;text-anchor:end;fill:#009688;fill-opacity:1;stroke-width:7.67356539"
         d="m 577.06038,126.0833 q 1.26456,0 2.43546,-0.74937 1.21773,-0.74937 1.82659,-1.45191 0.60887,-0.70253 1.49874,-1.87343 0.14051,-0.23418 0.23418,-0.32785 V 105.1009 q -0.74937,0.51519 -2.48229,1.59241 -1.73292,1.07722 -2.76331,1.77976 -1.03038,0.6557 -2.48229,1.87343 -1.45191,1.17089 -2.24812,2.29495 -0.7962,1.07722 -1.40507,2.66963 -0.60886,1.59242 -0.60886,3.32534 0,7.44688 5.99497,7.44688 z m -5.99497,9.8355 q -5.01143,0 -8.5241,-4.30888 -3.46585,-4.35573 -3.46585,-9.78867 0,-4.35572 1.45191,-7.91524 1.49874,-3.55951 3.13799,-5.66712 1.63925,-2.15444 5.47978,-4.40256 3.84053,-2.29495 5.80763,-3.13799 1.9671,-0.843045 6.83802,-2.763309 0.84304,-0.327851 1.26456,-0.515193 v -4.308887 q 0,-4.543065 -1.26456,-7.025359 -1.26457,-2.529129 -4.73041,-2.529129 -3.09116,0 -4.44939,2.154444 -1.3114,2.107607 -1.49875,5.854465 -0.0468,0.515193 -0.0468,1.545579 h -11.98995 q 0.0937,-8.617773 4.82408,-13.722867 4.73041,-5.105094 13.16084,-5.105094 8.38359,0 13.16084,5.198765 4.82408,5.15193 4.82408,13.629196 v 26.977379 q 0,9.36714 1.54558,14.98743 h -11.94311 l -1.59242,-8.99246 q -0.93671,1.87343 -1.54558,2.90382 -0.56202,1.03038 -1.68608,2.57596 -1.12406,1.49874 -2.24812,2.34179 -1.12405,0.7962 -2.81014,1.40507 -1.68609,0.60886 -3.70002,0.60886 z" />
      <path
         id="path3365"
         style="font-style:normal;font-variant:normal;font-weight:bold;font-stretch:normal;font-family:Oswald;-inkscape-font-specification:'Oswald Bold';text-align:end;text-anchor:end;fill:#009688;fill-opacity:1;stroke-width:7.67356539"
         d="M 605.44281,135.07576 V 51.146142 h 11.98994 v 83.929618 z" />
      <path
         id="path3367"
         style="font-style:normal;font-variant:normal;font-weight:bold;font-stretch:normal;font-family:Oswald;-inkscape-font-specification:'Oswald Bold';text-align:end;text-anchor:end;fill:#009688;fill-opacity:1;stroke-width:7.67356539"
         d="m 645.01902,135.9188 q -4.35572,0 -7.58738,-1.49874 -3.18483,-1.49874 -5.1051,-3.88737 -1.87343,-2.43545 -3.04432,-6.18231 -1.17089,-3.79369 -1.63925,-7.54055 -0.42152,-3.7937 -0.51519,-8.80512 -0.14051,-3.9342 0,-7.8684 0.1405,-4.683573 0.60886,-8.289924 0.51519,-3.653186 1.73292,-7.072194 1.21773,-3.419008 3.138,-5.620287 1.9671,-2.201279 5.10509,-3.512679 3.18483,-1.358236 7.40005,-1.358236 3.84052,0 6.74434,1.030386 2.95065,0.98355 4.87092,3.044322 1.9671,2.013936 3.23166,4.496229 1.3114,2.482294 1.9671,6.041809 0.6557,3.512679 0.88988,6.931687 0.28101,3.419008 0.28101,7.868397 v 1.40508 h -23.97989 v 2.99748 q 0,0.60887 0,1.92027 -0.0937,1.73292 -0.0468,3.60635 0.0937,1.82659 0.18734,3.60635 0.0937,1.77976 0.51519,3.41901 0.42152,1.59241 1.03039,2.81014 0.60886,1.21773 1.68608,1.92026 1.12406,0.70254 2.62281,0.70254 1.87342,0 3.09115,-0.70254 1.21773,-0.74937 1.77976,-2.20127 0.60887,-1.45191 0.84304,-2.90382 0.23418,-1.45191 0.28102,-3.65319 v -2.52912 h 11.89627 v 2.38862 q -0.42152,9.60132 -4.73041,14.51907 -4.30888,4.91775 -13.25451,4.91775 z m -5.9013,-36.812876 H 651.014 v -3.606351 q -0.0468,-2.388622 -0.28102,-4.16838 -0.23418,-1.779757 -0.84304,-3.559515 -0.56203,-1.779757 -1.77976,-2.716472 -1.21773,-0.936714 -2.99748,-0.936714 -1.8266,0 -3.09116,0.98355 -1.21773,0.98355 -1.8266,2.856979 -0.56202,1.826594 -0.7962,3.606351 -0.23418,1.779758 -0.28102,4.262051 z" />
    </g>
    <g
       id="text4710"
       style="font-style:normal;font-variant:normal;font-weight:900;font-stretch:normal;font-size:95.91956329px;line-height:1.25;font-family:Arial;-inkscape-font-specification:'Arial, Heavy';font-variant-ligatures:normal;font-variant-position:normal;font-variant-caps:normal;font-variant-numeric:normal;font-variant-alternates:normal;font-feature-settings:normal;text-indent:0;text-align:center;text-decoration:none;text-decoration-line:none;text-decoration-style:solid;text-decoration-color:#000000;letter-spacing:normal;word-spacing:normal;text-transform:none;writing-mode:lr-tb;direction:ltr;text-orientation:mixed;dominant-baseline:auto;baseline-shift:baseline;text-anchor:middle;white-space:normal;shape-padding:0;opacity:1;vector-effect:none;fill:#ffba49;fill-opacity:1;fill-rule:nonzero;stroke:none;stroke-width:7.67356539;stroke-linecap:round;stroke-linejoin:round;stroke-miterlimit:4;stroke-dasharray:none;stroke-dashoffset:0;stroke-opacity:1;paint-order:markers stroke fill"
       aria-label="HQ">
      <path
         id="path3342"
         style="font-style:normal;font-variant:normal;font-weight:bold;font-stretch:normal;font-family:Oswald;-inkscape-font-specification:'Oswald Bold';fill:#ffba49;fill-opacity:1;stroke-width:7.67356539"
         d="M 666.50595,134.34904 V 50.419427 h 11.98995 v 35.969836 h 20.9824 V 50.419427 h 11.98995 V 134.34904 H 699.4783 V 95.381722 h -20.9824 v 38.967318 z" />
      <path
         id="path3344"
         style="font-style:normal;font-variant:normal;font-weight:bold;font-stretch:normal;font-family:Oswald;-inkscape-font-specification:'Oswald Bold';fill:#ffba49;fill-opacity:1;stroke-width:7.67356539"
         d="m 736.33802,121.56289 q 2.43546,3.7937 8.75828,3.7937 6.32282,0 8.71144,-3.7937 2.43546,-3.79369 2.43546,-11.19374 V 73.93096 q 0,-7.306372 -2.38862,-10.912723 -2.38862,-3.606351 -8.75828,-3.606351 -6.36966,0 -8.75828,3.606351 -2.38862,3.606351 -2.38862,10.912723 v 36.43819 q 0,7.40005 2.38862,11.19374 z m 30.91158,24.7761 q -5.1051,0 -10.16336,-3.55951 -5.01142,-3.55952 -7.30637,-7.91524 -2.01394,0.32785 -4.68357,0.32785 -6.32282,0 -10.86589,-1.92027 -4.49623,-1.92026 -7.16587,-5.62028 -2.66963,-3.70003 -3.88736,-8.66461 -1.21773,-5.01143 -1.21773,-11.61526 V 76.928447 q 0,-6.603837 1.21773,-11.521588 1.21773,-4.917751 3.88736,-8.524102 2.66964,-3.653187 7.16587,-5.47978 4.54307,-1.826593 10.86589,-1.826593 12.27096,0 17.7039,7.025359 5.43295,7.025358 5.43295,20.326704 v 30.443223 q 0,18.54694 -10.06969,24.68242 1.35824,1.9671 4.07471,3.18483 2.76331,1.26457 5.01143,1.26457 z" />
    </g>
  </g>
</svg>
