<?xml version="1.0" encoding="UTF-8" standalone="no"?>
<svg
   xmlns:dc="http://purl.org/dc/elements/1.1/"
   xmlns:cc="http://creativecommons.org/ns#"
   xmlns:rdf="http://www.w3.org/1999/02/22-rdf-syntax-ns#"
   xmlns:svg="http://www.w3.org/2000/svg"
   xmlns="http://www.w3.org/2000/svg"
   height="425.19922"
   width="1133.9102"
   xml:space="preserve"
   viewBox="0 0 1133.9102 425.19921"
   y="0px"
   x="0px"
   id="Capa_1"
   version="1.1"><metadata
   id="metadata291"><rdf:RDF><cc:Work
       rdf:about=""><dc:format>image/svg+xml</dc:format><dc:type
         rdf:resource="http://purl.org/dc/dcmitype/StillImage" /><dc:title></dc:title></cc:Work></rdf:RDF></metadata><defs
   id="defs289">
	
	
	
	

	
	
	
	
	
	
	
	
	
	
	
	
	
	
	
	
	
	
	
	
	
	
	
	
	
	
	
	
	
	

		
		
		
		
		
		
	
		
		
		
		
		
		
	
		
		
		
		
		
		
	
		
		
		
		
		
		
	
	
	
	

	
	
	

	
	

	
	
	
	

	
	
	

		
		
		
	
		
	
		
		
		
		
		
		
		
		
		
		
		
		
		
		
	
		
		
		
		
		
		
		
		
		
		
		
		
		
		
		
		
		
		
		
		
	
			
			
		
			
			
		
			
			
		
			
			
			
			
			
			
			
		
			
		
				
				
			
				
				
			</defs>
<style
   id="style2"
   type="text/css">
	.st0{fill:#C6CAE6;}
	.st1{opacity:0.4;fill:#FFFFFF;}
	.st2{fill:#495BA9;}
	.st3{fill:#FFFFFF;}
	.st4{fill:#FDBC56;}
	.st5{fill:#2E3192;}
	.st6{fill:#282660;}
	.st7{opacity:0.2;fill:#8980BC;}
	.st8{opacity:0.8;fill:#FDBC56;}
	.st9{opacity:0.5;fill:#FFFFFF;}
	.st10{fill:#FAA229;}
	.st11{fill:#F79E8C;}
	.st12{fill:#E5846F;}
	.st13{fill:#BCBEC0;}
	.st14{opacity:0.2;fill:#2E3192;}
</style>
<path
   id="rect4"
   d="m 0,0 v 254.50391 c 11.74063,2.66442 23.89266,3.84683 35.69922,4.0957 10.05,0.21 20.1707,-0.52883 30.2207,-1.79883 v -69.85156 c -1.94,-0.93 -3.80078,-2.05984 -5.55078,-3.33984 -0.39,-0.27001 -0.76867,-0.55008 -1.13867,-0.83008 -2.11,-1.61 -4.00086,-3.47 -5.63086,-5.5 -0.32,-0.41 -0.63945,-0.82024 -0.93945,-1.24024 -2.31,-3.19 -4.86016,-7.49961 -2.16016,-11.09961 1.05,-1.58 3.30008,-1.71976 4.33008,-3.25976 0.39,-0.47 0.67055,-1.00985 0.81055,-1.58985 0.14002,-0.59 0.13898,-1.22015 -0.041,-1.91015 -0.12,-0.43 -0.26922,-0.84047 -0.44922,-1.23047 -0.18,-0.39 -0.38132,-0.75914 -0.61132,-1.11914 -0.14001,-0.67 -0.73946,-1.11063 -1.18946,-1.39063 -0.87,-0.7 -1.69898,-1.43875 -2.45898,-2.21875 -0.25,-0.26 -0.50024,-0.53101 -0.74024,-0.79101 -0.3,-0.3 -0.58156,-0.60016 -0.85156,-0.91016 -1.25,-1.52 -2.30008,-3.21953 -3.08008,-5.01953 -0.2,-0.45 -0.36929,-0.90914 -0.52929,-1.36914 -0.6,-2.02 -0.83047,-4.14023 -0.73047,-6.24024 0.03,-0.53 0.0706,-1.05031 0.14062,-1.57031 0.59,-4.15 2.38992,-8.61 6.16992,-11 0.41,-0.24 0.80946,-0.48 1.18946,-0.75 0.38,-0.27 0.73125,-0.56062 1.03125,-0.89062 0.15,-0.29 0.30039,-0.71977 0.15039,-1.00977 -0.3,-0.86 -0.80078,-1.68023 -1.30078,-2.49023 -0.25,-0.41 -0.51024,-0.82047 -0.74024,-1.23047 -1.44,-3.4 -1.3507,-6.75883 -0.2207,-9.79883 0.19,-0.51 0.40039,-1.01 0.65039,-1.5 0.64,-1.4 1.46094,-2.82992 2.46094,-4.16992 0.33,-0.45 0.67906,-0.88055 1.03906,-1.31055 0.58,-0.85 1.25977,-1.64914 2.00977,-2.369139 0.37,-0.36 0.75992,-0.70125 1.16992,-1.03125 0.38,-0.35 0.78117,-0.690234 1.20117,-0.990234 3.34,-2.719965 8.58867,-2.860235 11.88867,0.0098 1.5,1.58 0.60078,3.591323 1.05078,5.611323 0.15,0.43 0.30039,0.71906 0.65039,1.03906 0.22,0.29 0.47,0.56032 0.75,0.82032 0.28,0.26 0.58039,0.50046 0.90039,0.73046 0.39,0.28 0.81,0.55032 1.25,0.82032 0.32,0.22 0.65977,0.44039 1.00977,0.65039 2.16,0.95 4.21859,2.31883 5.80859,4.04883 0.32,0.35 0.62063,0.71007 0.89063,1.08007 0.52,0.77 0.98109,1.61 1.37109,2.5 0.39,0.89 0.69969,1.83102 0.92969,2.79102 0.82,4.07 0.66867,9.2382 -2.86133,12.1582 -0.29,0.24 -0.59969,0.46188 -0.92969,0.67188 -0.33,0.21 -0.67906,0.38859 -1.03906,0.55859 -0.79,0.59 -1.69016,0.45102 -2.41016,0.79102 -0.59,0.2 -1.17976,0.39031 -1.75976,0.57031 -3.45,1.13 -6.33031,2.39851 -6.07031,4.97852 0.06,0.96998 1.13062,1.46125 2.64062,1.78124 0.51,0.11002 1.05844,0.19907 1.64844,0.28907 2.46,0.52 4.85984,0.52109 7.08984,1.62109 0.42,0.19 0.81164,0.37836 1.18164,0.56837 1.24,0.78 2.13891,1.64116 2.62891,2.95116 0.12,0.29 0.22102,0.59992 0.29101,0.91992 0.0601,0.32 0.0999,0.65 0.0899,1 -0.02,0.39 -0.0501,0.78016 -0.0801,1.16016 -0.03,0.42 -0.0696,0.83 -0.0996,1.25 -0.04,0.41 -0.0806,0.82024 -0.14062,1.24023 -1.07,3.37002 -3.07071,6.23883 -5.22071,9.04883 l -0.80859,1.05078 c -0.31,0.39 -0.60086,0.79922 -0.88086,1.19922 -0.66,0.88 -1.50063,1.70024 -2.39062,2.49024 -0.29001,0.26 -0.58844,0.53101 -0.89844,0.79101 -2.06,1.98 -6.26133,4.71922 -3.86133,7.44922 0.7,0.85 1.57023,1.57047 2.49023,2.23047 0.31,0.22 0.62922,0.44039 0.94922,0.65039 1.72,1.12 3.57055,2.59008 4.81055,4.33008 0.25,0.35 0.47992,0.71008 0.66992,1.08008 1.58,2.49 1.58047,6.07984 -0.51953,8.08984 -0.42,0.36001 -0.87008,0.6093 -1.33008,0.7793 -0.46,0.17 -0.93992,0.24929 -1.41992,0.27931 -0.49,-0.02 -0.9807,-0.0496 -1.4707,-0.0996 -0.49,-0.05 -0.96899,-0.10946 -1.45899,-0.18946 -1.91,-0.16 -3.73023,-0.54937 -5.49023,-1.10937 v 67.80859 c 8.46,-1.18 16.86062,-2.70984 25.14062,-4.33984 13.02,-2.56 25.86907,-6.06039 38.53907,-10.15039 47.97,-15.46 92.95109,-41.46875 142.37109,-51.46875 19.1,-1.59 38.31914,-0.52977 57.36914,1.74023 19.04,3.26 37.41039,7.90953 55.65039,15.26953 22.17,8.94 43.73906,19.84039 66.53906,26.90039 5.92,1.83 11.94001,3.37946 18,4.68946 v -82.33008 c -2.35,-1.13 -4.57898,-2.4893 -6.70898,-4.0293 -0.47,-0.33 -0.93086,-0.66172 -1.38086,-1.01172 -2.54,-1.94 -4.82906,-4.18867 -6.78906,-6.63867 -0.39,-0.49 -0.77086,-0.99 -1.13086,-1.5 -2.79,-3.85 -5.86938,-9.06039 -2.60938,-13.40039 1.27,-1.91 3.99047,-2.07945 5.23047,-3.93945 0.47,-0.57 0.80852,-1.20993 0.97852,-1.91993 0.17003,-0.70998 0.17117,-1.48078 -0.0488,-2.30078 -0.15,-0.52 -0.33102,-1.01048 -0.54102,-1.48046 -0.21,-0.47001 -0.46023,-0.91961 -0.74023,-1.34961 -0.17,-0.81 -0.88945,-1.33969 -1.43945,-1.67969 -1.05,-0.84999 -2.05047,-1.73968 -2.98047,-2.67968 -0.31,-0.32 -0.59867,-0.63094 -0.88868,-0.96094 -0.35998,-0.36 -0.70148,-0.72961 -1.02148,-1.09961 -1.51,-1.83 -2.77875,-3.88054 -3.71875,-6.06054 -0.24,-0.54 -0.45062,-1.10016 -0.64062,-1.66016 -0.72,-2.44 -1.00891,-4.989301 -0.87891,-7.529301 0.03,-0.63 0.0899,-1.270391 0.16992,-1.900391 0.72,-5.01 2.88899,-10.399297 7.45899,-13.279297 0.49,-0.29 0.97945,-0.58039 1.43945,-0.90039 0.46,-0.32 0.88023,-0.670079 1.24023,-1.080078 0.18,-0.35 0.35969,-0.868752 0.17969,-1.21875 -0.36,-1.040002 -0.97008,-2.031719 -1.58008,-3.011719 -0.3,-0.49 -0.60867,-0.978516 -0.88867,-1.478516 -1.74,-4.1 -1.62953,-8.169844 -0.26953,-11.839844 0.23,-0.61 0.48906,-1.220545 0.78906,-1.810547 0.77,-1.689999 1.77072,-3.41125 2.9707,-5.03125 0.40002,-0.539998 0.81977,-1.068125 1.25977,-1.578124 0.71,-1.030001 1.51992,-1.991329 2.41992,-2.861329 0.45,-0.44 0.92016,-0.850234 1.41016,-1.240234 0.46,-0.43 0.94922,-0.829219 1.44922,-1.199219 2.015,-1.64 4.60781,-2.50539 7.19531,-2.52539 2.5875,-0.02 5.16906,0.804921 7.16406,2.544922 1.81,1.909999 0.72149,4.339531 1.27149,6.769531 0.18,0.52 0.35929,0.87 0.77929,1.25 0.27,0.35 0.57016,0.670468 0.91016,0.980469 0.34,0.309999 0.69984,0.600625 1.08984,0.890624 0.47,0.340002 0.97977,0.660235 1.50977,0.990235 0.39,0.27 0.80047,0.529297 1.23047,0.779297 2.6,1.14 5.09953,2.81039 7.01953,4.90039 0.38,0.42 0.74008,0.848829 1.08008,1.298828 0.63,0.930002 1.18039,1.941485 1.65039,3.021485 0.47,1.07 0.85086,2.208906 1.13086,3.378906 0.99,4.91 0.80906,11.161406 -3.46094,14.691406 -0.35,0.29 -0.71914,0.558827 -1.11914,0.798829 -0.4,0.25 -0.82172,0.479687 -1.26172,0.679687 -0.96,0.72 -2.0382,0.541172 -2.9082,0.951172 -0.71,0.24 -1.4311,0.469453 -2.1211,0.689453 -4.17,1.36 -7.63984,2.889531 -7.33984,6.019531 0.07,1.17 1.35945,1.760391 3.18945,2.150391 0.61,0.13 1.28024,0.239609 1.99024,0.349609 2.97,0.620004 5.87054,0.621164 8.56054,1.951164 0.51,0.23 0.97993,0.45969 1.41993,0.67969 1.5,0.94 2.57992,1.98055 3.16992,3.56055 0.15,0.36 0.26961,0.72937 0.34961,1.10937 0.08,0.38 0.11937,0.78922 0.10937,1.19922 -0.03,0.47 -0.0598,0.94039 -0.0898,1.40039 -0.04,0.5 -0.0791,1.01 -0.11914,1.5 -0.04,0.5 -0.0902,1 -0.16015,1.5 -1.3,4.06 -3.70079,7.53969 -6.30079,10.92969 -0.32,0.42 -0.64851,0.84953 -0.97851,1.26953 -0.37,0.48 -0.72078,0.96117 -1.05078,1.45117 -0.8,1.07 -1.81891,2.04977 -2.87891,3.00977 -0.36,0.32 -0.72008,0.62922 -1.08008,0.94922 -2.49,2.4 -7.56015,5.69023 -4.66015,8.99023 0.85,1.03 1.88976,1.89117 3.00976,2.70117 0.37,0.27 0.74867,0.52907 1.13867,0.78907 2.08,1.35 4.31055,3.13046 5.81055,5.23046 0.3,0.42 0.57055,0.84883 0.81055,1.29883 1.91,3 1.90914,7.34125 -0.63086,9.78125 -0.51,0.43 -1.04938,0.73946 -1.60938,0.93946 -0.56,0.21 -1.13093,0.30984 -1.71093,0.33984 -0.59,-0.02 -1.17954,-0.0691 -1.76954,-0.11914 -0.59,-0.06 -1.17976,-0.13047 -1.75976,-0.23047 -2.3,-0.2 -4.51063,-0.66984 -6.64063,-1.33984 v 81.44922 c 59.30886,11.52248 113.61297,1.78967 177.64063,0 V 158.4102 c -2.13,0.67 -4.34063,1.13984 -6.64063,1.33984 -0.58,0.1 -1.16976,0.17047 -1.75976,0.23047 -0.59,0.05 -1.17953,0.0991 -1.76953,0.11914 -0.58,-0.03 -1.14899,-0.12984 -1.70899,-0.33984 -0.56,-0.2 -1.10133,-0.50946 -1.61133,-0.93946 -2.54,-2.44 -2.5389,-6.78125 -0.6289,-9.78125 0.24,-0.45 0.50859,-0.87883 0.80859,-1.29883 1.5,-2.1 3.73055,-3.88046 5.81055,-5.23046 0.39,-0.26 0.77062,-0.51907 1.14062,-0.78907 1.12,-0.81 2.15977,-1.67117 3.00977,-2.70117 2.9,-3.3 -2.17016,-6.59023 -4.66016,-8.99023 -0.36,-0.32 -0.72007,-0.62922 -1.08007,-0.94922 -1.06,-0.96 -2.08086,-1.93977 -2.88086,-3.00977 -0.33,-0.49 -0.67883,-0.97117 -1.04883,-1.45117 -0.33,-0.42 -0.66047,-0.84953 -0.98047,-1.26953 -2.6,-3.39 -4.99883,-6.86969 -6.29883,-10.92969 -0.07,-0.5 -0.12016,-1 -0.16016,-1.5 -0.04,-0.49 -0.0811,-1 -0.12109,-1.5 -0.03,-0.46 -0.0598,-0.93039 -0.0898,-1.40039 -0.01,-0.41 0.0294,-0.81922 0.10938,-1.19922 0.08,-0.38 0.20156,-0.74937 0.35156,-1.10937 0.59,-1.58 1.66992,-2.62055 3.16992,-3.56055 0.44,-0.22 0.90992,-0.44969 1.41992,-0.67969 2.69,-1.33 5.5886,-1.33117 8.5586,-1.951164 0.71,-0.11 1.38023,-0.219609 1.99023,-0.349609 1.83,-0.39 3.12141,-0.980391 3.19141,-2.150391 0.3,-3.13 -3.1718,-4.659531 -7.3418,-6.019531 -0.69,-0.22 -1.40914,-0.449453 -2.11914,-0.689453 -0.87,-0.41 -1.95016,-0.231172 -2.91016,-0.951172 -0.44,-0.2 -0.85976,-0.429687 -1.25976,-0.679687 -0.4,-0.240001 -0.76914,-0.508829 -1.11914,-0.798829 -4.27,-3.53 -4.45094,-9.781406 -3.46094,-14.691406 0.28,-1.17 0.66086,-2.308906 1.13086,-3.378906 0.47,-1.08 1.01844,-2.091483 1.64844,-3.021485 0.34,-0.449999 0.70007,-0.878828 1.08007,-1.298828 1.92,-2.09 4.42149,-3.76039 7.02149,-4.90039 0.43,-0.25 0.83851,-0.509297 1.22851,-0.779297 0.53,-0.33 1.03977,-0.650233 1.50977,-0.990235 0.39,-0.289999 0.7518,-0.580624 1.0918,-0.890624 0.34,-0.310001 0.6382,-0.630469 0.9082,-0.980469 0.42,-0.38 0.60125,-0.73 0.78125,-1.25 0.55,-2.43 -0.54047,-4.859533 1.26953,-6.769531 3.99,-3.479999 10.32938,-3.299532 14.35938,-0.01953 0.5,0.37 0.99117,0.769219 1.45117,1.199219 0.49,0.39 0.96016,0.800234 1.41016,1.240234 0.9,0.87 1.70992,1.831328 2.41992,2.861329 0.44,0.509999 0.85976,1.038125 1.25976,1.578124 1.2,1.62 2.20071,3.341251 2.97071,5.03125 0.3,0.590002 0.55906,1.200547 0.78906,1.810547 1.36,3.67 1.47047,7.739844 -0.26953,11.839844 -0.28,0.5 -0.59063,0.988516 -0.89063,1.478516 -0.61,0.98 -1.22007,1.971717 -1.58007,3.011719 -0.18,0.349998 -3.2e-4,0.86875 0.17968,1.21875 0.36,0.409999 0.78024,0.760078 1.24024,1.080078 0.46,0.32 0.94945,0.61039 1.43945,0.90039 4.57,2.88 6.74094,8.269297 7.46094,13.279297 0.08,0.63 0.13992,1.270391 0.16992,1.900391 0.13,2.54 -0.16086,5.089299 -0.88086,7.529299 -0.19,0.56 -0.39867,1.12016 -0.63867,1.66016 -0.94,2.18 -2.2107,4.23054 -3.7207,6.06054 -0.32,0.37 -0.65954,0.73961 -1.01954,1.09961 -0.29,0.33 -0.58062,0.64094 -0.89062,0.96094 -0.93,0.94 -1.93047,1.82969 -2.98047,2.67969 -0.55,0.34 -1.26945,0.86969 -1.43945,1.67969 -0.28,0.43 -0.53024,0.87961 -0.74024,1.34961 -0.21,0.46998 -0.38906,0.96046 -0.53906,1.48046 -0.22002,0.82 -0.22078,1.59079 -0.0508,2.30078 0.17,0.71 0.51047,1.34993 0.98047,1.91993 1.24,1.86 3.96047,2.02945 5.23047,3.93945 3.26,4.34 0.17867,9.55039 -2.61133,13.40039 -0.36,0.51 -0.73891,1.01 -1.12891,1.5 -1.96,2.45 -4.25101,4.69867 -6.79101,6.63867 -0.45,0.35 -0.90891,0.68172 -1.37891,1.01172 -2.13,1.54 -4.36094,2.8993 -6.71094,4.0293 v 82.33008 c 6.06,-1.31 12.08,-2.85946 18,-4.68946 22.8,-7.06 44.37102,-17.96039 66.54102,-26.90039 18.24,-7.36 36.61039,-12.00953 55.65039,-15.26953 19.05,-2.27 38.26914,-3.33023 57.36914,-1.74023 49.42,10 94.39911,36.0087 142.36913,51.46875 12.67,4.09 25.521,7.59039 38.541,10.15039 8.28,1.63 16.6806,3.15984 25.1406,4.33984 v -67.80859 c -1.76,0.56 -3.5802,0.94937 -5.4902,1.10937 -0.49,0.08 -0.9709,0.13946 -1.4609,0.18946 -0.49,0.05 -0.9788,0.0796 -1.4688,0.0996 -0.48,-0.03 -0.9599,-0.1093 -1.4199,-0.2793 -0.46,-0.17 -0.9101,-0.41929 -1.3301,-0.7793 -2.1,-2.01 -2.1015,-5.59984 -0.5215,-8.08984 0.19,-0.37 0.42,-0.73008 0.67,-1.08008 1.24,-1.74 3.0905,-3.21008 4.8105,-4.33008 0.32,-0.21 0.6392,-0.43039 0.9492,-0.65039 0.92,-0.66 1.7903,-1.38047 2.4903,-2.23047 2.4,-2.73 -1.7994,-5.46922 -3.8594,-7.44922 -0.31,-0.26 -0.6104,-0.53101 -0.9004,-0.79101 -0.89,-0.79 -1.7287,-1.61024 -2.3887,-2.49024 -0.28,-0.39999 -0.5708,-0.80923 -0.8808,-1.19922 l -0.8106,-1.05078 c -2.15,-2.81 -4.1487,-5.6788 -5.2187,-9.04883 -0.06,-0.41999 -0.1007,-0.83023 -0.1407,-1.24023 -0.03,-0.42 -0.07,-0.83 -0.1,-1.25 -0.03,-0.38 -0.06,-0.77017 -0.08,-1.16016 -0.01,-0.35001 0.03,-0.68001 0.09,-1 0.07,-0.32001 0.1691,-0.62992 0.2891,-0.91992 0.49,-1.30999 1.3909,-2.17117 2.6309,-2.95117 0.37,-0.19001 0.7597,-0.37836 1.1797,-0.56836 2.23,-1.1 4.6298,-1.10109 7.0898,-1.62109 0.59,-0.09 1.1404,-0.17906 1.6504,-0.28907 1.51,-0.32 2.5806,-0.81127 2.6406,-1.78124 0.26,-2.58001 -2.6203,-3.84852 -6.0703,-4.97852 -0.58,-0.18 -1.1698,-0.37031 -1.7598,-0.57031 -0.72,-0.34 -1.6201,-0.20102 -2.4101,-0.79102 -0.36,-0.17 -0.711,-0.34859 -1.041,-0.55859 -0.33,-0.21 -0.6397,-0.43188 -0.9297,-0.67188 -3.53,-2.92 -3.6794,-8.0882 -2.8594,-12.1582 0.23,-0.96 0.5397,-1.90102 0.9297,-2.79102 0.39,-0.89 0.8491,-1.73 1.3691,-2.5 0.27,-0.37 0.5707,-0.73007 0.8907,-1.08007 1.59,-1.73 3.6505,-3.09883 5.8105,-4.04883 0.35,-0.21 0.6898,-0.43039 1.0098,-0.65039 0.44,-0.27 0.86,-0.54032 1.25,-0.82032 0.32,-0.22999 0.6204,-0.47046 0.9004,-0.73046 0.28,-0.26 0.53,-0.53032 0.75,-0.82032 0.35,-0.32 0.5004,-0.60906 0.6504,-1.03906 0.45,-2.02 -0.4512,-4.031331 1.0488,-5.611331 3.3,-2.870035 8.5506,-2.729765 11.8906,-0.0098 0.42,0.3 0.8192,0.640234 1.1992,0.990234 0.41,0.33 0.7999,0.67125 1.1699,1.03125 0.75,0.719997 1.4298,1.519137 2.0098,2.369137 0.36,0.43 0.711,0.86055 1.041,1.31055 1,1.34 1.819,2.76992 2.459,4.16992 0.25,0.49 0.4604,0.99 0.6504,1.5 1.13,3.04 1.2213,6.39883 -0.2187,9.79883 -0.23,0.41 -0.4903,0.82047 -0.7403,1.23047 -0.5,0.81 -1.0008,1.63023 -1.3008,2.49023 -0.15,0.29 4e-4,0.71977 0.1504,1.00977 0.3,0.33 0.6493,0.62062 1.0293,0.89062 0.38,0.27 0.7795,0.51 1.1895,0.75 3.78,2.39 5.5819,6.85 6.1719,11 0.07,0.52 0.1086,1.04031 0.1386,1.57031 0.1,2.10002 -0.1304,4.22024 -0.7304,6.24024 -0.16,0.46 -0.3293,0.91914 -0.5293,1.36914 -0.78,1.8 -1.8301,3.49953 -3.0801,5.01953 -0.27,0.31 -0.5496,0.61016 -0.8496,0.91016 -0.24,0.26 -0.4903,0.53101 -0.7403,0.79101 -0.76,0.78 -1.5889,1.51875 -2.4589,2.21875 -0.45,0.28 -1.0515,0.72063 -1.1915,1.39063 -0.23,0.36 -0.4293,0.72914 -0.6093,1.11914 -0.18,0.39 -0.3292,0.80047 -0.4492,1.23047 -0.18,0.69 -0.1811,1.32015 -0.041,1.91015 0.14,0.58 0.4205,1.11985 0.8105,1.58985 1.03,1.54 3.2801,1.67976 4.3301,3.25976 2.7,3.6 0.1498,7.90961 -2.1602,11.09961 -0.3,0.42 -0.6194,0.83024 -0.9394,1.24024 -1.63,2.03 -3.5209,3.89 -5.6309,5.5 -0.37,0.28 -0.7506,0.56006 -1.1406,0.83008 -1.75,1.27999 -3.6088,2.40984 -5.5488,3.33984 v 69.85156 c 10.05,1.27 20.1687,2.00883 30.2187,1.79883 11.8464,-0.24971 24.0429,-1.43764 35.8203,-4.12109 V 0 H 566.92969 Z m 0,425.15039 v 0.0488 h 566.92969 566.92971 v -0.0488 H 566.86914 Z"
   style="fill:#93b7be;fill-opacity:1" />

<path
   style="fill:#93b7be;fill-opacity:1"
   id="polygon8"
   d="m 1133.9102,282.5 -355.51957,56.84961 69.45898,5.95117 15.63086,2 270.42973,-30.81055 z m -0.5606,45.5 -384.73046,46.00977 -10.34961,6.25976 395.64067,-32.94922 z m 0.5,32 -180.55077,26.07031 12.18164,2.28907 168.42973,-8.29883 z" />


<path
   class="st2"
   d="m 945.51969,59.89 h -76.39 c -4.72,0 -8.55,4.19 -8.55,9.36 v 45.52 c 0,5.17 3.83,9.36 8.55,9.36 h 63.4 c 4.32,4.65 14.4,15.32 16.87,16.35 3.17,1.32 4.67,1.26 4.67,-25.72 V 69.25 c 0,-5.17 -3.83,-9.36 -8.55,-9.36 z"
   id="path14"
   style="fill:#6d466b;fill-opacity:1" /><path
   class="st3"
   d="m 938.86969,80 c 0,4.02 -3.26,7.28 -7.28,7.28 h -50.18 c -4.02,0 -7.28,-3.26 -7.28,-7.28 v 0 c 0,-4.02 3.26,-7.28 7.28,-7.28 h 50.18 c 4.02,-0.01 7.28,3.26 7.28,7.28 z"
   id="path16"
   style="fill:#ffffff" /><path
   class="st3"
   d="m 938.86969,103.97 c 0,4.02 -3.26,7.28 -7.28,7.28 h -50.18 c -4.02,0 -7.28,-3.26 -7.28,-7.28 v 0 c 0,-4.02 3.26,-7.28 7.28,-7.28 h 50.18 c 4.02,0 7.28,3.26 7.28,7.28 z"
   id="path18"
   style="fill:#ffffff" />
<path
   class="st4"
   d="m 969.88969,151.42 h 83.39001 c 5.15,0 9.33,4.58 9.33,10.22 v 49.7 c 0,5.65 -4.18,10.22 -9.33,10.22 h -69.21001 c -4.71,5.08 -15.72,16.73 -18.41,17.85 -3.46,1.44 -5.1,1.37 -5.1,-28.07 v -49.7 c -0.01,-5.64 4.17,-10.22 9.33,-10.22 z"
   id="path22"
   style="fill:#ffba49;fill-opacity:1" /><path
   class="st3"
   d="m 996.79969,186.66 c 0,5.33 -4.32,9.65 -9.65,9.65 v 0 c -5.33,0 -9.65,-4.32 -9.65,-9.65 v 0 c 0,-5.33 4.32,-9.65 9.65,-9.65 v 0 c 5.33,0 9.65,4.32 9.65,9.65 z"
   id="path24"
   style="fill:#ffffff" /><path
   class="st3"
   d="m 1022.2197,186.66 c 0,5.33 -4.32,9.65 -9.65,9.65 v 0 c -5.33,0 -9.65,-4.32 -9.65,-9.65 v 0 c 0,-5.33 4.32,-9.65 9.65,-9.65 v 0 c 5.33,0 9.65,4.32 9.65,9.65 z"
   id="path26"
   style="fill:#ffffff" /><path
   class="st3"
   d="m 1047.6397,186.66 c 0,5.33 -4.32,9.65 -9.65,9.65 v 0 c -5.33,0 -9.65,-4.32 -9.65,-9.65 v 0 c 0,-5.33 4.32,-9.65 9.65,-9.65 v 0 c 5.33,0 9.65,4.32 9.65,9.65 z"
   id="path28"
   style="fill:#ffffff" />
<path
   class="st5"
   d="m 839.99969,337.76 c -4.01,-5.34 -2.82,-61.14 -2.82,-61.14 -0.07,-0.18 -0.14,-0.35 -0.2,-0.53 l -1.68,-0.08 v -2.53 l -27.39,1.26 -27.39,-1.26 v 2.53 l -1.68,0.08 c -0.06,0.18 -0.13,0.36 -0.2,0.53 0,0 1.18,55.8 -2.82,61.14 -4.01,5.34 -23.49,9.54 -23.49,9.54 h 28.19 54.79 28.19 c -0.02,0 -19.5,-4.2 -23.5,-9.54 z"
   id="path32"
   style="fill:#009688;fill-opacity:1" /><path
   class="st6"
   d="m 778.38969,317.9 h 59.03 c -0.73,-17.94 -0.24,-41.28 -0.24,-41.28 -0.07,-0.18 -0.14,-0.35 -0.2,-0.53 l -1.68,-0.08 v -2.53 l -27.39,1.26 -27.39,-1.26 v 2.53 l -1.68,0.08 c -0.06,0.18 -0.13,0.36 -0.2,0.53 -0.01,0 0.48,23.34 -0.25,41.28 z"
   id="path34"
   style="fill:#007167;fill-opacity:1" /><path
   style="fill:#009688;fill-opacity:1"
   id="path36"
   d="m 944.33969,286.48 c 0,10.67 -9.75,19.32 -21.79,19.32 h -229.3 c -12.03,0 -21.79,-8.65 -21.79,-19.32 V 163.96 c 0,-10.67 9.76,-19.32 21.79,-19.32 h 229.29 c 12.03,0 21.79,8.65 21.79,19.32 v 122.52 z"
   class="st5" /><rect
   style="fill:#ffffff"
   id="rect38"
   height="118.26"
   width="246.14"
   class="st3"
   y="155.83"
   x="684.82971" /><path
   class="st2"
   d="m 671.45969,272.93 v 13.56 c 0,10.67 9.76,19.32 21.79,19.32 h 229.29 c 12.03,0 21.79,-8.65 21.79,-19.32 v -13.56 z"
   id="path40"
   style="fill:#007167;fill-opacity:1" /><path
   class="st7"
   d="m 717.55969,148.03 c 8.46,4.54 16.86,9.19 25.2,13.97 38.6,22.13 75.89,46.54 112.65,71.58 17.41,11.86 34.4,24.36 52.03,35.89 11.79,7.71 23.87,14.86 36.38,21.21 0.34,-1.35 0.52,-2.76 0.52,-4.2 V 163.96 c 0,-10.67 -9.75,-19.32 -21.79,-19.32 h -211.45 c 2.16,1.12 4.32,2.24 6.46,3.39 z"
   id="path46"
   style="opacity:0.2;fill:#6d466b;fill-opacity:1" />
<rect
   x="700.17969"
   y="116.2"
   class="st8"
   width="116.63"
   height="118.44"
   id="rect50"
   style="opacity:0.8;fill:#ffba49;fill-opacity:1" /><rect
   x="705.79968"
   y="123.15"
   class="st3"
   width="42.709999"
   height="2.23"
   id="rect52"
   style="fill:#ffffff" /><rect
   x="718.0697"
   y="142.03999"
   class="st3"
   width="42.709999"
   height="2.23"
   id="rect54"
   style="fill:#ffffff" /><rect
   x="718.0697"
   y="150.81"
   class="st3"
   width="68.339996"
   height="2.23"
   id="rect56"
   style="fill:#ffffff" /><rect
   x="705.2597"
   y="161.23"
   class="st3"
   width="43.73"
   height="2.23"
   id="rect58"
   style="fill:#ffffff" /><rect
   x="705.2597"
   y="165.83"
   class="st3"
   width="71.800003"
   height="2.23"
   id="rect60"
   style="fill:#ffffff" /><rect
   x="704.98969"
   y="179.77"
   class="st3"
   width="31.75"
   height="2.23"
   id="rect62"
   style="fill:#ffffff" /><rect
   x="704.98969"
   y="183.96001"
   class="st3"
   width="23.23"
   height="2.23"
   id="rect64"
   style="fill:#ffffff" /><rect
   x="704.98969"
   y="188.14"
   class="st3"
   width="31.75"
   height="2.23"
   id="rect66"
   style="fill:#ffffff" /><rect
   x="705.2597"
   y="170.28"
   class="st3"
   width="71.800003"
   height="2.23"
   id="rect68"
   style="fill:#ffffff" /><rect
   x="705.2597"
   y="207.35001"
   class="st3"
   width="43.73"
   height="2.23"
   id="rect70"
   style="fill:#ffffff" /><rect
   x="705.2597"
   y="211.95"
   class="st3"
   width="71.800003"
   height="2.23"
   id="rect72"
   style="fill:#ffffff" /><rect
   x="705.2597"
   y="216.39999"
   class="st3"
   width="71.800003"
   height="2.23"
   id="rect74"
   style="fill:#ffffff" /><rect
   x="749.80969"
   y="123.15"
   class="st3"
   width="41.220001"
   height="2.23"
   id="rect76"
   style="fill:#ffffff" /><rect
   x="705.79968"
   y="132.49001"
   class="st3"
   width="23.940001"
   height="2.23"
   id="rect78"
   style="fill:#ffffff" /><rect
   x="731.13971"
   y="132.49001"
   class="st3"
   width="23.940001"
   height="2.23"
   id="rect80"
   style="fill:#ffffff" /><rect
   x="756.33972"
   y="132.49001"
   class="st3"
   width="5.1199999"
   height="2.23"
   id="rect82"
   style="fill:#ffffff" /><rect
   x="762.79968"
   y="132.49001"
   class="st3"
   width="5.1199999"
   height="2.23"
   id="rect84"
   style="fill:#ffffff" /><rect
   style="fill:#ffffff"
   id="rect86"
   height="2.23"
   width="5.1199999"
   class="st3"
   y="127.93"
   x="716.20972" /><rect
   style="opacity:0.5;fill:#ffffff"
   id="rect88"
   height="2.23"
   width="5.1199999"
   class="st9"
   y="127.93"
   x="722.67969" /><rect
   style="fill:#ffffff"
   id="rect90"
   height="2.23"
   width="5.1199999"
   class="st3"
   y="127.93"
   x="729.13971" /><rect
   style="opacity:0.5;fill:#ffffff"
   id="rect92"
   height="2.23"
   width="5.1199999"
   class="st9"
   y="127.93"
   x="735.60968" /><rect
   style="fill:#ffffff"
   id="rect94"
   height="2.23"
   width="5.1199999"
   class="st3"
   y="127.93"
   x="742.0697" /><rect
   style="fill:#ffffff"
   id="rect96"
   height="2.23"
   width="32.349998"
   class="st3"
   y="127.93"
   x="748.53967" /><rect
   style="fill:#ffffff"
   id="rect100"
   height="2.23"
   width="3.6199999"
   class="st3"
   y="146.28"
   x="718.0697" /><rect
   style="opacity:0.5;fill:#ffffff"
   id="rect102"
   height="2.23"
   width="3.6199999"
   class="st9"
   y="146.28"
   x="722.6297" /><rect
   style="fill:#ffffff"
   id="rect104"
   height="2.23"
   width="3.6199999"
   class="st3"
   y="146.28"
   x="727.19971" /><rect
   style="opacity:0.5;fill:#ffffff"
   id="rect106"
   height="2.23"
   width="3.6199999"
   class="st9"
   y="146.28"
   x="731.7597" /><rect
   style="fill:#ffffff"
   id="rect108"
   height="2.23"
   width="3.6199999"
   class="st3"
   y="146.28"
   x="736.3197" /><rect
   style="fill:#ffffff"
   id="rect110"
   height="2.23"
   width="22.83"
   class="st3"
   y="146.28"
   x="740.8797" /><rect
   x="705.2597"
   y="202.75"
   class="st3"
   width="42.709999"
   height="2.23"
   id="rect114"
   style="fill:#ffffff" /><rect
   x="705.2597"
   y="193.97"
   class="st3"
   width="68.339996"
   height="2.23"
   id="rect116"
   style="fill:#ffffff" /><rect
   style="fill:#ffffff"
   id="rect118"
   height="2.23"
   width="3.6199999"
   class="st3"
   y="198.5"
   x="705.2597" /><rect
   style="opacity:0.5;fill:#ffffff"
   id="rect120"
   height="2.23"
   width="3.6199999"
   class="st9"
   y="198.5"
   x="709.8197" /><rect
   style="fill:#ffffff"
   id="rect122"
   height="2.23"
   width="3.6199999"
   class="st3"
   y="198.5"
   x="714.3797" /><rect
   style="opacity:0.5;fill:#ffffff"
   id="rect124"
   height="2.23"
   width="3.6199999"
   class="st9"
   y="198.5"
   x="718.9397" /><rect
   style="fill:#ffffff"
   id="rect126"
   height="2.23"
   width="3.6199999"
   class="st3"
   y="198.5"
   x="723.5097" /><rect
   style="fill:#ffffff"
   id="rect128"
   height="2.23"
   width="22.83"
   class="st3"
   y="198.5"
   x="728.0697" /><rect
   x="762.77972"
   y="179.37"
   class="st3"
   width="27.08"
   height="2.23"
   id="rect132"
   style="fill:#ffffff" /><rect
   x="746.52972"
   y="188.14"
   class="st3"
   width="43.330002"
   height="2.23"
   id="rect134"
   style="fill:#ffffff" /><rect
   style="fill:#ffffff"
   id="rect136"
   height="2.23"
   width="2.29"
   class="st3"
   y="183.62"
   x="787.5697" /><rect
   style="opacity:0.5;fill:#ffffff"
   id="rect138"
   height="2.23"
   width="2.29"
   class="st9"
   y="183.62"
   x="784.67969" /><rect
   style="fill:#ffffff"
   id="rect140"
   height="2.23"
   width="2.29"
   class="st3"
   y="183.62"
   x="781.77972" /><rect
   style="opacity:0.5;fill:#ffffff"
   id="rect142"
   height="2.23"
   width="2.29"
   class="st9"
   y="183.62"
   x="778.88971" /><rect
   style="fill:#ffffff"
   id="rect144"
   height="2.23"
   width="2.29"
   class="st3"
   y="183.62"
   x="775.99969" /><rect
   style="fill:#ffffff"
   id="rect146"
   height="2.23"
   width="14.48"
   class="st3"
   y="183.62"
   x="760.91968" /><rect
   x="700.17969"
   y="103.05"
   class="st10"
   width="116.63"
   height="13.15"
   id="rect150"
   style="fill:#ffba49;fill-opacity:1" /><path
   class="st3"
   d="m 710.90969,109.61 c 0,1.65 -1.34,2.99 -2.98,2.99 -1.65,0 -2.99,-1.34 -2.99,-2.99 0,-1.65 1.34,-2.99 2.99,-2.99 1.65,0.01 2.98,1.34 2.98,2.99 z"
   id="path152"
   style="fill:#ffffff" /><path
   class="st3"
   d="m 720.00969,109.61 c 0,1.65 -1.34,2.99 -2.99,2.99 -1.65,0 -2.99,-1.34 -2.99,-2.99 0,-1.65 1.34,-2.99 2.99,-2.99 1.65,0 2.99,1.34 2.99,2.99 z"
   id="path154"
   style="fill:#ffffff" /><path
   class="st3"
   d="m 728.92969,109.61 c 0,1.65 -1.34,2.99 -2.99,2.99 -1.65,0 -2.99,-1.34 -2.99,-2.99 0,-1.65 1.34,-2.99 2.99,-2.99 1.65,0 2.99,1.34 2.99,2.99 z"
   id="path156"
   style="fill:#ffffff" />
<path
   class="st11"
   d="m 954.86969,310.7 c 0,0 -1.84,-0.1 -3.35,1.58 -1.5,1.68 0.58,0.66 4.96,-0.82 z"
   id="path160"
   style="fill:#f79e8c" /><path
   class="st11"
   d="m 954.85969,311.06 c 0,0 -1,0.51 -2.5,1.71 -1.49,1.19 -1.55,1.33 -2.43,2.23 -0.61,0.62 0.19,0.56 0.24,0.58 0.03,0.01 -0.11,0.04 0.03,0.25 0.08,0.13 0.41,0.34 0.6,0.38 0.12,0.03 0.55,0.11 0.74,0.15 0.89,0.19 2.56,0.56 5.36,-1.86 0,0 0.06,-3.29 -2.04,-3.44 z"
   id="path162"
   style="fill:#f79e8c" />
<path
   style="fill:#e5846f"
   id="path166"
   d="m 927.87969,305.35 c 0,0 -1.94,-0.32 -3.63,1.06 -1.7,1.38 0.57,0.68 5.29,-0.16 z"
   class="st12" /><path
   style="fill:#90594d;fill-opacity:1"
   id="path168"
   d="m 927.84969,305.68 c 0,0 -1.1,0.35 -2.75,1.27 -1.65,0.92 -1.72,1.05 -2.71,1.77 -0.69,0.5 0.17,0.54 0.21,0.57 0.03,0.02 -0.12,0.02 0.01,0.23 0.08,0.13 0.41,0.36 0.61,0.42 0.13,0.04 0.58,0.17 0.77,0.23 0.93,0.28 2.67,0.83 5.78,-1.06 0.01,0 0.29,-3.03 -1.92,-3.43 z"
   class="st12" /><path
   class="st13"
   d="m 949.44969,277.55 c 0,0 4.83,-3.81 7.1,-1.43 5.13,5.37 -2.12,25.61 -26.49,33.56 0,0 -3.76,-2.89 -1.87,-4.74 3.18,-3.11 7.22,-4.76 11.88,-11.99 2.14,-3.32 3.87,-10.51 9.38,-15.4 z"
   id="path172"
   style="fill:#bcbec0" /><path
   style="fill:#2e3192"
   id="path176"
   d="m 967.47969,254.23 c 0,0 0.01,0.02 0.03,0.07 0.33,0.79 3.39,8.41 -1.26,10.61 l 1.24,-10.65"
   class="st5" /><path
   style="fill:#2d3047;fill-opacity:1"
   id="path178"
   d="m 958.26969,383.34 c 0,0 0.58,0.29 0.59,0.48 0.01,0.19 0.3,2.77 0.15,3.22 -0.15,0.45 -8.03,1.32 -8.03,1.32 0,0 -3.98,-0.19 -4.4,-0.71 -0.42,-0.51 -0.24,-0.9 0,-0.96 0.24,-0.06 9.42,-3.57 9.42,-3.57 z"
   class="st6" /><path
   style="fill:#2d3047;fill-opacity:1"
   id="path180"
   d="m 967.36969,385.2 c 0,0 0.58,0.29 0.59,0.48 0.01,0.19 0.3,2.76 0.16,3.21 -0.15,0.45 -8.03,1.32 -8.03,1.32 0,0 -3.98,-0.19 -4.4,-0.71 -0.42,-0.51 -0.24,-0.9 0,-0.96 0.24,-0.06 9.42,-3.57 9.42,-3.57 z"
   class="st6" /><path
   style="fill:#90594d;fill-opacity:1"
   id="path182"
   d="m 967.22969,381.55 c 0,0 0.09,3.96 0.07,4.03 -0.19,0.6 -1.89,0.64 -2.39,0.18 l -0.99,-3.81 z"
   class="st11" /><path
   style="fill:#90594d;fill-opacity:1"
   id="path184"
   d="m 958.44969,380.06 c 0,0 0.06,3.93 0.04,4.04 -0.18,0.6 -1.81,0.72 -2.31,0.25 l -0.74,-3.96 z"
   class="st11" /><path
   style="fill:#2d3047;fill-opacity:1"
   id="path186"
   d="m 947.90969,309.28 c 0,0 1.26,28.54 2.64,41.92 0,0 7.19,-1.17 7.92,-4.24 0.73,-3.08 -0.64,-36.09 -0.64,-36.09 z"
   class="st6" /><path
   style="fill:#6d466b;fill-opacity:1"
   id="path188"
   d="m 959.09969,310.47 c -0.1,1.45 -10.59,-0.66 -10.69,0.82 -0.36,5.55 8.51,21.06 8.5,21.26 3.44,23.92 5.76,45.62 7.04,50.66 0.53,2.09 4.12,0.08 4.12,0.08 0.76,-27.19 1.28,-70.57 1.28,-70.57 -2.71,-1.79 -6.59,-2.29 -10.25,-2.25 z"
   class="st5" /><path
   style="fill:#ffffff"
   id="path190"
   d="m 958.43969,274.84 c 0,0 8.24,-0.49 12.83,3.53 0,0 0.17,28.2 -1.94,34.24 0,0 -13.58,6.62 -21.54,-1.03 0,0 -3.19,-24.65 1.33,-33.13 0,0 0.83,-3.42 9.32,-3.61 z"
   class="st3" /><path
   style="fill:#90594d;fill-opacity:1"
   id="path192"
   d="m 965.47969,266.75 c 0,0 -1.54,5.99 -1.76,9.43 0,0 -2.72,2.43 -5.06,0.18 0,0 -0.91,-9 -2.82,-10.38 -1.91,-1.38 9.64,0.77 9.64,0.77 z"
   class="st12" /><path
   style="fill:#90594d;fill-opacity:1"
   id="path194"
   d="m 968.08969,256.42 c 0,0 -7.89,-5.27 -13,-2.59 0,0 -0.76,5.08 -1.44,8.93 -0.69,3.85 -0.84,7.64 1.86,8.65 0,0 7.85,2.07 10.5,-2.95 2.38,-4.5 3.55,-10.27 2.08,-12.04 z"
   class="st11" /><path
   style="fill:#90594d;fill-opacity:1"
   id="path196"
   d="m 965.18969,266.54 c -0.92,1.45 -0.99,3.04 -0.17,3.56 0.82,0.52 2.23,-0.23 3.15,-1.68 0.92,-1.45 0.99,-3.04 0.17,-3.56 -0.83,-0.51 -2.24,0.24 -3.15,1.68 z"
   class="st11" /><path
   style="fill:#2d3047;fill-opacity:1"
   id="path198"
   d="m 956.28969,345.35 c 0,0 1.89,-0.32 2.18,0.71 0.29,1.03 0.39,29.02 0.39,36.26 0,0 -2.61,1.33 -3.49,0 -1.35,-2.05 -4.82,-31.12 -4.82,-31.12 z"
   class="st6" /><path
   style="fill:#4d4d4d"
   id="path200"
   d="m 970.77969,255.28 c -10.55,-7.3 -17.21,-5.15 -17.21,-5.15 -0.35,1.66 2.17,5.38 3.37,5.97 1.2,0.6 7.63,1.73 9.49,1.8 1.36,0.06 0.88,1.84 0.52,2.81 -0.03,0.07 -0.06,0.16 -0.09,0.24 -0.09,0.22 -0.16,0.36 -0.16,0.36 -0.33,0.67 -0.5,1.36 -0.58,1.99 -0.58,1.98 -1.27,4.3 -2.13,5.38 -0.76,0.96 -2.39,1.19 -4.11,0.95 -0.48,-1.35 -2.88,-7.36 -6.56,-5.36 0,0 0,0 0,0 -0.05,0.02 -0.1,0.06 -0.17,0.12 -0.83,0.71 -1.08,4.09 -1.03,5.2 0.13,2.82 8.4,3.29 10.41,3.1 2,-0.19 2.41,-1.91 2.48,-2.6 0.13,-1.39 0.72,-2.79 1.27,-3.83 0,0 0,0.01 0,0.01 0.17,-0.46 1.61,-1.8 1.61,-1.8 l 1.03,-1.64 c 2.02,-2.77 1.86,-7.55 1.86,-7.55 z"
   class="st5" /><path
   class="st9"
   d="m 913.18969,200.76 c 11.69,17.98 6.59,42.04 -11.4,53.73 -17.98,11.69 -42.04,6.59 -53.73,-11.4 -11.69,-17.98 -6.59,-42.04 11.4,-53.73 17.99,-11.69 42.04,-6.59 53.73,11.4 z"
   id="path204"
   style="opacity:0.5;fill:#ffffff" /><path
   class="st5"
   d="m 859.45969,189.36 c -17.98,11.69 -23.09,35.75 -11.4,53.73 11.69,17.98 35.75,23.09 53.73,11.4 17.99,-11.69 23.09,-35.75 11.4,-53.73 -11.69,-17.99 -35.74,-23.09 -53.73,-11.4 z m 37.94,58.37 c -14.25,9.27 -33.32,5.22 -42.59,-9.03 -9.27,-14.26 -5.22,-33.32 9.03,-42.59 14.26,-9.27 33.32,-5.22 42.59,9.03 9.28,14.26 5.23,33.33 -9.03,42.59 z"
   id="path206"
   style="fill:#6d466b;fill-opacity:1" /><path
   class="st14"
   d="m 913.18969,200.76 c -7.67,-11.8 -20.66,-18.05 -33.77,-17.66 0.19,0.17 0.39,0.33 0.58,0.51 10.15,9.07 16.35,21.95 17.12,35.54 0.76,13.59 -3.96,27.09 -13.03,37.23 -1.39,1.55 -2.86,3.01 -4.42,4.38 7.58,0.19 15.29,-1.82 22.12,-6.26 17.99,-11.7 23.09,-35.76 11.4,-53.74 z"
   id="path208"
   style="opacity:0.2;fill:#6d466b;fill-opacity:1" /><path
   class="st4"
   d="m 916.27969,268.07 c 1.21,1.86 0.59,4.41 -1.38,5.69 l -0.07,0.05 c -1.97,1.28 -4.55,0.81 -5.76,-1.05 l -10.7,-16.46 c -1.21,-1.86 -0.6,-4.41 1.38,-5.69 l 0.07,-0.05 c 1.97,-1.28 4.55,-0.81 5.76,1.05 z"
   id="path210"
   style="fill:#ffba49;fill-opacity:1" /><path
   class="st10"
   d="m 954.58969,316.15 c 1.46,2.24 1.04,5.1 -0.93,6.38 l -10.73,6.98 c -1.97,1.28 -4.75,0.5 -6.21,-1.74 l -33.01,-50.79 c -1.46,-2.24 -1.04,-5.1 0.93,-6.38 l 10.73,-6.98 c 1.97,-1.28 4.75,-0.5 6.21,1.74 z"
   id="path212"
   style="fill:#ffba49;fill-opacity:1" /><path
   class="st3"
   d="m 863.46969,213.36 c 1.71,2.63 0.96,6.15 -1.67,7.86 -2.63,1.71 -6.15,0.96 -7.86,-1.67 -1.71,-2.63 -0.96,-6.15 1.67,-7.86 2.63,-1.71 6.15,-0.96 7.86,1.67 z"
   id="path214"
   style="fill:#ffffff" /><path
   class="st3"
   d="m 860.45969,226.6 c 0.9,1.38 0.51,3.23 -0.88,4.13 -1.38,0.9 -3.23,0.51 -4.13,-0.87 -0.9,-1.38 -0.5,-3.23 0.88,-4.13 1.38,-0.9 3.23,-0.51 4.13,0.87 z"
   id="path216"
   style="fill:#ffffff" /><path
   class="st3"
   d="m 966.65969,280.96 c 0,0 4.03,-5.31 5.2,-2.09 4.81,13.26 -1.37,36.56 -15.93,39.03 0,0 -1.85,-1.05 -1.86,-3.9 -0.01,-2.87 7.23,-9.44 7.23,-9.44 -0.24,-5.96 1.82,-16.59 5.36,-23.6 z"
   id="path222"
   style="fill:#bcbec0;fill-opacity:1" />
<path
   class="st3"
   d="m 726.18969,306.3 c 0,0 -0.4,-36.27 6.02,-40.85 l -0.13,-0.29 c 0,0 -1.18,-0.64 -2.4,1.43 -1.21,2.07 -6,37.54 -3.51,40.7 z"
   id="path226"
   style="fill:#ffffff" /><path
   style="fill:#e04949;fill-opacity:1"
   id="path228"
   d="m 723.22969,251.52 c -0.94,-2.43 -0.63,-10.02 3.52,-11.76 4.15,-1.74 5.99,0.44 5.99,0.44 l -1.15,4.42 c 0,0 0.13,2.45 0.29,5.13 1.37,2.45 2.71,5.14 2.74,6.37 0.06,2.53 0.05,3.82 0.05,3.82 0,0 -1.33,-0.98 -2.75,-2.77 -0.79,2.11 -2.84,3.81 -3.19,5.15 -0.46,1.72 0.88,3.38 0.88,3.38 -1.1,0.52 -2.98,0.1 -2.98,0.1 -2.8,-0.5 -4.31,-5.08 -2.86,-6.88 1.45,-1.8 0.4,-4.98 -0.54,-7.4 z"
   class="st5" /><path
   style="fill:#e78c7a;fill-opacity:1"
   id="path230"
   d="m 736.81969,264.38 c 2.54,0.38 1.87,0.26 20.7,3.93 4.43,0.86 4.84,1.84 2.92,3.67 -1.91,1.83 -8.97,5.87 -12.48,3.07 -3.5,-2.8 -11.14,-10.67 -11.14,-10.67 z"
   class="st12" /><path
   style="fill:#2d3047;fill-opacity:1"
   id="path232"
   d="m 742.59969,370.72 c 0,0 -0.58,0.41 -0.59,0.61 0,0.2 -0.77,2.98 -0.61,3.44 0.16,0.46 8.22,1.27 8.22,1.27 0,0 4.07,-0.24 4.5,-0.77 0.42,-0.53 0.23,-0.92 -0.01,-0.99 -0.25,-0.06 -9.68,-3.55 -9.68,-3.55 h -1.83 z"
   class="st6" /><path
   style="fill:#e78c7a;fill-opacity:1"
   id="path234"
   d="m 742.50969,339.53 c 0.29,-1.05 2.24,-8.25 2.24,-8.25 l 7.1,7.25 c 0,0 -0.07,0.06 -0.27,0.58 -0.58,1.58 -2.21,7.41 -6.12,28.69 h 0.01 l -0.55,4.08 c -0.49,0.5 -2.16,0.47 -2.38,-0.14 -0.04,-0.1 -0.17,-4.12 -0.17,-4.12 -0.03,-7.41 -0.15,-27.04 0.14,-28.09 z"
   class="st12" /><path
   style="fill:#e78c7a;fill-opacity:1"
   id="path236"
   d="m 749.71969,324.78 c -0.93,-6.39 -11.43,-2.29 -11.43,-2.29 0,0 6.44,11.93 5.71,13.04 -0.72,1.11 6.79,3.82 6.79,3.82 l 1.05,-0.83 c 0,0 1.41,-6.56 0.86,-9.11 -0.54,-2.54 -2.98,-4.63 -2.98,-4.63 z"
   class="st12" /><path
   style="fill:#2d3047;fill-opacity:1"
   id="path238"
   d="m 730.81969,375.14 c 0,0 -0.59,0.3 -0.6,0.49 -0.01,0.2 -0.31,2.83 -0.16,3.29 0.15,0.46 8.21,1.35 8.21,1.35 0,0 4.08,-0.2 4.5,-0.73 0.43,-0.53 0.24,-0.92 0,-0.98 -0.24,-0.07 -9.64,-3.65 -9.64,-3.65 z"
   class="st6" /><path
   style="fill:#f8ae9f;fill-opacity:1"
   id="path240"
   d="m 731.29969,329.11 c -3.2,-14.75 -2.4,-21.29 -0.43,-29.06 1.7,-6.72 5,-1.75 8.75,-1.71 0.1,1.48 10.89,0.33 10.98,1.85 0.37,5.68 -2.92,16.63 -6.42,25.73 -5.33,13.37 -10.33,43.11 -10.83,49.22 0,0 4.43,1.71 4.91,1.95 l -1.74,0.76 c -4.46,-0.35 -5.85,-1.31 -5.7,-2.32 0.01,-0.05 0.02,-1.76 0.05,-2.96 -0.35,-13.83 1.59,-40.66 0.43,-43.46 z"
   class="st11" /><path
   style="fill:#6d466b;fill-opacity:1"
   id="path242"
   d="m 750.95969,300.77 0.88,0.79 c 0,0 1.67,8.94 6.66,31.29 0,0 -28.57,4.12 -37.2,0.52 0,0 3.94,-13.84 3.32,-16.78 -0.63,-2.94 1.45,-8.03 7.48,-16.19 z"
   class="st5" /><path
   style="fill:#ffffff"
   id="path244"
   d="m 739.03969,304.1 c 0,0 -8.12,1.44 -12.14,-2.28 0,0 -4.78,12.14 -3.34,15.72 0.61,1.53 12.88,3.78 16.38,1.2 0,0.01 1.9,-1.06 -0.9,-14.64 z"
   class="st3" /><path
   style="fill:#ef9a89;fill-opacity:1"
   id="path246"
   d="m 733.94969,253.56 c 0.48,1.69 0.09,3.27 -0.87,3.54 -0.96,0.27 -2.12,-0.88 -2.59,-2.56 -0.48,-1.69 -0.09,-3.27 0.87,-3.54 0.96,-0.28 2.12,0.87 2.59,2.56 z"
   class="st11" /><path
   style="fill:#ffba49;fill-opacity:1"
   id="path248"
   d="m 730.19969,301.67 c 0,0 3.36,-9.32 3.48,-14.37 l -4.77,-18.06 v -2.6 c 0,0 1.77,-1.51 7.53,-1.98 0,0 3.64,-0.41 8.9,1.15 0,0 4.1,4.22 5.08,7.9 0.61,2.29 -0.49,9.48 -0.24,11.17 0.34,2.34 1.36,15.07 1.67,16.69 0.29,1.6 -7.92,4.32 -21.65,0.1 z"
   class="st4" /><path
   style="fill:#ef9a89;fill-opacity:1"
   id="path250"
   d="m 733.67969,255.6 c 0,0 1.58,6.13 1.8,9.64 0,0 2.78,2.48 5.18,0.18 0,0 0.93,-9.21 2.89,-10.62 1.95,-1.4 -9.87,0.8 -9.87,0.8 z"
   class="st12" /><path
   style="fill:#f79e8c"
   id="path252"
   d="m 734.43969,310.35 c 0,0 2,0.85 2.86,3.36 0.85,2.5 -0.91,0.37 -4.91,-3.41 z"
   class="st11" /><path
   style="fill:#f79e8c"
   id="path254"
   d="m 734.88969,310.6 c 0,0 0.67,1.2 1.4,3.37 0.73,2.17 0.71,2.34 1.03,3.81 0.22,1.01 -0.52,0.38 -0.58,0.37 -0.04,-0.01 0.08,0.11 -0.18,0.21 -0.16,0.06 -0.59,0.02 -0.81,-0.08 -0.13,-0.06 -0.6,-0.3 -0.8,-0.39 -0.98,-0.47 -2.81,-1.33 -4.09,-5.57 0.01,-0.01 1.9,-3.09 4.03,-1.72 z"
   class="st11" /><path
   class="st11"
   d="m 728.05969,267.22 c 1.71,-2.79 3.45,4.64 3.45,4.64 0.89,8.99 0.89,13.4 -0.63,21.51 1.57,12.52 2.46,16.93 2.46,16.93 l 0.7,1.89 c -0.02,0.03 -0.05,0.06 -0.1,0.08 v 0 0 c -0.63,0.34 -3.06,0.04 -3.06,0.04 -6.24,-7.63 -10.97,-31.81 -2.82,-45.09 z"
   id="path258"
   style="fill:#f8ae9f;fill-opacity:1" /><path
   style="fill:#f8ae9f;fill-opacity:1"
   id="path262"
   d="m 734.05969,242.78 c 0,0 7.01,-3.56 11.24,0.56 0,0 0.93,6.75 0.48,10.73 -0.45,3.98 -0.81,6.89 -3.75,7.09 0,0 -8.3,-0.26 -9.44,-5.95 -1.02,-5.13 -0.49,-11.12 1.47,-12.43 z"
   class="st11" /><path
   class="st12"
   d="m 768.44969,255.95 c 0,0 -1.01,-2.2 0.07,-4.67 1.08,-2.47 1,0.46 1.55,6.35 z"
   id="path264"
   style="fill:#e5846f" /><path
   class="st12"
   d="m 768.21969,254.4 c 0,0 0.51,-1.33 1.75,-3.31 1.24,-1.98 1.4,-2.06 2.35,-3.23 0.66,-0.82 0.66,0.24 0.69,0.3 0.02,0.04 0.04,-0.14 0.29,0.03 0.16,0.11 0.42,0.53 0.48,0.78 0.04,0.16 0.17,0.72 0.23,0.97 0.29,1.17 0.85,3.35 -1.68,7.06 0,0 -3.76,0.15 -4.11,-2.6 z"
   id="path266"
   style="fill:#e78c7a;fill-opacity:1" /><path
   style="fill:#e04949;fill-opacity:1"
   id="path270"
   d="m 738.23373,240.38 c 2.04,-0.03 4.34,0.29 4.34,0.29 0,0 4.67,0.87 5.95,3.69 1.28,2.82 -2.77,3.98 -2.77,3.98 -0.21,-2.6 -1.14,-4.05 -1.93,-4.81 -0.33,2.06 -2.05,7.38 -11.1,7.42 0,0 -1.4,0.58 -2,1.46 0,0 -1.32,-5.11 -1.98,-6.05 -0.59,-0.84 -0.16,-8.85 9.49,-5.98 z"
   class="st5" /><path
   style="fill:#e78c7a;fill-opacity:1"
   id="path272"
   d="m 756.57969,274.49 c 0,0 11.32,-4.96 15.75,-17.49 0,0 -0.84,-3.11 -2.51,-2.33 -2.85,1.35 -0.02,3.16 -12.09,11.62 -4.88,3.42 -1.15,8.2 -1.15,8.2 z"
   class="st12" /><path
   style="fill:#e78c7a;fill-opacity:1"
   id="path274"
   d="m 750.79969,373.38 c 0,0 -4.49,-1.21 -5.77,-2.21 l -2.47,0.58 c 0,0 0.28,1.7 6.07,2.27 z"
   class="st12" /><path
   style="fill:#fdbc56"
   id="path276"
   d="m 742.41969,264.02 c 0,0 0.69,-2.2 -1.24,-2.32 0,0 -0.03,0.15 -0.13,0.77 0,0 -3.31,1.07 -5.99,-0.46 l -0.14,-0.76 c 0,0 -1.25,-0.08 -1.39,1.36 -0.08,0.73 -0.06,2.02 -0.41,2.51 0,0 3.5,3.05 8.3,1.06 0,0 1.09,-0.74 1.13,-0.88 0.04,-0.16 -0.23,-0.36 -0.13,-1.28 z"
   class="st4" /><path
   style="fill:#ffba49;fill-opacity:1"
   id="path278"
   d="m 732.56969,240.03 c 0,0 -0.47,-0.42 -0.97,-0.59 -0.5,-0.17 -3.08,0.91 -3.08,4.92 0,0 0.87,-3.62 4.05,-4.33 z"
   class="st4" /><path
   class="st3"
   d="m 730.55969,265.8 c 0,0 -0.25,-0.63 1.36,-0.71 1.61,-0.07 5.44,25.27 7.11,39.01 l -1.2,0.53 c 0.01,0 -3.12,-32.66 -7.27,-38.83 z"
   id="path282"
   style="fill:#ffffff" />
</svg>