<?xml version="1.0" encoding="UTF-8" standalone="no"?>
<!-- Created with Inkscape (http://www.inkscape.org/) -->

<svg
   xmlns:dc="http://purl.org/dc/elements/1.1/"
   xmlns:cc="http://creativecommons.org/ns#"
   xmlns:rdf="http://www.w3.org/1999/02/22-rdf-syntax-ns#"
   xmlns:svg="http://www.w3.org/2000/svg"
   xmlns="http://www.w3.org/2000/svg"
   xmlns:sodipodi="http://sodipodi.sourceforge.net/DTD/sodipodi-0.dtd"
   xmlns:inkscape="http://www.inkscape.org/namespaces/inkscape"
   width="1000"
   height="987.19952"
   version="1.1"
   viewBox="0 0 264.58 261.19325"
   id="svg4283"
   sodipodi:docname="Nightingale-Small.svg"
   inkscape:version="0.92.3 (2405546, 2018-03-11)">
  <defs
     id="defs4287" />
  <sodipodi:namedview
     pagecolor="#ffffff"
     bordercolor="#666666"
     borderopacity="1"
     objecttolerance="10"
     gridtolerance="10"
     guidetolerance="10"
     inkscape:pageopacity="0"
     inkscape:pageshadow="2"
     inkscape:window-width="640"
     inkscape:window-height="480"
     id="namedview4285"
     showgrid="false"
     units="in"
     inkscape:current-layer="svg4283" />
  <metadata
     id="metadata4271">
    <rdf:RDF>
      <cc:Work
         rdf:about="">
        <dc:format>image/svg+xml</dc:format>
        <dc:type
           rdf:resource="http://purl.org/dc/dcmitype/StillImage" />
        <dc:title />
      </cc:Work>
    </rdf:RDF>
  </metadata>
  <g
     aria-label="Nightingale"
     style="font-style:normal;font-variant:normal;font-weight:normal;font-stretch:normal;font-size:48.33601761px;line-height:1.25;font-family:Oswald;-inkscape-font-specification:Oswald;font-variant-ligatures:normal;font-variant-position:normal;font-variant-caps:normal;font-variant-numeric:normal;font-variant-alternates:normal;font-feature-settings:normal;text-indent:0;text-align:start;text-decoration:none;text-decoration-line:none;text-decoration-style:solid;text-decoration-color:#000000;letter-spacing:normal;word-spacing:normal;text-transform:none;writing-mode:lr-tb;direction:ltr;text-orientation:mixed;dominant-baseline:auto;baseline-shift:baseline;text-anchor:start;white-space:normal;shape-padding:0;opacity:1;vector-effect:none;fill:#666666;fill-opacity:1;fill-rule:nonzero;stroke:none;stroke-width:113.28755188;stroke-linecap:round;stroke-linejoin:round;stroke-miterlimit:4;stroke-dasharray:none;stroke-dashoffset:0;stroke-opacity:1;paint-order:markers stroke fill"
     id="text3424">
    <path
       d="m 27.440086,221.58379 v -42.29402 h 4.531501 l 10.573504,26.15054 v -26.15054 h 6.042002 v 42.29402 H 44.291607 L 33.482088,193.45071 v 28.13308 z"
       style="font-style:normal;font-variant:normal;font-weight:normal;font-stretch:normal;font-family:Oswald;-inkscape-font-specification:Oswald;text-align:start;text-anchor:start;fill:#666666;fill-opacity:1;stroke-width:113.28755188"
       id="path3404" />
    <path
       d="m 54.629096,186.84227 v -6.042 h 6.042002 v 6.042 z m 0,34.74152 v -30.21001 h 6.042002 v 30.21001 z"
       style="font-style:normal;font-variant:normal;font-weight:normal;font-stretch:normal;font-family:Oswald;-inkscape-font-specification:Oswald;text-align:start;text-anchor:start;fill:#666666;fill-opacity:1;stroke-width:113.28755188"
       id="path3406" />
    <path
       d="m 70.725367,201.94728 q 0,6.41963 3.776251,6.41963 3.776252,0 3.776252,-6.41963 0,-1.29809 -0.165211,-2.38376 -0.165211,-1.10927 -0.566438,-2.14774 -0.401227,-1.06207 -1.180079,-1.65211 -0.778852,-0.61364 -1.864524,-0.61364 -1.109274,0 -1.888126,0.61364 -0.778851,0.59004 -1.180078,1.65211 -0.377625,1.03847 -0.542836,2.14774 -0.165211,1.08567 -0.165211,2.38376 z m 5.286752,24.21521 q 0.637242,0 1.132875,-0.0236 0.519235,-0.0236 1.180079,-0.0944 0.660844,-0.0708 1.132875,-0.23601 0.495633,-0.14161 0.920461,-0.37763 0.44843,-0.23601 0.684446,-0.63724 0.236016,-0.37763 0.236016,-0.87326 0,-2.52537 -4.838322,-3.0918 l -4.979932,-0.59004 q -0.920461,0.66084 -1.581305,1.91172 -0.637243,1.25089 -0.637243,2.61978 0,0.37762 0.259618,0.63724 0.259617,0.28322 0.75525,0.42483 0.519235,0.14161 1.038469,0.23601 0.542836,0.0944 1.274485,0.11801 0.731649,0.0236 1.250883,0.0236 0.519235,0 1.20368,-0.0236 0.708047,-0.0236 0.967665,-0.0236 z m 0,4.4607 q -1.132876,0 -1.840923,-0.0236 -0.708047,0 -1.935329,-0.0472 -1.227281,-0.0472 -2.053336,-0.18881 -0.826055,-0.11801 -1.888126,-0.33042 -1.062071,-0.18881 -1.770118,-0.51924 -0.684445,-0.33042 -1.321688,-0.77885 -0.637242,-0.44843 -0.967664,-1.10927 -0.306821,-0.63724 -0.306821,-1.4397 0,-2.36015 1.250884,-4.03587 1.274484,-1.67571 3.280618,-2.66697 -1.227282,-0.33043 -2.124141,-0.99127 -0.89686,-0.68445 -0.89686,-1.65211 0,-0.40123 0.09441,-0.84966 0.09441,-0.44843 0.212414,-0.80245 0.118008,-0.37762 0.377625,-0.84966 0.259618,-0.47203 0.401227,-0.73165 0.165211,-0.28321 0.519235,-0.75525 0.354023,-0.49563 0.472031,-0.66084 0.14161,-0.18881 0.519235,-0.63724 0.377625,-0.47203 0.424828,-0.54284 -3.021001,-3.58744 -3.021001,-9.063 0,-3.13901 0.991266,-5.59357 0.991266,-2.45457 3.068204,-3.91786 2.10054,-1.4869 5.003533,-1.4869 1.675712,0 2.926595,0.47203 1.250883,0.47203 2.029735,1.20368 0.802454,0.70805 1.557704,1.88812 1.793719,-3.32782 5.097939,-3.54023 0.07081,0 0.14161,0 0.0708,0 0.165211,0 0.118007,0 0.165211,0 v 4.93273 q -0.118008,0 -0.377626,0 -1.014867,0 -1.534102,0.0236 -0.519234,0.0236 -1.156477,0.21241 -0.637242,0.16521 -1.014867,0.54284 0.424828,0.92046 0.731648,2.45456 0.330422,1.5105 0.330422,2.80859 0,3.16261 -0.967664,5.59357 -0.944063,2.43096 -3.044603,3.89426 -2.076938,1.4633 -5.050736,1.4633 l -3.044602,-0.35403 q -0.0472,0.11801 -0.236016,0.42483 -0.188813,0.28322 -0.306821,0.47203 -0.09441,0.18882 -0.188812,0.49564 -0.09441,0.28322 -0.09441,0.54283 0,0.61364 0.590039,1.03847 0.590039,0.42483 1.628508,0.63724 1.038469,0.18882 1.982532,0.28322 0.967665,0.0944 2.147743,0.16521 1.180079,0.0472 1.628509,0.11801 1.345289,0.18881 2.383758,0.44843 1.062071,0.23602 2.147743,0.70805 1.109274,0.47203 1.817321,1.13287 0.708047,0.66085 1.156477,1.69932 0.472032,1.03847 0.472032,2.38376 0,1.65211 -0.59004,2.95019 -0.566437,1.29809 -1.534102,2.14775 -0.967664,0.84965 -2.336555,1.39249 -1.368891,0.56644 -2.879392,0.80245 -1.510501,0.23602 -3.233415,0.23602 z"
       style="font-style:normal;font-variant:normal;font-weight:normal;font-stretch:normal;font-family:Oswald;-inkscape-font-specification:Oswald;text-align:start;text-anchor:start;fill:#666666;fill-opacity:1;stroke-width:113.28755188"
       id="path3408" />
    <path
       d="m 88.261336,221.58379 v -42.29402 h 6.042002 v 15.34102 q 1.34529,-1.22728 2.194946,-1.86452 0.849657,-0.66085 2.336556,-1.22728 1.5105,-0.59004 3.20981,-0.59004 1.93533,0 3.13901,1.41609 1.20368,1.4161 1.20368,3.46943 v 25.74932 h -6.042 v -22.65751 q 0,-1.55771 -0.401226,-2.28935 -0.377625,-0.73165 -1.675712,-0.73165 -1.840922,0 -3.965064,1.77011 v 23.9084 z"
       style="font-style:normal;font-variant:normal;font-weight:normal;font-stretch:normal;font-family:Oswald;-inkscape-font-specification:Oswald;text-align:start;text-anchor:start;fill:#666666;fill-opacity:1;stroke-width:113.28755188"
       id="path3410" />
    <path
       d="m 120.05265,222.00861 q -3.56384,0 -5.19235,-1.81732 -1.6049,-1.81732 -1.65211,-5.49916 v -18.78685 h -3.021 v -4.5315 h 3.021 v -10.57351 h 6.042 v 10.57351 h 4.53151 v 4.5315 h -4.53151 v 17.63037 q 0,1.81732 0.49564,2.66698 0.49563,0.84965 2.00613,0.84965 0.66085,0 2.02974,-0.23601 v 4.90913 q -2.26575,0.28321 -3.72905,0.28321 z"
       style="font-style:normal;font-variant:normal;font-weight:normal;font-stretch:normal;font-family:Oswald;-inkscape-font-specification:Oswald;text-align:start;text-anchor:start;fill:#666666;fill-opacity:1;stroke-width:113.28755188"
       id="path3412" />
    <path
       d="m 128.45481,186.84227 v -6.042 h 6.042 v 6.042 z m 0,34.74152 v -30.21001 h 6.042 v 30.21001 z"
       style="font-style:normal;font-variant:normal;font-weight:normal;font-stretch:normal;font-family:Oswald;-inkscape-font-specification:Oswald;text-align:start;text-anchor:start;fill:#666666;fill-opacity:1;stroke-width:113.28755188"
       id="path3414" />
    <path
       d="m 140.27919,221.58379 v -30.21001 h 6.042 v 3.25701 q 1.34529,-1.22728 2.19495,-1.86452 0.84966,-0.66085 2.33656,-1.22728 1.5105,-0.59004 3.20981,-0.59004 1.93533,0 3.13901,1.41609 1.20368,1.4161 1.20368,3.46943 v 25.74932 h -6.042 v -22.65751 q 0,-1.58131 -0.44843,-2.28935 -0.44843,-0.73165 -1.81732,-0.73165 -0.77886,0 -1.55771,0.33042 -0.75525,0.30682 -1.13287,0.59004 -0.37763,0.25962 -1.08568,0.84965 v 23.9084 z"
       style="font-style:normal;font-variant:normal;font-weight:normal;font-stretch:normal;font-family:Oswald;-inkscape-font-specification:Oswald;text-align:start;text-anchor:start;fill:#666666;fill-opacity:1;stroke-width:113.28755188"
       id="path3416" />
    <path
       d="m 167.96384,201.94728 q 0,6.41963 3.77625,6.41963 3.77626,0 3.77626,-6.41963 0,-1.29809 -0.16522,-2.38376 -0.16521,-1.10927 -0.56643,-2.14774 -0.40123,-1.06207 -1.18008,-1.65211 -0.77885,-0.61364 -1.86453,-0.61364 -1.10927,0 -1.88812,0.61364 -0.77885,0.59004 -1.18008,1.65211 -0.37763,1.03847 -0.54284,2.14774 -0.16521,1.08567 -0.16521,2.38376 z m 5.28675,24.21521 q 0.63725,0 1.13288,-0.0236 0.51923,-0.0236 1.18008,-0.0944 0.66084,-0.0708 1.13287,-0.23601 0.49564,-0.14161 0.92047,-0.37763 0.44843,-0.23601 0.68444,-0.63724 0.23602,-0.37763 0.23602,-0.87326 0,-2.52537 -4.83833,-3.0918 l -4.97993,-0.59004 q -0.92046,0.66084 -1.5813,1.91172 -0.63724,1.25089 -0.63724,2.61978 0,0.37762 0.25961,0.63724 0.25962,0.28322 0.75525,0.42483 0.51924,0.14161 1.03847,0.23601 0.54284,0.0944 1.27449,0.11801 0.73165,0.0236 1.25088,0.0236 0.51923,0 1.20368,-0.0236 0.70805,-0.0236 0.96766,-0.0236 z m 0,4.4607 q -1.13287,0 -1.84092,-0.0236 -0.70805,0 -1.93533,-0.0472 -1.22728,-0.0472 -2.05333,-0.18881 -0.82606,-0.11801 -1.88813,-0.33042 -1.06207,-0.18881 -1.77012,-0.51924 -0.68444,-0.33042 -1.32169,-0.77885 -0.63724,-0.44843 -0.96766,-1.10927 -0.30682,-0.63724 -0.30682,-1.4397 0,-2.36015 1.25088,-4.03587 1.27449,-1.67571 3.28062,-2.66697 -1.22728,-0.33043 -2.12414,-0.99127 -0.89686,-0.68445 -0.89686,-1.65211 0,-0.40123 0.0944,-0.84966 0.0944,-0.44843 0.21241,-0.80245 0.11801,-0.37762 0.37763,-0.84966 0.25961,-0.47203 0.40122,-0.73165 0.16521,-0.28321 0.51924,-0.75525 0.35402,-0.49563 0.47203,-0.66084 0.14161,-0.18881 0.51923,-0.63724 0.37763,-0.47203 0.42483,-0.54284 -3.021,-3.58744 -3.021,-9.063 0,-3.13901 0.99127,-5.59357 0.99126,-2.45457 3.0682,-3.91786 2.10054,-1.4869 5.00353,-1.4869 1.67572,0 2.9266,0.47203 1.25088,0.47203 2.02973,1.20368 0.80246,0.70805 1.55771,1.88812 1.79372,-3.32782 5.09794,-3.54023 0.0708,0 0.14161,0 0.0708,0 0.16521,0 0.11801,0 0.16521,0 v 4.93273 q -0.11801,0 -0.37763,0 -1.01486,0 -1.5341,0.0236 -0.51923,0.0236 -1.15648,0.21241 -0.63724,0.16521 -1.01486,0.54284 0.42482,0.92046 0.73165,2.45456 0.33042,1.5105 0.33042,2.80859 0,3.16261 -0.96767,5.59357 -0.94406,2.43096 -3.0446,3.89426 -2.07694,1.4633 -5.05074,1.4633 l -3.0446,-0.35403 q -0.0472,0.11801 -0.23601,0.42483 -0.18882,0.28322 -0.30682,0.47203 -0.0944,0.18882 -0.18882,0.49564 -0.0944,0.28322 -0.0944,0.54283 0,0.61364 0.59004,1.03847 0.59003,0.42483 1.6285,0.63724 1.03847,0.18882 1.98254,0.28322 0.96766,0.0944 2.14774,0.16521 1.18008,0.0472 1.62851,0.11801 1.34529,0.18881 2.38376,0.44843 1.06207,0.23602 2.14774,0.70805 1.10927,0.47203 1.81732,1.13287 0.70805,0.66085 1.15648,1.69932 0.47203,1.03847 0.47203,2.38376 0,1.65211 -0.59004,2.95019 -0.56644,1.29809 -1.5341,2.14775 -0.96767,0.84965 -2.33656,1.39249 -1.36889,0.56644 -2.87939,0.80245 -1.5105,0.23602 -3.23342,0.23602 z"
       style="font-style:normal;font-variant:normal;font-weight:normal;font-stretch:normal;font-family:Oswald;-inkscape-font-specification:Oswald;text-align:start;text-anchor:start;fill:#666666;fill-opacity:1;stroke-width:113.28755188"
       id="path3418" />
    <path
       d="m 193.78396,217.05228 q 0.63724,0 1.22728,-0.37762 0.61364,-0.37763 0.92046,-0.73165 0.30682,-0.35402 0.75525,-0.94406 0.0708,-0.11801 0.11801,-0.16521 v -8.35496 q -0.37763,0.25962 -1.25089,0.80245 -0.87325,0.54284 -1.39249,0.89686 -0.51923,0.33043 -1.25088,0.94407 -0.73165,0.59004 -1.13288,1.15647 -0.40122,0.54284 -0.70804,1.34529 -0.30683,0.80246 -0.30683,1.67571 0,3.75265 3.02101,3.75265 z m -3.02101,4.95633 q -2.52536,0 -4.29548,-2.17134 -1.74652,-2.19495 -1.74652,-4.93273 0,-2.19494 0.73165,-3.98866 0.75525,-1.79372 1.58131,-2.85579 0.82605,-1.08568 2.76138,-2.21855 1.93533,-1.15648 2.9266,-1.58131 0.99126,-0.42483 3.44582,-1.39249 0.42483,-0.16521 0.63725,-0.25962 v -2.17134 q 0,-2.28935 -0.63725,-3.54024 -0.63724,-1.27448 -2.38375,-1.27448 -1.55771,0 -2.24215,1.08567 -0.66085,1.06207 -0.75525,2.9502 -0.0236,0.25961 -0.0236,0.77885 h -6.042 q 0.0472,-4.34269 2.43096,-6.91526 2.38376,-2.57257 6.63205,-2.57257 4.22468,0 6.63204,2.61977 2.43096,2.59617 2.43096,6.86806 v 13.5945 q 0,4.72032 0.77885,7.55251 h -6.0184 l -0.80245,-4.53151 q -0.47203,0.94407 -0.77885,1.4633 -0.28322,0.51924 -0.84966,1.29809 -0.56644,0.75525 -1.13288,1.18008 -0.56643,0.40122 -1.41609,0.70804 -0.84966,0.30682 -1.86453,0.30682 z"
       style="font-style:normal;font-variant:normal;font-weight:normal;font-stretch:normal;font-family:Oswald;-inkscape-font-specification:Oswald;text-align:start;text-anchor:start;fill:#666666;fill-opacity:1;stroke-width:113.28755188"
       id="path3420" />
    <path
       d="m 208.08652,221.58379 v -42.29402 h 6.042 v 42.29402 z"
       style="font-style:normal;font-variant:normal;font-weight:normal;font-stretch:normal;font-family:Oswald;-inkscape-font-specification:Oswald;text-align:start;text-anchor:start;fill:#666666;fill-opacity:1;stroke-width:113.28755188"
       id="path3422" />
    <path
       d="m 228.02984,222.00861 q -2.19495,0 -3.82345,-0.75525 -1.60491,-0.75525 -2.57258,-1.95893 -0.94406,-1.22728 -1.5341,-3.1154 -0.59004,-1.91173 -0.82605,-3.79986 -0.21242,-1.91172 -0.25962,-4.43709 -0.0708,-1.98253 0,-3.96507 0.0708,-2.36015 0.30682,-4.17747 0.25962,-1.84093 0.87326,-3.56384 0.61364,-1.72292 1.5813,-2.83219 0.99127,-1.10927 2.57258,-1.77012 1.6049,-0.68444 3.72904,-0.68444 1.93533,0 3.39863,0.51923 1.4869,0.49563 2.45456,1.5341 0.99127,1.01487 1.62851,2.26575 0.66085,1.25089 0.99127,3.04461 0.33042,1.77011 0.44843,3.49303 0.14161,1.72291 0.14161,3.96506 v 0.70805 h -12.08401 v 1.5105 q 0,0.30682 0,0.96767 -0.0472,0.87325 -0.0236,1.81732 0.0472,0.92046 0.0944,1.81732 0.0472,0.89686 0.25961,1.72291 0.21242,0.80246 0.51924,1.4161 0.30682,0.61364 0.84966,0.96766 0.56643,0.35402 1.32168,0.35402 0.94407,0 1.55771,-0.35402 0.61364,-0.37762 0.89686,-1.10927 0.30682,-0.73165 0.42482,-1.4633 0.11801,-0.73165 0.14161,-1.84092 v -1.27449 h 5.9948 v 1.20368 q -0.21241,4.83832 -2.38376,7.31649 -2.17134,2.47816 -6.67924,2.47816 z m -2.9738,-18.55083 h 5.9948 v -1.81732 q -0.0236,-1.20368 -0.14161,-2.10054 -0.11801,-0.89686 -0.42483,-1.79372 -0.28322,-0.89686 -0.89686,-1.36889 -0.61364,-0.47203 -1.5105,-0.47203 -0.92046,0 -1.5577,0.49563 -0.61364,0.49563 -0.92046,1.4397 -0.28322,0.92046 -0.40123,1.81732 -0.11801,0.89686 -0.14161,2.14774 z"
       style="font-style:normal;font-variant:normal;font-weight:normal;font-stretch:normal;font-family:Oswald;-inkscape-font-specification:Oswald;text-align:start;text-anchor:start;fill:#666666;fill-opacity:1;stroke-width:113.28755188"
       id="path3424" />
  </g>
  <g
     aria-label="Helping you do data science"
     transform="scale(1.2247449,0.81649657)"
     style="font-style:normal;font-variant:normal;font-weight:normal;font-stretch:normal;font-size:17.67115021px;line-height:1.25;font-family:Oswald;-inkscape-font-specification:Oswald;font-variant-ligatures:normal;font-variant-position:normal;font-variant-caps:normal;font-variant-numeric:normal;font-variant-alternates:normal;font-feature-settings:normal;text-indent:0;text-align:start;text-decoration:none;text-decoration-line:none;text-decoration-style:solid;text-decoration-color:#000000;letter-spacing:normal;word-spacing:normal;text-transform:none;writing-mode:lr-tb;direction:ltr;text-orientation:mixed;dominant-baseline:auto;baseline-shift:baseline;text-anchor:start;white-space:normal;shape-padding:0;opacity:1;vector-effect:none;fill:#e8830c;fill-opacity:1;fill-rule:nonzero;stroke:none;stroke-width:41.41676331;stroke-linecap:round;stroke-linejoin:round;stroke-miterlimit:4;stroke-dasharray:none;stroke-dashoffset:0;stroke-opacity:1;paint-order:markers stroke fill"
     id="text3428">
    <path
       d="m 10.80143,300.18146 v -12.64937 h 2.088095 v 4.97864 h 4.107162 v -4.97864 h 2.096723 v 12.64937 h -2.096723 v -5.53087 h -4.107162 v 5.53087 z"
       style="font-style:normal;font-variant:normal;font-weight:normal;font-stretch:normal;font-family:'Arial Narrow';-inkscape-font-specification:'Arial Narrow';text-align:start;text-anchor:start;fill:#e8830c;fill-opacity:1;stroke-width:41.41676331"
       id="path3357" />
    <path
       d="m 25.599292,297.26503 1.975925,0.40554 q -0.396911,1.38056 -1.233874,2.05358 -0.836964,0.66439 -2.036324,0.66439 -1.665299,0 -2.571291,-1.11307 -1.069933,-1.29428 -1.069933,-3.62397 0,-2.29518 1.078562,-3.67574 0.91462,-1.16484 2.364206,-1.16484 1.613528,0 2.528148,1.19073 1.052676,1.3633 1.052676,4.02087 l -0.0086,0.27612 h -4.97864 q 0.01726,1.08719 0.483196,1.68255 0.474567,0.59537 1.138961,0.59537 0.957762,0 1.277016,-1.31153 z m 0.112171,-2.45049 q -0.02589,-1.06994 -0.45731,-1.6049 -0.431425,-0.5436 -1.026791,-0.5436 -0.62988,0 -1.061304,0.56085 -0.440053,0.56948 -0.431425,1.58765 z"
       style="font-style:normal;font-variant:normal;font-weight:normal;font-stretch:normal;font-family:'Arial Narrow';-inkscape-font-specification:'Arial Narrow';text-align:start;text-anchor:start;fill:#e8830c;fill-opacity:1;stroke-width:41.41676331"
       id="path3359" />
    <path
       d="m 29.318174,300.18146 v -12.64937 h 1.993181 v 12.64937 z"
       style="font-style:normal;font-variant:normal;font-weight:normal;font-stretch:normal;font-family:'Arial Narrow';-inkscape-font-specification:'Arial Narrow';text-align:start;text-anchor:start;fill:#e8830c;fill-opacity:1;stroke-width:41.41676331"
       id="path3361" />
    <path
       d="m 33.295908,291.018 h 1.855125 v 1.34604 q 0.379654,-0.72479 1.000905,-1.13896 0.621252,-0.41416 1.337416,-0.41416 1.285646,0 2.208894,1.22524 0.931877,1.22525 0.931877,3.47728 0,2.36421 -0.931877,3.62397 -0.931877,1.25113 -2.217522,1.25113 -0.595366,0 -1.113075,-0.28474 -0.509081,-0.29337 -1.078562,-1.05267 v 4.61624 h -1.993181 z m 1.967296,4.42642 q 0,1.55312 0.500452,2.28655 0.509081,0.73342 1.225246,0.73342 0.681651,0 1.147589,-0.67302 0.465939,-0.68166 0.465939,-2.21753 0,-1.45821 -0.483196,-2.14849 -0.474567,-0.69891 -1.164846,-0.69891 -0.724793,0 -1.207989,0.68165 -0.483195,0.67302 -0.483195,2.03633 z"
       style="font-style:normal;font-variant:normal;font-weight:normal;font-stretch:normal;font-family:'Arial Narrow';-inkscape-font-specification:'Arial Narrow';text-align:start;text-anchor:start;fill:#e8830c;fill-opacity:1;stroke-width:41.41676331"
       id="path3363" />
    <path
       d="m 42.226396,289.7755 v -2.24341 h 1.993181 v 2.24341 z m 0,10.40596 V 291.018 h 1.993181 v 9.16346 z"
       style="font-style:normal;font-variant:normal;font-weight:normal;font-stretch:normal;font-family:'Arial Narrow';-inkscape-font-specification:'Arial Narrow';text-align:start;text-anchor:start;fill:#e8830c;fill-opacity:1;stroke-width:41.41676331"
       id="path3365" />
    <path
       d="m 53.098296,300.18146 h -1.993181 v -4.67664 q 0,-1.40645 -0.112171,-1.87239 -0.11217,-0.46594 -0.422796,-0.71616 -0.301997,-0.25023 -0.690279,-0.25023 -0.500452,0 -0.905991,0.32788 -0.40554,0.31926 -0.569481,0.88874 -0.163941,0.56948 -0.163941,2.14849 v 4.15031 H 46.247274 V 291.018 h 1.846497 v 1.34604 q 0.491824,-0.77656 1.104447,-1.16484 0.621252,-0.38828 1.37193,-0.38828 0.871478,0 1.466844,0.45731 0.603994,0.44868 0.828335,1.16484 0.232969,0.70754 0.232969,2.05358 z"
       style="font-style:normal;font-variant:normal;font-weight:normal;font-stretch:normal;font-family:'Arial Narrow';-inkscape-font-specification:'Arial Narrow';text-align:start;text-anchor:start;fill:#e8830c;fill-opacity:1;stroke-width:41.41676331"
       id="path3367" />
    <path
       d="m 54.944795,300.78545 2.277922,0.33651 q 0.05177,0.50046 0.310625,0.70754 0.267484,0.21571 0.836964,0.21571 0.655765,0 1.061304,-0.21571 0.284741,-0.15531 0.440053,-0.51771 0.155313,-0.3624 0.155313,-1.27702 v -1.33741 q -0.448681,0.74205 -1.009533,1.11307 -0.560852,0.37103 -1.242503,0.37103 -1.251131,0 -2.105352,-1.13033 -0.983648,-1.29428 -0.983648,-3.50317 0,-2.34695 0.923249,-3.53768 0.931877,-1.19936 2.252036,-1.19936 0.698908,0 1.268388,0.37102 0.578109,0.37103 1.026791,1.1217 V 291.018 h 1.863754 v 8.22295 q 0,1.97593 -0.362397,2.86466 -0.362396,0.88874 -1.121704,1.33742 -0.750678,0.45731 -2.088095,0.45731 -1.233874,0 -1.975924,-0.32789 -0.74205,-0.32788 -1.138961,-0.98364 -0.388282,-0.64714 -0.388282,-1.50136 z m 1.777469,-5.37555 q 0,1.46685 0.465939,2.13987 0.474567,0.67302 1.13896,0.67302 0.716165,0 1.225246,-0.68165 0.509081,-0.68165 0.509081,-2.07084 0,-1.43233 -0.491824,-2.11398 -0.483195,-0.69028 -1.19936,-0.69028 -0.707536,0 -1.182103,0.67302 -0.465939,0.67303 -0.465939,2.07084 z"
       style="font-style:normal;font-variant:normal;font-weight:normal;font-stretch:normal;font-family:'Arial Narrow';-inkscape-font-specification:'Arial Narrow';text-align:start;text-anchor:start;fill:#e8830c;fill-opacity:1;stroke-width:41.41676331"
       id="path3369" />
    <path
       d="m 67.09371,291.018 h 2.122609 l 1.786097,6.50588 1.760213,-6.50588 h 2.053581 l -2.648947,8.81832 -0.509081,1.71707 q -0.336511,0.96639 -0.673023,1.41507 -0.327882,0.44868 -0.845592,0.69028 -0.509081,0.2416 -1.259759,0.2416 -0.578109,0 -1.130333,-0.14669 l -0.17257,-1.89827 q 0.465939,0.11218 0.836964,0.11218 0.56948,0 0.931877,-0.37966 0.371025,-0.37965 0.603994,-1.38056 z"
       style="font-style:normal;font-variant:normal;font-weight:normal;font-stretch:normal;font-family:'Arial Narrow';-inkscape-font-specification:'Arial Narrow';text-align:start;text-anchor:start;fill:#e8830c;fill-opacity:1;stroke-width:41.41676331"
       id="path3371" />
    <path
       d="m 75.653173,295.4703 q 0,-1.34604 0.534966,-2.45049 0.534967,-1.10445 1.397816,-1.65667 0.862849,-0.55222 1.94141,-0.55222 1.811983,0 2.847402,1.4237 1.035419,1.41507 1.035419,3.31334 0,1.41507 -0.543595,2.55403 -0.534966,1.13896 -1.415072,1.71707 -0.871478,0.56948 -1.915525,0.56948 -1.673928,0 -2.778374,-1.27702 -1.104447,-1.27701 -1.104447,-3.64122 z m 2.036324,0.12943 q 0,1.38919 0.543595,2.10535 0.543594,0.70754 1.31153,0.70754 0.750679,0 1.285645,-0.71617 0.534967,-0.71616 0.534967,-2.11398 0,-1.3633 -0.543595,-2.07946 -0.543595,-0.71617 -1.302902,-0.71617 -0.750679,0 -1.294274,0.71617 -0.534966,0.71616 -0.534966,2.09672 z"
       style="font-style:normal;font-variant:normal;font-weight:normal;font-stretch:normal;font-family:'Arial Narrow';-inkscape-font-specification:'Arial Narrow';text-align:start;text-anchor:start;fill:#e8830c;fill-opacity:1;stroke-width:41.41676331"
       id="path3373" />
    <path
       d="m 89.924695,300.18146 v -1.37193 q -0.414168,0.74205 -1.08719,1.16484 -0.673022,0.41417 -1.406444,0.41417 -0.74205,0 -1.328788,-0.38828 -0.586737,-0.38828 -0.880106,-1.10445 -0.28474,-0.71616 -0.28474,-2.07946 V 291.018 h 1.993181 v 4.2107 q 0,1.80336 0.08628,2.29518 0.09491,0.4832 0.405539,0.75068 0.310626,0.26748 0.750679,0.26748 0.500453,0 0.923249,-0.34514 0.422796,-0.35376 0.552223,-0.89736 0.138056,-0.55222 0.138056,-2.41598 V 291.018 h 1.984553 v 9.16346 z"
       style="font-style:normal;font-variant:normal;font-weight:normal;font-stretch:normal;font-family:'Arial Narrow';-inkscape-font-specification:'Arial Narrow';text-align:start;text-anchor:start;fill:#e8830c;fill-opacity:1;stroke-width:41.41676331"
       id="path3375" />
    <path
       d="m 104.79159,300.18146 h -1.85513 v -1.34605 q -0.45731,0.77657 -1.07856,1.16485 -0.62125,0.38828 -1.27702,0.38828 -1.259755,0 -2.200261,-1.25113 -0.931877,-1.25976 -0.931877,-3.58945 0,-2.34695 0.91462,-3.53768 0.91462,-1.19936 2.252038,-1.19936 0.62988,0 1.17347,0.31925 0.55223,0.31925 1.00954,0.95776 v -4.55584 h 1.99318 z m -5.306524,-4.78019 q 0,1.24251 0.207084,1.85513 0.215712,0.60399 0.60399,0.91462 0.39692,0.302 0.88874,0.302 0.65576,0 1.13896,-0.70754 0.4832,-0.70754 0.4832,-2.13124 0,-1.57901 -0.47457,-2.26929 -0.46594,-0.69891 -1.19073,-0.69891 -0.69028,0 -1.173478,0.68165 -0.483196,0.68165 -0.483196,2.05358 z"
       style="font-style:normal;font-variant:normal;font-weight:normal;font-stretch:normal;font-family:'Arial Narrow';-inkscape-font-specification:'Arial Narrow';text-align:start;text-anchor:start;fill:#e8830c;fill-opacity:1;stroke-width:41.41676331"
       id="path3377" />
    <path
       d="m 106.30157,295.4703 q 0,-1.34604 0.53497,-2.45049 0.53496,-1.10445 1.39781,-1.65667 0.86285,-0.55222 1.94141,-0.55222 1.81199,0 2.84741,1.4237 1.03542,1.41507 1.03542,3.31334 0,1.41507 -0.5436,2.55403 -0.53497,1.13896 -1.41507,1.71707 -0.87148,0.56948 -1.91553,0.56948 -1.67392,0 -2.77837,-1.27702 -1.10445,-1.27701 -1.10445,-3.64122 z m 2.03633,0.12943 q 0,1.38919 0.54359,2.10535 0.5436,0.70754 1.31153,0.70754 0.75068,0 1.28565,-0.71617 0.53496,-0.71616 0.53496,-2.11398 0,-1.3633 -0.54359,-2.07946 -0.5436,-0.71617 -1.3029,-0.71617 -0.75068,0 -1.29428,0.71617 -0.53496,0.71616 -0.53496,2.09672 z"
       style="font-style:normal;font-variant:normal;font-weight:normal;font-stretch:normal;font-family:'Arial Narrow';-inkscape-font-specification:'Arial Narrow';text-align:start;text-anchor:start;fill:#e8830c;fill-opacity:1;stroke-width:41.41676331"
       id="path3379" />
    <path
       d="m 126.5699,300.18146 h -1.85512 v -1.34605 q -0.45731,0.77657 -1.07857,1.16485 -0.62125,0.38828 -1.27701,0.38828 -1.25976,0 -2.20027,-1.25113 -0.93188,-1.25976 -0.93188,-3.58945 0,-2.34695 0.91463,-3.53768 0.91462,-1.19936 2.25203,-1.19936 0.62988,0 1.17348,0.31925 0.55222,0.31925 1.00953,0.95776 v -4.55584 h 1.99318 z m -5.30652,-4.78019 q 0,1.24251 0.20708,1.85513 0.21571,0.60399 0.604,0.91462 0.39691,0.302 0.88873,0.302 0.65577,0 1.13896,-0.70754 0.4832,-0.70754 0.4832,-2.13124 0,-1.57901 -0.47457,-2.26929 -0.46594,-0.69891 -1.19073,-0.69891 -0.69028,0 -1.17348,0.68165 -0.48319,0.68165 -0.48319,2.05358 z"
       style="font-style:normal;font-variant:normal;font-weight:normal;font-stretch:normal;font-family:'Arial Narrow';-inkscape-font-specification:'Arial Narrow';text-align:start;text-anchor:start;fill:#e8830c;fill-opacity:1;stroke-width:41.41676331"
       id="path3381" />
    <path
       d="m 130.02993,293.81363 -1.80335,-0.39691 q 0.32788,-1.38919 1.07856,-1.99318 0.75931,-0.61262 2.17438,-0.61262 1.25976,0 1.92415,0.35376 0.6644,0.35377 0.94914,0.9664 0.28474,0.60399 0.28474,2.20889 l -0.0173,2.83014 q 0,1.19074 0.0949,1.77747 0.0949,0.57811 0.35377,1.23388 h -1.9673 l -0.25885,-1.00091 q -0.50908,0.604 -1.09582,0.90599 -0.57811,0.302 -1.23387,0.302 -1.09582,0 -1.79473,-0.73342 -0.69891,-0.74205 -0.69891,-1.9673 0,-0.77656 0.28474,-1.35467 0.28474,-0.57811 0.80245,-0.92325 0.51771,-0.34514 1.65667,-0.61262 1.38056,-0.31926 1.92416,-0.59537 0,-0.7593 -0.11217,-0.99227 -0.10355,-0.2416 -0.39691,-0.38829 -0.28474,-0.15531 -0.81108,-0.15531 -0.53497,0 -0.84559,0.2416 -0.302,0.2416 -0.49183,0.90599 z m 2.65758,1.9673 q -0.37966,0.15531 -1.18211,0.36239 -0.92325,0.2416 -1.20799,0.53497 -0.28474,0.29337 -0.28474,0.75931 0,0.52634 0.31063,0.88873 0.31925,0.35377 0.79382,0.35377 0.4228,0 0.83696,-0.28474 0.41417,-0.29337 0.56949,-0.69028 0.16394,-0.39691 0.16394,-1.44096 z"
       style="font-style:normal;font-variant:normal;font-weight:normal;font-stretch:normal;font-family:'Arial Narrow';-inkscape-font-specification:'Arial Narrow';text-align:start;text-anchor:start;fill:#e8830c;fill-opacity:1;stroke-width:41.41676331"
       id="path3383" />
    <path
       d="m 140.05623,291.018 v 1.93278 h -1.35467 v 3.693 q 0,1.19936 0.0604,1.38918 0.1208,0.34514 0.49182,0.34514 0.27612,0 0.79383,-0.23297 l 0.17257,1.88101 q -0.69028,0.3624 -1.56176,0.3624 -0.75931,0 -1.21662,-0.3624 -0.45731,-0.36239 -0.61262,-1.04404 -0.1208,-0.50046 -0.1208,-2.03633 v -3.99499 h -0.91462 V 291.018 h 0.91462 v -1.82061 l 1.99318,-1.41507 v 3.23568 z"
       style="font-style:normal;font-variant:normal;font-weight:normal;font-stretch:normal;font-family:'Arial Narrow';-inkscape-font-specification:'Arial Narrow';text-align:start;text-anchor:start;fill:#e8830c;fill-opacity:1;stroke-width:41.41676331"
       id="path3385" />
    <path
       d="m 142.93815,293.81363 -1.80335,-0.39691 q 0.32788,-1.38919 1.07856,-1.99318 0.7593,-0.61262 2.17438,-0.61262 1.25976,0 1.92415,0.35376 0.66439,0.35377 0.94913,0.9664 0.28474,0.60399 0.28474,2.20889 l -0.0172,2.83014 q 0,1.19074 0.0949,1.77747 0.0949,0.57811 0.35377,1.23388 h -1.9673 l -0.25885,-1.00091 q -0.50908,0.604 -1.09582,0.90599 -0.57811,0.302 -1.23387,0.302 -1.09582,0 -1.79473,-0.73342 -0.69891,-0.74205 -0.69891,-1.9673 0,-0.77656 0.28474,-1.35467 0.28474,-0.57811 0.80245,-0.92325 0.51771,-0.34514 1.65667,-0.61262 1.38056,-0.31926 1.92416,-0.59537 0,-0.7593 -0.11218,-0.99227 -0.10354,-0.2416 -0.39691,-0.38829 -0.28474,-0.15531 -0.81107,-0.15531 -0.53497,0 -0.8456,0.2416 -0.30199,0.2416 -0.49182,0.90599 z m 2.65758,1.9673 q -0.37966,0.15531 -1.18211,0.36239 -0.92325,0.2416 -1.20799,0.53497 -0.28474,0.29337 -0.28474,0.75931 0,0.52634 0.31063,0.88873 0.31925,0.35377 0.79382,0.35377 0.4228,0 0.83696,-0.28474 0.41417,-0.29337 0.56948,-0.69028 0.16395,-0.39691 0.16395,-1.44096 z"
       style="font-style:normal;font-variant:normal;font-weight:normal;font-stretch:normal;font-family:'Arial Narrow';-inkscape-font-specification:'Arial Narrow';text-align:start;text-anchor:start;fill:#e8830c;fill-opacity:1;stroke-width:41.41676331"
       id="path3387" />
    <path
       d="m 152.86955,297.56702 1.99318,-0.37102 q 0.25886,1.44096 1.6049,1.44096 0.71617,0 1.06994,-0.27611 0.35376,-0.27612 0.35376,-0.71617 0,-0.302 -0.15531,-0.47457 -0.16394,-0.17257 -0.64714,-0.30199 -2.45049,-0.64714 -3.11488,-1.23388 -0.82834,-0.73342 -0.82834,-2.01044 0,-1.27701 0.81108,-2.04495 0.81108,-0.76793 2.35558,-0.76793 1.47547,0 2.24341,0.5781 0.76793,0.56949 1.07856,1.8465 l -1.87238,0.4228 q -0.25023,-1.10445 -1.41508,-1.10445 -0.73342,0 -1.04404,0.21571 -0.31063,0.20709 -0.31063,0.5436 0,0.302 0.28474,0.50045 0.28474,0.20708 1.76884,0.62125 1.6653,0.46594 2.26067,1.13033 0.58673,0.6644 0.58673,1.76885 0,1.32878 -0.91462,2.19163 -0.90599,0.86285 -2.51089,0.86285 -1.45821,0 -2.38146,-0.71616 -0.92325,-0.7248 -1.21662,-2.10536 z"
       style="font-style:normal;font-variant:normal;font-weight:normal;font-stretch:normal;font-family:'Arial Narrow';-inkscape-font-specification:'Arial Narrow';text-align:start;text-anchor:start;fill:#e8830c;fill-opacity:1;stroke-width:41.41676331"
       id="path3389" />
    <path
       d="m 168.19375,293.72735 -1.95867,0.43142 q -0.21571,-1.44096 -1.35467,-1.44096 -0.73342,0 -1.18211,0.62125 -0.44868,0.62126 -0.44868,2.09673 0,1.63078 0.44868,2.3038 0.44869,0.67303 1.19936,0.67303 0.56086,0 0.92325,-0.37966 0.3624,-0.38828 0.51771,-1.3633 l 1.95867,0.40554 q -0.60399,3.31334 -3.47728,3.31334 -1.83787,0 -2.72661,-1.39781 -0.88873,-1.39782 -0.88873,-3.36512 0,-2.35557 1.0009,-3.58082 1.00954,-1.23387 2.64032,-1.23387 1.32016,0 2.1485,0.6989 0.83696,0.69891 1.19936,2.21753 z"
       style="font-style:normal;font-variant:normal;font-weight:normal;font-stretch:normal;font-family:'Arial Narrow';-inkscape-font-specification:'Arial Narrow';text-align:start;text-anchor:start;fill:#e8830c;fill-opacity:1;stroke-width:41.41676331"
       id="path3391" />
    <path
       d="m 169.72099,289.7755 v -2.24341 h 1.99318 v 2.24341 z m 0,10.40596 V 291.018 h 1.99318 v 9.16346 z"
       style="font-style:normal;font-variant:normal;font-weight:normal;font-stretch:normal;font-family:'Arial Narrow';-inkscape-font-specification:'Arial Narrow';text-align:start;text-anchor:start;fill:#e8830c;fill-opacity:1;stroke-width:41.41676331"
       id="path3393" />
    <path
       d="m 178.11651,297.26503 1.97592,0.40554 q -0.39691,1.38056 -1.23387,2.05358 -0.83697,0.66439 -2.03633,0.66439 -1.6653,0 -2.57129,-1.11307 -1.06993,-1.29428 -1.06993,-3.62397 0,-2.29518 1.07856,-3.67574 0.91462,-1.16484 2.36421,-1.16484 1.61353,0 2.52815,1.19073 1.05267,1.3633 1.05267,4.02087 l -0.009,0.27612 h -4.97864 q 0.0173,1.08719 0.4832,1.68255 0.47457,0.59537 1.13896,0.59537 0.95776,0 1.27702,-1.31153 z m 0.11217,-2.45049 q -0.0259,-1.06994 -0.45731,-1.6049 -0.43143,-0.5436 -1.02679,-0.5436 -0.62988,0 -1.06131,0.56085 -0.44005,0.56948 -0.43142,1.58765 z"
       style="font-style:normal;font-variant:normal;font-weight:normal;font-stretch:normal;font-family:'Arial Narrow';-inkscape-font-specification:'Arial Narrow';text-align:start;text-anchor:start;fill:#e8830c;fill-opacity:1;stroke-width:41.41676331"
       id="path3395" />
    <path
       d="m 188.66916,300.18146 h -1.99318 v -4.67664 q 0,-1.40645 -0.11217,-1.87239 -0.11217,-0.46594 -0.4228,-0.71616 -0.30199,-0.25023 -0.69028,-0.25023 -0.50045,0 -0.90599,0.32788 -0.40554,0.31926 -0.56948,0.88874 -0.16394,0.56948 -0.16394,2.14849 v 4.15031 h -1.99318 V 291.018 h 1.8465 v 1.34604 q 0.49182,-0.77656 1.10444,-1.16484 0.62126,-0.38828 1.37193,-0.38828 0.87148,0 1.46685,0.45731 0.60399,0.44868 0.82833,1.16484 0.23297,0.70754 0.23297,2.05358 z"
       style="font-style:normal;font-variant:normal;font-weight:normal;font-stretch:normal;font-family:'Arial Narrow';-inkscape-font-specification:'Arial Narrow';text-align:start;text-anchor:start;fill:#e8830c;fill-opacity:1;stroke-width:41.41676331"
       id="path3397" />
    <path
       d="m 197.25451,293.72735 -1.95867,0.43142 q -0.21571,-1.44096 -1.35467,-1.44096 -0.73342,0 -1.18211,0.62125 -0.44868,0.62126 -0.44868,2.09673 0,1.63078 0.44868,2.3038 0.44869,0.67303 1.19936,0.67303 0.56086,0 0.92325,-0.37966 0.3624,-0.38828 0.51771,-1.3633 l 1.95867,0.40554 q -0.60399,3.31334 -3.47728,3.31334 -1.83787,0 -2.7266,-1.39781 -0.88874,-1.39782 -0.88874,-3.36512 0,-2.35557 1.00091,-3.58082 1.00953,-1.23387 2.64031,-1.23387 1.32016,0 2.1485,0.6989 0.83696,0.69891 1.19936,2.21753 z"
       style="font-style:normal;font-variant:normal;font-weight:normal;font-stretch:normal;font-family:'Arial Narrow';-inkscape-font-specification:'Arial Narrow';text-align:start;text-anchor:start;fill:#e8830c;fill-opacity:1;stroke-width:41.41676331"
       id="path3399" />
    <path
       d="m 203.13914,297.26503 1.97592,0.40554 q -0.39691,1.38056 -1.23387,2.05358 -0.83697,0.66439 -2.03633,0.66439 -1.6653,0 -2.57129,-1.11307 -1.06993,-1.29428 -1.06993,-3.62397 0,-2.29518 1.07856,-3.67574 0.91462,-1.16484 2.36421,-1.16484 1.61352,0 2.52814,1.19073 1.05268,1.3633 1.05268,4.02087 l -0.009,0.27612 h -4.97864 q 0.0173,1.08719 0.4832,1.68255 0.47456,0.59537 1.13896,0.59537 0.95776,0 1.27702,-1.31153 z m 0.11217,-2.45049 q -0.0259,-1.06994 -0.45731,-1.6049 -0.43143,-0.5436 -1.0268,-0.5436 -0.62987,0 -1.0613,0.56085 -0.44005,0.56948 -0.43142,1.58765 z"
       style="font-style:normal;font-variant:normal;font-weight:normal;font-stretch:normal;font-family:'Arial Narrow';-inkscape-font-specification:'Arial Narrow';text-align:start;text-anchor:start;fill:#e8830c;fill-opacity:1;stroke-width:41.41676331"
       id="path3401" />
  </g>
  <g
     transform="matrix(0.84380806,0,0,0.84380806,-260.91764,110.32711)"
     id="g3410">
    <path
       inkscape:connector-curvature="0"
       id="path3436"
       d="m 477.54989,-115.27053 c -18.50599,0.10507 -36.53878,5.80127 -51.66611,16.123568 l 48.24616,63.62919 11.37295,-79.452518 c -2.65595,-0.216 -5.30929,-0.31525 -7.953,-0.30024 z m 15.51998,8.20364 -9.95288,71.292803 57.63317,-43.699141 c -10.29348,-12.11599 -23.69476,-20.941512 -38.99348,-25.503872 -2.8331,-0.84488 -5.73129,-1.54351 -8.68681,-2.08979 z m -78.39522,6.97528 c -16.15172,13.296113 -30.04296,35.108913 -34.39583,58.08431 l 87.31457,11.707813 z m 94.61904,5.784145 a 10.257146,10.257146 0 0 1 10.25725,10.257255 10.257146,10.257146 0 0 1 -10.25725,10.256737 10.257146,10.257146 0 0 1 -10.25674,-10.256737 10.257146,10.257146 0 0 1 10.25674,-10.257255 z m 37.46489,23.045621 -58.96746,43.662451 70.91763,8.937955 c 1.54311,-16.647699 -2.67918,-38.643395 -11.95017,-52.600406 z M 325.49663,-39.30824 c -2.54444,25.01442 9.31495,79.761312 22.37486,98.715427 l 118.92195,-82.804253 z m 160.88424,19.948138 31.5743,41.641908 c 11.15467,-9.507087 17.53165,-21.1634647 20.42925,-34.640787 z m -14.53554,2.626196 -46.13983,34.984415 c 9.50712,11.154648 23.17868,19.151494 37.99407,22.083924 z m 7.87238,2.425174 -5.60327,39.663224 c 10.3712,0.530886 22.55836,-3.462496 29.72635,-7.848124 z"
       style="fill:#e8830c;fill-opacity:1;stroke:none;stroke-width:21.16666603;stroke-miterlimit:4;stroke-dasharray:none;paint-order:markers stroke fill" />
    <path
       id="path3465"
       d="m 592.83123,-107.97174 c -0.55785,-0.0109 -1.18273,0.0275 -1.87327,0.11937 l -58.02282,6.75101 a 86.728958,81.383567 0 0 1 36.59467,66.33858 86.728958,81.383567 0 0 1 -0.16124,3.027206 l 35.3503,-39.169702 c 3.77582,-4.10528 2.35611,-6.740855 -3.14296,-5.853906 l -38.03695,6.031156 30.40899,-31.194994 c 3.39254,-3.48126 2.78819,-5.9726 -1.11672,-6.04872 z"
       style="fill:#e8830c;fill-opacity:1;stroke-width:4.08944321"
       inkscape:connector-curvature="0" />
    <path
       id="path3455"
       d="m 500.02191,31.146882 c -4.75755,1.926829 -10.00641,3.409342 -15.51069,4.170813 -0.48663,8.265107 -1.88447,38.173977 2.75177,47.302022 1.0746,2.115741 3.06149,1.379168 4.18373,-0.592719 5.2969,-9.307116 7.72774,-37.999961 8.57519,-50.880116 z m -44.0552,18.220082 c -0.0571,9.731401 0.46357,20.924837 2.86701,25.656831 0.92658,1.824302 2.63987,1.189222 3.60753,-0.511069 2.44038,-4.28797 4.17369,-13.358892 5.37229,-22.57433 l -6.1681,-1.221131 c -1.91367,-0.378778 -3.8071,-0.832062 -5.67873,-1.350301 z"
       style="fill:#e8830c;fill-opacity:1;stroke-width:4.08944321"
       inkscape:connector-curvature="0" />
  </g>
</svg>
