<?xml version="1.0" encoding="UTF-8" standalone="no"?>
<!-- Created with Inkscape (http://www.inkscape.org/) -->

<svg
   xmlns:dc="http://purl.org/dc/elements/1.1/"
   xmlns:cc="http://creativecommons.org/ns#"
   xmlns:rdf="http://www.w3.org/1999/02/22-rdf-syntax-ns#"
   xmlns:svg="http://www.w3.org/2000/svg"
   xmlns="http://www.w3.org/2000/svg"
   xmlns:sodipodi="http://sodipodi.sourceforge.net/DTD/sodipodi-0.dtd"
   xmlns:inkscape="http://www.inkscape.org/namespaces/inkscape"
   width="841mm"
   height="594mm"
   viewBox="0 0 841 594"
   version="1.1"
   id="svg8"
   inkscape:version="0.92.3 (2405546, 2018-03-11)"
   sodipodi:docname="Nightingale Logo.svg">
  <defs
     id="defs2">
    <style
       id="style3478">.cls-1,.cls-2,.cls-3{fill:none;}.cls-2,.cls-3{stroke:#000;stroke-miterlimit:10;}.cls-2{stroke-width:3px;}.cls-3{stroke-linecap:round;stroke-width:3px;}</style>
  </defs>
  <sodipodi:namedview
     id="base"
     pagecolor="#ffffff"
     bordercolor="#666666"
     borderopacity="1.0"
     inkscape:pageopacity="0.0"
     inkscape:pageshadow="2"
     inkscape:zoom="0.35"
     inkscape:cx="1657.1429"
     inkscape:cy="1017.1429"
     inkscape:document-units="px"
     inkscape:current-layer="layer1"
     showgrid="false"
     inkscape:pagecheckerboard="true"
     inkscape:window-width="2560"
     inkscape:window-height="1377"
     inkscape:window-x="-8"
     inkscape:window-y="32"
     inkscape:window-maximized="1"
     inkscape:snap-global="true"
     showguides="true"
     inkscape:guide-bbox="true" />
  <metadata
     id="metadata5">
    <rdf:RDF>
      <cc:Work
         rdf:about="">
        <dc:format>image/svg+xml</dc:format>
        <dc:type
           rdf:resource="http://purl.org/dc/dcmitype/StillImage" />
        <dc:title />
      </cc:Work>
    </rdf:RDF>
  </metadata>
  <g
     inkscape:label="Layer 1"
     inkscape:groupmode="layer"
     id="layer1"
     transform="translate(0,297)">
    <rect
       y="893.54559"
       x="-258.71692"
       height="518.50287"
       width="518.50287"
       id="rect4950"
       style="opacity:1;vector-effect:none;fill:#e8830c;fill-opacity:1;fill-rule:nonzero;stroke:none;stroke-width:6.61458302;stroke-linecap:round;stroke-linejoin:round;stroke-miterlimit:4;stroke-dasharray:none;stroke-dashoffset:0;stroke-opacity:1;paint-order:normal"
       inkscape:export-xdpi="96"
       inkscape:export-ydpi="96" />
    <rect
       style="opacity:1;vector-effect:none;fill:#e8830c;fill-opacity:1;fill-rule:nonzero;stroke:none;stroke-width:6.61458302;stroke-linecap:round;stroke-linejoin:round;stroke-miterlimit:4;stroke-dasharray:none;stroke-dashoffset:0;stroke-opacity:1;paint-order:normal"
       id="rect4952"
       width="518.50287"
       height="518.50287"
       x="481.08514"
       y="308.75986"
       inkscape:export-xdpi="96"
       inkscape:export-ydpi="96" />
    <rect
       y="314.10522"
       x="-259.78598"
       height="518.50287"
       width="518.50287"
       id="rect4954"
       style="opacity:1;vector-effect:none;fill:#e8830c;fill-opacity:1;fill-rule:nonzero;stroke:none;stroke-width:6.61458302;stroke-linecap:round;stroke-linejoin:round;stroke-miterlimit:4;stroke-dasharray:none;stroke-dashoffset:0;stroke-opacity:1;paint-order:normal"
       inkscape:export-xdpi="96"
       inkscape:export-ydpi="96" />
    <rect
       y="-1911.5162"
       x="-1938.4872"
       height="492.21359"
       width="513.84937"
       id="rect4260"
       style="opacity:1;vector-effect:none;fill:#ffffff;fill-opacity:1;fill-rule:nonzero;stroke:none;stroke-width:40.76429367;stroke-linecap:round;stroke-linejoin:round;stroke-miterlimit:4;stroke-dasharray:none;stroke-dashoffset:0;stroke-opacity:1;paint-order:markers stroke fill" />
    <path
       sodipodi:nodetypes="cccccsccscccccc"
       inkscape:connector-curvature="0"
       id="path4262"
       d="m -1657.5419,-1814.5485 c 25.5181,9.9603 88.9019,35.4568 94.8483,62.1967 3.4573,-3.3032 6.689,-6.8518 9.2463,-9.8254 3.7529,-4.3639 11.7782,-3.5057 16.9318,-5.4549 13.9522,3.0699 27.9808,3.7862 41.9568,6.1262 -9.5704,-10.153 -50.3447,-24.8797 -37.8559,-35.0169 12.2542,-9.9468 41.6386,-0.8271 57.3813,-2.2161 -13.1767,-8.2801 -25.1492,-18.0063 -39.0288,-25.4425 -8.2187,-13.1493 -23.7693,-24.239 -41.6266,-24.4309 -37.8175,-0.4062 -79.8573,17.3977 -101.8532,34.0638 z m 117.3885,-16.8365 c 2.7127,-0.074 4.9721,2.0642 5.0467,4.7769 0.074,2.7129 -2.0646,4.9725 -4.7775,5.0467 -2.7127,0.074 -4.9719,-2.0647 -5.0462,-4.7774 -0.074,-2.7125 2.0645,-4.9717 4.777,-5.0462 z"
       style="opacity:1;vector-effect:none;fill:#5599ff;fill-opacity:1;fill-rule:nonzero;stroke:none;stroke-width:8.46666622;stroke-linecap:round;stroke-linejoin:round;stroke-miterlimit:4;stroke-dasharray:none;stroke-dashoffset:0;stroke-opacity:1;paint-order:normal" />
    <path
       inkscape:connector-curvature="0"
       id="path4264"
       d="m -1622.7512,-1811.886 c -22.628,-8.0795 -47.2596,-7.9649 -69.5227,-0.1649 l 33.9633,83.3471 z m 14.7799,15.6214 c -2.8379,-1.7463 -5.7892,-3.3522 -8.8475,-4.8092 l -31.6327,74.7127 75.4926,-30.7627 c -7.672,-16.1934 -19.6876,-29.711 -35.0124,-39.1408 z m 28.9686,51.7807 -65.8921,26.8501 65.3219,27.318 c 6.5364,-17.6741 6.592,-36.2687 0.5702,-54.1681 z m -125.1994,-71.8655 c -21.4629,9.7637 -42.9492,29.4594 -54.3904,53.2028 l 91.6433,38.2171 z m 109.0895,131.6026 -54.5737,-22.7928 22.2271,54.5461 c 14.9174,-7.0964 25.2605,-17.9259 32.3466,-31.7533 z m -74.7206,-32.9013 -149.1877,-58.541 c -10.0672,26.4909 -13.1267,89.5532 -4.4376,113.9982 z m 3.556,8.7275 -60.4374,24.628 c 7.0963,14.9174 19.6474,27.6116 34.9214,35.126 z m 7.8634,4.937 -17.6707,41.5465 c 11.1361,3.6034 25.5689,2.8107 34.652,0.1271 z"
       style="fill:#5599ff;stroke:#ffffff;stroke-width:21.16666603;stroke-miterlimit:4;stroke-dasharray:none;paint-order:markers stroke fill" />
    <path
       sodipodi:nodetypes="csscc"
       inkscape:connector-curvature="0"
       id="path4266"
       d="m -1720.7198,-1663.0289 c 3.5038,20.0136 -7.2086,32.7566 -11.5837,44.5753 -0.7759,2.0958 1.2098,2.1735 3.1271,0.9912 10.0962,-6.2258 22.6374,-17.0222 31.07,-26.3838 -8.827,-4.668 -16.5434,-11.2684 -22.6134,-19.1827 z"
       style="opacity:1;vector-effect:none;fill:#5599ff;fill-opacity:1;fill-rule:nonzero;stroke:none;stroke-width:3.81663656;stroke-linecap:round;stroke-linejoin:round;stroke-miterlimit:4;stroke-dasharray:none;stroke-dashoffset:0;stroke-opacity:1;paint-order:normal" />
    <path
       sodipodi:nodetypes="ccssc"
       inkscape:connector-curvature="0"
       id="path4268"
       d="m -1646.4921,-1654.1396 c -7.5849,0.9938 -16.4847,0.9897 -24.7009,-0.5575 1.5126,12.5118 -0.4875,23.4329 -0.7403,34.6556 -0.029,1.2787 0.917,1.985 3.139,-0.479 6.3878,-7.0836 17.3483,-24.3004 22.3022,-33.6191 z"
       style="opacity:1;vector-effect:none;fill:#5599ff;fill-opacity:1;fill-rule:nonzero;stroke:none;stroke-width:3.45356917;stroke-linecap:round;stroke-linejoin:round;stroke-miterlimit:4;stroke-dasharray:none;stroke-dashoffset:0;stroke-opacity:1;paint-order:normal" />
    <text
       id="text4272"
       y="-1550.1985"
       x="-1807.4286"
       style="font-style:normal;font-variant:normal;font-weight:normal;font-stretch:normal;font-size:57.28319168px;line-height:1.25;font-family:Oswald;-inkscape-font-specification:Oswald;font-variant-ligatures:normal;font-variant-position:normal;font-variant-caps:normal;font-variant-numeric:normal;font-variant-alternates:normal;font-feature-settings:normal;text-indent:0;text-align:start;text-decoration:none;text-decoration-line:none;text-decoration-style:solid;text-decoration-color:#000000;letter-spacing:normal;word-spacing:normal;text-transform:none;writing-mode:lr-tb;direction:ltr;text-orientation:mixed;dominant-baseline:auto;baseline-shift:baseline;text-anchor:start;white-space:normal;shape-padding:0;opacity:1;vector-effect:none;fill:#666666;fill-opacity:1;fill-rule:nonzero;stroke:none;stroke-width:134.25749207;stroke-linecap:round;stroke-linejoin:round;stroke-miterlimit:4;stroke-dasharray:none;stroke-dashoffset:0;stroke-opacity:1;paint-order:markers stroke fill"
       xml:space="preserve"><tspan
         style="font-style:normal;font-variant:normal;font-weight:normal;font-stretch:normal;font-family:Oswald;-inkscape-font-specification:Oswald;text-align:start;text-anchor:start;fill:#666666;stroke-width:134.25749207"
         y="-1550.1985"
         x="-1807.4286"
         id="tspan4270"
         sodipodi:role="line">Nightingale</tspan></text>
    <text
       transform="scale(1.2247449,0.81649657)"
       xml:space="preserve"
       style="font-style:normal;font-variant:normal;font-weight:normal;font-stretch:normal;font-size:20.94214439px;line-height:1.25;font-family:Oswald;-inkscape-font-specification:Oswald;font-variant-ligatures:normal;font-variant-position:normal;font-variant-caps:normal;font-variant-numeric:normal;font-variant-alternates:normal;font-feature-settings:normal;text-indent:0;text-align:start;text-decoration:none;text-decoration-line:none;text-decoration-style:solid;text-decoration-color:#000000;letter-spacing:normal;word-spacing:normal;text-transform:none;writing-mode:lr-tb;direction:ltr;text-orientation:mixed;dominant-baseline:auto;baseline-shift:baseline;text-anchor:start;white-space:normal;shape-padding:0;opacity:1;vector-effect:none;fill:#5599ff;fill-opacity:1;fill-rule:nonzero;stroke:none;stroke-width:49.08315277;stroke-linecap:round;stroke-linejoin:round;stroke-miterlimit:4;stroke-dasharray:none;stroke-dashoffset:0;stroke-opacity:1;paint-order:markers stroke fill"
       x="-1487.8448"
       y="-1864.4692"
       id="text4276"><tspan
         sodipodi:role="line"
         id="tspan4274"
         x="-1487.8448"
         y="-1864.4692"
         style="font-style:normal;font-variant:normal;font-weight:normal;font-stretch:normal;font-family:'Arial Narrow';-inkscape-font-specification:'Arial Narrow';text-align:start;text-anchor:start;fill:#5599ff;fill-opacity:1;stroke-width:49.08315277">Helping you do data science</tspan></text>
    <path
       inkscape:connector-curvature="0"
       id="path4278"
       d="m -1463.4149,-1747.0703 a 65.401591,65.401591 0 0 1 43.9637,16.2103 l 40.2564,-5.3402 c 4.41,-0.5866 5.4821,1.5576 2.387,4.7336 l -24.275,24.9023 30.364,-4.8147 c 4.3898,-0.708 5.5231,1.396 2.5089,4.6731 l -29.2117,31.7397 a 65.442051,65.442051 0 0 1 -41.0657,54.0732 l -6.8977,16.7499 a 11.611665,11.611665 0 0 1 -1.0522,2.0231 c 24.6394,0.2832 43.1292,1.5169 43.1292,2.9735 0,1.4565 -24.2752,3.0344 -54.3765,3.0344 -30.1014,0 -54.3766,-1.3554 -54.3766,-3.0344 0,-1.6791 17.3768,-2.6095 40.8833,-2.9332 a 10.519279,10.519279 0 0 1 -0.4651,-2.7104 l -0.7891,-12.2794 a 65.077921,65.077921 0 0 1 -30.3438,-13.0684 l -17.3571,19.9057 a 8.961616,8.961616 0 0 1 -12.6432,0.7891 l -18.2066,-16.1835 c -3.6615,-3.2974 -2.9535,-7.5252 1.5172,-9.4268 l 30.8906,-12.8659 a 65.401591,65.401591 0 0 1 55.16,-99.151 z m 23.4817,24.259 a 8.6924953,8.6924953 0 0 0 -8.6925,8.6925 8.6924953,8.6924953 0 0 0 8.6925,8.6924 8.6924953,8.6924953 0 0 0 8.6925,-8.6924 8.6924953,8.6924953 0 0 0 -8.6925,-8.6925 z m -10.2464,105.2969 a 65.705031,65.705031 0 0 1 -12.2995,1.2133 h -0.1214 l -5.0168,12.1378 a 11.631895,11.631895 0 0 1 -1.0521,2.0231 h 10.9849 8.7591 a 10.620426,10.620426 0 0 1 -0.4449,-2.6701 z"
       style="stroke-width:2.02293825" />
    <rect
       y="-1343.0858"
       x="-2127.3083"
       height="492.21359"
       width="513.84937"
       id="rect4329"
       style="opacity:1;vector-effect:none;fill:#ffffff;fill-opacity:1;fill-rule:nonzero;stroke:none;stroke-width:40.76429367;stroke-linecap:round;stroke-linejoin:round;stroke-miterlimit:4;stroke-dasharray:none;stroke-dashoffset:0;stroke-opacity:1;paint-order:markers stroke fill" />
    <text
       id="text4333"
       y="-981.76807"
       x="-1996.2498"
       style="font-style:normal;font-variant:normal;font-weight:normal;font-stretch:normal;font-size:57.28319168px;line-height:1.25;font-family:Oswald;-inkscape-font-specification:Oswald;font-variant-ligatures:normal;font-variant-position:normal;font-variant-caps:normal;font-variant-numeric:normal;font-variant-alternates:normal;font-feature-settings:normal;text-indent:0;text-align:start;text-decoration:none;text-decoration-line:none;text-decoration-style:solid;text-decoration-color:#000000;letter-spacing:normal;word-spacing:normal;text-transform:none;writing-mode:lr-tb;direction:ltr;text-orientation:mixed;dominant-baseline:auto;baseline-shift:baseline;text-anchor:start;white-space:normal;shape-padding:0;opacity:1;vector-effect:none;fill:#666666;fill-opacity:1;fill-rule:nonzero;stroke:none;stroke-width:134.25749207;stroke-linecap:round;stroke-linejoin:round;stroke-miterlimit:4;stroke-dasharray:none;stroke-dashoffset:0;stroke-opacity:1;paint-order:markers stroke fill"
       xml:space="preserve"><tspan
         style="font-style:normal;font-variant:normal;font-weight:normal;font-stretch:normal;font-family:Oswald;-inkscape-font-specification:Oswald;text-align:start;text-anchor:start;fill:#666666;stroke-width:134.25749207"
         y="-981.76807"
         x="-1996.2498"
         id="tspan4331"
         sodipodi:role="line">Nightingale</tspan></text>
    <text
       transform="scale(1.2247449,0.81649657)"
       xml:space="preserve"
       style="font-style:normal;font-variant:normal;font-weight:normal;font-stretch:normal;font-size:20.94214439px;line-height:1.25;font-family:Oswald;-inkscape-font-specification:Oswald;font-variant-ligatures:normal;font-variant-position:normal;font-variant-caps:normal;font-variant-numeric:normal;font-variant-alternates:normal;font-feature-settings:normal;text-indent:0;text-align:start;text-decoration:none;text-decoration-line:none;text-decoration-style:solid;text-decoration-color:#000000;letter-spacing:normal;word-spacing:normal;text-transform:none;writing-mode:lr-tb;direction:ltr;text-orientation:mixed;dominant-baseline:auto;baseline-shift:baseline;text-anchor:start;white-space:normal;shape-padding:0;opacity:1;vector-effect:none;fill:#ff6600;fill-opacity:1;fill-rule:nonzero;stroke:none;stroke-width:49.08315277;stroke-linecap:round;stroke-linejoin:round;stroke-miterlimit:4;stroke-dasharray:none;stroke-dashoffset:0;stroke-opacity:1;paint-order:markers stroke fill"
       x="-1642.0167"
       y="-1168.287"
       id="text4337"><tspan
         sodipodi:role="line"
         id="tspan4335"
         x="-1642.0167"
         y="-1168.287"
         style="font-style:normal;font-variant:normal;font-weight:normal;font-stretch:normal;font-family:'Arial Narrow';-inkscape-font-specification:'Arial Narrow';text-align:start;text-anchor:start;fill:#ff6600;fill-opacity:1;stroke-width:49.08315277">Helping you do data science</tspan></text>
    <path
       id="path4339"
       d="m -1843.6395,-1252.0975 c -46.1016,0.6097 -82.6215,39.1255 -80.7795,85.1943 22.6859,12.8561 37.0656,37.9542 37.531,65.5061 4.5842,2.9617 9.4541,5.4555 14.5366,7.444 11.8158,-12.721 50.8492,-13.1888 56.4994,-7.5386 1.9029,1.9029 2.271,4.8113 2.6406,7.6192 0.2479,-0.01 0.4822,-0.016 0.739,-0.018 l 0.06,-0.1457 c 28.4357,-11.2216 48.2656,-37.3327 51.4423,-67.737 l 36.5937,-39.7603 c 3.7758,-4.1053 2.3561,-6.7409 -3.143,-5.8539 l -38.0369,6.0311 30.409,-31.195 c 3.8771,-3.9786 2.5343,-6.6642 -2.99,-5.9293 l -50.429,6.6895 c -16.9406,-16.5347 -35.575,-16.6383 -55.8107,-16.373 z m 29.4158,30.3894 c 6.0136,2e-4 10.8886,4.8751 10.8888,10.8887 10e-5,6.0139 -4.875,10.8891 -10.8888,10.8893 -6.014,10e-5 -10.8894,-4.8752 -10.8893,-10.8893 2e-4,-6.0138 4.8755,-10.8888 10.8893,-10.8887 z"
       style="fill:#ff6600;stroke-width:2.53412533"
       inkscape:connector-curvature="0"
       sodipodi:nodetypes="ccccsccccccccccccccccc" />
    <path
       inkscape:connector-curvature="0"
       id="path4341"
       d="m -1843.5923,-1245.598 c -21.2476,-1.728 -42.3306,4.0264 -59.6189,15.8233 l 48.2459,63.6295 z m 16.2536,9.9935 c -2.8331,-0.8449 -5.7311,-1.5434 -8.6866,-2.0897 l -9.9529,71.2928 57.6332,-43.6993 c -10.2935,-12.116 -23.695,-20.9414 -38.9937,-25.5038 z m 36.7166,37.724 -50.3039,38.1417 62.2541,8.4114 c 1.5431,-16.6477 -2.6792,-32.5961 -11.9502,-46.5531 z m -123.7986,-32.8389 c -16.1517,13.2961 -30.0427,35.1093 -34.3956,58.0847 l 87.3143,11.7078 z m 123.7101,87.7331 -52.0038,-7.0016 31.5743,41.642 c 11.1546,-9.5071 17.5319,-21.1631 20.4295,-34.6404 z m -71.5909,-11.0382 -141.2969,-15.9113 c -2.5445,25.0145 9.3146,79.7615 22.3746,98.7156 z m 5.0516,6.6629 -46.1395,34.9847 c 9.5071,11.1546 23.1784,19.1515 37.9938,22.0839 z m 7.8727,2.4253 -5.6035,39.6632 c 10.3712,0.531 22.5581,-3.4627 29.7261,-7.8483 z"
       style="fill:#ff6600;stroke:#ffffff;stroke-width:21.16666603;stroke-miterlimit:4;stroke-dasharray:none;paint-order:markers stroke fill" />
    <circle
       r="10.257146"
       cy="-1220.5786"
       cx="-1824.7185"
       id="circle4343"
       style="opacity:1;vector-effect:none;fill:#ffffff;fill-opacity:1;fill-rule:nonzero;stroke:none;stroke-width:21.16666603;stroke-linecap:round;stroke-linejoin:round;stroke-miterlimit:4;stroke-dasharray:none;stroke-dashoffset:0;stroke-opacity:1;paint-order:markers stroke fill" />
    <path
       inkscape:connector-curvature="0"
       id="path4345"
       d="m -1813.3093,-1088.2587 c -6.137,-0.685 -13.8819,2.098 -21.4151,4.8187 l 2.5602,23.4664 a 21.996153,21.996153 0 0 0 0.9949,4.9362 l 2.0925,0.2893 3.5971,-0.6297 a 24.049126,24.049126 0 0 0 1.6231,-3.5873 z m -56.0367,7.1367 c -3.8723,-0.6679 -7.704,-1.1001 -11.5174,-0.6154 l 2.6185,23.8829 a 21.786666,21.786666 0 0 0 0.8236,4.3628 c 1.4032,0.1671 2.0306,0.3208 2.0306,0.3208 l 4.1659,-0.6623 a 24.091025,24.091025 0 0 0 1.3676,-3.1 l 8.2294,-22.7639 c -2.5943,-0.4475 -5.1656,-0.9846 -7.7182,-1.4249 z"
       style="fill:#ff6600;stroke-width:4.189744" />
    <rect
       y="-2211.323"
       x="-1330.448"
       height="492.21359"
       width="513.84937"
       id="rect3378"
       style="opacity:1;vector-effect:none;fill:#ffffff;fill-opacity:1;fill-rule:nonzero;stroke:none;stroke-width:40.76429367;stroke-linecap:round;stroke-linejoin:round;stroke-miterlimit:4;stroke-dasharray:none;stroke-dashoffset:0;stroke-opacity:1;paint-order:markers stroke fill" />
    <text
       id="text3382"
       y="-1850.0052"
       x="-1199.3893"
       style="font-style:normal;font-variant:normal;font-weight:normal;font-stretch:normal;font-size:57.28319168px;line-height:1.25;font-family:Oswald;-inkscape-font-specification:Oswald;font-variant-ligatures:normal;font-variant-position:normal;font-variant-caps:normal;font-variant-numeric:normal;font-variant-alternates:normal;font-feature-settings:normal;text-indent:0;text-align:start;text-decoration:none;text-decoration-line:none;text-decoration-style:solid;text-decoration-color:#000000;letter-spacing:normal;word-spacing:normal;text-transform:none;writing-mode:lr-tb;direction:ltr;text-orientation:mixed;dominant-baseline:auto;baseline-shift:baseline;text-anchor:start;white-space:normal;shape-padding:0;opacity:1;vector-effect:none;fill:#666666;fill-opacity:1;fill-rule:nonzero;stroke:none;stroke-width:134.25749207;stroke-linecap:round;stroke-linejoin:round;stroke-miterlimit:4;stroke-dasharray:none;stroke-dashoffset:0;stroke-opacity:1;paint-order:markers stroke fill"
       xml:space="preserve"><tspan
         style="font-style:normal;font-variant:normal;font-weight:normal;font-stretch:normal;font-family:Oswald;-inkscape-font-specification:Oswald;text-align:start;text-anchor:start;fill:#666666;stroke-width:134.25749207"
         y="-1850.0052"
         x="-1199.3893"
         id="tspan3380"
         sodipodi:role="line">Nightingale</tspan></text>
    <text
       transform="scale(1.2247449,0.81649657)"
       xml:space="preserve"
       style="font-style:normal;font-variant:normal;font-weight:normal;font-stretch:normal;font-size:20.94214439px;line-height:1.25;font-family:Oswald;-inkscape-font-specification:Oswald;font-variant-ligatures:normal;font-variant-position:normal;font-variant-caps:normal;font-variant-numeric:normal;font-variant-alternates:normal;font-feature-settings:normal;text-indent:0;text-align:start;text-decoration:none;text-decoration-line:none;text-decoration-style:solid;text-decoration-color:#000000;letter-spacing:normal;word-spacing:normal;text-transform:none;writing-mode:lr-tb;direction:ltr;text-orientation:mixed;dominant-baseline:auto;baseline-shift:baseline;text-anchor:start;white-space:normal;shape-padding:0;opacity:1;vector-effect:none;fill:#ff7f2a;fill-opacity:1;fill-rule:nonzero;stroke:none;stroke-width:49.08315277;stroke-linecap:round;stroke-linejoin:round;stroke-miterlimit:4;stroke-dasharray:none;stroke-dashoffset:0;stroke-opacity:1;paint-order:markers stroke fill"
       x="-991.38287"
       y="-2231.656"
       id="text3386"><tspan
         sodipodi:role="line"
         id="tspan3384"
         x="-991.38287"
         y="-2231.656"
         style="font-style:normal;font-variant:normal;font-weight:normal;font-stretch:normal;font-family:'Arial Narrow';-inkscape-font-specification:'Arial Narrow';text-align:start;text-anchor:start;fill:#ff7f2a;fill-opacity:1;stroke-width:49.08315277">Helping you do data science</tspan></text>
    <g
       transform="translate(-1372.8095,-1985.131)"
       id="g3398">
      <path
         inkscape:connector-curvature="0"
         id="path3388"
         d="m 310.73297,28.382984 -13.57838,7.240281 c 0,0 -2.39918,33.514225 2.25411,42.67585 0.92658,1.82431 2.63987,1.188901 3.60753,-0.511385 5.95246,-10.458957 7.71674,-49.404746 7.71674,-49.404746 z"
         style="fill:#ff7f2a;stroke-width:4.08944321" />
      <path
         style="fill:#ff7f2a;stroke-width:4.74271154"
         d="m 340.97106,28.005008 -15.74746,8.39688 c 0,0 -2.78244,38.867956 2.61419,49.493105 1.0746,2.115734 3.06158,1.378822 4.18382,-0.593076 6.90333,-12.129724 8.94945,-57.296909 8.94945,-57.296909 z"
         id="path3390"
         inkscape:connector-curvature="0" />
      <path
         sodipodi:nodetypes="ccccscccccccccccccccc"
         inkscape:connector-curvature="0"
         style="fill:#ff7f2a;stroke-width:2.53412533"
         d="m 302.90846,-90.204971 c -46.10161,0.60964 -59.49951,11.135604 -57.65751,57.20444 22.68589,12.856102 37.06559,37.9542166 37.53105,65.506073 4.58414,2.961666 9.45409,5.455497 14.53658,7.443999 11.81579,-12.720955 41.63511,-51.783475 47.28534,-46.1332454 1.90288,1.902883 11.48504,43.4059474 11.85469,46.2138644 0.24784,-0.009 14.04247,-54.257058 14.29927,-54.258638 l 27.73668,-1.546268 46.799,-51.855601 c 3.77582,-4.105281 2.35609,-6.740856 -3.14298,-5.853907 l -38.03695,6.031156 30.40901,-31.194993 c 3.87718,-3.978589 2.53437,-6.664259 -2.99,-5.929359 l -63.46772,7.384919 c -16.94063,-16.534709 -18.19003,8.74378 -38.42571,9.00909 z m 52.53783,2.39952 c 6.01361,1.7e-4 10.88858,4.875125 10.88874,10.888739 1.1e-4,6.013818 -4.87492,10.889088 -10.88874,10.889258 -6.01403,1.21e-4 -10.88938,-4.875234 -10.88927,-10.889258 1.6e-4,-6.01382 4.87545,-10.888859 10.88927,-10.888739 z"
         id="path3392" />
      <path
         style="fill:#ff7f2a;stroke:#ffffff;stroke-width:21.16666603;stroke-miterlimit:4;stroke-dasharray:none;paint-order:markers stroke fill"
         d="m 326.07768,-111.69534 c -21.24756,-1.72805 -42.33056,4.0264 -59.61893,15.823309 l 48.24589,63.62952 z m 16.25361,9.99351 c -2.8331,-0.84488 -5.73113,-1.54346 -8.68665,-2.08974 l -9.95283,71.292807 57.63318,-43.699287 c -10.29348,-12.115991 -23.69498,-20.941421 -38.9937,-25.50378 z m 36.7166,37.724018 -50.3039,38.141626 62.25407,8.411462 c 1.5431,-16.647699 -2.67918,-32.596073 -11.95017,-46.553088 z M 255.24928,-96.816711 c -16.15172,13.29611 -30.04272,35.109247 -34.39559,58.084651 l 87.31432,11.707813 z m 123.7101,87.7330226 -52.00376,-7.0015586 31.57422,41.642009 C 369.68451,16.04968 376.06178,4.3936436 378.95938,-9.0836884 Z M 307.36845,-20.121824 166.07154,-36.033108 c -2.54445,25.014419 9.31468,79.761478 22.37461,98.71558 z m 5.05162,6.662895 -46.13951,34.984699 c 9.5071,11.154623 23.17841,19.151453 37.9938,22.083899 z m 7.87266,2.425302 -5.60341,39.66322 c 10.3712,0.530915 22.55806,-3.462693 29.72605,-7.848307 z"
         id="path3394"
         inkscape:connector-curvature="0" />
      <circle
         style="opacity:1;vector-effect:none;fill:#ffffff;fill-opacity:1;fill-rule:nonzero;stroke:none;stroke-width:21.16666603;stroke-linecap:round;stroke-linejoin:round;stroke-miterlimit:4;stroke-dasharray:none;stroke-dashoffset:0;stroke-opacity:1;paint-order:markers stroke fill"
         id="circle3396"
         cx="349.86871"
         cy="-80.775307"
         r="10.257146" />
    </g>
    <rect
       y="-2600.3501"
       x="-698.23529"
       height="492.21359"
       width="513.84937"
       id="rect3415"
       style="opacity:1;vector-effect:none;fill:#ffffff;fill-opacity:1;fill-rule:nonzero;stroke:none;stroke-width:40.76429367;stroke-linecap:round;stroke-linejoin:round;stroke-miterlimit:4;stroke-dasharray:none;stroke-dashoffset:0;stroke-opacity:1;paint-order:markers stroke fill" />
    <text
       id="text3419"
       y="-2239.0325"
       x="-567.1767"
       style="font-style:normal;font-variant:normal;font-weight:normal;font-stretch:normal;font-size:57.28319168px;line-height:1.25;font-family:Oswald;-inkscape-font-specification:Oswald;font-variant-ligatures:normal;font-variant-position:normal;font-variant-caps:normal;font-variant-numeric:normal;font-variant-alternates:normal;font-feature-settings:normal;text-indent:0;text-align:start;text-decoration:none;text-decoration-line:none;text-decoration-style:solid;text-decoration-color:#000000;letter-spacing:normal;word-spacing:normal;text-transform:none;writing-mode:lr-tb;direction:ltr;text-orientation:mixed;dominant-baseline:auto;baseline-shift:baseline;text-anchor:start;white-space:normal;shape-padding:0;opacity:1;vector-effect:none;fill:#666666;fill-opacity:1;fill-rule:nonzero;stroke:none;stroke-width:134.25749207;stroke-linecap:round;stroke-linejoin:round;stroke-miterlimit:4;stroke-dasharray:none;stroke-dashoffset:0;stroke-opacity:1;paint-order:markers stroke fill"
       xml:space="preserve"><tspan
         style="font-style:normal;font-variant:normal;font-weight:normal;font-stretch:normal;font-family:Oswald;-inkscape-font-specification:Oswald;text-align:start;text-anchor:start;fill:#666666;stroke-width:134.25749207"
         y="-2239.0325"
         x="-567.1767"
         id="tspan3417"
         sodipodi:role="line">Nightingale</tspan></text>
    <text
       transform="scale(1.2247449,0.81649657)"
       xml:space="preserve"
       style="font-style:normal;font-variant:normal;font-weight:normal;font-stretch:normal;font-size:20.94214439px;line-height:1.25;font-family:Oswald;-inkscape-font-specification:Oswald;font-variant-ligatures:normal;font-variant-position:normal;font-variant-caps:normal;font-variant-numeric:normal;font-variant-alternates:normal;font-feature-settings:normal;text-indent:0;text-align:start;text-decoration:none;text-decoration-line:none;text-decoration-style:solid;text-decoration-color:#000000;letter-spacing:normal;word-spacing:normal;text-transform:none;writing-mode:lr-tb;direction:ltr;text-orientation:mixed;dominant-baseline:auto;baseline-shift:baseline;text-anchor:start;white-space:normal;shape-padding:0;opacity:1;vector-effect:none;fill:#e8830c;fill-opacity:1;fill-rule:nonzero;stroke:none;stroke-width:49.08315277;stroke-linecap:round;stroke-linejoin:round;stroke-miterlimit:4;stroke-dasharray:none;stroke-dashoffset:0;stroke-opacity:1;paint-order:markers stroke fill"
       x="-475.18335"
       y="-2708.115"
       id="text3423"><tspan
         sodipodi:role="line"
         id="tspan3421"
         x="-475.18335"
         y="-2708.115"
         style="font-style:normal;font-variant:normal;font-weight:normal;font-stretch:normal;font-family:'Arial Narrow';-inkscape-font-specification:'Arial Narrow';text-align:start;text-anchor:start;fill:#e8830c;fill-opacity:1;stroke-width:49.08315277">Helping you do data science</tspan></text>
    <path
       id="path3425"
       d="m -307.19056,-2478.8551 c -0.5578,-0.011 -1.1832,0.028 -1.8738,0.1194 l -57.9954,6.7484 c 5.8136,4.2683 11.133,9.2218 15.8538,14.7785 l 7.2425,8.5271 -7.9551,6.0317 c 9.3901,14.7028 14.0608,31.6381 13.0726,49.1091 l 43.5426,-48.2477 c 3.7758,-4.1053 2.3561,-6.7409 -3.143,-5.8539 l -38.0369,6.0311 30.4089,-31.1949 c 3.3926,-3.4813 2.7888,-5.9726 -1.1162,-6.0488 z m -92.8088,139.1181 c -4.7576,1.9272 -10.0065,3.4098 -15.5112,4.1714 -0.4867,8.2644 -1.8851,38.1743 2.7513,47.3025 1.0746,2.1157 3.062,1.3787 4.1842,-0.5932 5.2971,-9.3074 7.7284,-38.0012 8.5757,-50.8807 z m -44.0541,18.2212 c -0.057,9.7334 0.4621,20.9251 2.8654,25.6568 0.9266,1.8243 2.6399,1.1892 3.6076,-0.5111 2.4397,-4.2868 4.1748,-13.3594 5.3743,-22.5743 l -6.1717,-1.2216 c -1.9126,-0.3786 -3.805,-0.832 -5.6756,-1.3498 z"
       style="fill:#e8830c;fill-opacity:1;stroke-width:4.08944321"
       inkscape:connector-curvature="0" />
    <path
       id="path3427"
       d="m -422.47236,-2486.1533 c -18.506,0.105 -36.53826,5.8007 -51.66559,16.123 l 48.24569,63.6297 11.3729,-79.453 c -2.656,-0.216 -5.3093,-0.3147 -7.953,-0.2997 z m 15.52,8.2036 -9.9529,71.2928 57.6332,-43.6991 c -10.2935,-12.116 -23.6948,-20.9415 -38.9935,-25.5039 -2.8331,-0.8449 -5.7313,-1.5435 -8.6868,-2.0898 z m -78.39524,6.9748 c -16.15172,13.2961 -30.04245,35.1094 -34.39531,58.0848 l 87.31405,11.7078 z m 94.61954,5.7846 a 10.257146,10.257146 0 0 1 10.2572,10.2568 10.257146,10.257146 0 0 1 -10.2572,10.2572 10.257146,10.257146 0 0 1 -10.2572,-10.2572 10.257146,10.257146 0 0 1 10.2572,-10.2568 z m 29.1791,27.0542 -50.3039,38.1418 62.2541,8.4114 c 1.5431,-16.6477 -2.6792,-32.5962 -11.9502,-46.5532 z m -212.97614,27.9451 c -2.54445,25.0144 9.31442,79.7613 22.37434,98.7154 l 118.9225,-82.8043 z m 160.88374,19.9476 31.5743,41.6419 c 11.1546,-9.5071 17.5321,-21.163 20.4297,-34.6403 z m -14.5356,2.6262 -46.13927,34.9849 c 9.50711,11.1546 23.17815,19.1515 37.99357,22.0839 z m 7.8729,2.4257 -5.6032,39.6632 c 10.3712,0.5309 22.5578,-3.463 29.7258,-7.8486 z"
       style="fill:#e8830c;fill-opacity:1;stroke:none;stroke-width:21.16666603;stroke-miterlimit:4;stroke-dasharray:none;paint-order:markers stroke fill"
       inkscape:connector-curvature="0" />
    <rect
       style="opacity:1;vector-effect:none;fill:#ffffff;fill-opacity:1;fill-rule:nonzero;stroke:none;stroke-width:40.76429367;stroke-linecap:round;stroke-linejoin:round;stroke-miterlimit:4;stroke-dasharray:none;stroke-dashoffset:0;stroke-opacity:1;paint-order:markers stroke fill"
       id="rect3419"
       width="513.84937"
       height="492.21359"
       x="207.09488"
       y="-229.46707" />
    <text
       xml:space="preserve"
       style="font-style:normal;font-variant:normal;font-weight:normal;font-stretch:normal;font-size:57.28319168px;line-height:1.25;font-family:Oswald;-inkscape-font-specification:Oswald;font-variant-ligatures:normal;font-variant-position:normal;font-variant-caps:normal;font-variant-numeric:normal;font-variant-alternates:normal;font-feature-settings:normal;text-indent:0;text-align:start;text-decoration:none;text-decoration-line:none;text-decoration-style:solid;text-decoration-color:#000000;letter-spacing:normal;word-spacing:normal;text-transform:none;writing-mode:lr-tb;direction:ltr;text-orientation:mixed;dominant-baseline:auto;baseline-shift:baseline;text-anchor:start;white-space:normal;shape-padding:0;opacity:1;vector-effect:none;fill:#3f76a7;fill-opacity:1;fill-rule:nonzero;stroke:none;stroke-width:134.25749207;stroke-linecap:round;stroke-linejoin:round;stroke-miterlimit:4;stroke-dasharray:none;stroke-dashoffset:0;stroke-opacity:1;paint-order:markers stroke fill;"
       x="338.15359"
       y="131.85068"
       id="text3424"><tspan
         sodipodi:role="line"
         id="tspan3422"
         x="338.15359"
         y="131.85068"
         style="font-style:normal;font-variant:normal;font-weight:normal;font-stretch:normal;font-family:Oswald;-inkscape-font-specification:Oswald;text-align:start;text-anchor:start;fill:#3f76a7;stroke-width:134.25749207;fill-opacity:1;">Nightingale</tspan></text>
    <text
       id="text3428"
       y="195.61191"
       x="264.01559"
       style="font-style:normal;font-variant:normal;font-weight:normal;font-stretch:normal;font-size:20.94214439px;line-height:1.25;font-family:Oswald;-inkscape-font-specification:Oswald;font-variant-ligatures:normal;font-variant-position:normal;font-variant-caps:normal;font-variant-numeric:normal;font-variant-alternates:normal;font-feature-settings:normal;text-indent:0;text-align:start;text-decoration:none;text-decoration-line:none;text-decoration-style:solid;text-decoration-color:#000000;letter-spacing:normal;word-spacing:normal;text-transform:none;writing-mode:lr-tb;direction:ltr;text-orientation:mixed;dominant-baseline:auto;baseline-shift:baseline;text-anchor:start;white-space:normal;shape-padding:0;opacity:1;vector-effect:none;fill:#e8830c;fill-opacity:1;fill-rule:nonzero;stroke:none;stroke-width:49.08315277;stroke-linecap:round;stroke-linejoin:round;stroke-miterlimit:4;stroke-dasharray:none;stroke-dashoffset:0;stroke-opacity:1;paint-order:markers stroke fill"
       xml:space="preserve"
       transform="scale(1.2247449,0.81649657)"><tspan
         style="font-style:normal;font-variant:normal;font-weight:normal;font-stretch:normal;font-family:'Arial Narrow';-inkscape-font-specification:'Arial Narrow';text-align:start;text-anchor:start;fill:#e8830c;fill-opacity:1;stroke-width:49.08315277"
         y="195.61191"
         x="264.01559"
         id="tspan3426"
         sodipodi:role="line">Helping you do data science</tspan></text>
    <g
       id="g3410">
      <path
         inkscape:connector-curvature="0"
         id="path3436"
         d="m 477.54989,-115.27053 c -18.50599,0.10507 -36.53878,5.80127 -51.66611,16.123568 l 48.24616,63.62919 11.37295,-79.452518 c -2.65595,-0.216 -5.30929,-0.31525 -7.953,-0.30024 z m 15.51998,8.20364 -9.95288,71.292803 57.63317,-43.699141 c -10.29348,-12.11599 -23.69476,-20.941512 -38.99348,-25.503872 -2.8331,-0.84488 -5.73129,-1.54351 -8.68681,-2.08979 z m -78.39522,6.97528 c -16.15172,13.296113 -30.04296,35.108913 -34.39583,58.08431 l 87.31457,11.707813 z m 94.61904,5.784145 a 10.257146,10.257146 0 0 1 10.25725,10.257255 10.257146,10.257146 0 0 1 -10.25725,10.256737 10.257146,10.257146 0 0 1 -10.25674,-10.256737 10.257146,10.257146 0 0 1 10.25674,-10.257255 z m 37.46489,23.045621 -58.96746,43.662451 70.91763,8.937955 c 1.54311,-16.647699 -2.67918,-38.643395 -11.95017,-52.600406 z M 325.49663,-39.30824 c -2.54444,25.01442 9.31495,79.761312 22.37486,98.715427 l 118.92195,-82.804253 z m 160.88424,19.948138 31.5743,41.641908 c 11.15467,-9.507087 17.53165,-21.1634647 20.42925,-34.640787 z m -14.53554,2.626196 -46.13983,34.984415 c 9.50712,11.154648 23.17868,19.151494 37.99407,22.083924 z m 7.87238,2.425174 -5.60327,39.663224 c 10.3712,0.530886 22.55836,-3.462496 29.72635,-7.848124 z"
         style="fill:#e8830c;fill-opacity:1;stroke:none;stroke-width:21.16666603;stroke-miterlimit:4;stroke-dasharray:none;paint-order:markers stroke fill" />
      <path
         id="path3465"
         d="m 592.83123,-107.97174 c -0.55785,-0.0109 -1.18273,0.0275 -1.87327,0.11937 l -58.02282,6.75101 a 86.728958,81.383567 0 0 1 36.59467,66.33858 86.728958,81.383567 0 0 1 -0.16124,3.027206 l 35.3503,-39.169702 c 3.77582,-4.10528 2.35611,-6.740855 -3.14296,-5.853906 l -38.03695,6.031156 30.40899,-31.194994 c 3.39254,-3.48126 2.78819,-5.9726 -1.11672,-6.04872 z"
         style="fill:#e8830c;fill-opacity:1;stroke-width:4.08944321"
         inkscape:connector-curvature="0" />
      <path
         id="path3455"
         d="m 500.02191,31.146882 c -4.75755,1.926829 -10.00641,3.409342 -15.51069,4.170813 -0.48663,8.265107 -1.88447,38.173977 2.75177,47.302022 1.0746,2.115741 3.06149,1.379168 4.18373,-0.592719 5.2969,-9.307116 7.72774,-37.999961 8.57519,-50.880116 z m -44.0552,18.220082 c -0.0571,9.731401 0.46357,20.924837 2.86701,25.656831 0.92658,1.824302 2.63987,1.189222 3.60753,-0.511069 2.44038,-4.28797 4.17369,-13.358892 5.37229,-22.57433 l -6.1681,-1.221131 c -1.91367,-0.378778 -3.8071,-0.832062 -5.67873,-1.350301 z"
         style="fill:#e8830c;fill-opacity:1;stroke-width:4.08944321"
         inkscape:connector-curvature="0" />
    </g>
    <g
       id="g3417"
       inkscape:export-xdpi="96"
       inkscape:export-ydpi="96"
       transform="translate(521.60714,-373.44048)">
      <text
         xml:space="preserve"
         style="font-style:normal;font-variant:normal;font-weight:normal;font-stretch:normal;font-size:57.28319168px;line-height:1.25;font-family:Oswald;-inkscape-font-specification:Oswald;font-variant-ligatures:normal;font-variant-position:normal;font-variant-caps:normal;font-variant-numeric:normal;font-variant-alternates:normal;font-feature-settings:normal;text-indent:0;text-align:start;text-decoration:none;text-decoration-line:none;text-decoration-style:solid;text-decoration-color:#000000;letter-spacing:normal;word-spacing:normal;text-transform:none;writing-mode:lr-tb;direction:ltr;text-orientation:mixed;dominant-baseline:auto;baseline-shift:baseline;text-anchor:start;white-space:normal;shape-padding:0;opacity:1;vector-effect:none;fill:#666666;fill-opacity:1;fill-rule:nonzero;stroke:none;stroke-width:134.25749207;stroke-linecap:round;stroke-linejoin:round;stroke-miterlimit:4;stroke-dasharray:none;stroke-dashoffset:0;stroke-opacity:1;paint-order:markers stroke fill"
         x="-657.19653"
         y="44.872101"
         id="text3416"><tspan
           sodipodi:role="line"
           id="tspan3414"
           x="-657.19653"
           y="44.872101"
           style="font-style:normal;font-variant:normal;font-weight:normal;font-stretch:normal;font-family:Oswald;-inkscape-font-specification:Oswald;text-align:start;text-anchor:start;fill:#666666;stroke-width:134.25749207">Nightingale</tspan></text>
      <text
         id="text3420"
         y="87.296616"
         x="-534.79169"
         style="font-style:normal;font-variant:normal;font-weight:normal;font-stretch:normal;font-size:18.44327927px;line-height:1.25;font-family:Oswald;-inkscape-font-specification:Oswald;font-variant-ligatures:normal;font-variant-position:normal;font-variant-caps:normal;font-variant-numeric:normal;font-variant-alternates:normal;font-feature-settings:normal;text-indent:0;text-align:start;text-decoration:none;text-decoration-line:none;text-decoration-style:solid;text-decoration-color:#000000;letter-spacing:normal;word-spacing:normal;text-transform:none;writing-mode:lr-tb;direction:ltr;text-orientation:mixed;dominant-baseline:auto;baseline-shift:baseline;text-anchor:start;white-space:normal;shape-padding:0;opacity:1;vector-effect:none;fill:#e8830c;fill-opacity:1;fill-rule:nonzero;stroke:none;stroke-width:43.22644043;stroke-linecap:round;stroke-linejoin:round;stroke-miterlimit:4;stroke-dasharray:none;stroke-dashoffset:0;stroke-opacity:1;paint-order:markers stroke fill"
         xml:space="preserve"
         transform="scale(1.2247449,0.81649657)"><tspan
           style="font-style:normal;font-variant:normal;font-weight:normal;font-stretch:normal;font-family:'Arial Narrow';-inkscape-font-specification:'Arial Narrow';text-align:start;text-anchor:start;fill:#e8830c;fill-opacity:1;stroke-width:43.22644043"
           y="87.296616"
           x="-534.79169"
           id="tspan3418"
           sodipodi:role="line">Helping you do data science</tspan></text>
      <g
         transform="matrix(0.40030265,0,0,0.40030265,-514.79373,40.862758)"
         id="g3428">
        <path
           inkscape:connector-curvature="0"
           id="path3422"
           d="m 477.54989,-115.27053 c -18.50599,0.10507 -36.53878,5.80127 -51.66611,16.123568 l 48.24616,63.62919 11.37295,-79.452518 c -2.65595,-0.216 -5.30929,-0.31525 -7.953,-0.30024 z m 15.51998,8.20364 -9.95288,71.292803 57.63317,-43.699141 c -10.29348,-12.11599 -23.69476,-20.941512 -38.99348,-25.503872 -2.8331,-0.84488 -5.73129,-1.54351 -8.68681,-2.08979 z m -78.39522,6.97528 c -16.15172,13.296113 -30.04296,35.108913 -34.39583,58.08431 l 87.31457,11.707813 z m 94.61904,5.784145 a 10.257146,10.257146 0 0 1 10.25725,10.257255 10.257146,10.257146 0 0 1 -10.25725,10.256737 10.257146,10.257146 0 0 1 -10.25674,-10.256737 10.257146,10.257146 0 0 1 10.25674,-10.257255 z m 37.46489,23.045621 -58.96746,43.662451 70.91763,8.937955 c 1.54311,-16.647699 -2.67918,-38.643395 -11.95017,-52.600406 z M 325.49663,-39.30824 c -2.54444,25.01442 9.31495,79.761312 22.37486,98.715427 l 118.92195,-82.804253 z m 160.88424,19.948138 31.5743,41.641908 c 11.15467,-9.507087 17.53165,-21.1634647 20.42925,-34.640787 z m -14.53554,2.626196 -46.13983,34.984415 c 9.50712,11.154648 23.17868,19.151494 37.99407,22.083924 z m 7.87238,2.425174 -5.60327,39.663224 c 10.3712,0.530886 22.55836,-3.462496 29.72635,-7.848124 z"
           style="fill:#e8830c;fill-opacity:1;stroke:none;stroke-width:21.16666603;stroke-miterlimit:4;stroke-dasharray:none;paint-order:markers stroke fill" />
        <path
           id="path3424"
           d="m 592.83123,-107.97174 c -0.55785,-0.0109 -1.18273,0.0275 -1.87327,0.11937 l -58.02282,6.75101 a 86.728958,81.383567 0 0 1 36.59467,66.33858 86.728958,81.383567 0 0 1 -0.16124,3.027206 l 35.3503,-39.169702 c 3.77582,-4.10528 2.35611,-6.740855 -3.14296,-5.853906 l -38.03695,6.031156 30.40899,-31.194994 c 3.39254,-3.48126 2.78819,-5.9726 -1.11672,-6.04872 z"
           style="fill:#e8830c;fill-opacity:1;stroke-width:4.08944321"
           inkscape:connector-curvature="0" />
        <path
           id="path3426"
           d="m 500.02191,31.146882 c -4.75755,1.926829 -10.00641,3.409342 -15.51069,4.170813 -0.48663,8.265107 -1.88447,38.173977 2.75177,47.302022 1.0746,2.115741 3.06149,1.379168 4.18373,-0.592719 5.2969,-9.307116 7.72774,-37.999961 8.57519,-50.880116 z m -44.0552,18.220082 c -0.0571,9.731401 0.46357,20.924837 2.86701,25.656831 0.92658,1.824302 2.63987,1.189222 3.60753,-0.511069 2.44038,-4.28797 4.17369,-13.358892 5.37229,-22.57433 l -6.1681,-1.221131 c -1.91367,-0.378778 -3.8071,-0.832062 -5.67873,-1.350301 z"
           style="fill:#e8830c;fill-opacity:1;stroke-width:4.08944321"
           inkscape:connector-curvature="0" />
      </g>
    </g>
    <rect
       style="opacity:1;vector-effect:none;fill:#af6309;fill-opacity:1;fill-rule:nonzero;stroke:none;stroke-width:6.61458302;stroke-linecap:round;stroke-linejoin:round;stroke-miterlimit:4;stroke-dasharray:none;stroke-dashoffset:0;stroke-opacity:1;paint-order:markers stroke fill"
       id="rect3452"
       width="65.767853"
       height="65.767853"
       x="950.98804"
       y="-228.3869" />
    <rect
       y="-162.61905"
       x="950.98798"
       height="65.767853"
       width="65.767853"
       id="rect3454"
       style="opacity:1;vector-effect:none;fill:#c26e0a;fill-opacity:1;fill-rule:nonzero;stroke:none;stroke-width:6.61458302;stroke-linecap:round;stroke-linejoin:round;stroke-miterlimit:4;stroke-dasharray:none;stroke-dashoffset:0;stroke-opacity:1;paint-order:markers stroke fill" />
    <rect
       style="opacity:1;vector-effect:none;fill:#d5790b;fill-opacity:1;fill-rule:nonzero;stroke:none;stroke-width:6.61458302;stroke-linecap:round;stroke-linejoin:round;stroke-miterlimit:4;stroke-dasharray:none;stroke-dashoffset:0;stroke-opacity:1;paint-order:markers stroke fill"
       id="rect3456"
       width="65.767853"
       height="65.767853"
       x="950.98798"
       y="-96.851196" />
    <rect
       y="-31.083344"
       x="950.98798"
       height="65.767853"
       width="65.767853"
       id="rect3458"
       style="opacity:1;vector-effect:none;fill:#e8830c;fill-opacity:1;fill-rule:nonzero;stroke:none;stroke-width:6.61458302;stroke-linecap:round;stroke-linejoin:round;stroke-miterlimit:4;stroke-dasharray:none;stroke-dashoffset:0;stroke-opacity:1;paint-order:markers stroke fill" />
    <rect
       style="opacity:1;vector-effect:none;fill:#f38d15;fill-opacity:1;fill-rule:nonzero;stroke:none;stroke-width:6.61458302;stroke-linecap:round;stroke-linejoin:round;stroke-miterlimit:4;stroke-dasharray:none;stroke-dashoffset:0;stroke-opacity:1;paint-order:markers stroke fill"
       id="rect3460"
       width="65.767853"
       height="65.767853"
       x="950.98798"
       y="34.684509" />
    <rect
       y="100.45236"
       x="950.98798"
       height="65.767853"
       width="65.767853"
       id="rect3462"
       style="opacity:1;vector-effect:none;fill:#f49628;fill-opacity:1;fill-rule:nonzero;stroke:none;stroke-width:6.61458302;stroke-linecap:round;stroke-linejoin:round;stroke-miterlimit:4;stroke-dasharray:none;stroke-dashoffset:0;stroke-opacity:1;paint-order:markers stroke fill" />
    <rect
       style="opacity:1;vector-effect:none;fill:#f5a03b;fill-opacity:1;fill-rule:nonzero;stroke:none;stroke-width:6.61458302;stroke-linecap:round;stroke-linejoin:round;stroke-miterlimit:4;stroke-dasharray:none;stroke-dashoffset:0;stroke-opacity:1;paint-order:markers stroke fill"
       id="rect3464"
       width="65.767853"
       height="65.767853"
       x="950.98798"
       y="166.22021" />
    <g
       id="g4916"
       transform="matrix(0.84217713,0,0,0.84217713,714.03327,68.476279)">
      <g
         inkscape:export-ydpi="96"
         inkscape:export-xdpi="96"
         style="fill:#ffffff"
         transform="translate(-517.82738,583.59524)"
         id="g4230">
        <path
           inkscape:connector-curvature="0"
           id="path4224"
           d="m 477.54989,-115.27053 c -18.50599,0.10507 -36.53878,5.80127 -51.66611,16.123568 l 48.24616,63.62919 11.37295,-79.452518 c -2.65595,-0.216 -5.30929,-0.31525 -7.953,-0.30024 z m 15.51998,8.20364 -9.95288,71.292803 57.63317,-43.699141 c -10.29348,-12.11599 -23.69476,-20.941512 -38.99348,-25.503872 -2.8331,-0.84488 -5.73129,-1.54351 -8.68681,-2.08979 z m -78.39522,6.97528 c -16.15172,13.296113 -30.04296,35.108913 -34.39583,58.08431 l 87.31457,11.707813 z m 94.61904,5.784145 a 10.257146,10.257146 0 0 1 10.25725,10.257255 10.257146,10.257146 0 0 1 -10.25725,10.256737 10.257146,10.257146 0 0 1 -10.25674,-10.256737 10.257146,10.257146 0 0 1 10.25674,-10.257255 z m 37.46489,23.045621 -58.96746,43.662451 70.91763,8.937955 c 1.54311,-16.647699 -2.67918,-38.643395 -11.95017,-52.600406 z M 325.49663,-39.30824 c -2.54444,25.01442 9.31495,79.761312 22.37486,98.715427 l 118.92195,-82.804253 z m 160.88424,19.948138 31.5743,41.641908 c 11.15467,-9.507087 17.53165,-21.1634647 20.42925,-34.640787 z m -14.53554,2.626196 -46.13983,34.984415 c 9.50712,11.154648 23.17868,19.151494 37.99407,22.083924 z m 7.87238,2.425174 -5.60327,39.663224 c 10.3712,0.530886 22.55836,-3.462496 29.72635,-7.848124 z"
           style="fill:#ffffff;fill-opacity:1;stroke:none;stroke-width:21.16666603;stroke-miterlimit:4;stroke-dasharray:none;paint-order:markers stroke fill" />
        <path
           id="path4226"
           d="m 592.83123,-107.97174 c -0.55785,-0.0109 -1.18273,0.0275 -1.87327,0.11937 l -58.02282,6.75101 a 86.728958,81.383567 0 0 1 36.59467,66.33858 86.728958,81.383567 0 0 1 -0.16124,3.027206 l 35.3503,-39.169702 c 3.77582,-4.10528 2.35611,-6.740855 -3.14296,-5.853906 l -38.03695,6.031156 30.40899,-31.194994 c 3.39254,-3.48126 2.78819,-5.9726 -1.11672,-6.04872 z"
           style="fill:#ffffff;fill-opacity:1;stroke-width:4.08944321"
           inkscape:connector-curvature="0" />
        <path
           id="path4228"
           d="m 500.02191,31.146882 c -4.75755,1.926829 -10.00641,3.409342 -15.51069,4.170813 -0.48663,8.265107 -1.88447,38.173977 2.75177,47.302022 1.0746,2.115741 3.06149,1.379168 4.18373,-0.592719 5.2969,-9.307116 7.72774,-37.999961 8.57519,-50.880116 z m -44.0552,18.220082 c -0.0571,9.731401 0.46357,20.924837 2.86701,25.656831 0.92658,1.824302 2.63987,1.189222 3.60753,-0.511069 2.44038,-4.28797 4.17369,-13.358892 5.37229,-22.57433 l -6.1681,-1.221131 c -1.91367,-0.378778 -3.8071,-0.832062 -5.67873,-1.350301 z"
           style="fill:#ffffff;fill-opacity:1;stroke-width:4.08944321"
           inkscape:connector-curvature="0" />
      </g>
      <g
         id="g4238"
         transform="matrix(-0.66599135,0,0,0.66599135,471.68958,618.42077)"
         style="fill:#ffffff"
         inkscape:export-xdpi="96"
         inkscape:export-ydpi="96">
        <path
           style="fill:#ffffff;fill-opacity:1;stroke:none;stroke-width:21.16666603;stroke-miterlimit:4;stroke-dasharray:none;paint-order:markers stroke fill"
           d="m 477.54989,-115.27053 c -18.50599,0.10507 -36.53878,5.80127 -51.66611,16.123568 l 48.24616,63.62919 11.37295,-79.452518 c -2.65595,-0.216 -5.30929,-0.31525 -7.953,-0.30024 z m 15.51998,8.20364 -9.95288,71.292803 57.63317,-43.699141 c -10.29348,-12.11599 -23.69476,-20.941512 -38.99348,-25.503872 -2.8331,-0.84488 -5.73129,-1.54351 -8.68681,-2.08979 z m -78.39522,6.97528 c -16.15172,13.296113 -30.04296,35.108913 -34.39583,58.08431 l 87.31457,11.707813 z m 94.61904,5.784145 a 10.257146,10.257146 0 0 1 10.25725,10.257255 10.257146,10.257146 0 0 1 -10.25725,10.256737 10.257146,10.257146 0 0 1 -10.25674,-10.256737 10.257146,10.257146 0 0 1 10.25674,-10.257255 z m 37.46489,23.045621 -58.96746,43.662451 70.91763,8.937955 c 1.54311,-16.647699 -2.67918,-38.643395 -11.95017,-52.600406 z M 325.49663,-39.30824 c -2.54444,25.01442 9.31495,79.761312 22.37486,98.715427 l 118.92195,-82.804253 z m 160.88424,19.948138 31.5743,41.641908 c 11.15467,-9.507087 17.53165,-21.1634647 20.42925,-34.640787 z m -14.53554,2.626196 -46.13983,34.984415 c 9.50712,11.154648 23.17868,19.151494 37.99407,22.083924 z m 7.87238,2.425174 -5.60327,39.663224 c 10.3712,0.530886 22.55836,-3.462496 29.72635,-7.848124 z"
           id="path4232"
           inkscape:connector-curvature="0" />
        <path
           inkscape:connector-curvature="0"
           style="fill:#ffffff;fill-opacity:1;stroke-width:4.08944321"
           d="m 592.83123,-107.97174 c -0.55785,-0.0109 -1.18273,0.0275 -1.87327,0.11937 l -58.02282,6.75101 a 86.728958,81.383567 0 0 1 36.59467,66.33858 86.728958,81.383567 0 0 1 -0.16124,3.027206 l 35.3503,-39.169702 c 3.77582,-4.10528 2.35611,-6.740855 -3.14296,-5.853906 l -38.03695,6.031156 30.40899,-31.194994 c 3.39254,-3.48126 2.78819,-5.9726 -1.11672,-6.04872 z"
           id="path4234" />
        <path
           inkscape:connector-curvature="0"
           style="fill:#ffffff;fill-opacity:1;stroke-width:4.08944321"
           d="m 500.02191,31.146882 c -4.75755,1.926829 -10.00641,3.409342 -15.51069,4.170813 -0.48663,8.265107 -1.88447,38.173977 2.75177,47.302022 1.0746,2.115741 3.06149,1.379168 4.18373,-0.592719 5.2969,-9.307116 7.72774,-37.999961 8.57519,-50.880116 z m -44.0552,18.220082 c -0.0571,9.731401 0.46357,20.924837 2.86701,25.656831 0.92658,1.824302 2.63987,1.189222 3.60753,-0.511069 2.44038,-4.28797 4.17369,-13.358892 5.37229,-22.57433 l -6.1681,-1.221131 c -1.91367,-0.378778 -3.8071,-0.832062 -5.67873,-1.350301 z"
           id="path4236" />
      </g>
    </g>
    <g
       id="g4932"
       transform="matrix(0.8222416,0,0,0.8222416,-568.31984,56.589843)">
      <g
         id="g4250"
         transform="matrix(1.085878,0,0,1.085878,125.53511,617.96781)"
         style="fill:#ffffff"
         inkscape:export-xdpi="96"
         inkscape:export-ydpi="96">
        <path
           style="fill:#ffffff;fill-opacity:1;stroke:none;stroke-width:21.16666603;stroke-miterlimit:4;stroke-dasharray:none;paint-order:markers stroke fill"
           d="m 477.54989,-115.27053 c -18.50599,0.10507 -36.53878,5.80127 -51.66611,16.123568 l 48.24616,63.62919 11.37295,-79.452518 c -2.65595,-0.216 -5.30929,-0.31525 -7.953,-0.30024 z m 15.51998,8.20364 -9.95288,71.292803 57.63317,-43.699141 c -10.29348,-12.11599 -23.69476,-20.941512 -38.99348,-25.503872 -2.8331,-0.84488 -5.73129,-1.54351 -8.68681,-2.08979 z m -78.39522,6.97528 c -16.15172,13.296113 -30.04296,35.108913 -34.39583,58.08431 l 87.31457,11.707813 z m 94.61904,5.784145 a 10.257146,10.257146 0 0 1 10.25725,10.257255 10.257146,10.257146 0 0 1 -10.25725,10.256737 10.257146,10.257146 0 0 1 -10.25674,-10.256737 10.257146,10.257146 0 0 1 10.25674,-10.257255 z m 37.46489,23.045621 -58.96746,43.662451 70.91763,8.937955 c 1.54311,-16.647699 -2.67918,-38.643395 -11.95017,-52.600406 z M 325.49663,-39.30824 c -2.54444,25.01442 9.31495,79.761312 22.37486,98.715427 l 118.92195,-82.804253 z m 160.88424,19.948138 31.5743,41.641908 c 11.15467,-9.507087 17.53165,-21.1634647 20.42925,-34.640787 z m -14.53554,2.626196 -46.13983,34.984415 c 9.50712,11.154648 23.17868,19.151494 37.99407,22.083924 z m 7.87238,2.425174 -5.60327,39.663224 c 10.3712,0.530886 22.55836,-3.462496 29.72635,-7.848124 z"
           id="path4244"
           inkscape:connector-curvature="0" />
        <path
           inkscape:connector-curvature="0"
           style="fill:#ffffff;fill-opacity:1;stroke-width:4.08944321"
           d="m 592.83123,-107.97174 c -0.55785,-0.0109 -1.18273,0.0275 -1.87327,0.11937 l -58.02282,6.75101 a 86.728958,81.383567 0 0 1 36.59467,66.33858 86.728958,81.383567 0 0 1 -0.16124,3.027206 l 35.3503,-39.169702 c 3.77582,-4.10528 2.35611,-6.740855 -3.14296,-5.853906 l -38.03695,6.031156 30.40899,-31.194994 c 3.39254,-3.48126 2.78819,-5.9726 -1.11672,-6.04872 z"
           id="path4246" />
        <path
           inkscape:connector-curvature="0"
           style="fill:#ffffff;fill-opacity:1;stroke-width:4.08944321"
           d="m 500.02191,31.146882 c -4.75755,1.926829 -10.00641,3.409342 -15.51069,4.170813 -0.48663,8.265107 -1.88447,38.173977 2.75177,47.302022 1.0746,2.115741 3.06149,1.379168 4.18373,-0.592719 5.2969,-9.307116 7.72774,-37.999961 8.57519,-50.880116 z m -44.0552,18.220082 c -0.0571,9.731401 0.46357,20.924837 2.86701,25.656831 0.92658,1.824302 2.63987,1.189222 3.60753,-0.511069 2.44038,-4.28797 4.17369,-13.358892 5.37229,-22.57433 l -6.1681,-1.221131 c -1.91367,-0.378778 -3.8071,-0.832062 -5.67873,-1.350301 z"
           id="path4248" />
      </g>
      <g
         transform="matrix(0.25368047,0,0,0.25368047,724.40425,265.70877)"
         style="stroke:#ffffff;stroke-width:26.07446861;stroke-linecap:round;stroke-linejoin:round;stroke-miterlimit:4;stroke-dasharray:none"
         id="g4270">
        <path
           style="fill:none;stroke:#ffffff;stroke-width:26.07446861;stroke-linecap:round;stroke-linejoin:round;stroke-miterlimit:4;stroke-dasharray:none;stroke-opacity:1"
           d="m 296.33333,982.64878 c -1.51191,-3.02379 -1.51191,-147.41069 -1.51191,-147.41069 l 148.92263,-29.48215 -21.92263,156.48214"
           id="path4260"
           inkscape:connector-curvature="0" />
        <circle
           style="opacity:1;vector-effect:none;fill:none;fill-opacity:1;fill-rule:nonzero;stroke:#ffffff;stroke-width:26.07446861;stroke-linecap:round;stroke-linejoin:round;stroke-miterlimit:4;stroke-dasharray:none;stroke-dashoffset:0;stroke-opacity:1;paint-order:normal"
           id="path4263"
           cx="270.87531"
           cy="983.97009"
           r="25.324406" />
        <circle
           r="25.324406"
           cy="960.79492"
           cx="396.49704"
           id="circle4265"
           style="opacity:1;vector-effect:none;fill:none;fill-opacity:1;fill-rule:nonzero;stroke:#ffffff;stroke-width:26.07446861;stroke-linecap:round;stroke-linejoin:round;stroke-miterlimit:4;stroke-dasharray:none;stroke-dashoffset:0;stroke-opacity:1;paint-order:normal" />
      </g>
      <g
         style="stroke-width:6.61458349;stroke-linecap:round;stroke-linejoin:round;stroke-miterlimit:4;stroke-dasharray:none"
         transform="rotate(-11.54724,860.15155,468.66649)"
         id="g4285">
        <path
           inkscape:connector-curvature="0"
           id="path4272"
           d="m 860.51568,483.9843 c -0.38354,-0.76707 -0.38354,-37.39521 -0.38354,-37.39521 L 873.125,455.75"
           style="fill:none;stroke:#ffffff;stroke-width:6.61458349;stroke-linecap:round;stroke-linejoin:round;stroke-miterlimit:4;stroke-dasharray:none;stroke-opacity:1"
           sodipodi:nodetypes="cc" />
        <circle
           r="6.4243073"
           cy="484.31949"
           cx="854.0575"
           id="circle4274"
           style="opacity:1;vector-effect:none;fill:none;fill-opacity:1;fill-rule:nonzero;stroke:#ffffff;stroke-width:6.61458349;stroke-linecap:round;stroke-linejoin:round;stroke-miterlimit:4;stroke-dasharray:none;stroke-dashoffset:0;stroke-opacity:1;paint-order:normal" />
      </g>
      <g
         style="stroke-width:8.95341778;stroke-linecap:round;stroke-linejoin:round;stroke-miterlimit:4;stroke-dasharray:none"
         transform="matrix(0.72913824,0.11895212,-0.11895212,0.72913824,316.70127,31.430559)"
         id="g4291">
        <path
           sodipodi:nodetypes="cc"
           style="fill:none;stroke:#ffffff;stroke-width:8.95341778;stroke-linecap:round;stroke-linejoin:round;stroke-miterlimit:4;stroke-dasharray:none;stroke-opacity:1"
           d="m 860.51568,483.9843 c -0.38354,-0.76707 -0.38354,-37.39521 -0.38354,-37.39521 L 873.125,455.75"
           id="path4287"
           inkscape:connector-curvature="0" />
        <circle
           style="opacity:1;vector-effect:none;fill:none;fill-opacity:1;fill-rule:nonzero;stroke:#ffffff;stroke-width:8.95341778;stroke-linecap:round;stroke-linejoin:round;stroke-miterlimit:4;stroke-dasharray:none;stroke-dashoffset:0;stroke-opacity:1;paint-order:normal"
           id="circle4289"
           cx="854.0575"
           cy="484.31949"
           r="6.4243073" />
      </g>
    </g>
    <rect
       style="opacity:1;vector-effect:none;fill:#ffffff;fill-opacity:1;fill-rule:nonzero;stroke:none;stroke-width:10.16784859;stroke-linecap:round;stroke-linejoin:round;stroke-miterlimit:4;stroke-dasharray:none;stroke-dashoffset:0;stroke-opacity:1;paint-order:normal"
       id="rect4415"
       width="531.9964"
       height="531.9964"
       x="-2041.7303"
       y="-306.90891"
       inkscape:export-xdpi="96"
       inkscape:export-ydpi="96" />
    <rect
       y="-306.90891"
       x="-1347.7661"
       height="531.9964"
       width="531.9964"
       id="rect4417"
       style="opacity:1;vector-effect:none;fill:#ffffff;fill-opacity:1;fill-rule:nonzero;stroke:none;stroke-width:10.16784859;stroke-linecap:round;stroke-linejoin:round;stroke-miterlimit:4;stroke-dasharray:none;stroke-dashoffset:0;stroke-opacity:1;paint-order:normal"
       inkscape:export-xdpi="96"
       inkscape:export-ydpi="96" />
    <rect
       style="opacity:1;vector-effect:none;fill:#ffffff;fill-opacity:1;fill-rule:nonzero;stroke:none;stroke-width:10.16784859;stroke-linecap:round;stroke-linejoin:round;stroke-miterlimit:4;stroke-dasharray:none;stroke-dashoffset:0;stroke-opacity:1;paint-order:normal"
       id="rect4419"
       width="531.9964"
       height="531.9964"
       x="-729.39709"
       y="-297.83746"
       inkscape:export-xdpi="96"
       inkscape:export-ydpi="96" />
    <text
       xml:space="preserve"
       style="font-style:normal;font-variant:normal;font-weight:normal;font-stretch:normal;font-size:29.71013451px;line-height:1.25;font-family:'Arial Narrow';-inkscape-font-specification:'Arial Narrow';font-variant-ligatures:normal;font-variant-position:normal;font-variant-caps:normal;font-variant-numeric:normal;font-variant-alternates:normal;font-feature-settings:normal;text-indent:0;text-align:center;text-decoration:none;text-decoration-line:none;text-decoration-style:solid;text-decoration-color:#000000;letter-spacing:normal;word-spacing:normal;text-transform:none;writing-mode:lr-tb;direction:ltr;text-orientation:mixed;dominant-baseline:auto;baseline-shift:baseline;text-anchor:middle;white-space:normal;shape-padding:0;opacity:1;vector-effect:none;fill:#e8830c;fill-opacity:1;fill-rule:nonzero;stroke:none;stroke-width:5.57065058;stroke-linecap:round;stroke-linejoin:round;stroke-miterlimit:4;stroke-dasharray:none;stroke-dashoffset:0;stroke-opacity:1;paint-order:normal"
       x="739.43719"
       y="687.82385"
       id="text4958"><tspan
         sodipodi:role="line"
         x="739.43719"
         y="687.82385"
         style="fill:#ffffff;stroke-width:5.57065058"
         id="tspan4966">For organisations looking</tspan><tspan
         sodipodi:role="line"
         x="739.43719"
         y="724.96155"
         style="fill:#ffffff;stroke-width:5.57065058"
         id="tspan5008">for assistance</tspan></text>
    <text
       id="text4962"
       y="685.68115"
       x="-1.2568812"
       style="font-style:normal;font-variant:normal;font-weight:normal;font-stretch:normal;font-size:29.0068531px;line-height:1.25;font-family:'Arial Narrow';-inkscape-font-specification:'Arial Narrow';font-variant-ligatures:normal;font-variant-position:normal;font-variant-caps:normal;font-variant-numeric:normal;font-variant-alternates:normal;font-feature-settings:normal;text-indent:0;text-align:center;text-decoration:none;text-decoration-line:none;text-decoration-style:solid;text-decoration-color:#000000;letter-spacing:normal;word-spacing:normal;text-transform:none;writing-mode:lr-tb;direction:ltr;text-orientation:mixed;dominant-baseline:auto;baseline-shift:baseline;text-anchor:middle;white-space:normal;shape-padding:0;opacity:1;vector-effect:none;fill:#e8830c;fill-opacity:1;fill-rule:nonzero;stroke:none;stroke-width:5.43878508;stroke-linecap:round;stroke-linejoin:round;stroke-miterlimit:4;stroke-dasharray:none;stroke-dashoffset:0;stroke-opacity:1;paint-order:normal"
       xml:space="preserve"><tspan
         style="fill:#ffffff;stroke-width:5.43878508"
         y="685.68115"
         x="-1.2568744"
         id="tspan4960"
         sodipodi:role="line">For service providers who want</tspan><tspan
         style="fill:#ffffff;stroke-width:5.43878508"
         y="721.9397"
         x="-1.2568836"
         sodipodi:role="line"
         id="tspan4964">to get noticed</tspan></text>
    <text
       xml:space="preserve"
       style="font-style:normal;font-variant:normal;font-weight:normal;font-stretch:normal;font-size:29.28723907px;line-height:1.25;font-family:'Arial Narrow';-inkscape-font-specification:'Arial Narrow';font-variant-ligatures:normal;font-variant-position:normal;font-variant-caps:normal;font-variant-numeric:normal;font-variant-alternates:normal;font-feature-settings:normal;text-indent:0;text-align:center;text-decoration:none;text-decoration-line:none;text-decoration-style:solid;text-decoration-color:#000000;letter-spacing:normal;word-spacing:normal;text-transform:none;writing-mode:lr-tb;direction:ltr;text-orientation:mixed;dominant-baseline:auto;baseline-shift:baseline;text-anchor:middle;white-space:normal;shape-padding:0;opacity:1;vector-effect:none;fill:#ffffff;fill-opacity:1;fill-rule:nonzero;stroke:none;stroke-width:5.49135733;stroke-linecap:round;stroke-linejoin:round;stroke-miterlimit:4;stroke-dasharray:none;stroke-dashoffset:0;stroke-opacity:1;paint-order:normal"
       x="0.42012033"
       y="1289.3007"
       id="text4970"><tspan
         sodipodi:role="line"
         id="tspan4968"
         x="0.42012134"
         y="1289.3007"
         style="stroke-width:5.49135733">For organisations who need</tspan><tspan
         sodipodi:role="line"
         x="0.42012098"
         y="1325.9097"
         style="stroke-width:5.49135733"
         id="tspan4972">guidance</tspan></text>
    <g
       id="g5004"
       transform="matrix(0.83018952,0,0,0.83018952,49.061995,180.04804)">
      <g
         inkscape:export-ydpi="96"
         inkscape:export-xdpi="96"
         style="fill:#ffffff"
         transform="matrix(1.085878,0,0,1.085878,-564.46379,1194.3642)"
         id="g4838">
        <path
           inkscape:connector-curvature="0"
           id="path4832"
           d="m 477.54989,-115.27053 c -18.50599,0.10507 -36.53878,5.80127 -51.66611,16.123568 l 48.24616,63.62919 11.37295,-79.452518 c -2.65595,-0.216 -5.30929,-0.31525 -7.953,-0.30024 z m 15.51998,8.20364 -9.95288,71.292803 57.63317,-43.699141 c -10.29348,-12.11599 -23.69476,-20.941512 -38.99348,-25.503872 -2.8331,-0.84488 -5.73129,-1.54351 -8.68681,-2.08979 z m -78.39522,6.97528 c -16.15172,13.296113 -30.04296,35.108913 -34.39583,58.08431 l 87.31457,11.707813 z m 94.61904,5.784145 a 10.257146,10.257146 0 0 1 10.25725,10.257255 10.257146,10.257146 0 0 1 -10.25725,10.256737 10.257146,10.257146 0 0 1 -10.25674,-10.256737 10.257146,10.257146 0 0 1 10.25674,-10.257255 z m 37.46489,23.045621 -58.96746,43.662451 70.91763,8.937955 c 1.54311,-16.647699 -2.67918,-38.643395 -11.95017,-52.600406 z M 325.49663,-39.30824 c -2.54444,25.01442 9.31495,79.761312 22.37486,98.715427 l 118.92195,-82.804253 z m 160.88424,19.948138 31.5743,41.641908 c 11.15467,-9.507087 17.53165,-21.1634647 20.42925,-34.640787 z m -14.53554,2.626196 -46.13983,34.984415 c 9.50712,11.154648 23.17868,19.151494 37.99407,22.083924 z m 7.87238,2.425174 -5.60327,39.663224 c 10.3712,0.530886 22.55836,-3.462496 29.72635,-7.848124 z"
           style="fill:#ffffff;fill-opacity:1;stroke:none;stroke-width:21.16666603;stroke-miterlimit:4;stroke-dasharray:none;paint-order:markers stroke fill" />
        <path
           id="path4834"
           d="m 592.83123,-107.97174 c -0.55785,-0.0109 -1.18273,0.0275 -1.87327,0.11937 l -58.02282,6.75101 a 86.728958,81.383567 0 0 1 36.59467,66.33858 86.728958,81.383567 0 0 1 -0.16124,3.027206 l 35.3503,-39.169702 c 3.77582,-4.10528 2.35611,-6.740855 -3.14296,-5.853906 l -38.03695,6.031156 30.40899,-31.194994 c 3.39254,-3.48126 2.78819,-5.9726 -1.11672,-6.04872 z"
           style="fill:#ffffff;fill-opacity:1;stroke-width:4.08944321"
           inkscape:connector-curvature="0" />
        <path
           id="path4836"
           d="m 500.02191,31.146882 c -4.75755,1.926829 -10.00641,3.409342 -15.51069,4.170813 -0.48663,8.265107 -1.88447,38.173977 2.75177,47.302022 1.0746,2.115741 3.06149,1.379168 4.18373,-0.592719 5.2969,-9.307116 7.72774,-37.999961 8.57519,-50.880116 z m -44.0552,18.220082 c -0.0571,9.731401 0.46357,20.924837 2.86701,25.656831 0.92658,1.824302 2.63987,1.189222 3.60753,-0.511069 2.44038,-4.28797 4.17369,-13.358892 5.37229,-22.57433 l -6.1681,-1.221131 c -1.91367,-0.378778 -3.8071,-0.832062 -5.67873,-1.350301 z"
           style="fill:#ffffff;fill-opacity:1;stroke-width:4.08944321"
           inkscape:connector-curvature="0" />
      </g>
      <text
         transform="rotate(0.2333939)"
         id="text4996"
         y="1047.2979"
         x="-12.120289"
         style="font-style:normal;font-variant:normal;font-weight:normal;font-stretch:normal;font-size:118.08207703px;line-height:1.25;font-family:'Arial Narrow';-inkscape-font-specification:'Arial Narrow';font-variant-ligatures:normal;font-variant-position:normal;font-variant-caps:normal;font-variant-numeric:normal;font-variant-alternates:normal;font-feature-settings:normal;text-indent:0;text-align:center;text-decoration:none;text-decoration-line:none;text-decoration-style:solid;text-decoration-color:#000000;letter-spacing:normal;word-spacing:normal;text-transform:none;writing-mode:lr-tb;direction:ltr;text-orientation:mixed;dominant-baseline:auto;baseline-shift:baseline;text-anchor:middle;white-space:normal;shape-padding:0;opacity:1;vector-effect:none;fill:#ffffff;fill-opacity:1;fill-rule:nonzero;stroke:none;stroke-width:22.1403904;stroke-linecap:round;stroke-linejoin:round;stroke-miterlimit:4;stroke-dasharray:none;stroke-dashoffset:0;stroke-opacity:1;paint-order:normal"
         xml:space="preserve"><tspan
           style="font-style:normal;font-variant:normal;font-weight:normal;font-stretch:normal;font-family:'Admiral CAT';-inkscape-font-specification:'Admiral CAT';stroke-width:22.1403904"
           y="1047.2979"
           x="-12.120289"
           id="tspan4994"
           sodipodi:role="line">?</tspan></text>
    </g>
    <path
       id="path3467"
       d="m -265.11984,-95.065774 c -0.01,-6.020216 -1.7797,-12.126106 -5.6952,-17.159526 l -31.4228,-40.20422 c -5.2626,-6.68274 -13.2707,-10.08491 -21.2737,-10.09836 -4.762,0 -9.6108,1.22114 -13.8959,3.89335 l -30.6375,19.06106 c -3.2223,2.05484 -8.7473,3.46537 -14.0832,3.42926 -4.1454,0.017 -8.1512,-0.81069 -10.7961,-2.11785 l -30.0023,-14.53245 c -4.8403,-2.3297 -10.2341,-3.28516 -15.6586,-3.29419 -7.7918,0.0341 -15.6824,1.95127 -22.0215,6.34483 l -3.5016,2.45592 c -2.7982,-1.39657 -7.0748,-3.52395 -11.9185,-5.93472 -5.8093,-2.84797 -12.6406,-3.99708 -19.54,-4.01956 -6.2317,0.017 -12.4635,0.97759 -17.9339,3.28959 l -20.4359,8.71951 c -3.3262,1.44255 -8.6161,2.3837 -13.8702,2.36122 -5.2542,0.017 -10.5356,-0.91968 -13.8618,-2.36122 l -20.4529,-8.72411 c -3.7315,-1.59072 -7.7186,-2.27111 -11.6715,-2.27554 -4.5508,0.005 -9.0743,0.90095 -13.2793,2.60459 -4.1999,1.71233 -8.0984,4.24028 -11.2015,7.71006 l -37.2406,41.70486 c -4.1267,4.609856 -6.1772,10.413776 -6.1687,16.127596 -0.01,6.81337 2.9072,13.64921 8.5309,18.43944 l 34.737,29.63716 -16.4777,17.1912 c -4.5423,4.74049 -6.8057,10.88691 -6.8057,16.9657197 -0.01,6.46643002 2.5598,12.99589 7.647,17.8039903 l 3.345,3.17684 c 3.1491,2.98763 6.9351,4.88936 10.8949,5.90322 -1.9875,3.65441 -3.0725,7.66051 -3.0639,11.67546 -0.01,6.47087 2.5598,12.99589 7.6385,17.8086 l -0.01,-0.005 3.3517,3.19047 c 4.7722,4.52418 10.9597,6.77725 17.0552,6.77283 3.2768,0.005 6.5571,-0.65401 9.6397,-1.94225 1.073,4.38896 3.316,8.56179 6.8313,11.89634 l 3.3534,3.19031 c 4.7705,4.52436 10.9494,6.77743 17.0551,6.77283 4.7722,0.005 9.5665,-1.40167 13.6949,-4.13213 1.2092,3.88433 3.2751,7.56598 6.4259,10.55804 l 3.3518,3.19029 c 4.7636,4.52437 10.9511,6.77744 17.0466,6.77284 6.494,0.005 13.051,-2.54601 17.8947,-7.60192 l 14.5635,-15.20842 19.787,18.31323 c 4.7364,4.39356 10.8148,6.57901 16.8166,6.56556 6.5928,0.0135 13.2435,-2.62725 18.0975,-7.82282 l 3.1593,-3.38411 c 2.725,-2.92904 4.5065,-6.3944 5.5369,-10.01286 l 7.6657,7.07479 c 4.745,4.37552 10.8149,6.55194 16.8082,6.54751 6.6013,0.005 13.2708,-2.6361 18.1281,-7.83627 l 3.1406,-3.37968 c 3.6277,-3.8753 5.6697,-8.67437 6.2998,-13.57718 2.0234,0.51776 4.0739,0.8703 6.1415,0.8703 6.6031,0 13.2538,-2.6361 18.1162,-7.83184 l 3.1491,-3.37968 c 4.4026,-4.718 6.5928,-10.76974 6.5843,-16.73596 0,-1.85198 -0.2725,-3.69512 -0.6813,-5.51559 5.4756,-0.72553 10.7826,-3.16782 14.8207,-7.50278 l 3.1593,-3.38413 c 4.4026,-4.718 6.5825,-10.76989 6.5825,-16.7405503 0.01,-6.56998998 -2.6398,-13.19857 -7.8667,-18.0293297 l -5.9081,-5.45699 53.3164,-58.95005 c 4.7858,-5.3083 6.9947,-12.13955 7.0033,-18.86742 z m -359.6258,97.3113197 c -2.3162,-2.19005998 -3.4607,-5.10547 -3.4693,-8.0977 0.01,-2.80727 1.0049,-5.5470897 3.0827,-7.7054697 l 33.7509,-35.22053 c 2.1987,-2.2936 5.1315,-3.4427 8.1427,-3.44713 2.8169,0.005 5.5692,1.01847 7.7458,3.0687 l 3.3347,3.18127 c 0,0 3.4522,5.10565 3.4608,8.10213 -0.01,2.24421 -0.6812,4.42967 -1.9961,6.32219 -0.1703,0.11921 -36.4282,37.9601697 -36.4282,37.9601697 -1.9279,1.36591 -4.2085,2.06845 -6.5298,2.07748 -2.8255,-0.01 -5.588,-1.01847 -7.7458,-3.06427 z m 29.9172,44.8096503 c -2.8255,-0.005 -5.5795,-1.01847 -7.7458,-3.06428 l -3.3535,-3.18586 -0.01,-0.005 c -2.2993,-2.18086 -3.4523,-5.10547 -3.4523,-8.09753 0,-2.80744 1.0219,-5.54709 3.0742,-7.70563 0,0 44.9898,-46.8328 45.3679,-47.28345 2.1493,-2.06845 4.9204,-3.13631 7.7816,-3.1409 2.8255,0.005 5.5795,1.01336 7.7458,3.06426 l 3.3535,3.1903 v 0 c 2.3078,2.18103 3.4522,5.10104 3.4608,8.0977 -0.01,2.8074297 -1.0219,5.5516897 -3.0827,7.7100597 l -45.0069,46.9816603 c -2.1953,2.28456 -5.1247,3.42924 -8.1341,3.43827 z m 36.8778,19.91724 c -2.8254,-0.005 -5.5777,-1.01848 -7.7458,-3.06871 l -3.362,-3.18587 c -2.306,-2.18545 -3.4607,-5.10546 -3.4607,-8.09752 0,-2.50547 0.8515,-4.9343 2.4831,-6.95763 l 31.3325,-32.70142 c 2.1136,-1.90614 4.7619,-2.91099 7.5074,-2.91099 2.8255,0.005 5.5777,1.01336 7.7458,3.06409 l 3.3619,3.19048 v 0 c 2.2976,2.18103 3.4506,5.10104 3.4608,8.0931 -0.01,2.81186 -1.0389,5.55611 -3.0826,7.71006 l -30.1114,31.4217 c -2.1902,2.28918 -5.1179,3.43384 -8.129,3.44271 z m 48.6499,12.94632 c -2.1903,2.28918 -5.1247,3.43368 -8.1342,3.44271 -2.8254,-0.005 -5.5794,-1.01847 -7.7458,-3.0687 l -3.3534,-3.18587 c -2.2975,-2.18103 -3.4506,-5.10547 -3.4608,-8.09752 0.01,-2.81187 1.0219,-5.55629 3.0827,-7.70564 l 19.0035,-19.84076 c 2.1987,-2.28918 5.1315,-3.43828 8.1426,-3.44271 2.8153,0.005 5.5778,1.01336 7.7459,3.06869 l 3.3619,3.18588 v 0 c 2.2975,2.18103 3.4421,5.10105 3.4506,8.09309 -0.01,2.81187 -1.0219,5.55612 -3.0827,7.71007 z m 181.1805,-66.06521 -3.1508,3.37953 c -2.1987,2.35235 -5.1809,3.54199 -8.2363,3.54643 -2.771,-0.005 -5.4841,-0.97761 -7.6385,-2.96959 l -53.0831,-49.09047 -9.1782,9.82809 56.8181,52.63671 c 2.3656,2.19006 3.5544,5.16423 3.5731,8.20142 0,2.76673 -1.0048,5.46142 -2.9924,7.60634 l -3.1406,3.37968 c -2.1987,2.35221 -5.1826,3.53741 -8.238,3.54643 -2.771,-0.01 -5.4925,-0.98781 -7.6283,-2.96514 l -53.0968,-49.0904803 -9.1696,9.8280903 47.1205,43.57488 c 2.272,2.17643 3.4352,5.07396 3.4352,8.04796 0,2.75788 -0.9878,5.45699 -2.9754,7.59749 l -3.1491,3.37969 c -2.1902,2.35219 -5.1826,3.54183 -8.2465,3.55085 -2.7812,-0.01 -5.4926,-0.98611 -7.6385,-2.96515 l -47.0268,-43.41717 h -0.01 l -0.01,-0.01 -9.1526,9.84612 0.01,0.01 v 0 l 0.1703,0.17031 23.5525,21.73788 c 2.0863,2.14492 3.1679,4.89359 3.178,7.73714 -0.01,2.74425 -0.9707,5.42992 -2.9753,7.5704 l -3.1491,3.38413 c -2.1987,2.35219 -5.1724,3.53279 -8.2193,3.54182 -2.771,-0.01 -5.484,-0.98271 -7.6283,-2.96958 l -20.5086,-18.98903 c 1.7849,-3.50128 2.7812,-7.30011 2.7812,-11.11239 0.01,-6.46627 -2.5598,-12.9867 -7.6385,-17.80383 l -3.362,-3.19047 c -4.7619,-4.51976 -10.9409,-6.77727 -17.0381,-6.76824 -0.4769,0 -0.9538,0.10219 -1.4136,0.13625 0,-0.11922 0,-0.22992 0,-0.34233 0.01,-6.46643 -7.6385,-17.8130203 -7.6385,-17.8130203 l -3.3518,-3.18144 c -3.5646,-3.37968998 -7.9144,-5.48851 -12.4379,-6.33564 0.9367,-2.6407 1.4646,-5.38938 1.4646,-8.1426597 0,-6.46643 -2.5597,-12.99146 -7.6368,-17.80399 l -3.3534,-3.19047 c -4.7722,-4.52419 -10.9494,-6.78186 -17.0467,-6.77726 -0.7153,0 -1.4136,0.13625 -2.122,0.20778 -0.1874,-6.20961 -2.6961,-12.41462 -7.562,-17.03793 v -0.005 l -3.3432,-3.17701 c -4.7721,-4.52862 -10.9511,-6.78629 -17.0466,-6.78169 -6.5025,-0.005 -13.051,2.54601 -17.8948,7.60191 l -7.9672,8.31382 -35.2922,-30.10125 c -2.5377,-2.172 -3.8031,-5.17309 -3.8116,-8.25541 0.01,-2.58211 0.8856,-5.11007 2.7625,-7.20986 l 37.2389,-41.704846 c 1.4817,-1.65884 3.6634,-3.15878 6.2232,-4.19974 2.5581,-1.04061 5.4653,-1.61287 8.1818,-1.60946 2.3656,0 4.5882,0.42749 6.3629,1.1939 l 20.4444,8.72393 c 5.7633,2.42884 12.4566,3.42466 19.1789,3.4473 6.7325,-0.017 13.4155,-1.01846 19.1789,-3.4473 l 20.4359,-8.7195 c 3.1491,-1.37443 7.9025,-2.22599 12.6303,-2.20812 5.2269,-0.0341 10.4641,1.04913 13.5007,2.60017 1.928,0.96057 3.7572,1.87004 5.4569,2.72178 l -20.8412,14.64963 c -6.6967,4.70898 -10.3056,12.19815 -10.2971,19.75509 -0.01,5.001916 1.5839,10.093926 4.8045,14.415276 l -0.01,-0.009 2.7539,3.69971 c 5.2269,6.94842 13.3781,10.52193 21.5259,10.53998 4.6018,0 9.2871,-1.16323 13.4649,-3.66804 l 12.4635,-7.4849 c 2.5428,-1.55495 6.3816,-2.53698 10.3516,-2.51893 4.6632,-0.0341 9.3638,1.35229 12.1893,3.42925 l 34.4815,24.72091 c 7.6744,5.4977 20.1736,15.69518 27.1002,22.11189 l 39.9111,36.9013497 c 2.3657,2.19448002 3.5544,5.15503 3.5647,8.19664 -0.01,2.75788 -0.9878,5.4570003 -2.9924,7.6020903 z m 45.9896,-99.02363 -53.1683,58.79233 -24.1401,-22.31473 c -7.5619,-6.9801 -20.0305,-17.15953 -28.3929,-23.16629 l -34.473,-24.72108 c -5.8434,-4.141156 -13,-5.930126 -20.0748,-5.957206 -6.0205,0.017 -12.0854,1.33014 -17.3225,4.447716 l -12.455,7.48474 c -1.9109,1.14961 -4.1624,1.73481 -6.5025,1.73941 -4.1812,0.0135 -8.3675,-1.93765 -10.7008,-5.11449 l -2.7454,-3.69512 -0.01,-0.01 c -1.4647,-1.96916 -2.1408,-4.177266 -2.1494,-6.412266 0,-3.37969 1.584,-6.66026 4.5968,-8.79155 l 36.8506,-25.89267 c 3.1866,-2.30723 8.8546,-3.92486 14.2398,-3.88433 3.7401,-0.017 7.3133,0.73405 9.7607,1.94208 l 30.0023,14.53263 c 5.1145,2.45574 10.8864,3.46076 16.6958,3.47421 7.4614,-0.0341 15.0045,-1.65885 21.2192,-5.47505 l 30.6461,-19.06567 c 1.9569,-1.22115 4.3039,-1.85215 6.7512,-1.85215 4.1369,-0.009 8.2824,1.86561 10.6292,4.92528 l 31.4228,40.20439 c 1.8104,2.30263 2.8613,5.551506 2.8613,8.917746 0.01,3.76715 -1.3285,7.47128 -3.5426,9.89109 z"
       inkscape:connector-curvature="0"
       style="fill:#666666;fill-opacity:1;stroke:#666666;stroke-width:7.24620008;stroke-miterlimit:4;stroke-dasharray:none;stroke-opacity:1;stroke-linejoin:round;stroke-linecap:round" />
    <g
       id="g4328"
       transform="matrix(0.50914995,0,0,0.50914995,207.77387,221.55575)"
       style="stroke:#666666;stroke-opacity:1">
      <circle
         id="circle3486"
         r="342.17578"
         cy="-515.49933"
         cx="-3895.7207"
         class="cls-2"
         style="fill:none;stroke:#666666;stroke-width:71.93604279px;stroke-miterlimit:10;stroke-opacity:1" />
      <circle
         style="fill:#666666;fill-opacity:1;stroke:none;stroke-width:23.97867966;stroke-opacity:1"
         id="circle3488"
         r="38.365887"
         cy="-677.83502"
         cx="-3895.7207" />
      <line
         id="line3490"
         y2="-355.08197"
         x2="-3895.7207"
         y1="-546.91138"
         x1="-3895.7207"
         class="cls-3"
         style="fill:none;stroke:#666666;stroke-width:71.93604279px;stroke-linecap:round;stroke-miterlimit:10;stroke-opacity:1" />
    </g>
    <path
       id="path3505"
       d="m -1083.9428,-70.858571 c -66.3477,0 -145.5957,78.7864973 -148.8207,82.011602 -6.9117,6.911628 -6.9117,18.431057 0,25.342685 3.225,3.225113 82.9345,82.011604 148.8207,82.011604 66.3476,0 145.59558,-78.786491 148.82069,-82.011604 6.91163,-6.911628 6.91163,-18.431057 0,-25.342685 -3.22511,-3.2251047 -82.93449,-82.011602 -148.82069,-82.011602 z m -0.4528,156.192088 c -33.6336,0 -60.8187,-27.183385 -60.8187,-60.818677 0,-33.6335201 27.1851,-60.357185 60.8187,-60.357185 33.6353,0 60.8186,27.1833855 60.8186,60.357185 0,33.1738 -27.6449,60.818677 -60.8186,60.818677 z m -62.6612,-113.34303 c -11.9791,14.283068 -19.3504,32.7123628 -19.3504,52.524353 0,18.890787 6.4502,36.398913 17.0466,50.222215 -30.8699,-18.42934 -57.5936,-42.849104 -65.8862,-50.681936 8.2926,-7.832841 35.9374,-33.1737991 68.19,-52.064632 z m 126.7067,103.667772 c 11.058,-13.821576 17.9679,-31.791149 17.9679,-51.143419 0,-20.7331942 -7.8329,-39.623981 -20.2718,-53.907003 32.71239,18.890786 61.27842,45.152958 70.03249,52.98579 -8.29263,8.294324 -35.93743,33.635292 -67.72859,52.064632 z m -74.1806,-187.063749 v -78.32678 c 0,-5.9887 3.2251,-10.59647 9.2139,-10.59647 5.9904,0 9.2155,4.60777 9.2155,10.59647 v 78.32678 c 0,5.99042 -3.2251,10.59818 -9.2155,10.59818 -5.9888,0 -9.2139,-4.60776 -9.2139,-10.59818 z m 104.12766,26.263906 49.76068,-49.760736 c 4.148,-4.14803 11.05791,-4.14803 15.20596,0 4.14628,4.14628 4.14628,11.05796 0,15.20424 l -49.76075,49.760722 c -2.30381,2.303864 -4.60771,3.225068 -7.37314,3.225068 -2.76361,0 -5.52894,-0.92293 -7.37132,-3.225068 -4.6078,-4.14628 -4.6078,-11.057945 -0.4702,-15.204226 z m 109.19838,36.858634 -41.46812,17.04837 c -1.37573,0.45276 -2.76362,0.922966 -4.14632,0.922966 -4.14628,0 -8.29433,-2.3039 -9.67526,-6.450181 -2.30385,-5.528968 0.45276,-11.519429 5.9887,-13.823293 l 41.46817,-17.046643 c 5.52898,-2.303909 11.51767,0.452752 13.82153,5.988698 2.30391,5.069248 -0.45275,11.519392 -5.9887,13.361809 z m -161.26134,-58.05332 29.4873,-70.95538 c 2.3038,-5.52897 8.2926,-7.83288 13.82149,-5.99046 5.52903,2.3039 7.83294,8.29433 5.99047,13.82329 l -29.48726,70.955423 c -1.8441,4.146285 -5.5289,6.450139 -9.677,6.450139 -1.3757,0 -2.7636,-0.452751 -4.1463,-0.922921 -5.9887,-1.375736 -8.2926,-7.832841 -5.9887,-13.361821 z m -195.8178,-13.82331 c -4.1481,-4.14627 -4.1481,-11.0579 0,-15.20422 4.1463,-4.14628 11.0579,-4.14628 15.2043,0 l 49.7606,49.760733 c 4.1463,4.146281 4.1463,11.057945 0,15.204226 -2.3039,2.3039 -4.6078,3.225104 -7.3714,3.225104 -2.7653,0 -5.5289,-0.922966 -7.373,-3.225104 z m 1.3756,89.846213 c -1.3756,0 -2.7636,-0.47017 -4.1462,-0.922931 l -41.4664,-17.048406 c -5.529,-2.303864 -7.8328,-8.292561 -5.9905,-13.821539 2.3039,-5.528977 8.7541,-7.832877 14.283,-5.528977 l 41.4682,17.046652 c 5.529,2.303864 7.8329,8.294316 5.9887,13.823293 -2.3039,4.146281 -5.9887,6.450145 -10.1368,6.450145 z m 66.8091,-138.685723 c -2.3038,-5.52897 0.4528,-11.51767 5.9905,-13.82153 5.529,-2.30391 11.5177,0.45276 13.8216,5.98869 l 29.4872,70.95538 c 2.3039,5.52897 -0.4527,11.519438 -5.9887,13.823292 -1.3757,0.470216 -2.7653,0.922976 -4.1463,0.922976 -4.148,0 -8.2943,-2.3039 -9.677,-6.450185 z m 85.6982,148.360972 c -25.341,0 -46.0742,20.73320354 -46.0742,46.075888 0,25.340968 20.7332,46.074172 46.0742,46.074172 25.3427,0 46.0759,-20.733204 46.0759,-46.074172 0,-25.34268446 -20.7332,-46.075888 -46.0759,-46.075888 z m 0,70.955409 c -13.8215,0 -24.8794,-11.057945 -24.8794,-24.879521 0,-13.823256 11.0579,-24.88120109 24.8794,-24.88120109 13.8233,0 24.8813,11.05794509 24.8813,24.88120109 0,13.821576 -11.058,24.879521 -24.8813,24.879521 z"
       inkscape:connector-curvature="0"
       style="fill:#666666;fill-opacity:1;stroke-width:4.60747385" />
  </g>
</svg>
