<?xml version="1.0" encoding="UTF-8" standalone="no"?>
<!-- Created with Inkscape (http://www.inkscape.org/) -->

<svg
   xmlns:dc="http://purl.org/dc/elements/1.1/"
   xmlns:cc="http://creativecommons.org/ns#"
   xmlns:rdf="http://www.w3.org/1999/02/22-rdf-syntax-ns#"
   xmlns:svg="http://www.w3.org/2000/svg"
   xmlns="http://www.w3.org/2000/svg"
   xmlns:sodipodi="http://sodipodi.sourceforge.net/DTD/sodipodi-0.dtd"
   xmlns:inkscape="http://www.inkscape.org/namespaces/inkscape"
   width="50"
   height="35"
   version="1.1"
   viewBox="0 0 13.229 9.2603"
   id="svg4283"
   sodipodi:docname="Nightingale Small.svg"
   inkscape:version="0.92.3 (2405546, 2018-03-11)">
  <defs
     id="defs4287" />
  <sodipodi:namedview
     pagecolor="#ffffff"
     bordercolor="#666666"
     borderopacity="1"
     objecttolerance="10"
     gridtolerance="10"
     guidetolerance="10"
     inkscape:pageopacity="0"
     inkscape:pageshadow="2"
     inkscape:window-width="640"
     inkscape:window-height="480"
     id="namedview4285"
     showgrid="false"
     units="in"
     inkscape:current-layer="svg4283" />
  <metadata
     id="metadata4271">
    <rdf:RDF>
      <cc:Work
         rdf:about="">
        <dc:format>image/svg+xml</dc:format>
        <dc:type
           rdf:resource="http://purl.org/dc/dcmitype/StillImage" />
        <dc:title></dc:title>
      </cc:Work>
    </rdf:RDF>
  </metadata>
  <g
     transform="translate(-4.252717e-4,-285.7557)"
     id="g4281">
    <g
       transform="matrix(0.04361,0,0,0.04361,-13.707,291.07)"
       id="g4279"
       style="fill:#ffffff">
      <path
         d="m 477.55,-115.27 c -18.506,0.10507 -36.539,5.8013 -51.666,16.124 l 48.246,63.629 11.373,-79.453 c -2.656,-0.216 -5.3093,-0.31525 -7.953,-0.30024 z m 15.52,8.2036 -9.9529,71.293 57.633,-43.699 c -10.293,-12.116 -23.695,-20.942 -38.993,-25.504 -2.8331,-0.84488 -5.7313,-1.5435 -8.6868,-2.0898 z m -78.395,6.9753 c -16.152,13.296 -30.043,35.109 -34.396,58.084 l 87.315,11.708 z m 94.619,5.7841 a 10.257,10.257 0 0 1 10.257,10.257 10.257,10.257 0 0 1 -10.257,10.257 10.257,10.257 0 0 1 -10.257,-10.257 10.257,10.257 0 0 1 10.257,-10.257 z m 37.465,23.046 -58.967,43.662 70.918,8.938 c 1.5431,-16.648 -2.6792,-38.643 -11.95,-52.6 z m -221.26,31.954 c -2.5444,25.014 9.315,79.761 22.375,98.715 l 118.92,-82.804 z m 160.88,19.948 31.574,41.642 c 11.155,-9.5071 17.532,-21.163 20.429,-34.641 z m -14.536,2.6262 -46.14,34.984 c 9.5071,11.155 23.179,19.151 37.994,22.084 z m 7.8724,2.4252 -5.6033,39.663 c 10.371,0.53089 22.558,-3.4625 29.726,-7.8481 z"
         style="paint-order:markers stroke fill"
         id="path4273"
         inkscape:connector-curvature="0" />
      <path
         d="m 592.83,-107.97 c -0.55785,-0.0109 -1.1827,0.0275 -1.8733,0.11937 l -58.023,6.751 a 86.729,81.384 0 0 1 36.595,66.339 86.729,81.384 0 0 1 -0.16124,3.0272 l 35.35,-39.17 c 3.7758,-4.1053 2.3561,-6.7409 -3.143,-5.8539 l -38.037,6.0312 30.409,-31.195 c 3.3925,-3.4813 2.7882,-5.9726 -1.1167,-6.0487 z"
         id="path4275"
         inkscape:connector-curvature="0"
         style="stroke-width:4.08939981" />
      <path
         d="m 500.02,31.147 c -4.7576,1.9268 -10.006,3.4093 -15.511,4.1708 -0.48663,8.2651 -1.8845,38.174 2.7518,47.302 1.0746,2.1157 3.0615,1.3792 4.1837,-0.59272 5.2969,-9.3071 7.7277,-38 8.5752,-50.88 z m -44.055,18.22 c -0.0571,9.7314 0.46357,20.925 2.867,25.657 0.92658,1.8243 2.6399,1.1892 3.6075,-0.51107 2.4404,-4.288 4.1737,-13.359 5.3723,-22.574 l -6.1681,-1.2211 c -1.9137,-0.37878 -3.8071,-0.83206 -5.6787,-1.3503 z"
         id="path4277"
         inkscape:connector-curvature="0"
         style="stroke-width:4.08939981" />
    </g>
  </g>
</svg>
