<?xml version="1.0" encoding="UTF-8" standalone="no"?>
<svg
   xmlns:dc="http://purl.org/dc/elements/1.1/"
   xmlns:cc="http://creativecommons.org/ns#"
   xmlns:rdf="http://www.w3.org/1999/02/22-rdf-syntax-ns#"
   xmlns:svg="http://www.w3.org/2000/svg"
   xmlns="http://www.w3.org/2000/svg"
   height="425.19922"
   width="1134.3806"
   xml:space="preserve"
   viewBox="0 0 1134.3806 425.19921"
   y="0px"
   x="0px"
   id="Capa_1"
   version="1.1"><metadata
   id="metadata453"><rdf:RDF><cc:Work
       rdf:about=""><dc:format>image/svg+xml</dc:format><dc:type
         rdf:resource="http://purl.org/dc/dcmitype/StillImage" /><dc:title></dc:title></cc:Work></rdf:RDF></metadata><defs
   id="defs451">
	
	
	
	
	
	
	
	
	
	
	
	
	
	
	
	
	

	
	
	

	
	

	
	
	
	

	
	

	
	

	
	
	
	
	
	
	
	
	
	
	
	
	
	
	
	
	
	
	
	
	
	
	
	
	
	
	
	
	
	

	
	
	
	
	
	

	
	
	
	

		
		
		
	
		
		
		
		
		
		
		
		
		
		
		
		
		
		
		
		
		
		
		
		
		
		
		
		
		
		
		
		
		
		
		
		
		
		
		
		
		
		
		
		
		
		
		
		
		
	
		
		
		
		
		
		
	
		
		
		
		
		
		
	
		
		
		
		
		
		
	
		
		
		
		
		
		
	
		
		
	
		
		
		
		
		
		
		
		
		
		
		
		
		
		
		
		
		
		
		
		
		
		
	
		
	
		
		
	
		
		
	
		
		
	
		
		
	
			
			
		
			
			
		
			
			
		
			
			
			
		
			
			
			
			
			
			
			
			
		
			
			
		
			
		
				
				
			
				
				
			
				
				
			
				
				
			
					
					
					
				
					
					
				</defs>
<style
   id="style2"
   type="text/css">
	.st0{fill:#C6CAE6;}
	.st1{opacity:0.4;fill:#FFFFFF;}
	.st2{fill:#2E3192;}
	.st3{fill:#282660;}
	.st4{fill:#FFFFFF;}
	.st5{fill:#495BA9;}
	.st6{opacity:0.2;fill:#8980BC;}
	.st7{opacity:0.5;fill:#2E3192;}
	.st8{opacity:0.8;fill:#FDBC56;}
	.st9{opacity:0.5;fill:#FFFFFF;}
	.st10{fill:#FAA229;}
	.st11{fill:#FDBC56;}
	.st12{opacity:0.8;fill:#FFFFFF;}
	.st13{fill:#E5846F;}
	.st14{fill:#F79E8C;}
</style>
<path
   id="rect4"
   d="m 0,0 v 425.19922 h 0.21093 v -60.83008 c 71.27,-32.94 179.41024,-53.94922 300.49024,-53.94922 103.13,0 192.67876,-16.03334 266.43945,-20.25976 78.38548,-4.49141 179.41023,-53.94922 300.49023,-53.94922 80.57032,0 155.40855,-27.54621 217.46875,-27.73828 17.3769,-0.0538 33.7523,2.03625 48.9707,7.47656 V 0 Z"
   style="fill:#93b7be;stroke-width:1.41434455;fill-opacity:1" /><rect
   ry="13.5714"
   y="40.924488"
   x="637.54669"
   height="46.412403"
   width="67.871902"
   id="rect4793"
   style="opacity:1;vector-effect:none;fill:#ffffff;fill-opacity:1;fill-rule:nonzero;stroke:none;stroke-width:32;stroke-linecap:round;stroke-linejoin:round;stroke-miterlimit:4;stroke-dasharray:none;stroke-dashoffset:0;stroke-opacity:1;paint-order:markers stroke fill" />

<polygon
   transform="translate(567.14062)"
   style="fill:#93b7be;fill-opacity:1"
   id="polygon8"
   points="567.24,358.34 566.93,306.63 362.85,352.84 479.33,362.51 489.01,364.29 "
   class="st0" />
<polygon
   transform="translate(567.14062)"
   style="fill:#93b7be;fill-opacity:1"
   id="polygon10"
   points="566.93,225.74 135.74,294.44 239.52,328.13 567.24,283.24 "
   class="st0" />
<path
   class="st2"
   d="m 938.94062,283.57 c -5.07,-6.76 -3.57,-77.43 -3.57,-77.43 -0.09,-0.22 -0.17,-0.45 -0.25,-0.67 l -2.13,-0.1 v -3.2 l -34.69,1.6 -34.69,-1.6 v 3.2 l -2.13,0.1 c -0.08,0.23 -0.17,0.45 -0.25,0.67 0,0 1.5,70.67 -3.57,77.43 -5.07,6.76 -29.74,12.08 -29.74,12.08 h 35.7 69.38 35.7 c -0.02,0.01 -24.69,-5.32 -29.76,-12.08 z"
   id="path12"
   style="fill:#009688;fill-opacity:1" /><path
   class="st3"
   d="m 860.91062,258.42 h 74.75 c -0.93,-22.71 -0.3,-52.27 -0.3,-52.27 -0.09,-0.22 -0.17,-0.45 -0.25,-0.67 l -2.13,-0.1 v -3.2 l -34.69,1.6 -34.69,-1.6 v 3.2 l -2.13,0.1 c -0.08,0.23 -0.17,0.45 -0.25,0.67 0,0 0.62,29.56 -0.31,52.27 z"
   id="path14"
   style="fill:#008f82;fill-opacity:1" /><path
   style="fill:#009688;fill-opacity:1"
   id="path16"
   d="m 1071.0706,218.63 c 0,13.51 -12.35,24.46 -27.59,24.46 H 753.10062 c -15.24,0 -27.59,-10.95 -27.59,-24.46 V 63.47 c 0,-13.51 12.35,-24.46 27.59,-24.46 h 290.37998 c 15.24,0 27.59,10.95 27.59,24.46 z"
   class="st2" /><rect
   style="fill:#ffffff"
   id="rect18"
   height="149.75999"
   width="311.70999"
   class="st4"
   y="53.169998"
   x="742.4306" /><path
   class="st5"
   d="m 725.51062,201.47 v 17.17 c 0,13.51 12.35,24.46 27.59,24.46 h 290.37998 c 15.24,0 27.59,-10.95 27.59,-24.46 v -17.17 z"
   id="path20"
   style="fill:#007167;fill-opacity:1" /><path
   class="st6"
   d="m 783.88062,43.3 c 10.72,5.74 21.36,11.64 31.91,17.69 48.89,28.03 96.1,58.93 142.66,90.65 22.05,15.02 43.55998,30.84 65.88998,45.46 14.93,9.77 30.23,18.81 46.07,26.85 0.43,-1.71 0.66,-3.49 0.66,-5.32 V 63.47 c 0,-13.51 -12.35,-24.46 -27.59,-24.46 H 775.71062 c 2.73,1.41 5.46,2.83 8.17,4.29 z"
   id="path26"
   style="opacity:0.422;fill:#e2dae1;fill-opacity:1" />
<rect
   x="808.08063"
   y="72.099998"
   class="st7"
   width="121.5"
   height="123.39"
   id="rect30"
   style="opacity:0.5;fill:#6d466b;fill-opacity:1" /><rect
   style="fill:#ffffff"
   id="rect32"
   height="2.3299999"
   width="44.5"
   class="st4"
   y="79.330002"
   x="813.9306" /><rect
   style="fill:#ffffff"
   id="rect34"
   height="2.3199999"
   width="44.5"
   class="st4"
   y="99.010002"
   x="826.72058" /><rect
   style="fill:#ffffff"
   id="rect36"
   height="2.3299999"
   width="71.199997"
   class="st4"
   y="108.15"
   x="826.72058" /><rect
   style="fill:#ffffff"
   id="rect38"
   height="2.3299999"
   width="45.560001"
   class="st4"
   y="119.01"
   x="813.37061" /><rect
   style="fill:#ffffff"
   id="rect40"
   height="2.3299999"
   width="74.800003"
   class="st4"
   y="123.8"
   x="813.37061" /><rect
   style="fill:#ffffff"
   id="rect42"
   height="2.3199999"
   width="33.080002"
   class="st4"
   y="138.33"
   x="813.09064" /><rect
   style="fill:#ffffff"
   id="rect44"
   height="2.3299999"
   width="24.200001"
   class="st4"
   y="142.67999"
   x="813.09064" /><rect
   style="fill:#ffffff"
   id="rect46"
   height="2.3299999"
   width="33.080002"
   class="st4"
   y="147.03999"
   x="813.09064" /><rect
   style="fill:#ffffff"
   id="rect48"
   height="2.3299999"
   width="74.800003"
   class="st4"
   y="128.44"
   x="813.37061" /><rect
   style="fill:#ffffff"
   id="rect50"
   height="2.3299999"
   width="45.560001"
   class="st4"
   y="167.06"
   x="813.37061" /><rect
   style="fill:#ffffff"
   id="rect52"
   height="2.3199999"
   width="74.800003"
   class="st4"
   y="171.85001"
   x="813.37061" /><rect
   style="fill:#ffffff"
   id="rect54"
   height="2.3299999"
   width="74.800003"
   class="st4"
   y="176.48"
   x="813.37061" /><rect
   style="fill:#ffffff"
   id="rect56"
   height="2.3299999"
   width="42.950001"
   class="st4"
   y="79.330002"
   x="859.79059" /><rect
   style="fill:#ffffff"
   id="rect58"
   height="2.3299999"
   width="24.940001"
   class="st4"
   y="89.07"
   x="813.9306" /><rect
   style="fill:#ffffff"
   id="rect60"
   height="2.3299999"
   width="24.940001"
   class="st4"
   y="89.07"
   x="840.34064" /><rect
   style="fill:#ffffff"
   id="rect62"
   height="2.3299999"
   width="5.3400002"
   class="st4"
   y="89.07"
   x="866.59064" /><rect
   style="fill:#ffffff"
   id="rect64"
   height="2.3299999"
   width="5.3400002"
   class="st4"
   y="89.07"
   x="873.33063" /><rect
   style="fill:#ffffff"
   id="rect66"
   height="2.3299999"
   width="5.3400002"
   class="st4"
   y="84.32"
   x="824.78064" /><rect
   style="fill:#ffffff"
   id="rect68"
   height="2.3299999"
   width="5.3400002"
   class="st4"
   y="84.32"
   x="831.52063" /><rect
   style="fill:#ffffff"
   id="rect70"
   height="2.3299999"
   width="5.3400002"
   class="st4"
   y="84.32"
   x="838.26062" /><rect
   style="fill:#ffffff"
   id="rect72"
   height="2.3299999"
   width="5.3400002"
   class="st4"
   y="84.32"
   x="844.9906" /><rect
   style="fill:#ffffff"
   id="rect74"
   height="2.3299999"
   width="5.3400002"
   class="st4"
   y="84.32"
   x="851.72058" /><rect
   style="fill:#ffffff"
   id="rect76"
   height="2.3299999"
   width="33.700001"
   class="st4"
   y="84.32"
   x="858.46063" /><rect
   style="fill:#ffffff"
   id="rect78"
   height="2.3299999"
   width="3.77"
   class="st4"
   y="103.44"
   x="826.72058" /><rect
   style="fill:#ffffff"
   id="rect80"
   height="2.3299999"
   width="3.77"
   class="st4"
   y="103.44"
   x="831.47058" /><rect
   style="fill:#ffffff"
   id="rect82"
   height="2.3299999"
   width="3.77"
   class="st4"
   y="103.44"
   x="836.23059" /><rect
   style="fill:#ffffff"
   id="rect84"
   height="2.3299999"
   width="3.77"
   class="st4"
   y="103.44"
   x="840.98059" /><rect
   style="fill:#ffffff"
   id="rect86"
   height="2.3299999"
   width="3.77"
   class="st4"
   y="103.44"
   x="845.7406" /><rect
   style="fill:#ffffff"
   id="rect88"
   height="2.3299999"
   width="23.780001"
   class="st4"
   y="103.44"
   x="850.4906" /><rect
   style="fill:#ffffff"
   id="rect90"
   height="2.3199999"
   width="44.5"
   class="st4"
   y="162.25999"
   x="813.37061" /><rect
   style="fill:#ffffff"
   id="rect92"
   height="2.3299999"
   width="71.199997"
   class="st4"
   y="153.12"
   x="813.37061" /><rect
   style="fill:#ffffff"
   id="rect94"
   height="2.3299999"
   width="3.77"
   class="st4"
   y="157.84"
   x="813.37061" /><rect
   style="fill:#ffffff"
   id="rect96"
   height="2.3299999"
   width="3.77"
   class="st4"
   y="157.84"
   x="818.12061" /><rect
   style="fill:#ffffff"
   id="rect98"
   height="2.3299999"
   width="3.77"
   class="st4"
   y="157.84"
   x="822.88062" /><rect
   style="fill:#ffffff"
   id="rect100"
   height="2.3299999"
   width="3.77"
   class="st4"
   y="157.84"
   x="827.63062" /><rect
   style="fill:#ffffff"
   id="rect102"
   height="2.3299999"
   width="3.77"
   class="st4"
   y="157.84"
   x="832.38062" /><rect
   style="fill:#ffffff"
   id="rect104"
   height="2.3299999"
   width="23.790001"
   class="st4"
   y="157.84"
   x="837.14062" /><rect
   style="fill:#ffffff"
   id="rect106"
   height="2.3299999"
   width="28.209999"
   class="st4"
   y="137.91"
   x="873.3006" /><rect
   style="fill:#ffffff"
   id="rect108"
   height="2.3299999"
   width="45.139999"
   class="st4"
   y="147.03999"
   x="856.37061" /><rect
   style="fill:#ffffff"
   id="rect110"
   height="2.3199999"
   width="2.3900001"
   class="st4"
   y="142.33"
   x="899.13062" /><rect
   style="fill:#ffffff"
   id="rect112"
   height="2.3199999"
   width="2.3900001"
   class="st4"
   y="142.33"
   x="896.1106" /><rect
   style="fill:#ffffff"
   id="rect114"
   height="2.3199999"
   width="2.3900001"
   class="st4"
   y="142.33"
   x="893.10059" /><rect
   style="fill:#ffffff"
   id="rect116"
   height="2.3199999"
   width="2.3900001"
   class="st4"
   y="142.33"
   x="890.09064" /><rect
   style="fill:#ffffff"
   id="rect118"
   height="2.3199999"
   width="2.3900001"
   class="st4"
   y="142.33"
   x="887.07062" /><rect
   style="fill:#ffffff"
   id="rect120"
   height="2.3199999"
   width="15.08"
   class="st4"
   y="142.33"
   x="871.37061" /><rect
   x="808.08063"
   y="58.389999"
   class="st5"
   width="121.5"
   height="13.7"
   id="rect124"
   style="fill:#6d466b;fill-opacity:1" /><path
   class="st4"
   d="m 819.27062,65.23 c 0,1.72 -1.39,3.11 -3.11,3.11 -1.72,0 -3.11,-1.39 -3.11,-3.11 0,-1.72 1.39,-3.11 3.11,-3.11 1.71,0 3.11,1.39 3.11,3.11 z"
   id="path126"
   style="fill:#ffffff" /><path
   class="st4"
   d="m 828.74062,65.23 c 0,1.72 -1.39,3.11 -3.11,3.11 -1.72,0 -3.11,-1.39 -3.11,-3.11 0,-1.72 1.39,-3.11 3.11,-3.11 1.72,0 3.11,1.39 3.11,3.11 z"
   id="path128"
   style="fill:#ffffff" /><path
   class="st4"
   d="m 838.04062,65.23 c 0,1.72 -1.39,3.11 -3.11,3.11 -1.72,0 -3.11,-1.39 -3.11,-3.11 0,-1.72 1.39,-3.11 3.11,-3.11 1.72,0 3.11,1.39 3.11,3.11 z"
   id="path130"
   style="fill:#ffffff" />
<rect
   x="879.27063"
   y="105.25"
   class="st8"
   width="116.63"
   height="118.44"
   id="rect134"
   style="opacity:0.8;fill:#ffba49;fill-opacity:1" /><rect
   x="884.89062"
   y="112.2"
   class="st4"
   width="42.709999"
   height="2.23"
   id="rect136"
   style="fill:#ffffff" /><rect
   x="897.16058"
   y="131.09"
   class="st4"
   width="42.709999"
   height="2.23"
   id="rect138"
   style="fill:#ffffff" /><rect
   x="897.16058"
   y="139.86"
   class="st4"
   width="68.339996"
   height="2.23"
   id="rect140"
   style="fill:#ffffff" /><rect
   x="884.35059"
   y="150.28"
   class="st4"
   width="43.73"
   height="2.23"
   id="rect142"
   style="fill:#ffffff" /><rect
   x="884.35059"
   y="154.88"
   class="st4"
   width="71.800003"
   height="2.23"
   id="rect144"
   style="fill:#ffffff" /><rect
   x="884.08063"
   y="168.82001"
   class="st4"
   width="31.75"
   height="2.23"
   id="rect146"
   style="fill:#ffffff" /><rect
   x="884.08063"
   y="173.00999"
   class="st4"
   width="23.23"
   height="2.23"
   id="rect148"
   style="fill:#ffffff" /><rect
   x="884.08063"
   y="177.19"
   class="st4"
   width="31.75"
   height="2.23"
   id="rect150"
   style="fill:#ffffff" /><rect
   x="884.35059"
   y="159.33"
   class="st4"
   width="71.800003"
   height="2.23"
   id="rect152"
   style="fill:#ffffff" /><rect
   x="884.35059"
   y="196.39999"
   class="st4"
   width="43.73"
   height="2.23"
   id="rect154"
   style="fill:#ffffff" /><rect
   x="884.35059"
   y="201"
   class="st4"
   width="71.800003"
   height="2.23"
   id="rect156"
   style="fill:#ffffff" /><rect
   x="884.35059"
   y="205.45"
   class="st4"
   width="71.800003"
   height="2.23"
   id="rect158"
   style="fill:#ffffff" /><rect
   x="928.90063"
   y="112.2"
   class="st4"
   width="41.220001"
   height="2.23"
   id="rect160"
   style="fill:#ffffff" /><rect
   x="884.89062"
   y="121.54"
   class="st4"
   width="23.940001"
   height="2.23"
   id="rect162"
   style="fill:#ffffff" /><rect
   x="910.23059"
   y="121.54"
   class="st4"
   width="23.940001"
   height="2.23"
   id="rect164"
   style="fill:#ffffff" /><rect
   x="935.4306"
   y="121.54"
   class="st4"
   width="5.1199999"
   height="2.23"
   id="rect166"
   style="fill:#ffffff" /><rect
   x="941.89062"
   y="121.54"
   class="st4"
   width="5.1199999"
   height="2.23"
   id="rect168"
   style="fill:#ffffff" /><rect
   style="fill:#ffffff"
   id="rect170"
   height="2.23"
   width="5.1300001"
   class="st4"
   y="116.98"
   x="895.3006" /><rect
   style="opacity:0.5;fill:#ffffff"
   id="rect172"
   height="2.23"
   width="5.1199999"
   class="st9"
   y="116.98"
   x="901.77063" /><rect
   style="fill:#ffffff"
   id="rect174"
   height="2.23"
   width="5.1199999"
   class="st4"
   y="116.98"
   x="908.23059" /><rect
   style="opacity:0.5;fill:#ffffff"
   id="rect176"
   height="2.23"
   width="5.1199999"
   class="st9"
   y="116.98"
   x="914.70062" /><rect
   style="fill:#ffffff"
   id="rect178"
   height="2.23"
   width="5.1199999"
   class="st4"
   y="116.98"
   x="921.16058" /><rect
   style="fill:#ffffff"
   id="rect180"
   height="2.23"
   width="32.349998"
   class="st4"
   y="116.98"
   x="927.63062" /><rect
   style="fill:#ffffff"
   id="rect184"
   height="2.23"
   width="3.6199999"
   class="st4"
   y="135.33"
   x="897.16058" /><rect
   style="opacity:0.5;fill:#ffffff"
   id="rect186"
   height="2.23"
   width="3.6199999"
   class="st9"
   y="135.33"
   x="901.72058" /><rect
   style="fill:#ffffff"
   id="rect188"
   height="2.23"
   width="3.6199999"
   class="st4"
   y="135.33"
   x="906.29059" /><rect
   style="opacity:0.5;fill:#ffffff"
   id="rect190"
   height="2.23"
   width="3.6199999"
   class="st9"
   y="135.33"
   x="910.85059" /><rect
   style="fill:#ffffff"
   id="rect192"
   height="2.23"
   width="3.6199999"
   class="st4"
   y="135.33"
   x="915.41058" /><rect
   style="fill:#ffffff"
   id="rect194"
   height="2.23"
   width="22.83"
   class="st4"
   y="135.33"
   x="919.97058" /><rect
   x="884.35059"
   y="191.8"
   class="st4"
   width="42.709999"
   height="2.23"
   id="rect198"
   style="fill:#ffffff" /><rect
   x="884.35059"
   y="183.02"
   class="st4"
   width="68.339996"
   height="2.23"
   id="rect200"
   style="fill:#ffffff" /><rect
   style="fill:#ffffff"
   id="rect202"
   height="2.23"
   width="3.6199999"
   class="st4"
   y="187.55"
   x="884.35059" /><rect
   style="opacity:0.5;fill:#ffffff"
   id="rect204"
   height="2.23"
   width="3.6199999"
   class="st9"
   y="187.55"
   x="888.91058" /><rect
   style="fill:#ffffff"
   id="rect206"
   height="2.23"
   width="3.6199999"
   class="st4"
   y="187.55"
   x="893.47058" /><rect
   style="opacity:0.5;fill:#ffffff"
   id="rect208"
   height="2.23"
   width="3.6199999"
   class="st9"
   y="187.55"
   x="898.03064" /><rect
   style="fill:#ffffff"
   id="rect210"
   height="2.23"
   width="3.6199999"
   class="st4"
   y="187.55"
   x="902.60059" /><rect
   style="fill:#ffffff"
   id="rect212"
   height="2.23"
   width="22.83"
   class="st4"
   y="187.55"
   x="907.16058" /><rect
   x="941.87061"
   y="168.42"
   class="st4"
   width="27.08"
   height="2.23"
   id="rect216"
   style="fill:#ffffff" /><rect
   x="925.62061"
   y="177.19"
   class="st4"
   width="43.330002"
   height="2.23"
   id="rect218"
   style="fill:#ffffff" /><rect
   style="fill:#ffffff"
   id="rect220"
   height="2.23"
   width="2.29"
   class="st4"
   y="172.67"
   x="966.66058" /><rect
   style="opacity:0.5;fill:#ffffff"
   id="rect222"
   height="2.23"
   width="2.29"
   class="st9"
   y="172.67"
   x="963.77063" /><rect
   style="fill:#ffffff"
   id="rect224"
   height="2.23"
   width="2.29"
   class="st4"
   y="172.67"
   x="960.88062" /><rect
   style="opacity:0.5;fill:#ffffff"
   id="rect226"
   height="2.23"
   width="2.29"
   class="st9"
   y="172.67"
   x="957.98059" /><rect
   style="fill:#ffffff"
   id="rect228"
   height="2.23"
   width="2.29"
   class="st4"
   y="172.67"
   x="955.09064" /><rect
   style="fill:#ffffff"
   id="rect230"
   height="2.23"
   width="14.48"
   class="st4"
   y="172.67"
   x="940.01062" /><rect
   x="879.27063"
   y="92.099998"
   class="st10"
   width="116.63"
   height="13.15"
   id="rect234"
   style="fill:#ffba49;fill-opacity:1" /><path
   class="st4"
   d="m 890.01062,98.66 c 0,1.65 -1.34,2.99 -2.98,2.99 -1.65,0 -2.99,-1.34 -2.99,-2.99 0,-1.65 1.34,-2.99 2.99,-2.99 1.64,0.01 2.98,1.34 2.98,2.99 z"
   id="path236"
   style="fill:#ffffff" /><path
   class="st4"
   d="m 899.10062,98.66 c 0,1.65 -1.34,2.99 -2.99,2.99 -1.65,0 -2.99,-1.34 -2.99,-2.99 0,-1.65 1.34,-2.99 2.99,-2.99 1.65,0.01 2.99,1.34 2.99,2.99 z"
   id="path238"
   style="fill:#ffffff" /><path
   class="st4"
   d="m 908.03062,98.66 c 0,1.65 -1.34,2.99 -2.99,2.99 -1.65,0 -2.99,-1.34 -2.99,-2.99 0,-1.65 1.34,-2.99 2.99,-2.99 1.65,0.01 2.99,1.34 2.99,2.99 z"
   id="path240"
   style="fill:#ffffff" />
<path
   class="st11"
   d="m 672.31062,333.11 c 34.33,4.24 69.21,3.98 103.5,-0.37 10.3,-1.44 20.57,-3.04 30.85,-4.61 9.53,-23.15 8.92,-87.95 -0.03,-94.34 -22.3,-15.92 -158.14,-15.92 -169.09,-1 -9.87,13.46 -20.13,68.96 -0.92,92.52 11.68,3.45 23.61,5.99 35.69,7.8 z"
   id="path244"
   style="fill:#ffba49;fill-opacity:1" /><polygon
   transform="translate(567.14062)"
   class="st4"
   points="122.99,308.29 198.62,274.96 122.99,249.58 "
   id="polygon246"
   style="fill:#ffffff" />
<path
   class="st10"
   d="m 957.53062,367.95 c 25.2,3.11 50.79998,2.92 75.97998,-0.27 7.56,-1.06 15.1,-2.23 22.64,-3.38 7,-17 6.55,-64.56 -0.02,-69.25 -16.37,-11.69 -116.07998,-11.69 -124.11998,-0.73 -7.24,9.88 -14.78,50.62 -0.68,67.92 8.58,2.51 17.34,4.38 26.2,5.71 z"
   id="path250"
   style="fill:#ffba49;fill-opacity:1" /><polygon
   transform="translate(567.14062)"
   class="st4"
   points="403.47,349.73 458.99,325.26 403.47,306.63 "
   id="polygon252"
   style="fill:#ffffff" />
<path
   class="st12"
   d="m 992.43062,129.59 c 0.21,2.72 -1.83,5.09 -4.54,5.3 -2.72,0.21 -5.09,-1.83 -5.3,-4.55 -0.21,-2.72 1.83,-5.09 4.55,-5.3 2.71,-0.2 5.08,1.83 5.29,4.55 z"
   id="path256"
   style="opacity:0.8;fill:#ffffff" /><path
   class="st12"
   d="m 979.17062,117.61 c -6.76,4.6 -8.52,13.81 -3.92,20.57 4.6,6.76 13.81,8.52 20.57,3.92 6.75998,-4.6 8.50998,-13.81 3.92,-20.57 -4.6,-6.76 -13.8,-8.52 -20.57,-3.92 z m 14.93,21.95 c -5.36,3.64 -12.66,2.25 -16.3,-3.11 -3.64,-5.36 -2.25,-12.66 3.11,-16.3 5.36,-3.64 12.66,-2.25 16.3,3.11 3.63998,5.35 2.25,12.65 -3.11,16.3 z"
   id="path258"
   style="opacity:0.8;fill:#ffffff" /><path
   class="st12"
   d="m 982.28062,122.28 c -4.25,2.89 -5.35,8.67 -2.46,12.92 2.89,4.25 8.67,5.35 12.92,2.46 4.25,-2.89 5.35,-8.67 2.46,-12.92 -2.89,-4.24 -8.67,-5.35 -12.92,-2.46 z m 9.37,13.79 c -3.37,2.29 -7.95,1.42 -10.24,-1.95 -2.29,-3.37 -1.41,-7.95 1.95,-10.24 3.36,-2.29 7.95,-1.42 10.24,1.95 2.29,3.36 1.42,7.95 -1.95,10.24 z"
   id="path260"
   style="opacity:0.8;fill:#ffffff" /><polygon
   transform="translate(567.14062)"
   class="st2"
   points="447.97,162.54 450.52,160.55 442.7,147.32 451.95,144.35 420.37,129.97 430.73,163.09 435.05,153.78 "
   id="polygon262"
   style="fill:#2d3047;fill-opacity:1" />
<path
   style="fill:#b700b7;fill-opacity:1"
   id="path266"
   d="m 1051.5206,249.14 c -0.25,-0.15 -0.47,-0.28 -0.66,-0.4 -0.07,-0.1 -0.15,-0.19 -0.24,-0.27 -1.37,-1.21 -0.98,-3.82 -0.57,-5.84 0.41,-2.02 -0.86,-7.9 -4.33,-8.69 -3.47,-0.79 -4.61,1.15 -4.61,1.15 l 1.49,3.29 c 0,0 0.23,1.93 0.47,4.03 -0.52,1.46 -1.01,3.02 -1.2,4.15 l -4.26,1.3 c 0,0 -2.35,2.83 -2.11,3.56 0.24,0.73 -1.03,1.9 -2.28,2.94 -1.24,1.04 -0.3,2.01 0.55,3.17 0.85,1.16 0.62,1.9 0.62,1.9 0,0 1.72,-2.07 2.08,-2.37 0.36,-0.3 2.75,0.17 3.04,0.48 0.29,0.31 2.23,2.28 3.46,5.33 1.23,3.04 5.56,6.8 6.49,7.39 0.93,0.59 1.76,3.33 2.03,2.93 0.27,-0.4 0.76,-1.2 0.08,-2.03 -0.68,-0.84 -1.41,-1.65 1.25,-4.06 2.66,-2.41 2.6,-5.18 1.48,-6.35 -1.12,-1.17 0.29,-3.66 1.24,-5.72 0.95,-2.07 -2.12,-4.8 -4.02,-5.89 z"
   class="st2" /><path
   style="fill:#faa229"
   id="path268"
   d="m 1046.3406,255.19 c 0.96,1.79 1.6,3.6 7.45,17.47 1.39,3.29 -0.77,2.58 -2.83,2.24 -2.06,-0.35 -6.86,-5.84 -6.75,-9.39 0.1,-3.55 2.13,-10.32 2.13,-10.32 z"
   class="st10" /><path
   style="fill:#007167;fill-opacity:1"
   id="path270"
   d="m 1067.1506,318.79 c 0,0 -0.45,0.35 -0.53,0.52 -0.15,0.3 -1.15,2.52 -1.05,2.95 0.1,0.42 7.78,2.37 7.78,2.37 0,0 3.8,-0.21 4.25,-0.64 0.46,-0.43 0.32,-0.8 0.1,-0.88 -0.22,-0.08 -8.81,-4.14 -8.81,-4.14 z"
   class="st4" /><path
   style="fill:#e79f98;fill-opacity:1"
   id="path272"
   d="m 1062.4506,291.82 c 0.13,-0.97 -12.55,-9.58 -12.55,-9.58 l 20.19,3.86 c 0,0 0.08,4.59 -0.95,30.33 v 0 l 0.04,3.67 c -0.4,0.5 -1.99,0.69 -2.27,0.18 -0.05,-0.08 -0.73,-3.62 -0.73,-3.62 -1.05,-6.55 -3.86,-23.87 -3.73,-24.84 z"
   class="st13" /><path
   style="fill:#007167;fill-opacity:1"
   id="path274"
   d="m 1054.9806,321.71 c 0,0 -0.62,0.27 -0.66,0.44 -0.04,0.17 -0.84,2.03 -0.78,2.46 0.07,0.43 7.3,3.21 7.3,3.21 0,0 3.71,0.12 4.2,-0.28 0.49,-0.4 0.38,-0.77 0.16,-0.87 -0.22,-0.09 -8.5,-4.67 -8.5,-4.67 z"
   class="st4" /><path
   style="fill:#f9baad;fill-opacity:1"
   id="path276"
   d="m 1059.7406,294.9 c 0.45,-0.88 -16.48,-12.03 -16.48,-12.03 l 25.91,6.6 c 0,0 -1.21,6.04 -10.98,30.13 h 0.01 l -1.22,3.5 c -0.54,0.36 -2.12,0.06 -2.21,-0.5 -0.02,-0.09 0.55,-3.65 0.55,-3.65 1.22,-6.52 3.97,-23.17 4.42,-24.05 z"
   class="st14" /><path
   style="fill:#f9baad;fill-opacity:1"
   id="path278"
   d="m 1062.2406,325.35 c 0,0 -4.02,-1.79 -5.05,-2.87 l -2.43,0.11 c 0,0 -0.03,1.54 5.32,2.97 z"
   class="st14" /><path
   style="fill:#bcbec0;fill-opacity:1"
   id="path280"
   d="m 1046.9206,281.31 h 0.42 c 0,0 1.8,0.35 18.07,3.72 0,0 -4.62,1 -5.62,10.53 0,0 -18.51,2.68 -23.5,-0.08 -3.11,-1.72 -6.46,-4.82 -4.36,-13.5 z"
   class="st4" /><path
   style="fill:#faa229"
   id="path282"
   d="m 1047.6906,272.16 c 0,0 5.88,10.73 15.88,13.94 0,0 4.46,-1.55 3.39,-2.54 -3.08,-2.87 -7.96,-5.72 -11.91,-9.3 -3.48,-3.16 -7.36,-2.1 -7.36,-2.1 z"
   class="st10" /><path
   style="fill:#ffba49;fill-opacity:1"
   id="path284"
   d="m 1031.3006,284.62 c 0,0 0.57,-2.35 2.48,-10.63 0,0 -3.16,-9.22 -2.48,-15.19 0.28,-2.51 2.18,-2.97 2.18,-2.97 0,0 1.4,-1.19 5.95,-1.56 0,0 2.88,-0.33 7.03,0.91 0,0 4.1,4.65 4.87,7.57 0.48,1.81 -1.83,7.22 -1.83,7.22 -0.21,1.95 -2.61,8.78 -1.27,11.82 0.54,1.18 -6.08,6.18 -16.93,2.83 z"
   class="st11" /><path
   style="fill:#e79f98;fill-opacity:1"
   id="path286"
   d="m 1043.2306,247.19 c 0,0 -1.25,4.3 -0.04,7.34 0.67,1.68 -3.24,2.42 -5.42,0.95 0,0 -0.26,-6.29 -1.98,-7.13 -1.72,-0.83 7.44,-1.16 7.44,-1.16 z"
   class="st13" /><path
   style="fill:#f9baad;fill-opacity:1"
   id="path288"
   d="m 1020.1106,293.55 c 0,0 -1.43,1.59 -4.05,1.76 -2.61,0.17 -0.06,-0.9 4.76,-3.59 z"
   class="st14" /><path
   style="fill:#f9baad;fill-opacity:1"
   id="path290"
   d="m 1019.7406,293.9 c 0,0 -1.33,0.31 -3.59,0.46 -2.26,0.14 -2.41,0.08 -3.88,0.02 -1.02,-0.04 -0.19,-0.55 -0.16,-0.6 0.02,-0.03 -0.13,0.05 -0.14,-0.21 0,-0.16 0.18,-0.54 0.34,-0.7 0.1,-0.1 0.47,-0.46 0.62,-0.63 0.75,-0.76 2.14,-2.21 6.51,-2.34 -0.01,-0.01 2.26,2.41 0.3,4 z"
   class="st14" /><path
   class="st11"
   d="m 1032.6906,256.66 c 2.49,-1.34 4.55,1.49 4.55,1.49 -1.93,5.72 -8.85,12.59 -13.25,19.21 -0.68,2.73 -2.17,9.34 -3.21,14.52 0,0 -0.86,1.86 -2.23,1.68 -1.37,-0.18 -1.65,-0.98 -1.65,-0.98 -1.32,-8.4 3.96,-29.56 15.79,-35.92 z"
   id="path294"
   style="fill:#ffba49;fill-opacity:1" /><path
   style="fill:#f9baad;fill-opacity:1"
   id="path298"
   d="m 1040.4406,237.28 c 0,0 -5.95,-1.84 -8.69,1.94 0,0 0.18,5.39 1.07,8.42 0.89,3.04 1.56,5.26 3.88,5.02 0,0 6.44,-1.32 6.56,-5.9 0.1,-4.12 -1.12,-8.72 -2.82,-9.48 z"
   class="st14" /><path
   style="fill:#830083;fill-opacity:1"
   id="path300"
   d="m 1033.5906,238.43 c 0,0 -1.97,1.1 -1.63,4.77 0,0 -3.31,-0.37 -2.69,-2.73 0.61,-2.37 4.14,-3.67 4.14,-3.67 0,0 3.47,-1.11 5.08,-0.9 1.61,0.21 -4.9,2.53 -4.9,2.53 z"
   class="st2" /><path
   style="fill:#b700b7;fill-opacity:1"
   id="path302"
   d="m 1032.6406,238.58 c 0,0 1.07,6.37 9.81,4.91 0,0 1.17,0.26 1.75,0.87 0,0 0.34,-4.16 0.73,-4.98 0.39,-0.82 -1.36,-8.25 -10.56,-2 z"
   class="st2" /><path
   style="fill:#e79f98;fill-opacity:1"
   id="path304"
   d="m 1074.7406,321.93 c 0,0 -4.21,-1.76 -5.57,-2.49 l -2.26,0.83 c 0,0 1.54,1.95 5.86,2.49 z"
   class="st13" /><path
   style="fill:#ffba49;fill-opacity:1"
   id="path306"
   d="m 1041.2306,234.94 c 0,0 0.31,-0.39 0.68,-0.59 0.37,-0.2 2.53,0.29 3.06,3.42 0,-0.01 -1.17,-2.71 -3.74,-2.83 z"
   class="st11" /><polygon
   transform="translate(567.14062)"
   style="fill:#007167;fill-opacity:1"
   id="polygon308"
   points="502.02,324.52 501.24,321.98 498.35,322.22 501.04,324.75 "
   class="st4" /><polygon
   transform="translate(567.14062)"
   style="fill:#007167;fill-opacity:1"
   id="polygon310"
   points="489.39,327.67 489.28,325.03 486.41,324.62 488.38,327.67 "
   class="st4" /><path
   style="fill:#f9baad;fill-opacity:1"
   id="path312"
   d="m 1042.2606,244.98 c -0.12,1.15 0.31,2.14 0.97,2.21 0.65,0.07 1.28,-0.81 1.4,-1.96 0.12,-1.15 -0.31,-2.14 -0.96,-2.21 -0.66,-0.07 -1.29,0.81 -1.41,1.96 z"
   class="st14" /><path
   style="fill:#b700b7;fill-opacity:1"
   id="path314"
   d="m 1040.7506,242.91 c 0,0 1.4,1.74 1.22,4.92 0,0 1.6,-3.46 0.47,-5.22 -1.12,-1.75 -1.69,0.3 -1.69,0.3 z"
   class="st2" /><path
   style="fill:#e79f98;fill-opacity:1"
   id="path316"
   d="m 1046.4606,255.17 c 0,0 -6.01,-2.11 -11.87,0.07 0,0 3.98,4.07 9.4,2.89 0,0 2.61,-1.16 2.47,-2.96 z"
   class="st13" /><path
   style="fill:#f58c76;fill-opacity:1"
   id="path320"
   d="m 1063.6006,284.3 c 0,0 -1.01,1.99 0.64,3.77 1.51,1.64 1.28,0 0.48,-4.83 z"
   class="st14" /><path
   style="fill:#f58c76;fill-opacity:1"
   id="path322"
   d="m 1063.3506,285.64 c 0,0 0.68,0.96 2.09,2.28 1.41,1.32 1.55,1.35 2.56,2.09 0.7,0.52 0.48,-0.33 0.49,-0.38 0.01,-0.03 0.06,0.11 0.23,-0.09 0.1,-0.12 0.22,-0.51 0.22,-0.73 0,-0.14 -0.01,-0.61 -0.02,-0.82 -0.01,-0.99 -0.02,-2.86 -2.83,-5.31 0.01,0.01 -3.04,0.68 -2.74,2.96 z"
   class="st14" />
<path
   style="fill:#6d466b;fill-opacity:1"
   id="path328"
   d="m 707.41062,36.23 h -67.61 c -4.18,0 -7.57,3.71 -7.57,8.29 v 40.3 c 0,4.58 3.39,8.29 7.57,8.29 h 56.12 c 3.82,4.12 12.75,13.56 14.93,14.47 2.8,1.17 4.14,1.11 4.14,-22.76 v -40.3 c -0.01,-4.58 -3.4,-8.29 -7.58,-8.29 z m -12.33,45.47 h -44.41 c -3.56,0 -6.45,-2.89 -6.45,-6.45 0,-3.56 2.89,-6.45 6.45,-6.45 h 44.42 c 3.56,0 6.45,2.89 6.45,6.45 -0.01,3.56 -2.9,6.45 -6.46,6.45 z m 0,-21.22 h -44.41 c -3.56,0 -6.45,-2.89 -6.45,-6.45 0,-3.56 2.89,-6.45 6.45,-6.45 h 44.42 c 3.56,0 6.45,2.89 6.45,6.45 -0.01,3.56 -2.9,6.45 -6.46,6.45 z"
   class="st4" />
<path
   class="st13"
   d="m 819.11062,217.07 c 0,0 1.74,-0.19 3.18,1.12 1.44,1.3 -0.54,0.57 -4.69,-0.4 z"
   id="path330"
   style="fill:#905d3b;fill-opacity:1" /><path
   class="st13"
   d="m 819.13062,217.36 c 0,0 0.95,0.37 2.38,1.27 1.42,0.9 1.48,1.01 2.33,1.7 0.59,0.48 -0.18,0.47 -0.22,0.49 -0.03,0.01 0.1,0.03 -0.02,0.21 -0.08,0.12 -0.38,0.3 -0.56,0.35 -0.12,0.03 -0.52,0.12 -0.7,0.17 -0.84,0.2 -2.41,0.61 -5.08,-1.23 -0.02,0 -0.12,-2.71 1.87,-2.96 z"
   id="path332"
   style="fill:#905d3b;fill-opacity:1" /><path
   style="fill:#faa229"
   id="path336"
   d="m 796.49062,187.56 c 0,0 0.71,0.14 -1.43,2.15 -4.82,4.52 0.63,22.85 21.9,31.1 0,0 3.48,-2.38 1.89,-4.12 -2.67,-2.92 -6.18,-4.58 -9.96,-11.23 -1.74,-3.06 -7.74,-13.29 -12.4,-17.9 z"
   class="st10" /><path
   style="fill:#2d3047;fill-opacity:1"
   id="path340"
   d="m 785.58062,215.95 c 0,0 26.34,2.98 38.62,5.29 0,0 -0.93,6.02 -3.82,6.7 -2.89,0.68 -34.02,6.74 -36.81,2.68 -2.81,-4.07 2.01,-14.67 2.01,-14.67 z"
   class="st3" /><path
   class="st10"
   d="m 817.57062,254.65 c 0,0 -0.65,0.37 -0.65,0.59 0,0.22 -0.2,3.2 0,3.71 0.2,0.51 9.31,1.07 9.31,1.07 0,0 4.58,-0.44 5.03,-1.06 0.45,-0.62 0.22,-1.05 -0.05,-1.11 -0.28,-0.06 -11.05,-3.58 -11.05,-3.58 z"
   id="path342"
   style="fill:#007167;fill-opacity:1" /><path
   class="st14"
   d="m 817.19062,250.88 c 0,0 0.14,4.53 0.18,4.65 0.24,0.68 2.13,0.72 2.68,0.16 l 0.63,-4.6 z"
   id="path344"
   style="fill:#a36943;fill-opacity:1" /><path
   class="st3"
   d="m 815.08062,220.82 c 0,0 0.15,4.03 -0.11,5.01 -0.26,0.98 1.16,21.07 1.68,27.77 0,0 3.12,0.99 4.04,-0.32 1.42,-2.01 3.49,-32.04 3.49,-32.04 z"
   id="path346"
   style="fill:#2d3047;fill-opacity:1" /><path
   style="fill:#6d466b;fill-opacity:1"
   id="path352"
   d="m 790.34062,212.4 c 0,0 17.48,19.91 26.44,28.63 0,0 -4.1,4.5 -6.89,3.46 -2.79,-1.04 -29.43,-12.33 -30.6,-17.12 -0.38,-1.54 -0.15,-4.88 2.08,-11.57 1,-3.01 8.97,-3.4 8.97,-3.4 z"
   class="st2" /><path
   class="st10"
   d="m 787.76062,268.75 c 0,0 -0.74,0.4 -0.74,0.65 0,0.25 -0.25,3.61 -0.04,4.18 0.22,0.58 10.49,1.3 10.49,1.3 0,0 5.16,-0.45 5.68,-1.14 0.51,-0.69 0.26,-1.18 -0.05,-1.25 -0.31,-0.07 -12.42,-4.16 -12.42,-4.16 z"
   id="path354"
   style="fill:#007167;fill-opacity:1" /><path
   class="st14"
   d="m 791.39062,264.7 c 0,0 -2.69,4.34 -2.73,4.48 -0.2,0.79 1.55,2.01 2.41,1.83 l 3.46,-3.92 z"
   id="path356"
   style="fill:#a36943;fill-opacity:1" /><path
   class="st2"
   d="m 808.48062,235.17 c 0,0 -2.35,3.84 -3.19,4.58 -0.84,0.75 -11.94,20.29 -15.59,26.83 0,0 2.29,2.85 3.95,2.2 2.56,-0.99 23.02,-27.61 23.02,-27.61 z"
   id="path358"
   style="fill:#6d466b;fill-opacity:1" /><path
   class="st11"
   d="m 792.76062,186.15 c 0,0 -7.76,-0.44 -8.99,2.74 0,0 -3.22,3.28 -4.2,13.07 -0.7,7.01 0.1,13.98 0.79,18.72 0,0 11.44,2.68 15.81,-2.28 0,0 7.81,-18.69 4.32,-26.58 -0.01,-0.01 -3.67,-5.69 -7.73,-5.67 z"
   id="path364"
   style="fill:#fdbc56" /><path
   class="st4"
   d="m 788.44062,186.69 c 0,0 7.13,4.04 9.11,7.68 0,0 -0.91,-6.05 -2.92,-7.49 z"
   id="path366"
   style="fill:#bcbec0;fill-opacity:1" /><path
   class="st13"
   d="m 787.91062,180.01 c 0,0 0.54,4.6 0.54,6.46 0,0.6 4.3,1.74 6.05,0.62 0.38,-0.24 0.34,-5.36 0.34,-5.36 z"
   id="path368"
   style="fill:#905d3b;fill-opacity:1" /><path
   class="st14"
   d="m 790.75062,168.16 c 0,0 6.73,-2.21 10.45,2.34 0,0 0.24,7.29 -1.04,11.89 -0.63,2.26 -1.3,3.27 -3.58,3.39 0,0 -8.17,0.26 -8.66,-5.49 -0.44,-5.19 0.76,-11.05 2.83,-12.13 z"
   id="path370"
   style="fill:#a36943;fill-opacity:1" /><path
   class="st2"
   d="m 789.39062,178.77 c 0,0 1.45,-6.43 6.07,-7.31 4.62,-0.88 5.64,0.74 6.24,0.4 1.42,-0.81 0.8,-2.73 0.8,-2.73 0,0 -0.59,-2.23 -4,-3.3 -1.06,-0.33 -10.53,-1.88 -13.61,4.82 -2.42,5.26 2.4,12.31 3.13,13.36 0.73,1.06 1.37,-5.24 1.37,-5.24 z"
   id="path372"
   style="fill:#999999" /><path
   class="st14"
   d="m 790.68062,176.6 c 0.09,1.48 -0.51,2.71 -1.35,2.77 -0.84,0.05 -1.59,-1.1 -1.68,-2.58 -0.09,-1.48 0.51,-2.71 1.35,-2.77 0.59,-0.04 1.15,0.53 1.45,1.39 0.12,0.36 0.2,0.76 0.23,1.19 z"
   id="path374"
   style="fill:#a36943;fill-opacity:1" /><path
   style="fill:#fdbc56"
   id="path376"
   d="m 788.73062,191.27 c 0,0 -4.16,-5.28 -5.38,-2.16 -5,12.83 1.36,35.73 16.45,38.49 0,0 1.91,-0.98 1.93,-3.77 0.02,-2.8 -7.47,-9.39 -7.47,-9.39 0.26,-5.81 -1.87,-16.24 -5.53,-23.17 z"
   class="st11" /><path
   class="st14"
   d="m 800.66062,223.97 c 0,0 2.61,-0.95 4.72,1.61 1.66,2.01 -0.85,1.66 -5.84,-0.53 z"
   id="path378"
   style="fill:#a36943;fill-opacity:1" /><path
   class="st14"
   d="m 801.59062,223.81 c 0,0 1.13,0.7 2.76,2.21 1.63,1.51 1.69,1.67 2.64,2.78 0.66,0.77 -0.28,0.59 -0.33,0.61 -0.03,0.01 0.12,0.06 -0.05,0.28 -0.11,0.13 -0.51,0.32 -0.74,0.34 -0.15,0.01 -0.66,0.05 -0.88,0.07 -1.06,0.09 -3.06,0.29 -6.11,-2.74 -0.01,-0.01 0.23,-3.65 2.71,-3.55 z"
   id="path380"
   style="fill:#a36943;fill-opacity:1" />
<path
   style="fill:#d89989;fill-opacity:1"
   id="path392"
   d="m 736.24062,120.64 c 0,0 -0.78,-2.27 0.5,-4.57 1.28,-2.3 0.92,0.55 0.91,6.38 z"
   class="st13" /><path
   style="fill:#d89989;fill-opacity:1"
   id="path394"
   d="m 736.15062,120.21 c 0,0 0.32,-1.73 1.63,-3.6 1.31,-1.87 1.47,-1.94 2.46,-3.04 0.69,-0.76 0.63,0.28 0.65,0.34 0.02,0.04 0.04,-0.14 0.28,0.05 0.15,0.12 0.38,0.54 0.43,0.8 0.03,0.16 0.13,0.72 0.18,0.96 0.22,1.17 0.08,3.38 -2.58,6.88 0,0.01 -2.85,0.34 -3.05,-2.39 z"
   class="st13" /><path
   class="st13"
   d="m 713.86062,139.01 c 0,0 -3.79,4.27 -1.27,4.31 11.98,0.2 24.79,-13.23 26.62,-20.71 0,0 -1.62,-4.3 -1.64,-1.89 -0.04,4.32 -10.11,9.88 -10.11,9.88 -5.73,2.28 -8.45,4.09 -13.6,8.41 z"
   id="path398"
   style="fill:#d89989;fill-opacity:1" /><path
   style="fill:#d89989;fill-opacity:1"
   id="path402"
   d="m 736.41062,121.37 c 0,0 -1.95,2.98 -8.96,9.22 l 4.67,0.98 7.17,-10 -2.54,-1.6 z"
   class="st13" /><path
   class="st2"
   d="m 716.72062,122.05 c 0,0 1.52,11.92 1.34,13.83 0,0 -5.29,0.71 -8.61,-0.21 0,-0.01 1.31,-12.46 7.27,-13.62 z"
   id="path406"
   style="fill:#1a1a1a" /><path
   class="st3"
   d="m 706.05062,232.24 c 0,0 -0.58,0.13 -0.63,0.3 -0.05,0.17 -0.88,2.41 -0.85,2.84 0.03,0.44 6.89,2.95 6.89,2.95 0,0 3.61,0.71 4.09,0.34 0.49,-0.37 0.41,-0.75 0.21,-0.86 -0.2,-0.11 -7.65,-5.27 -7.65,-5.27 z"
   id="path408"
   style="fill:#2d3047;fill-opacity:1" /><path
   class="st14"
   d="m 707.03062,229.36 c 0,0 -0.78,3.54 -0.78,3.64 0.05,0.57 1.51,0.98 2.04,0.65 l 1.39,-3.44 z"
   id="path410"
   style="fill:#d38b79;fill-opacity:1" /><path
   class="st10"
   d="m 720.91062,166.89 c 3.55,8.11 2.77,28.31 0.54,39.43 0,0 -6.38,-0.8 -7.27,-3.57 -0.89,-2.77 -2.46,-33.98 -2.46,-33.98 0,0 3.94,-13.85 9.19,-1.88 z"
   id="path412"
   style="fill:#2d3047;fill-opacity:1" /><path
   class="st10"
   d="m 716.87062,198.4 c 0,0 -3.32,5.84 -3.81,6.7 -0.49,0.86 -5.18,19.29 -6.81,25.77 0,0 2.04,1.78 3.13,0.79 1.67,-1.52 12.07,-25.33 12.07,-25.33 z"
   id="path414"
   style="fill:#2d3047;fill-opacity:1" /><path
   class="st3"
   d="m 703.36062,236.46 c 0,0 -0.54,0.27 -0.54,0.45 -0.01,0.18 -0.28,2.55 -0.14,2.96 0.14,0.41 7.4,1.21 7.4,1.21 0,0 3.67,-0.18 4.06,-0.65 0.38,-0.47 0.22,-0.83 0,-0.89 -0.22,-0.06 -8.69,-3.29 -8.69,-3.29 z"
   id="path416"
   style="fill:#2d3047;fill-opacity:1" /><path
   class="st14"
   d="m 703.49062,233.1 c 0,0 -0.09,3.65 -0.07,3.72 0.17,0.55 1.74,0.59 2.21,0.17 l 0.91,-3.51 z"
   id="path418"
   style="fill:#d38b79;fill-opacity:1" /><path
   class="st11"
   d="m 710.98062,167.57 c 0.09,1.33 8.51,-0.66 8.6,0.71 0.33,5.12 -1.33,15.94 -4.49,24.14 -3.17,22.05 -7.4,37.57 -8.58,42.21 -0.49,1.93 -3.79,0.07 -3.79,0.07 -0.35,-12.39 -0.88,-42.32 -1.93,-44.85 -1.58,-13.14 0.79,-19.27 2.3,-20.74 4.48,-4.36 4.52,-1.57 7.89,-1.54 z"
   id="path420"
   style="fill:#6d466b;fill-opacity:1" /><path
   class="st14"
   d="m 705.88062,127.22 c 0.43,1.52 0.08,2.95 -0.78,3.19 -0.86,0.24 -1.91,-0.79 -2.34,-2.31 -0.43,-1.52 -0.08,-2.95 0.78,-3.19 0.86,-0.25 1.91,0.79 2.34,2.31 z"
   id="path422"
   style="fill:#f79e8c" /><path
   class="st4"
   d="m 701.59062,170.58 c 0,0 3.17,-3.69 3.27,-8.24 l -3.54,-20.99 V 139 c 0,0 1.6,-1.36 6.78,-1.78 0,0 3.28,-0.37 8.02,1.03 0,0 3.7,3.8 4.58,7.12 0.55,2.07 -0.44,8.54 -0.22,10.07 0.3,2.11 1.23,13.58 1.51,15.03 0.28,1.45 -8.03,3.92 -20.4,0.11 z"
   id="path424"
   style="fill:#bcbec0;fill-opacity:1" /><path
   class="st13"
   d="m 703.95062,137.89 c 0,0 3.1,-0.76 3.63,-0.72 0.53,0.04 4.29,-0.1 6.41,0.53 1.32,0.39 0.99,5.63 0.86,5.76 -0.14,0.14 -6.08,-1.77 -10.9,-5.57 z"
   id="path426"
   style="fill:#d89989;fill-opacity:1" /><path
   class="st13"
   d="m 705.63062,129.06 c 0,0 1.42,5.52 1.62,8.69 0,0 2.5,2.24 4.67,0.16 0,0 0.84,-8.29 2.6,-9.57 1.76,-1.27 -8.89,0.72 -8.89,0.72 z"
   id="path428"
   style="fill:#d89989;fill-opacity:1" /><path
   class="st14"
   d="m 705.98062,176.77 c 0,0 1.52,0.74 2.17,2.93 0.65,2.19 -0.69,0.32 -3.73,-2.98 z"
   id="path430"
   style="fill:#d38b79;fill-opacity:1" /><path
   class="st14"
   d="m 706.32062,176.98 c 0,0 0.51,1.04 1.06,2.94 0.56,1.89 0.54,2.04 0.78,3.32 0.17,0.88 -0.39,0.33 -0.44,0.32 -0.03,-0.01 0.06,0.1 -0.13,0.18 -0.12,0.05 -0.45,0.01 -0.61,-0.07 -0.1,-0.05 -0.46,-0.26 -0.61,-0.34 -0.74,-0.41 -2.13,-1.16 -3.1,-4.86 0,0 1.44,-2.68 3.05,-1.49 z"
   id="path432"
   style="fill:#d38b79;fill-opacity:1" /><path
   style="fill:#d38b79;fill-opacity:1"
   id="path436"
   d="m 705.81062,178.42 0.8,-0.47 -0.88,-1.23 c 0,0 -1.27,-3.85 -2.46,-14.77 1.15,-7.08 1.15,-10.93 0.48,-18.78 0,0 -1.32,-6.49 -2.61,-4.05 -6.18,11.6 -2.46,32.87 2.26,39.53 0,0 0.23,0.07 0.56,0.15 l 0.17,0.59 0.68,-0.4 c 0.91,0.17 1.78,0.2 1,-0.57 z"
   class="st14" /><path
   class="st14"
   d="m 705.97062,117.51 c 0,0 6.32,-3.21 10.13,0.5 0,0 0.99,5.31 0.58,8.89 -0.41,3.58 -0.88,6.98 -3.53,7.17 0,0 -7.48,-0.24 -8.51,-5.36 -0.91,-4.62 -0.43,-10.02 1.33,-11.2 z"
   id="path440"
   style="fill:#d38b79;fill-opacity:1" /><path
   class="st2"
   d="m 717.14062,118.59 c -1.15,-2.54 -2.43,-2.37 -2.43,-2.37 0,0 -1.52,-0.36 -3.18,-0.59 -0.96,-0.21 -1.85,-0.25 -2.66,-0.19 -0.38,0.01 -0.71,0.05 -0.98,0.14 -2.54,0.5 -4.03,1.99 -4.03,1.99 -2.92,2.96 -2.15,14.9 -2.15,14.9 1.64,3.17 6.93,4.6 6.93,4.6 l -0.55,-12.2 c 3.11,-2.06 5.84,-6.11 6.63,-7.35 0.11,0.59 0.63,2.95 2.34,6.36 0.02,0 1.23,-2.75 0.08,-5.29 z"
   id="path442"
   style="fill:#333333" /><polygon
   transform="translate(567.14062)"
   class="st11"
   points="141.47,124.52 138.35,123.88 138.25,124.49 141,125.57 "
   id="polygon444"
   style="fill:#ffba49;fill-opacity:1" />
</svg>