<svg xmlns="http://www.w3.org/2000/svg" xmlns:xlink="http://www.w3.org/1999/xlink" width="100" height="100" viewBox="0 0 100 100"><g><circle stroke="none" fill="#ffba49" r="48%" cx="50%" cy="50%"></circle><g transform="translate(50 50) scale(0.69 0.69) rotate(0) translate(-50 -50)" style="fill:#009688"><svg fill="#009688" xmlns:dc="http://purl.org/dc/elements/1.1/" xmlns:cc="http://creativecommons.org/ns#" xmlns:rdf="http://www.w3.org/1999/02/22-rdf-syntax-ns#" xmlns:svg="http://www.w3.org/2000/svg" xmlns="http://www.w3.org/2000/svg" xmlns:sodipodi="http://sodipodi.sourceforge.net/DTD/sodipodi-0.dtd" xmlns:inkscape="http://www.inkscape.org/namespaces/inkscape" viewBox="0 0 64 64" version="1.1" x="0px" y="0px"><g transform="translate(0,-988.36216)"><path style="color:#000000;font-style:normal;font-variant:normal;font-weight:normal;font-stretch:normal;font-size:medium;line-height:normal;font-family:sans-serif;text-indent:0;text-align:start;text-decoration:none;text-decoration-line:none;text-decoration-style:solid;text-decoration-color:#000000;letter-spacing:normal;word-spacing:normal;text-transform:none;direction:ltr;block-progression:tb;writing-mode:lr-tb;baseline-shift:baseline;text-anchor:start;white-space:normal;clip-rule:nonzero;display:inline;overflow:visible;visibility:visible;opacity:1;isolation:auto;mix-blend-mode:normal;color-interpolation:sRGB;color-interpolation-filters:linearRGB;solid-color:#000000;solid-opacity:1;fill:#009688;fill-opacity:1;fill-rule:evenodd;stroke:none;stroke-width:0.99999994px;stroke-linecap:round;stroke-linejoin:miter;stroke-miterlimit:4;stroke-dasharray:none;stroke-dashoffset:0;stroke-opacity:1;color-rendering:auto;image-rendering:auto;shape-rendering:auto;text-rendering:auto;enable-background:accumulate" d="m 42.227143,991.85923 c -1.082613,0 -1.970703,0.88808 -1.970703,1.9707 0,1.08261 0.88809,1.97071 1.970703,1.97071 1.082615,0 1.970704,-0.8881 1.970704,-1.97071 0,-1.08262 -0.888089,-1.97071 -1.970704,-1.9707 z m -37.4550779,0.006 c -0.6761585,-0.01 -0.6761585,1.00956 0,1 l 3.1699218,0 c 0.6761585,0.01 0.6761585,-1.00956 0,-1 l -3.1699218,0 z m 4.7988281,0 c -0.6761585,-0.01 -0.6761585,1.00956 0,1 l 9.0468758,0 c 0.676158,0.01 0.676158,-1.00956 0,-1 l -9.0468758,0 z m 47.0976568,0.21289 c -0.131125,0.003 -0.255978,0.0566 -0.347657,0.15039 l -1.990234,2.04883 c -0.0018,0.002 -0.0021,0.004 -0.0039,0.006 l -7.394531,7.61916 c -1.038705,-0.5167 -2.205551,-0.8168 -3.44336,-0.8066 l 0,0 c -2.140456,0.017 -4.065983,0.9228 -5.4375,2.3593 -0.01423,-7e-4 -0.02417,-0.01 -0.03906,-0.01 l -14.679688,0 c -1.17762,-2.6538 -3.833621,-4.50982 -6.919922,-4.50976 -0.276131,3e-5 -0.499972,0.22387 -0.5,0.5 l 0,6.93556 -3.5,5.9902 c -0.140299,0.2389 -0.05973,0.5463 0.179688,0.6856 0.965377,0.5639 2.074969,0.9023 3.251953,0.9902 l 0,10.4922 c 0,0.6378 0.528063,1.166 1.166016,1.166 l 13.597656,0 0,6.7969 -0.898438,1.5566 -10.392578,6 c -0.362012,-0.1646 -0.732283,-0.327 -1.132812,-0.3281 -1.547394,0 -2.8125,1.2651 -2.8125,2.8125 0,1.5474 1.265132,2.8125 2.8125,2.8125 1.503925,0 2.697336,-1.2134 2.765625,-2.7012 l 9.658203,-5.5781 0,6.7168 c -0.759806,0.5187 -1.280657,1.328 -1.28125,2.2637 0,1.5474 1.265133,2.8125 2.8125,2.8125 1.547367,0 2.8125,-1.2651 2.8125,-2.8125 -0.0014,-0.9339 -0.523523,-1.7414 -1.28125,-2.2598 l 0,-6.7207 9.53125,5.5039 c -0.0013,0.031 -0.0075,0.061 -0.0078,0.092 0,1.5474 1.265133,2.8125 2.8125,2.8125 1.547368,0 2.8125,-1.2651 2.8125,-2.8125 0,-1.5474 -1.265106,-2.8125 -2.8125,-2.8125 l -0.002,0 c -0.338076,6e-4 -0.654725,0.1201 -0.96875,0.2383 l -10.46875,-6.043 -0.896484,-1.5566 0,-6.793 13.507812,0 c 0.637952,0 1.166016,-0.5282 1.166016,-1.166 l 0,-9.9492 c 3.2e-5,0 -0.002,0 -0.002,-0.01 1.730364,-1.4068 2.834121,-3.5521 2.814453,-5.9492 -0.01,-1.2152 -0.317849,-2.3574 -0.835938,-3.373 l 7.433594,-7.6524 1.978516,-2.03711 c 0.191747,-0.19717 0.188249,-0.51219 -0.0078,-0.70507 l -2.695312,-2.64258 c -0.09631,-0.0943 -0.226593,-0.14569 -0.361328,-0.14258 z m -14.441407,0.78125 c 0.542176,0 0.970704,0.42852 0.970704,0.9707 0,0.54217 -0.428529,0.97071 -0.970704,0.97071 -0.542174,0 -0.970703,-0.42854 -0.970703,-0.97071 0,-0.54218 0.428529,-0.9707 0.970703,-0.9707 z m -15.720703,0.4043 c -0.448017,1.4e-4 -0.669793,0.54405 -0.349609,0.85742 l 1.8125,1.8125 c 0.471253,0.49087 1.197901,-0.23578 0.707031,-0.70703 l -1.8125,-1.8125 c -0.09406,-0.0962 -0.222902,-0.15038 -0.357422,-0.15039 z m 6.048829,0 c -0.129761,0.004 -0.253031,0.0575 -0.34375,0.15039 l -1.8125,1.8125 c -0.490871,0.47125 0.235778,1.1979 0.707031,0.70703 l 1.8125,-1.8125 c 0.325266,-0.318 0.09144,-0.86989 -0.363281,-0.85742 z m 24.132812,0.0234 1.982422,1.94141 -1.001953,1.03125 -1.980469,-1.94141 1,-1.03125 z M 8.7310495,993.8652 c -0.6761585,-0.01 -0.6761585,1.00956 0,1 l 6.1562505,0 c 0.676158,0.01 0.676158,-1.00956 0,-1 l -6.1562505,0 z m 7.7558595,0 c -0.676158,-0.01 -0.676158,1.00956 0,1 l 2.564453,0 c 0.676159,0.01 0.676159,-1.00956 0,-1 l -2.564453,0 z m 38.503906,1.16797 0.634766,0.62109 -9.998047,10.29104 0.716797,0.6972 9.994141,-10.28707 0.632812,0.6211 -9.947265,10.24027 -2.71875,0.8105 0.746093,-2.75 9.939453,-10.24413 z m -26.677734,2.47254 c -0.12976,0.004 -0.25303,0.0575 -0.34375,0.1504 l -1.8125,1.8125 c -0.490198,0.47126 0.235758,1.19719 0.707031,0.70699 l 1.8125,-1.81246 c 0.325266,-0.31801 0.09144,-0.86989 -0.363281,-0.85743 z m 2.435547,0 c -0.448018,1.5e-4 -0.669794,0.54405 -0.349609,0.85743 l 1.8125,1.81246 c 0.471273,0.4902 1.197229,-0.23573 0.707031,-0.70699 l -1.8125,-1.8125 c -0.09406,-0.0962 -0.222903,-0.15038 -0.357422,-0.1504 z m -16.751953,1.84375 c -0.04483,0.004 -0.08884,0.015 -0.13086,0.0312 -2.929842,1.04644 -5.0254053,3.84794 -5.0253905,7.13094 7.3e-6,1.888 0.6943745,3.6209 1.8398445,4.9471 0.436199,0.5052 1.194012,-0.149 0.757812,-0.6543 -0.994944,-1.152 -1.5976501,-2.6493 -1.5976565,-4.2929 -1.29e-5,-2.858 1.8212535,-5.2823 4.3613285,-6.1895 0.567376,-0.1865 0.389309,-1.031 -0.205078,-0.97259 z m 2.916015,0.69334 c 3.22227,0.2546 5.802417,2.7502 6.046875,5.9688 l -6.046875,0 0,-5.9649 0,0 z m 26.583985,2.0528 c 0.964539,-0.01 1.875508,0.1997 2.703125,0.5625 l -2.046875,2.1074 -0.320313,1.1797 c -0.08723,-0.01 -0.174054,-0.02 -0.263672,-0.02 -0.01627,-8e-4 -0.03256,-8e-4 -0.04883,0 l 0,0 c -0.665945,0.033 -0.617735,1.0303 0.04687,1 l -0.697265,2.5723 2.447265,-0.7305 c -0.04013,0.9518 -0.817518,1.6993 -1.78125,1.6914 -0.984405,-0.01 -1.763926,-0.8003 -1.755859,-1.7813 0.01347,-0.6733 -1,-0.6851 -1,-0.012 -0.01252,1.5226 1.223906,2.7789 2.748047,2.791 1.523995,0.013 2.782455,-1.2215 2.794922,-2.7441 6.88e-4,-0.082 -0.0071,-0.1616 -0.01367,-0.2422 l 1.25,-0.373 2.023437,-2.0821 c 0.357775,0.8021 0.566538,1.6847 0.574219,2.6211 0.02992,3.6473 -2.895995,6.6187 -6.550781,6.6485 -0.674639,0 -0.666703,1.0132 0.0078,1 1.359371,-0.011 2.630267,-0.3844 3.730469,-1.0196 l 0,9.2676 c 0,0.1013 -0.06511,0.166 -0.166016,0.166 l -30.167968,0 c -0.100912,0 -0.166016,-0.065 -0.166016,-0.166 l 0,-10.4746 c 3.974182,-0.2255 7.13865,-3.519 7.138672,-7.5488 4e-6,-0.7147 -0.105233,-1.4048 -0.291016,-2.0606 l 13.554688,0 c -0.83147,1.2288 -1.313833,2.7124 -1.300782,4.3047 0,0.6734 1.013467,0.6616 1,-0.012 -0.0299,-3.6473 2.896002,-6.6186 6.550782,-6.6484 z m 0.01172,1.455 c -2.838706,0.023 -5.132621,2.3504 -5.109374,5.1856 0.01061,1.2948 0.518393,2.4604 1.320312,3.3594 l -3.453125,4.5781 c -0.31513,-0.1663 -0.667855,-0.2676 -1.046875,-0.2676 -0.633185,0 -1.206003,0.2634 -1.619141,0.6856 l -4.43164,-3.2696 c 0.200253,-0.338 0.322265,-0.7255 0.322265,-1.1445 0,-1.2485 -1.022921,-2.2714 -2.271484,-2.2715 -1.248563,0 -2.271484,1.023 -2.271484,2.2715 0,0.5467 0.203951,1.0423 0.529296,1.4355 l -3.537109,4.42 c -0.227916,-0.077 -0.467601,-0.127 -0.720703,-0.127 -1.248563,0 -2.271484,1.023 -2.271484,2.2715 0,1.2486 1.022921,2.2715 2.271484,2.2715 1.248563,0 2.271484,-1.0229 2.271484,-2.2715 0,-0.6332 -0.265265,-1.208 -0.6875,-1.6211 l 3.460938,-4.3281 c 0.291876,0.1372 0.612894,0.2207 0.955078,0.2207 0.474661,0 0.915617,-0.1505 1.28125,-0.4024 l 4.580078,3.3985 c -0.07974,0.2309 -0.132812,0.4754 -0.132812,0.7324 0,1.2486 1.022921,2.2715 2.271484,2.2715 1.248563,0 2.271484,-1.0229 2.271484,-2.2715 0,-0.5087 -0.175233,-0.9756 -0.460937,-1.3555 l 3.425781,-4.5469 c 0.875754,0.6639 1.955599,1.0722 3.136719,1.0625 2.838736,-0.023 5.132647,-2.3523 5.109375,-5.1875 -4e-6,-0.6734 -1.013463,-0.6635 -1,0.01 0.01883,2.2938 -1.817968,4.1589 -4.117188,4.1777 -2.299242,0.019 -4.166745,-1.8155 -4.185546,-4.1093 -0.01881,-2.2938 1.817974,-4.159 4.117187,-4.1778 0.674636,0 0.666699,-1.0132 -0.0078,-1 z m 12.890626,0.461 c -0.275389,0 -0.495444,0.2304 -0.492188,0.5058 l 0,5.0625 c -0.0096,0.6762 1.009563,0.6762 1,0 l 0,-5.0625 c 0.0033,-0.2815 -0.226308,-0.5102 -0.507812,-0.5058 z m 2,0 c -0.275389,0 -0.495444,0.2304 -0.492188,0.5058 l 0,1.7461 c -0.0096,0.6762 1.00956,0.6762 1,0 l 0,-1.7461 c 0.0033,-0.2815 -0.226308,-0.5102 -0.507812,-0.5058 z m -41.699219,3 6.257812,0 c -0.255771,3.3993 -3.078987,6.0703 -6.544922,6.0703 -1.027993,0 -1.949736,-0.3413 -2.814453,-0.7598 l 3.101563,-5.3105 z m 41.699219,0.2422 c -0.275389,0 -0.495444,0.2304 -0.492188,0.5058 l 0,5.0645 c -0.0096,0.6761 1.009563,0.6761 1,0 l 0,-5.0645 c 0.0033,-0.2815 -0.226308,-0.5102 -0.507812,-0.5058 z m -53.7812508,0.832 c -0.2753881,0 -0.4954434,0.2304 -0.4921875,0.5059 l 0,5.0625 c -0.00956,0.6761 1.0095626,0.6761 1,0 l 0,-5.0625 c 0.00333,-0.2816 -0.2263078,-0.5103 -0.5078125,-0.5059 z m 51.7812508,2.4844 c -0.276141,0 -0.496502,0.2316 -0.492188,0.5078 l 0,1.7461 c -0.0096,0.6761 1.00956,0.6761 1,0 l 0,-1.7461 c 0.0044,-0.2823 -0.225551,-0.5122 -0.507812,-0.5078 z m -29.179688,0.8359 c 0.708123,0 1.271484,0.5634 1.271484,1.2715 0,0.7082 -0.563361,1.2715 -1.271484,1.2715 -0.708123,0 -1.271484,-0.5633 -1.271484,-1.2715 0,-0.7081 0.563361,-1.2715 1.271484,-1.2715 z m -22.6015628,3.2383 c -0.27614,0 -0.4965014,0.2317 -0.4921875,0.5078 l 0,1.7461 c -0.00956,0.6762 1.0095597,0.6762 1,0 l 0,-1.7461 c 0.00441,-0.2823 -0.2255511,-0.5122 -0.5078125,-0.5078 z m 30.6015628,2.7617 c 0.708123,0 1.271484,0.5634 1.271484,1.2715 0,0.7082 -0.563361,1.2715 -1.271484,1.2715 -0.708123,0 -1.271484,-0.5633 -1.271484,-1.2715 0,-0.7081 0.563361,-1.2715 1.271484,-1.2715 z m 20.669922,0.7266 c -1.082615,0 -1.970703,0.8881 -1.970703,1.9707 0,1.0826 0.888088,1.9726 1.970703,1.9726 1.082615,0 1.970703,-0.89 1.970703,-1.9726 0,-1.0826 -0.888088,-1.9707 -1.970703,-1.9707 z m 0,1 c 0.542175,0 0.970703,0.4285 0.970703,0.9707 0,0.5422 -0.428528,0.9726 -0.970703,0.9726 -0.542175,0 -0.970703,-0.4304 -0.970703,-0.9726 0,-0.5422 0.428528,-0.9707 0.970703,-0.9707 z m -34.669922,0.2734 c 0.708123,0 1.271484,0.5634 1.271484,1.2715 0,0.7082 -0.563361,1.2715 -1.271484,1.2715 -0.708123,0 -1.271484,-0.5633 -1.271484,-1.2715 0,-0.7081 0.563361,-1.2715 1.271484,-1.2715 z m -13.8007815,5.7832 c -1.082615,0 -1.9726563,0.888 -1.9726563,1.9707 0,1.0826 0.8900414,1.9707 1.9726563,1.9707 1.0826147,0 1.9707031,-0.8881 1.9707031,-1.9707 0,-1.0827 -0.8880883,-1.9707 -1.9707031,-1.9707 z m 24.1894535,0.5117 1.0625,0 0,6.9278 c -1.73e-4,0.088 0.02273,0.1739 0.06641,0.25 l 1.03125,1.7871 c 0.04397,0.076 0.107298,0.1396 0.183594,0.1836 l 10.740234,6.2011 c 0.147953,0.085 0.329103,0.089 0.480469,0.01 0.258292,-0.1343 0.543904,-0.2046 0.833984,-0.2051 1.006923,0 1.8125,0.8056 1.8125,1.8125 0,1.007 -0.805551,1.8125 -1.8125,1.8125 -1.006948,0 -1.8125,-0.8055 -1.8125,-1.8125 0.001,-0.096 0.0091,-0.1922 0.02539,-0.2871 0.03552,-0.2062 -0.06111,-0.4127 -0.242188,-0.5176 l -10.55664,-6.0957 c -0.33356,-0.1925 -0.750386,0.049 -0.75,0.4336 l 0,7.7813 c -2.11e-4,0.1892 0.106369,0.3622 0.27539,0.4472 0.615417,0.3066 1.004839,0.9316 1.00586,1.6192 0,1.007 -0.805551,1.8125 -1.8125,1.8125 -1.006949,0 -1.8125,-0.8055 -1.8125,-1.8125 4.36e-4,-0.6881 0.38802,-1.3142 1.003906,-1.6211 0.169749,-0.084 0.277147,-0.2577 0.277344,-0.4473 l 0,-7.7793 c 3.86e-4,-0.3851 -0.416441,-0.6261 -0.75,-0.4336 l -10.621094,6.1348 c -0.169621,0.098 -0.266564,0.2856 -0.248047,0.4805 0.0047,0.05 0.0074,0.1007 0.0078,0.1523 0,1.007 -0.805552,1.8125 -1.8125,1.8125 -1.00695,0 -1.8125,-0.8055 -1.8125,-1.8125 0,-1.0063 0.804539,-1.8115 1.810547,-1.8125 0.33911,9e-4 0.671686,0.097 0.958984,0.2774 0.156767,0.099 0.355155,0.1021 0.515625,0.01 l 10.669922,-6.1601 c 0.07558,-0.044 0.138215,-0.1076 0.18164,-0.1836 l 1.03125,-1.7871 c 0.04436,-0.076 0.06794,-0.1621 0.06836,-0.25 l 0,-6.9278 z m -24.1894535,0.4883 c 0.5421747,0 0.9707031,0.4285 0.9707031,0.9707 0,0.5421 -0.4285284,0.9707 -0.9707031,0.9707 -0.5421748,0 -0.9726563,-0.4286 -0.9726563,-0.9707 0,-0.5422 0.4304815,-0.9707 0.9726563,-0.9707 z m 6.3828125,1.9063 c -0.45038,0 -0.673271,0.5461 -0.349609,0.8593 l 1.8125,1.8125 c 0.471325,0.4884 1.195433,-0.2357 0.707031,-0.707 l -1.8125,-1.8125 c -0.09374,-0.097 -0.222623,-0.1518 -0.357422,-0.1523 z m 6.048828,0 c -0.130032,0 -0.253341,0.059 -0.34375,0.1523 l -1.8125,1.8125 c -0.488363,0.4713 0.235707,1.1954 0.707032,0.707 l 1.8125,-1.8125 c 0.328894,-0.3178 0.09384,-0.8738 -0.363282,-0.8593 z m 22.38086,2.6601 c -0.676159,-0.01 -0.676159,1.0096 0,1 l 3.169922,0 c 0.676158,0.01 0.676158,-1.0095 0,-1 l -3.169922,0 z m 4.798828,0 c -0.676159,-0.01 -0.676159,1.0096 0,1 l 9.046875,0 c 0.676158,0.01 0.676158,-1.0095 0,-1 l -9.046875,0 z m -31.421875,1.584 c -0.129762,0 -0.253032,0.058 -0.34375,0.1504 l -1.8125,1.8125 c -0.488402,0.4713 0.235706,1.1954 0.707031,0.707 l 1.8125,-1.8125 c 0.325412,-0.318 0.09153,-0.8699 -0.363281,-0.8574 z m 2.435547,0 c -0.448113,10e-5 -0.669934,0.5441 -0.34961,0.8574 l 1.8125,1.8125 c 0.471325,0.4883 1.195395,-0.2357 0.707032,-0.707 l -1.8125,-1.8125 c -0.09406,-0.096 -0.222902,-0.1504 -0.357422,-0.1504 z m 28.146484,0.416 c -0.676158,-0.01 -0.676158,1.0096 0,1 l 6.15625,0 c 0.676159,0.01 0.676159,-1.0095 0,-1 l -6.15625,0 z m 7.757813,0 c -0.676159,-0.01 -0.676159,1.0096 0,1 l 2.5625,0 c 0.676158,0.01 0.676158,-1.0095 0,-1 l -2.5625,0 z m -48.7988288,5.2051 c -0.2753881,0 -0.4954434,0.2304 -0.4921875,0.5059 l 0,5.0644 c -0.00956,0.6762 1.0095626,0.6762 1,0 l 0,-5.0644 c 0.00333,-0.2816 -0.2263078,-0.5103 -0.5078125,-0.5059 z m 2,0 c -0.2753881,0 -0.4954434,0.2304 -0.4921875,0.5059 l 0,1.746 c -0.00956,0.6762 1.0095597,0.6762 1,0 l 0,-1.746 c 0.00333,-0.2816 -0.2263078,-0.5103 -0.5078125,-0.5059 z m 45.9238288,0.498 c -0.449433,10e-5 -0.670632,0.5469 -0.347657,0.8594 l 1.8125,1.8125 c 0.471325,0.4883 1.195395,-0.2357 0.707032,-0.707 l -1.8125,-1.8125 c -0.09421,-0.097 -0.223899,-0.1524 -0.359375,-0.1524 z m 6.050781,0 c -0.130033,0 -0.253341,0.059 -0.34375,0.1524 l -1.8125,1.8125 c -0.488402,0.4713 0.235706,1.1954 0.707031,0.707 l 1.8125,-1.8125 c 0.328894,-0.3178 0.09384,-0.8738 -0.363281,-0.8594 z m -51.9746098,2.7442 c -0.27614,0 -0.4965014,0.2317 -0.4921875,0.5078 l 0,5.0625 c -0.00956,0.6762 1.0095626,0.6762 1,0 l 0,-5.0625 c 0.00441,-0.2823 -0.2255511,-0.5122 -0.5078125,-0.5078 z m 50.1660158,1.498 c -0.449312,2e-4 -0.670455,0.5469 -0.347656,0.8594 l 1.8125,1.8125 c 0.471222,0.4919 1.198869,-0.2358 0.707031,-0.707 l -1.8125,-1.8125 c -0.09421,-0.097 -0.223898,-0.1524 -0.359375,-0.1524 z m -2.433594,0 c -0.129761,0 -0.253032,0.058 -0.34375,0.1504 l -1.8125,1.8125 c -0.491805,0.4712 0.235809,1.1988 0.707032,0.707 l 1.8125,-1.8125 c 0.32523,-0.318 0.09141,-0.8699 -0.363282,-0.8574 z m -49.7324218,1.8164 c -0.27614,0 -0.4965014,0.2317 -0.4921875,0.5078 l 0,1.7461 c -0.00956,0.6762 1.0095597,0.6762 1,0 l 0,-1.7461 c 0.00441,-0.2823 -0.2255511,-0.5122 -0.5078125,-0.5078 z"></path></g></svg></g></g></svg>