<svg xmlns="http://www.w3.org/2000/svg" xmlns:xlink="http://www.w3.org/1999/xlink" width="100" height="100" viewBox="0 0 100 100"><g><circle stroke="none" fill="#ffba49" r="48%" cx="50%" cy="50%"></circle><g transform="translate(50 50) scale(0.69 0.69) rotate(0) translate(-50 -50)" style="fill:#009688"><svg fill="#009688" xmlns="http://www.w3.org/2000/svg" viewBox="0 0 48 48" x="0px" y="0px"><title>16-Check list</title><g data-name="16-Check list"><path d="M30,11H10A2,2,0,0,1,8,9V7a2,2,0,0,1,2-2h1V2a2,2,0,0,1,2-2H27a2,2,0,0,1,2,2V5h1a2,2,0,0,1,2,2V9A2,2,0,0,1,30,11ZM10,7V9H30V7H28a1,1,0,0,1-1-1V2H13V6a1,1,0,0,1-1,1Z"></path><path d="M37,48H3a3,3,0,0,1-3-3V9A3,3,0,0,1,3,6H4A1,1,0,0,1,4,8H3A1,1,0,0,0,2,9V45a1,1,0,0,0,1,1H37a1,1,0,0,0,1-1V9a1,1,0,0,0-1-1H36a1,1,0,0,1,0-2h1a3,3,0,0,1,3,3V45A3,3,0,0,1,37,48Z"></path><path d="M24,6H16a1,1,0,0,1,0-2h8a1,1,0,0,1,0,2Z"></path><path d="M46,45H44a2,2,0,0,1-2-2V14a1,1,0,0,1,.071-.371l2-5a1,1,0,0,1,1.858,0l2,5A1,1,0,0,1,48,14V43A2,2,0,0,1,46,45ZM44,14.192V43h2V14.192l-1-2.5Z"></path><path d="M47,40H43a1,1,0,0,1,0-2h4a1,1,0,0,1,0,2Z"></path><path d="M27,43H7a2,2,0,0,1-2-2V16a2,2,0,0,1,2-2H33a2,2,0,0,1,2,2V35a1,1,0,0,1-.293.707l-7,7A1,1,0,0,1,27,43Zm6-27H7V41H26.586L33,34.586Zm1,19h0Z"></path><path d="M27,43a1,1,0,0,1-1-1V36a2,2,0,0,1,2-2h1a1,1,0,0,1,0,2H28v6A1,1,0,0,1,27,43Z"></path><path d="M14,22H12a1,1,0,0,1,0-2h2a1,1,0,0,1,0,2Z"></path><path d="M28,22H18a1,1,0,0,1,0-2H28a1,1,0,0,1,0,2Z"></path><path d="M14,27H12a1,1,0,0,1,0-2h2a1,1,0,0,1,0,2Z"></path><path d="M28,27H18a1,1,0,0,1,0-2H28a1,1,0,0,1,0,2Z"></path><path d="M14,32H12a1,1,0,0,1,0-2h2a1,1,0,0,1,0,2Z"></path><path d="M23,32H18a1,1,0,0,1,0-2h5a1,1,0,0,1,0,2Z"></path><path d="M14,37H12a1,1,0,0,1,0-2h2a1,1,0,0,1,0,2Z"></path><path d="M21,37H18a1,1,0,0,1,0-2h3a1,1,0,0,1,0,2Z"></path></g></svg></g></g></svg>