<svg xmlns="http://www.w3.org/2000/svg" xmlns:xlink="http://www.w3.org/1999/xlink" width="100" height="100" viewBox="0 0 100 100"><g><svg fill="white" xmlns="http://www.w3.org/2000/svg" data-name="Layer 1" viewBox="0 0 100 100" x="0px" y="0px"><title>Artboard 21</title><path d="M59.3,58.64,49.37,48.7l-6,3.13c-.68.43-1,.29-1.16.24a3,3,0,0,1-1.3-1.59l12.61-6.76c5.71-1.46,11,3.92,11,4l.29.31H70V46H65.67c-1.34-1.27-6.69-5.83-12.79-4.18L38.48,49.5l.21.77c.08.3.86,2.92,2.78,3.67a3.12,3.12,0,0,0,2.88-.38L49,51.15l8.94,8.94a1,1,0,0,1,0,1.42,1,1,0,0,1-1.41,0l-5.3-5.3-1.41,1.42.11.11-.09.08,5.3,5.3a1,1,0,0,1,0,1.41,1,1,0,0,1-1.42,0l-5.29-5.3-.12.12L47,60.65l-.11.11,5.3,5.3a1,1,0,1,1-1.42,1.41l-5.29-5.29-1.42,1.41,3.64,3.63a1.6,1.6,0,0,1-.63.2,3.84,3.84,0,0,1-2.34-.82L37.05,59H32v2h4.23l7.15,7.08a6,6,0,0,0,3.49,1.35,2.42,2.42,0,0,0,.38,0,3.64,3.64,0,0,0,1.88-.75l.23.23a3,3,0,0,0,2.12.87,3,3,0,0,0,3-2.94,3,3,0,0,0,2.07-.88,3,3,0,0,0,.87-2.16,3,3,0,0,0,1.94-.86,3,3,0,0,0,.87-2.12c0-.11,0-.23,0-.34L65.54,59H68V57H65.41Z"></path><path d="M81,36a3,3,0,0,0-3-3H22a3,3,0,0,0-3,3V77H14v5a3,3,0,0,0,3,3H83a3,3,0,0,0,3-3V77H81ZM21,36a1,1,0,0,1,1-1H78a1,1,0,0,1,1,1V77H21ZM84,79v3a1,1,0,0,1-1,1H17a1,1,0,0,1-1-1V79H47v1h6V79H84Z"></path><rect x="72" y="46" width="4" height="2"></rect><rect x="26" y="59" width="4" height="2"></rect><rect x="29" y="49" width="8" height="2"></rect><rect x="24" y="49" width="3" height="2"></rect><rect x="70" y="57" width="4" height="2"></rect><rect x="28" y="73" width="2" height="2"></rect><rect x="24" y="69" width="2" height="2"></rect><rect x="24" y="73" width="2" height="2"></rect><rect x="74" y="69" width="2" height="2"></rect><rect x="74" y="73" width="2" height="2"></rect><rect x="70" y="73" width="2" height="2"></rect></svg></g></svg>