<svg xmlns="http://www.w3.org/2000/svg" xmlns:xlink="http://www.w3.org/1999/xlink" width="100" height="100" viewBox="0 0 100 100"><g><circle stroke="none" fill="#ffba49" r="48%" cx="50%" cy="50%"></circle><g transform="translate(50 50) scale(0.69 0.69) rotate(0) translate(-50 -50)" style="fill:#009688"><svg fill="#009688" xmlns="http://www.w3.org/2000/svg" xmlns:xlink="http://www.w3.org/1999/xlink" version="1.1" x="0px" y="0px" viewBox="0 0 64 64" style="enable-background:new 0 0 64 64;" xml:space="preserve"><g><path d="M59,10V4H41.657C38.067,4,34.674,5.282,32,7.63C29.326,5.282,25.933,4,22.343,4H5v6H1v44h24.071   c0.486,3.388,3.408,6,6.929,6s6.442-2.612,6.929-6H63V10H59z M7,6h15.343C25.591,6,28.645,7.226,31,9.441V30h2V9.441   C35.355,7.226,38.409,6,41.657,6H57v42H33V32h-2v16H7V6z M61,52H37v1c0,2.757-2.243,5-5,5s-5-2.243-5-5v-1H3V12h2v38h54V12h2V52z"></path><path d="M24.998,18.29c-1.906-1.704-4.465-2.521-7.03-2.231c-4.078,0.456-7.4,3.741-7.898,7.812   c-0.364,2.971,0.728,5.863,2.931,7.833V34c0,3.309,2.691,6,6,6s6-2.691,6-6v-2.297c1.912-1.71,3-4.126,3-6.703   C28,22.442,26.906,19.996,24.998,18.29z M15,32h8v2h-8V32z M18,25c0-0.551,0.448-1,1-1s1,0.449,1,1s-0.448,1-1,1S18,25.551,18,25z    M19,38c-1.474,0-2.75-0.81-3.444-2h6.888C21.75,37.19,20.474,38,19,38z M23.886,30H20v-2.184c1.161-0.414,2-1.514,2-2.816   c0-1.654-1.346-3-3-3s-3,1.346-3,3c0,1.302,0.839,2.402,2,2.816V30h-3.878c-1.566-1.525-2.339-3.675-2.068-5.887   c0.388-3.162,2.969-5.713,6.137-6.067C18.465,18.015,18.738,18,19.01,18c1.726,0,3.354,0.618,4.655,1.781   C25.148,21.108,26,23.01,26,25C26,26.9,25.235,28.685,23.886,30z"></path><rect x="9" y="42" width="2" height="2"></rect><rect x="13" y="42" width="12" height="2"></rect><rect x="27" y="42" width="2" height="2"></rect><rect x="18" y="9" width="2" height="4"></rect><rect x="11" y="10.876" transform="matrix(0.866 -0.5 0.5 0.866 -4.83 7.7245)" width="2" height="4"></rect><rect x="24" y="11.876" transform="matrix(0.4999 -0.8661 0.8661 0.4999 1.8508 28.9568)" width="4" height="2"></rect><polygon points="54,19 52,19 52,8 50,8 50,19 48,19 48,11 46,11 46,19 44,19 44,14 42,14 42,19 40,19 40,17 38,17 38,19 36,19    36,21 54,21  "></polygon><rect x="36" y="24" width="18" height="2"></rect><rect x="36" y="28" width="8" height="2"></rect><rect x="46" y="28" width="8" height="2"></rect><path d="M38,46c1.654,0,3-1.346,3-3c0-0.462-0.113-0.894-0.301-1.285l3.015-3.015C44.106,38.887,44.538,39,45,39   s0.894-0.113,1.285-0.301l3.015,3.015C49.113,42.106,49,42.538,49,43c0,1.654,1.346,3,3,3s3-1.346,3-3s-1.346-3-3-3   c-0.462,0-0.894,0.113-1.285,0.301l-3.015-3.015C47.887,36.894,48,36.462,48,36c0-1.654-1.346-3-3-3s-3,1.346-3,3   c0,0.462,0.113,0.894,0.301,1.285l-3.015,3.015C38.894,40.113,38.462,40,38,40c-1.654,0-3,1.346-3,3S36.346,46,38,46z M52,42   c0.552,0,1,0.448,1,1s-0.448,1-1,1s-1-0.448-1-1S51.448,42,52,42z M45,35c0.552,0,1,0.448,1,1s-0.448,1-1,1s-1-0.448-1-1   S44.448,35,45,35z M38,42c0.552,0,1,0.448,1,1s-0.448,1-1,1s-1-0.448-1-1S37.448,42,38,42z"></path></g></svg></g></g></svg>